<svg xmlns="http://www.w3.org/2000/svg" xmlns:xlink="http://www.w3.org/1999/xlink" width="128" zoomAndPan="magnify" viewBox="0 0 96 95.999999" height="128" preserveAspectRatio="xMidYMid meet" version="1.0"><defs><clipPath id="7095c6dd66"><path d="M 0.164062 90 L 96 90 L 96 96 L 0.164062 96 Z M 0.164062 90 " clip-rule="nonzero"/></clipPath><clipPath id="ba1069491d"><path d="M 8 0.164062 L 89 0.164062 L 89 16 L 8 16 Z M 8 0.164062 " clip-rule="nonzero"/></clipPath></defs><path fill="#e0ac69" d="M 78.566406 34.042969 C 74.710938 32.132812 70.96875 32 67.367188 34.042969 L 64.964844 38.078125 C 63.867188 49.359375 64.035156 61.894531 64.964844 75.191406 L 67.367188 79.226562 L 78.566406 79.226562 L 80.96875 75.191406 C 82.246094 61.894531 82.472656 49.359375 80.96875 38.078125 Z M 78.566406 34.042969 " fill-opacity="1" fill-rule="nonzero"/><path fill="#e0ac69" d="M 38.566406 79.226562 L 57.765625 79.226562 L 60.164062 75.191406 C 61.746094 61.566406 62.160156 48.863281 60.164062 38.078125 L 57.765625 34.042969 C 51.492188 32.246094 45.121094 31.894531 38.566406 34.042969 L 36.164062 38.078125 C 34.042969 49.695312 34.273438 62.148438 36.164062 75.191406 Z M 38.566406 79.226562 " fill-opacity="1" fill-rule="nonzero"/><path fill="#e0ac69" d="M 17.761719 34.042969 C 21.722656 30.839844 25.410156 31.476562 28.964844 34.042969 L 31.367188 38.078125 C 32.96875 49.695312 32.792969 62.148438 31.367188 75.191406 L 28.964844 79.226562 L 17.761719 79.226562 L 15.363281 75.191406 C 14.160156 62.539062 14.0625 50.144531 15.363281 38.078125 Z M 17.761719 34.042969 " fill-opacity="1" fill-rule="nonzero"/><path fill="#c68642" d="M 91.367188 79.226562 L 91.367188 84.871094 L 48.085938 86.597656 L 4.964844 84.871094 L 4.964844 79.226562 L 8.164062 79.226562 C 11.363281 78.183594 14.5625 78.183594 17.761719 79.226562 L 28.964844 79.226562 C 32.507812 78.316406 35.808594 78.054688 38.566406 79.226562 L 57.765625 79.226562 C 60.964844 78.179688 64.164062 78.179688 67.367188 79.226562 L 78.566406 79.226562 C 81.769531 78.179688 84.96875 78.179688 88.167969 79.226562 Z M 91.367188 79.226562 " fill-opacity="1" fill-rule="nonzero"/><path fill="#e0ac69" d="M 93.765625 84.871094 L 93.765625 90.523438 L 47.644531 92.199219 L 2.566406 90.523438 L 2.566406 84.871094 Z M 93.765625 84.871094 " fill-opacity="1" fill-rule="nonzero"/><g clip-path="url(#7095c6dd66)"><path fill="#f1c27d" d="M 0.164062 90.523438 L 96.164062 90.523438 L 96.164062 96.164062 L 0.164062 96.164062 Z M 0.164062 90.523438 " fill-opacity="1" fill-rule="nonzero"/></g><path fill="#f1c27d" d="M 88.167969 75.191406 L 88.167969 79.226562 L 78.566406 79.226562 L 78.566406 75.191406 L 80.96875 75.191406 C 82.722656 73.40625 84.363281 72.960938 85.769531 75.191406 Z M 88.167969 75.191406 " fill-opacity="1" fill-rule="nonzero"/><path fill="#f1c27d" d="M 67.367188 75.191406 L 67.367188 79.226562 L 57.765625 79.226562 L 57.765625 75.191406 L 60.164062 75.191406 C 61.765625 72.585938 63.367188 72.585938 64.964844 75.191406 Z M 67.367188 75.191406 " fill-opacity="1" fill-rule="nonzero"/><path fill="#f1c27d" d="M 38.566406 75.191406 L 38.566406 79.226562 L 28.964844 79.226562 L 28.964844 75.191406 L 31.367188 75.191406 C 32.964844 73.183594 34.566406 73.183594 36.164062 75.191406 Z M 38.566406 75.191406 " fill-opacity="1" fill-rule="nonzero"/><path fill="#f1c27d" d="M 17.761719 75.191406 L 17.761719 79.226562 L 8.164062 79.226562 L 8.164062 75.191406 L 10.5625 75.191406 C 12.164062 71.75 13.761719 71.75 15.363281 75.191406 Z M 17.761719 75.191406 " fill-opacity="1" fill-rule="nonzero"/><path fill="#f1c27d" d="M 88.167969 34.042969 L 88.167969 38.078125 L 85.769531 38.078125 C 84.167969 40.144531 82.570312 40.144531 80.96875 38.078125 L 78.566406 38.078125 L 78.566406 34.042969 C 81.769531 30.550781 84.96875 30.550781 88.167969 34.042969 Z M 88.167969 34.042969 " fill-opacity="1" fill-rule="nonzero"/><path fill="#f1c27d" d="M 67.367188 34.042969 L 67.367188 38.078125 L 64.964844 38.078125 C 63.367188 39.683594 61.765625 39.683594 60.164062 38.078125 L 57.765625 38.078125 L 57.765625 34.042969 C 60.964844 32.070312 64.164062 32.070312 67.367188 34.042969 Z M 67.367188 34.042969 " fill-opacity="1" fill-rule="nonzero"/><path fill="#f1c27d" d="M 38.566406 34.042969 L 38.566406 38.078125 L 36.164062 38.078125 C 34.566406 39.070312 32.964844 39.070312 31.367188 38.078125 L 28.964844 38.078125 L 28.964844 34.042969 C 32.164062 32.070312 35.367188 32.070312 38.566406 34.042969 Z M 38.566406 34.042969 " fill-opacity="1" fill-rule="nonzero"/><path fill="#f1c27d" d="M 17.761719 34.042969 L 17.761719 38.078125 L 15.363281 38.078125 C 13.765625 39.820312 11.5625 39.539062 10.5625 38.078125 L 8.164062 38.078125 L 8.164062 34.042969 C 11.722656 30.367188 14.886719 30.738281 17.761719 34.042969 Z M 17.761719 34.042969 " fill-opacity="1" fill-rule="nonzero"/><g clip-path="url(#ba1069491d)"><path fill="#f1c27d" d="M 24.964844 13.070312 C 18.457031 17.144531 13.171875 15.734375 8.164062 13.070312 L 48.164062 0.164062 L 88.167969 13.070312 C 82.734375 15.882812 77.105469 15.410156 71.367188 13.070312 Z M 24.964844 13.070312 " fill-opacity="1" fill-rule="nonzero"/></g><path fill="#e0ac69" d="M 71.367188 13.070312 C 55.863281 18.519531 40.394531 18.546875 24.964844 13.070312 L 48.164062 6.621094 Z M 71.367188 13.070312 " fill-opacity="1" fill-rule="nonzero"/><path fill="#655f68" d="M 76.5625 63.496094 C 76.5625 63.976562 76.472656 64.4375 76.289062 64.882812 C 76.105469 65.328125 75.847656 65.722656 75.507812 66.0625 C 75.171875 66.402344 74.78125 66.664062 74.339844 66.847656 C 73.898438 67.035156 73.441406 67.125 72.964844 67.125 C 72.484375 67.125 72.027344 67.035156 71.585938 66.847656 C 71.144531 66.664062 70.753906 66.402344 70.417969 66.0625 C 70.078125 65.722656 69.820312 65.328125 69.636719 64.882812 C 69.453125 64.4375 69.363281 63.976562 69.363281 63.496094 C 69.363281 63.011719 69.453125 62.550781 69.636719 62.105469 C 69.820312 61.660156 70.078125 61.269531 70.417969 60.925781 C 70.753906 60.585938 71.144531 60.324219 71.585938 60.140625 C 72.027344 59.957031 72.484375 59.863281 72.964844 59.863281 C 73.441406 59.863281 73.898438 59.957031 74.339844 60.140625 C 74.78125 60.324219 75.171875 60.585938 75.507812 60.925781 C 75.847656 61.269531 76.105469 61.660156 76.289062 62.105469 C 76.472656 62.550781 76.5625 63.011719 76.5625 63.496094 Z M 76.5625 63.496094 " fill-opacity="1" fill-rule="nonzero"/><path fill="#655f68" d="M 76.5625 49.777344 C 76.5625 50.257812 76.472656 50.722656 76.289062 51.164062 C 76.105469 51.609375 75.847656 52.003906 75.507812 52.34375 C 75.171875 52.683594 74.78125 52.945312 74.339844 53.128906 C 73.898438 53.316406 73.441406 53.40625 72.964844 53.40625 C 72.484375 53.40625 72.027344 53.316406 71.585938 53.128906 C 71.144531 52.945312 70.753906 52.683594 70.417969 52.34375 C 70.078125 52.003906 69.820312 51.609375 69.636719 51.164062 C 69.453125 50.722656 69.363281 50.257812 69.363281 49.777344 C 69.363281 49.292969 69.453125 48.832031 69.636719 48.386719 C 69.820312 47.941406 70.078125 47.550781 70.417969 47.207031 C 70.753906 46.867188 71.144531 46.605469 71.585938 46.421875 C 72.027344 46.238281 72.484375 46.144531 72.964844 46.144531 C 73.441406 46.144531 73.898438 46.238281 74.339844 46.421875 C 74.78125 46.605469 75.171875 46.867188 75.507812 47.207031 C 75.847656 47.550781 76.105469 47.941406 76.289062 48.386719 C 76.472656 48.832031 76.5625 49.292969 76.5625 49.777344 Z M 76.5625 49.777344 " fill-opacity="1" fill-rule="nonzero"/><path fill="#655f68" d="M 26.96875 49.777344 C 26.96875 50.257812 26.878906 50.722656 26.695312 51.164062 C 26.511719 51.609375 26.25 52.003906 25.914062 52.34375 C 25.578125 52.683594 25.1875 52.945312 24.746094 53.128906 C 24.304688 53.316406 23.847656 53.40625 23.367188 53.40625 C 22.890625 53.40625 22.433594 53.316406 21.992188 53.128906 C 21.550781 52.945312 21.160156 52.683594 20.824219 52.34375 C 20.484375 52.003906 20.226562 51.609375 20.042969 51.164062 C 19.859375 50.722656 19.769531 50.257812 19.769531 49.777344 C 19.769531 49.292969 19.859375 48.832031 20.042969 48.386719 C 20.226562 47.941406 20.484375 47.550781 20.824219 47.207031 C 21.160156 46.867188 21.550781 46.605469 21.992188 46.421875 C 22.433594 46.238281 22.890625 46.144531 23.367188 46.144531 C 23.847656 46.144531 24.304688 46.238281 24.746094 46.421875 C 25.1875 46.605469 25.578125 46.867188 25.914062 47.207031 C 26.25 47.550781 26.511719 47.941406 26.695312 48.386719 C 26.878906 48.832031 26.96875 49.292969 26.96875 49.777344 Z M 26.96875 49.777344 " fill-opacity="1" fill-rule="nonzero"/><path fill="#655f68" d="M 26.96875 63.496094 C 26.96875 63.976562 26.878906 64.4375 26.695312 64.882812 C 26.511719 65.328125 26.25 65.722656 25.914062 66.0625 C 25.578125 66.402344 25.1875 66.664062 24.746094 66.847656 C 24.304688 67.035156 23.847656 67.125 23.367188 67.125 C 22.890625 67.125 22.433594 67.035156 21.992188 66.847656 C 21.550781 66.664062 21.160156 66.402344 20.824219 66.0625 C 20.484375 65.722656 20.226562 65.328125 20.042969 64.882812 C 19.859375 64.4375 19.769531 63.976562 19.769531 63.496094 C 19.769531 63.011719 19.859375 62.550781 20.042969 62.105469 C 20.226562 61.660156 20.484375 61.269531 20.824219 60.925781 C 21.160156 60.585938 21.550781 60.324219 21.992188 60.140625 C 22.433594 59.957031 22.890625 59.863281 23.367188 59.863281 C 23.847656 59.863281 24.304688 59.957031 24.746094 60.140625 C 25.1875 60.324219 25.578125 60.585938 25.914062 60.925781 C 26.25 61.269531 26.511719 61.660156 26.695312 62.105469 C 26.878906 62.550781 26.96875 63.011719 26.96875 63.496094 Z M 26.96875 63.496094 " fill-opacity="1" fill-rule="nonzero"/><path fill="#655f68" d="M 54.566406 61.472656 L 54.566406 79.226562 L 41.761719 79.226562 L 41.761719 61.472656 C 41.761719 57.914062 44.628906 55.023438 48.164062 55.023438 C 49.929688 55.023438 51.535156 55.746094 52.695312 56.914062 C 53.847656 58.082031 54.566406 59.695312 54.566406 61.472656 Z M 54.566406 61.472656 " fill-opacity="1" fill-rule="nonzero"/><path fill="#ffdbac" d="M 3.363281 13.070312 L 92.96875 13.070312 L 92.96875 34.042969 L 3.363281 34.042969 Z M 3.363281 13.070312 " fill-opacity="1" fill-rule="nonzero"/><path fill="#ffdbac" d="M 80.96875 38.078125 L 85.769531 38.078125 L 85.769531 75.191406 L 80.96875 75.191406 Z M 80.96875 38.078125 " fill-opacity="1" fill-rule="nonzero"/><path fill="#ffdbac" d="M 60.164062 38.078125 L 64.964844 38.078125 L 64.964844 75.191406 L 60.164062 75.191406 Z M 60.164062 38.078125 " fill-opacity="1" fill-rule="nonzero"/><path fill="#ffdbac" d="M 31.367188 38.078125 L 36.164062 38.078125 L 36.164062 75.191406 L 31.367188 75.191406 Z M 31.367188 38.078125 " fill-opacity="1" fill-rule="nonzero"/><path fill="#ffdbac" d="M 10.5625 38.078125 L 15.363281 38.078125 L 15.363281 75.191406 L 10.5625 75.191406 Z M 10.5625 38.078125 " fill-opacity="1" fill-rule="nonzero"/><path fill="#ce9c65" d="M 36.164062 38.078125 L 38.566406 38.078125 L 38.566406 75.191406 L 36.164062 75.191406 Z M 36.164062 38.078125 " fill-opacity="1" fill-rule="nonzero"/><path fill="#ce9c65" d="M 64.964844 38.078125 L 67.367188 38.078125 L 67.367188 75.191406 L 64.964844 75.191406 Z M 64.964844 38.078125 " fill-opacity="1" fill-rule="nonzero"/><path fill="#ce9c65" d="M 38.566406 34.042969 L 57.765625 34.042969 L 57.765625 36.714844 L 38.566406 36.714844 Z M 38.566406 34.042969 " fill-opacity="1" fill-rule="nonzero"/><path fill="#ce9c65" d="M 67.367188 34.042969 L 78.566406 34.042969 L 78.566406 36.714844 L 67.367188 36.714844 Z M 67.367188 34.042969 " fill-opacity="1" fill-rule="nonzero"/><path fill="#ce9c65" d="M 67.367188 76.453125 L 78.566406 76.453125 L 78.566406 79.226562 L 67.367188 79.226562 Z M 67.367188 76.453125 " fill-opacity="1" fill-rule="nonzero"/><path fill="#ce9c65" d="M 54.566406 76.453125 L 57.765625 76.453125 L 57.765625 79.226562 L 54.566406 79.226562 Z M 54.566406 76.453125 " fill-opacity="1" fill-rule="nonzero"/><path fill="#ce9c65" d="M 38.566406 76.453125 L 41.761719 76.453125 L 41.761719 79.226562 L 38.566406 79.226562 Z M 38.566406 76.453125 " fill-opacity="1" fill-rule="nonzero"/><path fill="#ce9c65" d="M 17.761719 76.453125 L 28.964844 76.453125 L 28.964844 79.226562 L 17.761719 79.226562 Z M 17.761719 76.453125 " fill-opacity="1" fill-rule="nonzero"/><path fill="#ce9c65" d="M 15.363281 38.078125 L 17.761719 38.078125 L 17.761719 75.191406 L 15.363281 75.191406 Z M 15.363281 38.078125 " fill-opacity="1" fill-rule="nonzero"/><path fill="#ce9c65" d="M 17.761719 34.042969 L 28.964844 34.042969 L 28.964844 36.714844 L 17.761719 36.714844 Z M 17.761719 34.042969 " fill-opacity="1" fill-rule="nonzero"/><path fill="#604533" d="M 88.964844 17.949219 C 88.539062 17.949219 88.191406 18.296875 88.191406 18.722656 L 88.191406 29.238281 L 8.140625 29.238281 L 8.140625 18.722656 C 8.140625 18.296875 7.792969 17.949219 7.367188 17.949219 C 6.9375 17.949219 6.589844 18.296875 6.589844 18.722656 L 6.589844 30.011719 C 6.589844 30.4375 6.9375 30.785156 7.367188 30.785156 L 88.964844 30.785156 C 89.394531 30.785156 89.738281 30.4375 89.738281 30.011719 L 89.738281 18.722656 C 89.738281 18.296875 89.394531 17.949219 88.964844 17.949219 Z M 88.964844 17.949219 " fill-opacity="1" fill-rule="nonzero"/><path fill="#604533" d="M 20.164062 27.5625 C 20.589844 27.5625 20.9375 27.21875 20.9375 26.789062 L 20.9375 19.824219 L 23.507812 23.96875 C 23.789062 24.425781 24.542969 24.425781 24.824219 23.96875 L 27.394531 19.824219 L 27.394531 26.71875 C 27.394531 27.148438 27.742188 27.496094 28.167969 27.496094 C 28.59375 27.496094 28.941406 27.148438 28.941406 26.71875 L 28.941406 17.105469 C 28.941406 16.757812 28.714844 16.453125 28.378906 16.359375 C 28.046875 16.265625 27.691406 16.402344 27.511719 16.695312 L 24.164062 22.089844 L 20.820312 16.695312 C 20.636719 16.402344 20.285156 16.265625 19.949219 16.359375 C 19.617188 16.453125 19.390625 16.757812 19.390625 17.105469 L 19.390625 26.789062 C 19.390625 27.21875 19.734375 27.5625 20.164062 27.5625 Z M 20.164062 27.5625 " fill-opacity="1" fill-rule="nonzero"/><path fill="#604533" d="M 34.5625 27.5625 C 36.757812 27.5625 38.542969 25.636719 38.542969 23.269531 L 38.542969 17.105469 C 38.542969 16.675781 38.195312 16.332031 37.769531 16.332031 C 37.339844 16.332031 36.992188 16.675781 36.992188 17.105469 L 36.992188 23.269531 C 36.992188 24.78125 35.902344 26.015625 34.5625 26.015625 C 33.933594 26.015625 33.332031 25.742188 32.875 25.242188 C 32.402344 24.714844 32.140625 24.015625 32.140625 23.269531 L 32.140625 17.105469 C 32.140625 16.675781 31.792969 16.332031 31.367188 16.332031 C 30.9375 16.332031 30.589844 16.675781 30.589844 17.105469 L 30.589844 23.269531 C 30.589844 24.398438 30.996094 25.46875 31.730469 26.28125 C 32.488281 27.109375 33.492188 27.5625 34.5625 27.5625 Z M 34.5625 27.5625 " fill-opacity="1" fill-rule="nonzero"/><path fill="#604533" d="M 76.84375 16.363281 C 76.507812 16.269531 76.15625 16.40625 75.972656 16.699219 L 72.628906 22.089844 L 69.289062 16.699219 C 69.105469 16.40625 68.75 16.269531 68.417969 16.363281 C 68.085938 16.457031 67.855469 16.761719 67.855469 17.105469 L 67.855469 26.789062 C 67.855469 27.214844 68.203125 27.5625 68.628906 27.5625 C 69.058594 27.5625 69.402344 27.214844 69.402344 26.789062 L 69.402344 19.824219 L 71.972656 23.96875 C 72.253906 24.425781 73.003906 24.425781 73.289062 23.96875 L 75.855469 19.824219 L 75.855469 26.71875 C 75.855469 27.148438 76.203125 27.496094 76.628906 27.496094 C 77.058594 27.496094 77.402344 27.148438 77.402344 26.71875 L 77.402344 17.105469 C 77.40625 16.761719 77.175781 16.457031 76.84375 16.363281 Z M 76.84375 16.363281 " fill-opacity="1" fill-rule="nonzero"/><path fill="#604533" d="M 64.769531 16.332031 C 64.339844 16.332031 63.996094 16.679688 63.996094 17.105469 L 63.996094 23.269531 C 63.996094 24.78125 62.90625 26.015625 61.570312 26.015625 C 60.230469 26.015625 59.144531 24.78125 59.144531 23.269531 L 59.144531 17.105469 C 59.144531 16.679688 58.796875 16.332031 58.367188 16.332031 C 57.941406 16.332031 57.59375 16.679688 57.59375 17.105469 L 57.59375 23.269531 C 57.59375 25.636719 59.378906 27.5625 61.570312 27.5625 C 63.761719 27.5625 65.542969 25.636719 65.542969 23.269531 L 65.542969 17.105469 C 65.542969 16.679688 65.195312 16.332031 64.769531 16.332031 Z M 64.769531 16.332031 " fill-opacity="1" fill-rule="nonzero"/><path fill="#604533" d="M 49.769531 27.5625 L 55.367188 27.5625 C 55.792969 27.5625 56.140625 27.21875 56.140625 26.789062 C 56.140625 26.363281 55.792969 26.015625 55.367188 26.015625 L 50.542969 26.015625 L 50.542969 22.71875 L 55.367188 22.71875 C 55.792969 22.71875 56.140625 22.371094 56.140625 21.945312 C 56.140625 21.515625 55.792969 21.167969 55.367188 21.167969 L 50.542969 21.167969 L 50.542969 17.878906 L 55.367188 17.878906 C 55.792969 17.878906 56.140625 17.535156 56.140625 17.105469 C 56.140625 16.675781 55.792969 16.332031 55.367188 16.332031 L 49.769531 16.332031 C 49.339844 16.332031 48.992188 16.675781 48.992188 17.105469 L 48.992188 26.789062 C 48.992188 27.21875 49.339844 27.5625 49.769531 27.5625 Z M 49.769531 27.5625 " fill-opacity="1" fill-rule="nonzero"/><path fill="#604533" d="M 44.765625 25.71875 C 44.488281 25.875 44.210938 25.964844 43.90625 25.996094 C 43.011719 26.097656 42.109375 25.679688 41.609375 24.933594 C 41.371094 24.578125 40.890625 24.484375 40.535156 24.722656 C 40.179688 24.960938 40.082031 25.441406 40.324219 25.796875 C 41.058594 26.898438 42.332031 27.5625 43.644531 27.5625 C 43.785156 27.5625 43.929688 27.554688 44.070312 27.539062 C 44.585938 27.484375 45.058594 27.332031 45.523438 27.070312 C 46.769531 26.371094 47.449219 25.011719 47.21875 23.703125 C 47.171875 23.417969 47.082031 23.152344 46.949219 22.902344 C 46.339844 21.730469 45.082031 21.46875 43.976562 21.230469 C 43.433594 21.121094 42.925781 21.011719 42.535156 20.816406 C 42.308594 20.703125 42.09375 20.511719 41.976562 20.324219 C 41.972656 20.3125 41.964844 20.300781 41.960938 20.289062 C 41.902344 20.175781 41.859375 20.046875 41.835938 19.941406 C 41.722656 19.257812 42.09375 18.550781 42.761719 18.175781 C 43.035156 18.023438 43.324219 17.929688 43.621094 17.898438 C 44.519531 17.796875 45.421875 18.214844 45.917969 18.960938 C 46.15625 19.316406 46.636719 19.410156 46.996094 19.171875 C 47.347656 18.933594 47.445312 18.453125 47.207031 18.097656 C 46.390625 16.878906 44.914062 16.195312 43.457031 16.359375 C 42.953125 16.410156 42.464844 16.566406 42.003906 16.824219 C 40.765625 17.519531 40.085938 18.875 40.316406 20.230469 C 40.367188 20.46875 40.441406 20.699219 40.542969 20.914062 C 40.554688 20.945312 40.570312 20.976562 40.585938 21.007812 C 40.847656 21.496094 41.304688 21.933594 41.847656 22.203125 C 42.414062 22.484375 43.046875 22.617188 43.65625 22.746094 C 44.679688 22.964844 45.320312 23.128906 45.582031 23.628906 C 45.636719 23.734375 45.671875 23.835938 45.691406 23.960938 C 45.8125 24.636719 45.441406 25.34375 44.765625 25.71875 Z M 44.765625 25.71875 " fill-opacity="1" fill-rule="nonzero"/></svg>