<svg xmlns="http://www.w3.org/2000/svg" xmlns:xlink="http://www.w3.org/1999/xlink" width="128" zoomAndPan="magnify" viewBox="0 0 96 95.999999" height="128" preserveAspectRatio="xMidYMid meet" version="1.0"><defs><clipPath id="104896c213"><path d="M 1.320312 32 L 22 32 L 22 42 L 1.320312 42 Z M 1.320312 32 " clip-rule="nonzero"/></clipPath><clipPath id="95d8285d52"><path d="M 1.320312 31 L 21 31 L 21 39 L 1.320312 39 Z M 1.320312 31 " clip-rule="nonzero"/></clipPath><clipPath id="6d87d70aad"><path d="M 10 33 L 94.320312 33 L 94.320312 96 L 10 96 Z M 10 33 " clip-rule="nonzero"/></clipPath><clipPath id="82280ba18c"><path d="M 51 43 L 94.320312 43 L 94.320312 83 L 51 83 Z M 51 43 " clip-rule="nonzero"/></clipPath><clipPath id="ee575b511b"><path d="M 52 44 L 94.320312 44 L 94.320312 83 L 52 83 Z M 52 44 " clip-rule="nonzero"/></clipPath></defs><path fill="#d59b65" d="M 23.136719 58.328125 C 23.09375 57.199219 23.050781 56.070312 23.007812 54.941406 C 25.207031 54.453125 27.445312 54.132812 29.695312 53.972656 C 30.300781 52.34375 32.238281 51.34375 33.910156 51.804688 C 33.296875 50.429688 34.414062 48.957031 34.863281 47.519531 C 35.167969 46.546875 35.164062 45.507812 35.15625 44.488281 C 35.066406 33.148438 34.980469 21.804688 34.894531 10.464844 C 30.984375 13.019531 26.460938 15.378906 21.863281 14.578125 C 17.5 13.820312 14.035156 10.355469 9.738281 9.273438 C 8.847656 9.046875 7.449219 9.46875 7.78125 10.328125 C 8.351562 10.160156 8.960938 10.855469 8.71875 11.398438 C 8.578125 12.78125 6.292969 12.996094 5.597656 11.792969 C 4.902344 10.589844 5.65625 8.949219 6.855469 8.257812 C 8.0625 7.566406 9.535156 7.59375 10.910156 7.757812 C 12.769531 7.980469 14.601562 8.414062 16.355469 9.054688 C 17.867188 9.605469 19.359375 10.308594 20.960938 10.390625 C 25.75 10.625 30.078125 5.296875 34.582031 6.945312 C 34.769531 6.171875 34.960938 5.40625 35.148438 4.632812 C 33.90625 4.785156 32.65625 3.726562 32.59375 2.472656 C 32.53125 1.222656 33.671875 0.0429688 34.917969 0.0625 C 36.257812 0.0859375 37.332031 1.316406 37.644531 2.628906 C 37.953125 3.9375 37.679688 5.308594 37.402344 6.625 C 39.171875 5.671875 41.378906 6.160156 43.183594 7.042969 C 44.992188 7.921875 46.628906 9.171875 48.535156 9.796875 C 52.371094 11.054688 56.507812 9.585938 60.296875 8.191406 C 61.449219 7.765625 62.636719 7.339844 63.863281 7.378906 C 65.089844 7.414062 66.378906 8.027344 66.867188 9.160156 C 67.351562 10.292969 66.660156 11.875 65.4375 11.992188 C 64.214844 12.109375 63.324219 10.210938 64.332031 9.511719 C 56.28125 12.886719 50.347656 17.691406 38.523438 10.53125 C 38.570312 23.046875 38.199219 35.5625 37.292969 48.019531 C 38.597656 48.683594 39.386719 50.234375 39.164062 51.683594 C 40.269531 51.578125 41.421875 51.472656 42.457031 51.871094 C 43.492188 52.265625 44.371094 53.324219 44.179688 54.421875 C 45.421875 53.898438 49.046875 54.730469 49.902344 54.820312 C 50.457031 54.878906 50.03125 56.527344 49.433594 57.738281 C 48.761719 59.101562 46.945312 59.207031 45.4375 59.378906 C 37.6875 60.261719 33.78125 60.53125 23.558594 59.085938 C 23.703125 58.882812 21.976562 58.679688 23.136719 58.332031 Z M 23.136719 58.328125 " fill-opacity="1" fill-rule="nonzero"/><path fill="#f3bb57" d="M 8.273438 11.5 C 7.769531 11.328125 7.269531 11.160156 6.765625 10.984375 C 6.589844 10.113281 7.171875 9.21875 7.957031 8.800781 C 8.742188 8.382812 9.671875 8.351562 10.558594 8.4375 C 15.371094 8.90625 19.601562 12.476562 24.4375 12.382812 C 26.332031 12.347656 28.167969 11.742188 29.964844 11.140625 C 31.683594 10.570312 33.398438 9.996094 35.21875 9.714844 C 35.136719 10.058594 35.058594 10.40625 34.976562 10.753906 C 31.609375 13.242188 27.660156 15.421875 23.492188 15.085938 C 19.847656 14.792969 16.664062 12.632812 13.457031 10.878906 C 12.035156 10.101562 10.492188 9.375 8.878906 9.480469 C 8.523438 9.503906 8.132812 9.589844 7.925781 9.882812 C 7.71875 10.171875 7.875 10.699219 8.230469 10.695312 C 8.359375 10.691406 8.476562 10.625 8.601562 10.632812 C 8.894531 10.648438 9.023438 11.054688 8.890625 11.316406 C 8.753906 11.578125 8.46875 11.714844 8.273438 11.5 Z M 8.273438 11.5 " fill-opacity="1" fill-rule="nonzero"/><path fill="#f3bb57" d="M 38.269531 10.429688 C 39.976562 9.449219 42.125 9.285156 43.957031 10.003906 C 44.980469 10.40625 45.882812 11.050781 46.847656 11.566406 C 51.023438 13.785156 56.394531 13.324219 60.308594 10.667969 C 61.097656 10.132812 61.847656 9.507812 62.742188 9.183594 C 63.636719 8.855469 64.746094 8.898438 65.414062 9.578125 C 66.078125 10.261719 65.929688 11.652344 65.023438 11.941406 C 64.585938 12.078125 63.992188 11.824219 63.972656 11.359375 C 63.953125 10.820312 64.632812 10.179688 64.191406 9.871094 C 59.625 11.183594 55.933594 15.351562 51.183594 15.351562 C 46.382812 15.351562 42.242188 11 38.273438 10.429688 Z M 38.269531 10.429688 " fill-opacity="1" fill-rule="nonzero"/><path fill="#f3bb57" d="M 37.070312 7.46875 C 37.304688 21.238281 37.238281 35.007812 36.835938 48.796875 C 37.976562 49.449219 38.367188 51.128906 37.632812 52.21875 C 38.550781 51.988281 39.585938 51.996094 40.375 52.523438 C 41.164062 53.050781 41.5625 54.207031 41.121094 55.0625 C 42.238281 54.789062 43.382812 54.640625 44.625 54.65625 C 44.515625 52.566406 42.207031 50.898438 40.199219 51.453125 C 40.589844 49.75 39.296875 47.851562 37.570312 47.609375 C 38.3125 33.371094 38.539062 19.105469 37.941406 4.753906 C 38.691406 4.003906 38.867188 2.742188 38.351562 1.808594 C 37.835938 0.878906 36.675781 0.363281 35.644531 0.609375 C 36.582031 0.867188 37.105469 2.097656 36.640625 2.957031 C 36.546875 3.132812 36.417969 3.292969 36.363281 3.488281 C 36.324219 3.644531 36.332031 3.804688 36.34375 3.964844 C 36.445312 5.546875 36.546875 7.132812 37.070312 7.46875 Z M 37.070312 7.46875 " fill-opacity="1" fill-rule="nonzero"/><path fill="#f3bb57" d="M 28.328125 56.425781 C 35.28125 56.132812 42.238281 55.835938 49.1875 55.539062 C 49.953125 56.210938 49.660156 57.5625 48.871094 58.203125 C 48.085938 58.847656 47.011719 58.976562 46 59.0625 C 38.773438 59.671875 31.496094 59.460938 24.273438 58.816406 C 24.140625 58.804688 23.996094 58.789062 23.886719 58.707031 C 23.648438 58.527344 23.707031 58.160156 23.804688 57.878906 C 24.027344 57.25 24.351562 56.601562 24.234375 55.945312 C 24.117188 55.285156 23.265625 54.738281 22.773438 55.1875 C 22.605469 56.101562 22.4375 57.015625 22.273438 57.925781 C 22.230469 58.160156 22.191406 58.410156 22.300781 58.617188 C 22.449219 58.886719 22.789062 58.972656 23.09375 59.023438 C 30.769531 60.402344 38.652344 60.621094 46.390625 59.675781 C 47.15625 59.582031 47.9375 59.472656 48.613281 59.105469 C 50.066406 58.324219 50.710938 56.316406 49.988281 54.828125 C 42.070312 54.773438 34.148438 54.914062 28.328125 56.425781 Z M 28.328125 56.425781 " fill-opacity="1" fill-rule="nonzero"/><g clip-path="url(#104896c213)"><path fill="#b16f2f" d="M 1.320312 34.617188 C 1.785156 37.476562 4.117188 39.800781 6.839844 40.761719 C 9.5625 41.722656 12.589844 41.464844 15.339844 40.59375 C 17.515625 39.910156 19.691406 38.738281 20.800781 36.738281 C 21.386719 35.679688 21.597656 34.257812 20.84375 33.304688 C 20.117188 32.390625 18.804688 32.246094 17.636719 32.207031 C 13.714844 32.070312 9.78125 32.28125 5.894531 32.839844 C 4.003906 33.109375 1.992188 33.527344 1.320312 34.621094 Z M 1.320312 34.617188 " fill-opacity="1" fill-rule="nonzero"/></g><g clip-path="url(#95d8285d52)"><path fill="#d59b65" d="M 20.269531 33.25 C 15.765625 32.035156 11.035156 31.667969 6.398438 32.175781 C 4.835938 32.351562 3.191406 32.660156 2.027344 33.722656 C 1.855469 33.878906 1.691406 34.058594 1.625 34.28125 C 1.5 34.707031 1.765625 35.144531 2.054688 35.484375 C 3.332031 36.984375 5.269531 37.753906 7.195312 38.148438 C 11.136719 38.960938 15.347656 38.390625 18.933594 36.558594 C 19.601562 36.21875 20.289062 35.792969 20.589844 35.105469 C 20.886719 34.414062 20.601562 33.34375 20.269531 33.253906 Z M 20.269531 33.25 " fill-opacity="1" fill-rule="nonzero"/></g><path fill="#b16f2f" d="M 71.59375 34.015625 C 71.789062 36.464844 70.078125 38.789062 67.882812 39.878906 C 65.691406 40.972656 63.117188 41.027344 60.691406 40.691406 C 57.375 40.230469 53.855469 38.820312 52.351562 35.820312 C 52.074219 35.265625 51.882812 34.570312 52.214844 34.046875 C 52.363281 33.804688 52.605469 33.636719 52.851562 33.496094 C 53.90625 32.886719 55.128906 32.65625 56.335938 32.480469 C 59.507812 32.015625 62.71875 31.859375 65.921875 32.007812 C 68.054688 32.105469 70.289062 32.382812 71.59375 34.019531 Z M 71.59375 34.015625 " fill-opacity="1" fill-rule="nonzero"/><path fill="#d59b65" d="M 71.019531 33.957031 C 69.289062 36.59375 65.992188 36.636719 63.113281 36.691406 C 59.746094 36.753906 56.285156 36.460938 53.261719 34.976562 C 52.988281 34.84375 52.691406 34.660156 52.640625 34.359375 C 52.589844 34.058594 52.816406 33.78125 53.054688 33.59375 C 53.789062 33.023438 54.742188 32.847656 55.65625 32.707031 C 60.960938 31.878906 66.5 31.546875 71.019531 33.957031 Z M 71.019531 33.957031 " fill-opacity="1" fill-rule="nonzero"/><path fill="#c78241" d="M 10.800781 7.851562 C 10.363281 8.996094 10.296875 10.28125 10.621094 11.464844 C 9.875 11.71875 9.59375 12.816406 10.125 13.398438 C 7.515625 20.078125 4.902344 26.757812 2.292969 33.4375 C 2.453125 33.476562 2.613281 33.515625 2.777344 33.550781 C 5.613281 26.773438 8.289062 19.925781 10.804688 13.023438 C 11.867188 20.886719 13.226562 28.710938 14.867188 36.472656 C 15.152344 36.613281 15.300781 36.121094 15.246094 35.808594 C 13.894531 28.457031 12.539062 21.105469 11.1875 13.757812 C 13.644531 20.472656 16.105469 27.183594 18.5625 33.898438 C 18.851562 33.886719 19.132812 33.757812 19.332031 33.550781 C 16.945312 26.714844 14.371094 19.945312 11.601562 13.253906 C 12.070312 13.273438 12.507812 12.851562 12.511719 12.378906 C 12.511719 11.910156 12.078125 11.484375 11.609375 11.496094 C 12.066406 10.792969 12.539062 10.046875 12.574219 9.210938 C 12.609375 8.375 12.023438 7.449219 10.800781 7.855469 Z M 10.800781 7.851562 " fill-opacity="1" fill-rule="nonzero"/><path fill="#cc8745" d="M 61.398438 8.21875 C 61.457031 8.945312 61.515625 9.667969 61.574219 10.394531 C 60.902344 10.714844 60.449219 11.449219 60.460938 12.195312 C 60.472656 12.941406 60.949219 13.660156 61.628906 13.957031 C 59.289062 20.816406 57.054688 27.714844 54.929688 34.648438 C 54.800781 35.054688 54.863281 35.710938 55.285156 35.65625 C 57.179688 28.550781 59.4375 21.539062 62.046875 14.664062 C 61.105469 20.515625 60.496094 26.414062 60.214844 32.332031 L 60.804688 32.308594 C 61.402344 26.53125 62 20.753906 62.59375 14.976562 C 62.550781 16.011719 63.230469 16.910156 63.753906 17.800781 C 64.722656 19.464844 65.222656 21.355469 65.710938 23.222656 C 66.804688 27.382812 67.894531 31.546875 68.984375 35.710938 C 69.222656 35.589844 69.460938 35.464844 69.695312 35.34375 C 68.140625 28.011719 65.839844 20.84375 62.84375 13.976562 C 63.9375 13.289062 63.574219 11.25 62.308594 10.980469 C 62.507812 9.921875 62.539062 8.835938 62.398438 7.765625 C 61.804688 7.535156 61.058594 8.046875 61.394531 8.210938 Z M 61.398438 8.21875 " fill-opacity="1" fill-rule="nonzero"/><g clip-path="url(#6d87d70aad)"><path fill="#7b1720" d="M 93.882812 44.742188 C 94.285156 45.566406 93.855469 46.566406 93.296875 47.285156 C 92.738281 48 92.027344 48.628906 91.742188 49.507812 C 91.535156 50.148438 91.585938 50.851562 91.609375 51.53125 C 91.667969 53.402344 91.472656 55.28125 91.035156 57.097656 C 91.652344 57.15625 92.429688 56.769531 92.941406 57.136719 C 93.449219 57.507812 93.765625 60.039062 93.691406 60.929688 C 80.324219 72.53125 66.820312 82.835938 53.457031 94.4375 C 53.050781 94.792969 52.617188 95.160156 52.097656 95.273438 C 51.554688 95.390625 50.996094 95.21875 50.46875 95.046875 C 36.851562 90.601562 23.601562 84.953125 10.898438 78.1875 C 11.738281 73.511719 12.574219 68.832031 13.414062 64.15625 C 22.070312 58.171875 47.671875 37.449219 52.742188 33.410156 C 66.324219 36.761719 79.90625 40.113281 93.578125 43.449219 C 93.347656 44.488281 93.546875 45.621094 93.886719 44.742188 Z M 93.882812 44.742188 " fill-opacity="1" fill-rule="nonzero"/></g><path fill="#731017" d="M 13.410156 64.152344 C 13.777344 64.878906 15.585938 65.011719 16.285156 64.632812 C 16.984375 64.253906 17.457031 63.550781 17.957031 62.917969 C 19.613281 60.816406 21.816406 59.273438 23.949219 57.703125 C 25.738281 56.386719 34.003906 49.769531 34.675781 49.453125 C 35.257812 49.179688 35.707031 48.683594 36.144531 48.207031 C 39.980469 44.054688 44.472656 40.558594 49.429688 37.847656 C 50.722656 36.078125 52.621094 34.796875 54.703125 34.289062 C 54.121094 33.703125 53.195312 33.652344 52.4375 33.933594 C 51.679688 34.21875 51.050781 34.777344 50.4375 35.320312 C 42.230469 42.632812 33.472656 49.238281 24.726562 55.832031 C 21.160156 58.523438 16.804688 61.179688 13.410156 64.152344 Z M 13.410156 64.152344 " fill-opacity="1" fill-rule="nonzero"/><path fill="#591218" d="M 20.988281 58.507812 C 21.710938 58.460938 22.148438 58.292969 22.773438 58.675781 C 23.398438 59.058594 24.253906 59.308594 24.800781 58.8125 C 24.492188 58.269531 24.054688 57.804688 23.539062 57.472656 C 24.039062 57.792969 24.570312 58.121094 25.160156 58.121094 C 25.75 58.121094 26.378906 57.644531 26.328125 57.035156 C 26.277344 56.363281 25.507812 56.027344 24.863281 55.996094 C 23.523438 55.9375 22.363281 57.269531 20.988281 58.507812 Z M 20.988281 58.507812 " fill-opacity="1" fill-rule="nonzero"/><path fill="#591218" d="M 31.484375 50.460938 C 32.238281 50.96875 32.992188 51.476562 33.746094 51.984375 C 34.265625 51.515625 34.167969 50.507812 33.566406 50.160156 C 33.957031 50.394531 34.425781 50.539062 34.859375 50.414062 C 35.292969 50.289062 35.65625 49.835938 35.578125 49.375 C 35.503906 48.933594 35.058594 48.636719 34.628906 48.617188 C 34.199219 48.59375 33.785156 48.78125 33.402344 48.992188 C 32.433594 49.527344 31.554688 50.246094 31.488281 50.460938 Z M 31.484375 50.460938 " fill-opacity="1" fill-rule="nonzero"/><path fill="#591218" d="M 39.792969 43.777344 C 40.898438 44.628906 42.339844 44.691406 43.714844 44.648438 C 43.359375 44.160156 43 43.671875 42.644531 43.1875 C 43.429688 43.578125 44.414062 43.480469 45.117188 42.949219 C 44.585938 42.046875 43.550781 41.496094 42.535156 41.570312 C 41.519531 41.648438 40.519531 42.734375 39.792969 43.78125 Z M 39.792969 43.777344 " fill-opacity="1" fill-rule="nonzero"/><path fill="#591218" d="M 47.195312 37.851562 C 48.300781 38.84375 49.59375 38.441406 51.046875 38.304688 C 50.648438 37.96875 50.253906 37.632812 49.855469 37.296875 C 50.277344 37.390625 50.71875 37.488281 51.136719 37.371094 C 51.550781 37.257812 51.929688 36.859375 51.882812 36.414062 C 51.859375 36.195312 51.742188 36.003906 51.59375 35.847656 C 51.019531 35.246094 50.050781 35.234375 49.3125 35.589844 C 48.570312 35.949219 48.210938 37.5 47.199219 37.851562 Z M 47.195312 37.851562 " fill-opacity="1" fill-rule="nonzero"/><path fill="#781d24" d="M 90.050781 43.710938 C 89.890625 46.304688 87.707031 48.277344 85.445312 49.378906 C 83.1875 50.480469 80.671875 51.042969 78.582031 52.46875 C 76.832031 53.660156 75.492188 55.386719 74.183594 57.082031 C 70.328125 62.070312 66.476562 67.058594 62.621094 72.050781 C 61.609375 73.363281 60.574219 74.691406 59.234375 75.632812 C 57.878906 76.585938 56.261719 77.09375 54.945312 78.109375 C 54.425781 78.511719 53.949219 78.992188 53.347656 79.25 C 52.0625 79.796875 50.621094 79.164062 49.367188 78.550781 C 39.230469 73.582031 28.925781 68.992188 18.480469 64.789062 C 18.042969 64.613281 17.554688 64.378906 17.421875 63.914062 C 17.296875 63.476562 17.546875 63.023438 17.839844 62.683594 C 19.683594 60.535156 22.992188 60.84375 25.445312 59.503906 C 28.992188 57.558594 30.011719 52.65625 33.128906 50.027344 C 35.9375 47.660156 40.035156 47.484375 42.804688 45.066406 C 44.921875 43.21875 45.964844 40.304688 48.0625 38.429688 C 50.234375 36.492188 53.277344 35.929688 56.128906 36.171875 C 58.976562 36.414062 61.71875 37.371094 64.472656 38.164062 C 72.585938 40.492188 81.003906 41.394531 90.054688 43.714844 Z M 90.050781 43.710938 " fill-opacity="1" fill-rule="nonzero"/><path fill="#831a22" d="M 83.863281 44.695312 C 77.304688 43.980469 70.75 43.265625 64.191406 42.546875 C 60.601562 42.15625 56.148438 42.203125 54.417969 45.5 C 54.042969 46.210938 53.847656 47.027344 53.917969 47.832031 C 53.972656 48.441406 54.175781 49.03125 54.160156 49.636719 C 54.109375 51.445312 52.253906 52.5625 50.59375 53.085938 C 46.277344 54.441406 41.441406 54.332031 37.636719 56.851562 C 35.210938 58.460938 33.21875 61.113281 30.363281 61.472656 C 28.664062 61.683594 26.546875 61.179688 25.546875 62.621094 C 30.832031 65.664062 36.582031 67.832031 42.515625 69.015625 C 44.875 69.484375 47.335938 69.828125 49.382812 71.132812 C 50.421875 71.792969 51.335938 72.691406 52.476562 73.121094 C 55.5625 74.285156 58.808594 71.578125 60.351562 68.566406 C 61.894531 65.550781 62.5625 62.027344 64.648438 59.390625 C 67.066406 56.339844 70.90625 55.054688 74.308594 53.285156 C 78.527344 51.09375 82.296875 47.960938 83.863281 44.695312 Z M 83.863281 44.695312 " fill-opacity="1" fill-rule="nonzero"/><path fill="#faf0d8" d="M 93.410156 45.585938 C 81.644531 57.820312 68.441406 70.015625 55.617188 81.035156 C 55 81.5625 54.347656 82.109375 53.5625 82.25 C 52.898438 82.367188 52.226562 82.183594 51.578125 82 C 39.128906 78.417969 27.027344 73.527344 15.519531 67.421875 C 14.769531 70.34375 14.015625 73.265625 13.261719 76.183594 C 24.625 85.167969 40.652344 84.902344 52.761719 92.757812 C 63.496094 80.210938 75.34375 70.039062 88.566406 60.40625 C 89.855469 59.46875 93.289062 56.425781 92.941406 56.746094 C 92.535156 57.117188 93.410156 50.167969 93.410156 45.589844 Z M 93.410156 45.585938 " fill-opacity="1" fill-rule="nonzero"/><path fill="#dfd2b0" d="M 93.410156 45.585938 C 79.675781 57.347656 66.183594 69.773438 53.273438 82.507812 C 40.136719 79.566406 27.226562 75.554688 14.695312 70.515625 C 14.472656 71.117188 14.246094 71.71875 14.023438 72.320312 C 26.066406 77.3125 38.382812 81.582031 50.894531 85.105469 C 51.625 85.3125 52.382812 85.519531 53.136719 85.425781 C 54.140625 85.300781 55.007812 84.667969 55.816406 84.039062 C 69.53125 73.394531 79.15625 58.359375 93.414062 48.507812 C 93.347656 47.921875 94.070312 47.171875 93.414062 45.585938 Z M 93.410156 45.585938 " fill-opacity="1" fill-rule="nonzero"/><path fill="#dfd2b0" d="M 13.898438 76.46875 C 26.898438 81.859375 39.773438 87.625 52.816406 92.910156 C 57.449219 85.394531 65.355469 80.320312 72.011719 74.683594 C 78.863281 68.878906 84.8125 61.765625 92.421875 57.355469 C 92.539062 56.878906 93.25 55.695312 92.777344 55.691406 C 92.304688 55.6875 90.671875 56.714844 90.28125 56.992188 C 76.648438 66.726562 63.925781 77.839844 52.351562 90.125 C 39.988281 85.457031 27.757812 80.40625 15.675781 74.996094 C 14.605469 74.515625 13.027344 74.21875 13.898438 76.464844 Z M 13.898438 76.46875 " fill-opacity="1" fill-rule="nonzero"/><path fill="#b6a989" d="M 93.171875 47.527344 C 79.699219 59.199219 66.5625 71.289062 53.789062 83.777344 C 53.816406 84.320312 54.644531 84.117188 55.03125 83.757812 C 68.019531 71.699219 81.003906 59.640625 93.171875 47.527344 Z M 93.171875 47.527344 " fill-opacity="1" fill-rule="nonzero"/><path fill="#b6a989" d="M 93.125 52.363281 C 79.816406 62.6875 66.289062 74.300781 54.1875 85.664062 C 41.128906 81.589844 28.136719 77.28125 15.21875 72.742188 C 14.726562 72.851562 15.179688 73.621094 15.644531 73.816406 C 21.214844 76.140625 26.957031 77.96875 32.691406 79.796875 C 39.375 81.925781 46.058594 84.054688 52.742188 86.179688 C 53.125 86.304688 53.527344 86.429688 53.925781 86.363281 C 54.382812 86.292969 54.765625 85.988281 55.125 85.691406 C 67.917969 75.199219 78.734375 63.054688 92.902344 54.699219 C 92.53125 54.109375 93.375 52.453125 93.125 52.363281 Z M 93.125 52.363281 " fill-opacity="1" fill-rule="nonzero"/><path fill="#b6a989" d="M 91.191406 57.300781 C 78.183594 67.917969 65.171875 78.53125 52.160156 89.144531 C 39.269531 85.359375 26.660156 80.542969 14.476562 74.746094 C 14.226562 75.519531 15.109375 76.140625 15.835938 76.445312 C 27.367188 81.265625 39.042969 85.695312 50.847656 89.734375 C 51.40625 89.925781 51.992188 90.117188 52.574219 90.019531 C 53.230469 89.910156 53.773438 89.449219 54.285156 89.007812 C 66.722656 78.230469 79.410156 67.769531 91.191406 57.300781 Z M 91.191406 57.300781 " fill-opacity="1" fill-rule="nonzero"/><path fill="#b6a989" d="M 15.304688 69 C 26.980469 75.117188 39.359375 79.78125 52.089844 82.867188 C 52.175781 82.449219 52.265625 82.03125 52.351562 81.609375 C 39.96875 78.832031 27.976562 74.171875 16.878906 67.824219 C 16.132812 67.398438 15.394531 66.964844 15.304688 69 Z M 15.304688 69 " fill-opacity="1" fill-rule="nonzero"/><path fill="#951b1e" d="M 93.140625 58.726562 C 80.347656 71.582031 63.679688 81.300781 52.351562 93.089844 C 52.320312 93.496094 52.0625 94.375 51.953125 95.042969 C 51.917969 95.257812 52.160156 95.402344 52.324219 95.265625 L 91.195312 62.878906 C 92.675781 61.644531 94.308594 60.035156 93.140625 58.730469 Z M 93.140625 58.726562 " fill-opacity="1" fill-rule="nonzero"/><g clip-path="url(#82280ba18c)"><path fill="#951b1e" d="M 93.578125 43.445312 C 67.433594 67.109375 58.542969 73.097656 51.894531 80.015625 C 51.753906 80.675781 52.785156 82.949219 53.273438 82.507812 C 66.886719 70.1875 80.511719 57.101562 94.125 44.78125 C 93.660156 44.375 93.582031 44.160156 93.578125 43.445312 Z M 93.578125 43.445312 " fill-opacity="1" fill-rule="nonzero"/></g><path fill="#951b1e" d="M 55.359375 35.351562 C 44.386719 43.5 32.859375 54.503906 21.539062 62.128906 C 20.15625 63.058594 18.683594 63.96875 17.039062 64.132812 C 27.515625 55.816406 37.984375 47.503906 48.457031 39.1875 C 50.128906 37.863281 54.527344 33.992188 55.359375 35.351562 Z M 55.359375 35.351562 " fill-opacity="1" fill-rule="nonzero"/><path fill="#951b1e" d="M 17.203125 66.246094 C 25.882812 69.410156 34.5625 72.578125 43.238281 75.738281 C 45.992188 76.742188 48.753906 77.75 51.597656 78.421875 C 51.242188 78.691406 50.890625 78.960938 50.535156 79.230469 C 48.488281 77.984375 46.207031 77.222656 43.945312 76.46875 C 35.082031 73.519531 26.21875 70.570312 17.355469 67.621094 C 16.492188 67.335938 15.609375 67.046875 17.203125 66.246094 Z M 17.203125 66.246094 " fill-opacity="1" fill-rule="nonzero"/><path fill="#951b1e" d="M 15.015625 67.132812 C 13.65625 70.703125 12.765625 74.46875 12.375 78.289062 C 11.90625 78.035156 11.363281 77.933594 10.835938 78 C 12.03125 73.480469 13.039062 68.90625 15.015625 67.132812 Z M 15.015625 67.132812 " fill-opacity="1" fill-rule="nonzero"/><path fill="#951b1e" d="M 15.097656 80.015625 C 18.539062 80.21875 21.683594 81.980469 24.769531 83.578125 C 32.75 87.714844 41.128906 91.011719 49.742188 93.410156 C 49.945312 94.347656 48.472656 94.480469 47.609375 94.125 C 36.378906 89.464844 25.148438 84.804688 15.097656 80.019531 Z M 15.097656 80.015625 " fill-opacity="1" fill-rule="nonzero"/><g clip-path="url(#ee575b511b)"><path fill="#591218" d="M 93.445312 45.066406 C 79.804688 57.382812 66.167969 69.691406 52.527344 82.003906 C 53.414062 81.796875 54.183594 81.238281 54.925781 80.6875 C 66.980469 71.753906 78.199219 61.605469 88.53125 50.554688 C 89.804688 49.027344 91.289062 47.695312 92.929688 46.609375 C 93.378906 46.3125 93.871094 45.992188 94.050781 45.46875 C 94.226562 44.945312 94.125 44.453125 93.445312 45.066406 Z M 93.445312 45.066406 " fill-opacity="1" fill-rule="nonzero"/></g><path fill="#591218" d="M 92.941406 57.136719 C 80.410156 69.636719 64.351562 79.214844 52.949219 92.832031 C 52.300781 92.773438 52.605469 91.707031 53.078125 91.238281 C 64.0625 80.347656 75.019531 70.53125 87.332031 61.308594 C 89.054688 60.019531 91.597656 58.378906 92.574219 56.421875 C 92.863281 56.230469 92.910156 56.816406 92.941406 57.136719 Z M 92.941406 57.136719 " fill-opacity="1" fill-rule="nonzero"/><path fill="#591218" d="M 93.34375 58.199219 C 92.6875 60.585938 91.125 62.609375 89.160156 64.121094 C 77.851562 72.832031 67.984375 82.644531 56.671875 91.355469 C 54.523438 93.007812 54.101562 94.867188 51.890625 95.300781 C 51.972656 95.949219 53.164062 95.578125 54 94.734375 C 65.339844 83.304688 83.519531 71.527344 93.410156 61.554688 C 93.613281 61.351562 93.867188 61.003906 93.34375 58.199219 Z M 93.34375 58.199219 " fill-opacity="1" fill-rule="nonzero"/><path fill="#591218" d="M 51.230469 91.851562 C 38.449219 86.800781 25.671875 81.746094 12.890625 76.699219 C 12.882812 76.9375 12.878906 77.179688 12.878906 77.320312 C 19.929688 80.386719 26.980469 83.457031 34.03125 86.523438 C 39.792969 89.03125 45.597656 91.554688 51.710938 92.882812 C 51.925781 92.929688 52.210938 92.945312 52.3125 92.742188 C 52.417969 92.535156 52.0625 92.179688 51.230469 91.851562 Z M 51.230469 91.851562 " fill-opacity="1" fill-rule="nonzero"/><path fill="#591218" d="M 51.222656 80.375 C 38.929688 76.800781 26.878906 72.335938 15.1875 67.019531 C 15.351562 67.289062 15.636719 67.449219 15.90625 67.597656 C 27.21875 73.875 39.089844 79.546875 51.78125 81.460938 C 51.609375 81.144531 51.445312 80.824219 51.222656 80.375 Z M 51.222656 80.375 " fill-opacity="1" fill-rule="nonzero"/><path fill="#591218" d="M 15.476562 68.636719 C 15.5625 69.332031 15.652344 70.03125 15.742188 70.730469 C 16.5625 70.890625 17.355469 71.226562 18.054688 71.703125 C 17.027344 71.570312 16.011719 71.304688 15.046875 70.910156 C 15.058594 71.648438 14.105469 72.332031 14.5 72.945312 C 14.597656 73.09375 14.753906 73.183594 14.90625 73.269531 C 15.746094 73.746094 16.589844 74.21875 17.4375 74.695312 C 16.535156 74.382812 15.632812 74.074219 14.734375 73.765625 C 14.617188 73.726562 14.492188 73.683594 14.375 73.726562 C 13.96875 73.863281 14.269531 74.609375 13.957031 74.914062 C 14.277344 75.125 14.59375 75.339844 14.914062 75.546875 C 14.566406 75.472656 14.222656 75.394531 13.875 75.320312 C 13.765625 75.808594 13.652344 76.292969 13.539062 76.78125 C 13.941406 76.925781 14.347656 77.070312 14.75 77.214844 C 13.945312 77.289062 13.125 77.140625 12.398438 76.78125 C 13.191406 73.375 14.085938 69.996094 15.085938 66.648438 C 15.234375 67.25 15.378906 67.851562 15.476562 68.632812 Z M 15.476562 68.636719 " fill-opacity="1" fill-rule="nonzero"/><path fill="#f5f6f6" d="M 40.949219 71.683594 C 39.519531 73.125 37.253906 73.476562 35.191406 73.316406 C 31.507812 73.039062 27.960938 71.355469 25.488281 68.71875 C 23.015625 66.078125 21.640625 62.507812 21.730469 58.957031 C 21.765625 57.570312 22.019531 56.171875 22.664062 54.933594 C 24.558594 51.28125 29.679688 50.394531 33.707031 49.117188 C 49.753906 44.039062 63.792969 34.292969 74.851562 22.117188 C 80.269531 20.402344 87.066406 26.039062 84.503906 34.453125 C 75.394531 38.324219 67.226562 44.050781 60.019531 50.664062 C 52.816406 57.273438 47.238281 65.347656 40.953125 71.683594 Z M 40.949219 71.683594 " fill-opacity="1" fill-rule="nonzero"/><path fill="#edebeb" d="M 42.683594 66.679688 C 50.300781 56.742188 60.039062 48.691406 69.6875 40.734375 C 74.414062 36.832031 79.257812 32.867188 84.996094 30.734375 C 84.703125 32.058594 84.410156 33.378906 84.117188 34.699219 C 80.460938 35.914062 77.171875 38.027344 74.039062 40.273438 C 61.050781 49.570312 50.015625 61.324219 39.546875 73.40625 C 40.988281 71.402344 41.148438 68.683594 42.683594 66.675781 Z M 42.683594 66.679688 " fill-opacity="1" fill-rule="nonzero"/><path fill="#efb94d" d="M 52.800781 40.03125 C 56.722656 42.457031 59.070312 47.234375 58.597656 51.835938 C 61.667969 49.609375 64.597656 47.1875 67.355469 44.585938 C 67.628906 44.328125 67.910156 44.050781 68.019531 43.691406 C 68.109375 43.378906 68.0625 43.046875 68 42.726562 C 67.304688 39.074219 65.167969 35.71875 62.160156 33.542969 C 60.273438 35.117188 58.21875 36.476562 56.03125 37.597656 C 54.75 38.253906 53.378906 38.863281 52.800781 40.027344 Z M 52.800781 40.03125 " fill-opacity="1" fill-rule="nonzero"/><path fill="#ecb13a" d="M 57.140625 44.828125 C 60.722656 43.609375 63.976562 41.4375 66.488281 38.601562 C 67.472656 40.28125 68.113281 42.164062 68.367188 44.097656 C 68.398438 44.320312 68.417969 44.550781 68.34375 44.761719 C 68.257812 45.011719 68.046875 45.195312 67.847656 45.367188 C 64.707031 48.03125 61.421875 50.527344 58.015625 52.839844 C 58.945312 51.242188 58.398438 49.226562 57.835938 47.46875 C 57.539062 46.5625 57.25 45.652344 57.136719 44.828125 Z M 57.140625 44.828125 " fill-opacity="1" fill-rule="nonzero"/><path fill="#e0a62d" d="M 58.316406 49.3125 C 61.867188 47.449219 65.039062 44.855469 67.566406 41.734375 C 67.882812 42.523438 68.148438 43.335938 68.363281 44.160156 C 68.429688 44.429688 68.496094 44.710938 68.4375 44.984375 C 68.351562 45.40625 67.996094 45.714844 67.660156 45.988281 C 64.550781 48.523438 61.332031 50.925781 58.015625 53.179688 C 58.300781 51.914062 58.414062 50.605469 58.316406 49.316406 Z M 58.316406 49.3125 " fill-opacity="1" fill-rule="nonzero"/><path fill="#e0e1e0" d="M 26.152344 53.007812 C 29 52.171875 32.214844 52.753906 34.742188 54.210938 C 37.269531 55.671875 39.152344 57.933594 40.421875 60.402344 C 41.636719 62.765625 42.332031 65.414062 41.9375 68 C 41.75 69.234375 41.28125 70.484375 40.300781 71.355469 C 39.511719 72.058594 38.449219 72.457031 37.367188 72.664062 C 35.9375 72.933594 34.433594 72.878906 33.035156 72.492188 C 29.925781 71.625 27.640625 69.199219 25.972656 66.660156 C 24.554688 64.503906 23.425781 62.105469 23.347656 59.589844 C 23.273438 57.078125 23.925781 53.660156 26.152344 53.007812 Z M 26.152344 53.007812 " fill-opacity="1" fill-rule="nonzero"/><path fill="#c2c2c2" d="M 26.152344 53.007812 C 22.65625 58.886719 26.441406 65.335938 30.355469 67.882812 C 31.382812 68.550781 33.054688 69.214844 34.175781 68.722656 C 35.574219 68.101562 35.929688 66.109375 36.246094 64.609375 C 36.4375 63.703125 36.542969 62.765625 36.398438 61.855469 C 36.269531 61.0625 35.957031 60.316406 35.59375 59.605469 C 33.929688 56.320312 29.675781 53.070312 26.152344 53.007812 Z M 26.152344 53.007812 " fill-opacity="1" fill-rule="nonzero"/><path fill="#cccccc" d="M 25.671875 53.390625 C 28.726562 54.554688 31.425781 56.730469 33.03125 59.585938 C 35.613281 64.175781 34.238281 71.3125 33.21875 71.605469 C 35.246094 71.484375 39.285156 67.515625 41.738281 65.988281 C 41.585938 62.632812 40.21875 59.351562 37.949219 56.882812 C 35.679688 54.417969 32.527344 52.789062 29.207031 52.371094 C 27.734375 52.1875 25.992188 52.351562 25.671875 53.390625 Z M 25.671875 53.390625 " fill-opacity="1" fill-rule="nonzero"/></svg>