<svg xmlns="http://www.w3.org/2000/svg" xmlns:xlink="http://www.w3.org/1999/xlink" width="128" zoomAndPan="magnify" viewBox="0 0 96 95.999999" height="128" preserveAspectRatio="xMidYMid meet" version="1.0"><defs><clipPath id="89a22b0339"><path d="M 15.449219 51 L 42 51 L 42 89 L 15.449219 89 Z M 15.449219 51 " clip-rule="nonzero"/></clipPath><clipPath id="f0ba1fb324"><path d="M 58 56 L 80.699219 56 L 80.699219 89 L 58 89 Z M 58 56 " clip-rule="nonzero"/></clipPath></defs><g clip-path="url(#89a22b0339)"><path fill="#ffc022" d="M 41.710938 76.328125 C 42.179688 74.378906 41.242188 72.484375 41.242188 72.484375 C 41.242188 72.484375 39.539062 73.746094 39.070312 75.695312 C 38.886719 76.441406 38.914062 77.175781 39.015625 77.804688 C 38.429688 76.460938 37.769531 75.148438 37.050781 73.867188 C 37.570312 73.394531 38.554688 72.34375 38.894531 70.933594 C 39.367188 68.984375 38.429688 67.085938 38.429688 67.085938 C 38.429688 67.085938 36.726562 68.347656 36.253906 70.296875 C 36.074219 71.046875 36.101562 71.789062 36.203125 72.417969 C 35.621094 71.460938 35.003906 70.523438 34.359375 69.609375 C 33.992188 69.089844 33.613281 68.585938 33.230469 68.085938 C 33.238281 68.074219 33.246094 68.066406 33.25 68.058594 C 33.296875 68.023438 33.320312 68 33.320312 68 C 33.320312 68 33.3125 67.996094 33.300781 67.984375 C 33.714844 67.375 34.375 66.195312 34.402344 64.820312 C 34.441406 62.816406 33.113281 61.167969 33.113281 61.167969 C 33.113281 61.167969 31.726562 62.765625 31.683594 64.769531 C 31.671875 65.382812 31.789062 65.964844 31.957031 66.480469 C 31.007812 65.328125 30.007812 64.210938 28.972656 63.132812 C 29.335938 62.648438 30.210938 61.316406 30.242188 59.730469 C 30.28125 57.726562 28.953125 56.074219 28.953125 56.074219 C 28.953125 56.074219 27.566406 57.671875 27.523438 59.675781 C 27.503906 60.726562 27.859375 61.675781 28.199219 62.347656 C 28.101562 62.246094 28 62.144531 27.902344 62.042969 C 26.882812 61.027344 25.835938 60.035156 24.753906 59.082031 C 25.167969 58.449219 25.765625 57.316406 25.789062 56.011719 C 25.832031 54.007812 24.503906 52.355469 24.503906 52.355469 C 24.503906 52.355469 23.113281 53.957031 23.070312 55.957031 C 23.058594 56.699219 23.230469 57.386719 23.449219 57.964844 C 22.640625 57.292969 21.808594 56.644531 20.953125 56.035156 C 20.785156 55.40625 20.289062 53.960938 19.121094 52.980469 C 17.582031 51.691406 15.464844 51.679688 15.464844 51.679688 C 15.464844 51.679688 15.832031 53.765625 17.371094 55.058594 C 18.574219 56.066406 20.136719 56.292969 20.757812 56.34375 C 21.585938 57.0625 22.417969 57.773438 23.246094 58.492188 C 22.636719 58.257812 21.898438 58.078125 21.101562 58.109375 C 19.09375 58.191406 17.523438 59.613281 17.523438 59.613281 C 17.523438 59.613281 19.203125 60.898438 21.210938 60.820312 C 22.6875 60.757812 23.921875 59.976562 24.476562 59.566406 C 25.367188 60.355469 26.25 61.15625 27.097656 61.992188 C 27.261719 62.152344 27.421875 62.316406 27.585938 62.476562 C 26.925781 62.210938 26.070312 61.980469 25.148438 62.039062 C 23.140625 62.167969 21.605469 63.628906 21.605469 63.628906 C 21.605469 63.628906 23.320312 64.875 25.324219 64.746094 C 26.769531 64.652344 27.96875 63.867188 28.527344 63.4375 C 29.667969 64.628906 30.765625 65.859375 31.804688 67.136719 C 31.203125 66.882812 30.464844 66.675781 29.664062 66.683594 C 27.65625 66.703125 26.042969 68.074219 26.042969 68.074219 C 26.042969 68.074219 27.683594 69.414062 29.695312 69.394531 C 31.015625 69.382812 32.160156 68.785156 32.792969 68.378906 C 33.117188 68.796875 33.433594 69.21875 33.75 69.648438 C 34.519531 70.710938 35.242188 71.804688 35.925781 72.925781 C 35.34375 72.527344 34.574219 72.128906 33.679688 71.988281 C 31.695312 71.679688 29.875 72.761719 29.875 72.761719 C 29.875 72.761719 31.273438 74.355469 33.257812 74.667969 C 34.652344 74.890625 35.964844 74.417969 36.625 74.117188 C 37.4375 75.554688 38.179688 77.035156 38.832031 78.550781 C 38.28125 78.042969 37.472656 77.453125 36.46875 77.183594 C 34.527344 76.664062 32.605469 77.554688 32.605469 77.554688 C 32.605469 77.554688 33.824219 79.285156 35.765625 79.800781 C 37.191406 80.183594 38.605469 79.804688 39.257812 79.578125 C 40.410156 82.445312 41.261719 85.433594 41.753906 88.496094 C 41.773438 88.621094 41.960938 88.601562 41.949219 88.476562 C 41.597656 85.359375 40.8125 82.328125 39.6875 79.425781 C 40.101562 79.070312 41.320312 77.933594 41.710938 76.328125 Z M 41.710938 76.328125 " fill-opacity="1" fill-rule="nonzero"/></g><g clip-path="url(#f0ba1fb324)"><path fill="#ffc022" d="M 58.390625 77.769531 C 57.992188 76.113281 58.789062 74.5 58.789062 74.5 C 58.789062 74.5 60.234375 75.574219 60.636719 77.230469 C 60.789062 77.863281 60.765625 78.492188 60.679688 79.023438 C 61.179688 77.878906 61.738281 76.765625 62.351562 75.675781 C 61.910156 75.273438 61.074219 74.382812 60.785156 73.183594 C 60.382812 71.527344 61.183594 69.914062 61.183594 69.914062 C 61.183594 69.914062 62.628906 70.988281 63.027344 72.644531 C 63.179688 73.28125 63.15625 73.910156 63.070312 74.445312 C 63.566406 73.632812 64.089844 72.835938 64.640625 72.058594 C 64.953125 71.621094 65.273438 71.191406 65.597656 70.765625 C 65.589844 70.757812 65.585938 70.75 65.582031 70.742188 C 65.539062 70.710938 65.519531 70.691406 65.519531 70.691406 C 65.519531 70.691406 65.523438 70.6875 65.535156 70.679688 C 65.1875 70.164062 64.625 69.15625 64.601562 67.992188 C 64.566406 66.289062 65.695312 64.886719 65.695312 64.886719 C 65.695312 64.886719 66.875 66.246094 66.910156 67.945312 C 66.917969 68.46875 66.820312 68.964844 66.675781 69.398438 C 67.484375 68.417969 68.332031 67.472656 69.214844 66.554688 C 68.90625 66.144531 68.15625 65.015625 68.132812 63.664062 C 68.097656 61.960938 69.226562 60.558594 69.226562 60.558594 C 69.226562 60.558594 70.40625 61.917969 70.441406 63.621094 C 70.457031 64.511719 70.15625 65.320312 69.867188 65.890625 C 69.953125 65.804688 70.035156 65.714844 70.117188 65.628906 C 70.984375 64.769531 71.875 63.925781 72.792969 63.109375 C 72.441406 62.574219 71.933594 61.613281 71.914062 60.507812 C 71.878906 58.804688 73.007812 57.402344 73.007812 57.402344 C 73.007812 57.402344 74.1875 58.761719 74.222656 60.464844 C 74.234375 61.089844 74.089844 61.675781 73.898438 62.167969 C 74.585938 61.597656 75.292969 61.046875 76.019531 60.527344 C 76.164062 59.992188 76.582031 58.765625 77.578125 57.929688 C 78.882812 56.832031 80.683594 56.824219 80.683594 56.824219 C 80.683594 56.824219 80.371094 58.59375 79.066406 59.691406 C 78.042969 60.546875 76.714844 60.742188 76.1875 60.78125 C 75.484375 61.394531 74.777344 62 74.070312 62.609375 C 74.589844 62.410156 75.21875 62.257812 75.894531 62.28125 C 77.601562 62.351562 78.933594 63.558594 78.933594 63.558594 C 78.933594 63.558594 77.503906 64.65625 75.796875 64.585938 C 74.546875 64.535156 73.496094 63.871094 73.023438 63.523438 C 72.265625 64.191406 71.519531 64.875 70.796875 65.582031 C 70.65625 65.71875 70.519531 65.859375 70.382812 65.996094 C 70.945312 65.769531 71.671875 65.574219 72.453125 65.621094 C 74.160156 65.734375 75.464844 66.972656 75.464844 66.972656 C 75.464844 66.972656 74.007812 68.03125 72.304688 67.921875 C 71.074219 67.839844 70.054688 67.175781 69.582031 66.8125 C 68.613281 67.820312 67.679688 68.867188 66.796875 69.953125 C 67.308594 69.738281 67.9375 69.5625 68.617188 69.566406 C 70.324219 69.585938 71.699219 70.75 71.699219 70.75 C 71.699219 70.75 70.300781 71.890625 68.59375 71.871094 C 67.472656 71.863281 66.5 71.355469 65.960938 71.011719 C 65.6875 71.367188 65.414062 71.726562 65.152344 72.089844 C 64.496094 72.992188 63.878906 73.921875 63.300781 74.871094 C 63.796875 74.535156 64.453125 74.199219 65.210938 74.078125 C 66.898438 73.8125 68.445312 74.734375 68.445312 74.734375 C 68.445312 74.734375 67.257812 76.085938 65.570312 76.351562 C 64.386719 76.539062 63.269531 76.140625 62.710938 75.886719 C 62.019531 77.109375 61.390625 78.363281 60.835938 79.652344 C 61.300781 79.21875 61.988281 78.71875 62.839844 78.488281 C 64.488281 78.046875 66.125 78.800781 66.125 78.800781 C 66.125 78.800781 65.089844 80.273438 63.441406 80.714844 C 62.230469 81.039062 61.027344 80.71875 60.476562 80.523438 C 59.496094 82.957031 58.773438 85.496094 58.355469 88.101562 C 58.339844 88.207031 58.175781 88.191406 58.1875 88.082031 C 58.488281 85.433594 59.15625 82.863281 60.109375 80.394531 C 59.757812 80.101562 58.71875 79.132812 58.390625 77.769531 Z M 58.390625 77.769531 " fill-opacity="1" fill-rule="nonzero"/></g><path fill="#f2c681" d="M 41.675781 35.066406 L 60.289062 35.066406 C 62.761719 32.65625 64.300781 29.289062 64.300781 25.566406 C 64.300781 18.226562 58.335938 12.277344 50.980469 12.277344 C 43.625 12.277344 37.660156 18.226562 37.660156 25.566406 C 37.660156 29.289062 39.199219 32.65625 41.675781 35.066406 Z M 41.675781 35.066406 " fill-opacity="1" fill-rule="nonzero"/><path fill="#d69625" d="M 65.171875 20.207031 C 67.410156 20.058594 69.753906 20.066406 71.925781 19.460938 C 72.019531 19.4375 71.984375 19.3125 71.898438 19.308594 C 69.664062 19.140625 67.371094 19.597656 65.160156 19.890625 C 64.960938 19.914062 64.960938 20.21875 65.171875 20.207031 Z M 65.171875 20.207031 " fill-opacity="1" fill-rule="nonzero"/><path fill="#d69625" d="M 24.230469 57.773438 C 24.140625 56.398438 24.332031 55.09375 24.453125 53.730469 C 24.457031 53.667969 24.367188 53.667969 24.347656 53.71875 C 23.835938 54.996094 23.855469 56.457031 24.058594 57.796875 C 24.074219 57.894531 24.238281 57.871094 24.230469 57.773438 Z M 24.230469 57.773438 " fill-opacity="1" fill-rule="nonzero"/><path fill="#d69625" d="M 30.042969 16.253906 C 32.304688 17.722656 35.09375 18.398438 37.664062 19.128906 C 37.804688 19.171875 37.898438 18.9375 37.757812 18.882812 C 35.242188 17.917969 32.765625 16.609375 30.128906 16.023438 C 29.984375 15.996094 29.925781 16.183594 30.042969 16.253906 Z M 30.042969 16.253906 " fill-opacity="1" fill-rule="nonzero"/><path fill="#d69625" d="M 27.449219 62.777344 C 26.132812 62.792969 24.546875 63.089844 23.320312 63.546875 C 23.285156 63.558594 23.289062 63.613281 23.328125 63.613281 C 24.644531 63.613281 26.234375 63.34375 27.46875 62.90625 C 27.535156 62.882812 27.527344 62.777344 27.449219 62.777344 Z M 27.449219 62.777344 " fill-opacity="1" fill-rule="nonzero"/><path fill="#d69625" d="M 31.941406 68.222656 C 30.644531 67.773438 29.183594 67.835938 27.847656 68.089844 C 27.796875 68.097656 27.808594 68.183594 27.863281 68.179688 C 29.242188 68.070312 30.550781 68.234375 31.925781 68.339844 C 31.996094 68.34375 32 68.242188 31.941406 68.222656 Z M 31.941406 68.222656 " fill-opacity="1" fill-rule="nonzero"/><path fill="#d69625" d="M 39.035156 14.171875 C 39.136719 14.242188 39.238281 14.085938 39.15625 14.003906 C 37.5 12.367188 35.867188 10.613281 34.035156 9.175781 C 33.953125 9.109375 33.820312 9.199219 33.886719 9.296875 C 35.15625 11.277344 37.082031 12.882812 39.035156 14.171875 Z M 39.035156 14.171875 " fill-opacity="1" fill-rule="nonzero"/><path fill="#d69625" d="M 23.160156 59.164062 C 21.746094 59.113281 20.253906 59.535156 18.863281 59.777344 C 18.722656 59.800781 18.757812 60.019531 18.902344 59.996094 C 20.300781 59.804688 21.847656 59.753906 23.179688 59.277344 C 23.238281 59.257812 23.21875 59.164062 23.160156 59.164062 Z M 23.160156 59.164062 " fill-opacity="1" fill-rule="nonzero"/><path fill="#d69625" d="M 28.523438 61.757812 C 28.539062 60.425781 28.847656 59.15625 28.980469 57.839844 C 28.988281 57.777344 28.882812 57.746094 28.855469 57.804688 C 28.324219 59.035156 28.308594 60.4375 28.378906 61.757812 C 28.382812 61.851562 28.519531 61.851562 28.523438 61.757812 Z M 28.523438 61.757812 " fill-opacity="1" fill-rule="nonzero"/><path fill="#d69625" d="M 44.058594 11.894531 C 44.097656 11.960938 44.21875 11.910156 44.1875 11.835938 C 42.980469 8.976562 41.65625 6.152344 39.996094 3.523438 C 39.949219 3.449219 39.816406 3.503906 39.851562 3.59375 C 40.980469 6.484375 42.46875 9.226562 44.058594 11.894531 Z M 44.058594 11.894531 " fill-opacity="1" fill-rule="nonzero"/><path fill="#d69625" d="M 63.773438 16.761719 C 66.035156 15.46875 68.335938 14.105469 70.417969 12.539062 C 70.507812 12.472656 70.449219 12.296875 70.332031 12.351562 C 67.921875 13.390625 65.664062 14.945312 63.671875 16.640625 C 63.601562 16.699219 63.699219 16.804688 63.773438 16.761719 Z M 63.773438 16.761719 " fill-opacity="1" fill-rule="nonzero"/><path fill="#d69625" d="M 57.40625 10.925781 C 58.664062 8.65625 59.683594 6.160156 60.492188 3.699219 C 60.515625 3.632812 60.410156 3.59375 60.378906 3.65625 C 59.164062 5.945312 58.074219 8.410156 57.308594 10.886719 C 57.289062 10.945312 57.375 10.976562 57.40625 10.925781 Z M 57.40625 10.925781 " fill-opacity="1" fill-rule="nonzero"/><path fill="#d69625" d="M 61.460938 13.90625 C 63.234375 11.949219 65.050781 9.902344 66.476562 7.671875 C 66.535156 7.574219 66.394531 7.484375 66.316406 7.558594 C 64.445312 9.410156 62.832031 11.613281 61.296875 13.746094 C 61.210938 13.867188 61.359375 14.019531 61.460938 13.90625 Z M 61.460938 13.90625 " fill-opacity="1" fill-rule="nonzero"/><path fill="#d69625" d="M 47.40625 10.480469 C 47.433594 10.703125 47.78125 10.695312 47.761719 10.464844 C 47.613281 8.667969 47.453125 6.875 47.261719 5.082031 C 47.082031 3.441406 47.082031 1.632812 46.554688 0.0625 C 46.535156 0.0078125 46.441406 0.00390625 46.433594 0.0664062 C 46.25 1.707031 46.617188 3.464844 46.78125 5.101562 C 46.960938 6.898438 47.179688 8.6875 47.40625 10.480469 Z M 47.40625 10.480469 " fill-opacity="1" fill-rule="nonzero"/><path fill="#d69625" d="M 53.460938 10.363281 C 53.664062 8.824219 53.71875 7.257812 53.757812 5.703125 C 53.800781 4.058594 53.984375 2.34375 53.726562 0.710938 C 53.714844 0.644531 53.621094 0.625 53.601562 0.699219 C 53.269531 2.210938 53.332031 3.8125 53.277344 5.351562 C 53.21875 7.011719 53.160156 8.6875 53.28125 10.34375 C 53.292969 10.441406 53.445312 10.46875 53.460938 10.363281 Z M 53.460938 10.363281 " fill-opacity="1" fill-rule="nonzero"/><path fill="#d69625" d="M 73.160156 62.234375 C 73.097656 61.175781 73.082031 60.082031 72.832031 59.050781 C 72.820312 59 72.742188 59.011719 72.742188 59.0625 C 72.707031 60.125 72.914062 61.199219 73.070312 62.246094 C 73.074219 62.296875 73.160156 62.285156 73.160156 62.234375 Z M 73.160156 62.234375 " fill-opacity="1" fill-rule="nonzero"/><path fill="#d69625" d="M 20.082031 55.839844 C 20.171875 55.917969 20.3125 55.820312 20.25 55.710938 C 19.851562 55.035156 19.195312 54.4375 18.609375 53.921875 C 18.015625 53.394531 17.347656 52.859375 16.621094 52.535156 C 16.589844 52.523438 16.550781 52.558594 16.582031 52.585938 C 17.148438 53.140625 17.800781 53.605469 18.386719 54.148438 C 18.96875 54.6875 19.480469 55.332031 20.082031 55.839844 Z M 20.082031 55.839844 " fill-opacity="1" fill-rule="nonzero"/><path fill="#d69625" d="M 69.84375 70.4375 C 68.90625 70.382812 67.96875 70.488281 67.035156 70.554688 C 66.945312 70.5625 66.949219 70.714844 67.039062 70.714844 C 67.976562 70.691406 68.921875 70.710938 69.847656 70.570312 C 69.921875 70.558594 69.921875 70.445312 69.84375 70.4375 Z M 69.84375 70.4375 " fill-opacity="1" fill-rule="nonzero"/><path fill="#d69625" d="M 40.003906 77.261719 C 40.15625 76.035156 40.628906 74.957031 41.167969 73.859375 C 41.195312 73.800781 41.121094 73.734375 41.074219 73.789062 C 40.230469 74.753906 39.871094 76.003906 39.777344 77.261719 C 39.765625 77.40625 39.984375 77.402344 40.003906 77.261719 Z M 40.003906 77.261719 " fill-opacity="1" fill-rule="nonzero"/><path fill="#d69625" d="M 35.816406 73.40625 C 34.683594 72.679688 33.023438 72.609375 31.71875 72.667969 C 31.605469 72.671875 31.605469 72.832031 31.71875 72.839844 C 32.484375 72.902344 33.269531 73 34.019531 73.160156 C 34.609375 73.285156 35.171875 73.496094 35.773438 73.554688 C 35.859375 73.5625 35.875 73.445312 35.816406 73.40625 Z M 35.816406 73.40625 " fill-opacity="1" fill-rule="nonzero"/><path fill="#d69625" d="M 69.332031 64.925781 C 69.457031 63.925781 69.480469 62.652344 69.222656 61.671875 C 69.199219 61.597656 69.082031 61.589844 69.066406 61.671875 C 68.890625 62.671875 69.019531 63.949219 69.230469 64.941406 C 69.242188 65.003906 69.328125 64.980469 69.332031 64.925781 Z M 69.332031 64.925781 " fill-opacity="1" fill-rule="nonzero"/><path fill="#d69625" d="M 62.464844 25.5625 C 62.464844 19.246094 57.3125 14.109375 50.980469 14.109375 C 44.648438 14.109375 39.5 19.246094 39.5 25.5625 C 39.5 29.515625 41.515625 33.007812 44.578125 35.066406 L 30.828125 35.066406 L 30.828125 47.644531 C 30.828125 55.890625 35.949219 62.941406 43.1875 65.808594 C 41.957031 67.035156 41.703125 68.753906 41.886719 70.484375 C 42.097656 72.515625 43.246094 74.097656 45.015625 74.671875 C 45.28125 75.160156 45.335938 75.746094 45.113281 76.296875 C 44.644531 77.46875 43.839844 79.066406 42.464844 80.96875 C 40.0625 84.296875 36.085938 88.089844 34.621094 89.449219 C 34.207031 89.832031 34.027344 90.414062 34.171875 90.964844 C 34.429688 91.984375 35.265625 93.546875 37.875 94.484375 C 37.996094 94.53125 38.117188 94.570312 38.242188 94.609375 C 38.257812 94.617188 38.277344 94.625 38.292969 94.628906 C 38.410156 94.667969 38.53125 94.703125 38.652344 94.742188 C 38.671875 94.746094 38.695312 94.753906 38.71875 94.761719 C 38.839844 94.796875 38.964844 94.828125 39.085938 94.863281 C 39.105469 94.871094 39.125 94.875 39.144531 94.878906 C 39.277344 94.914062 39.40625 94.945312 39.542969 94.980469 C 39.675781 95.011719 39.8125 95.042969 39.949219 95.074219 C 39.96875 95.078125 39.984375 95.082031 40.003906 95.085938 C 40.132812 95.113281 40.265625 95.140625 40.398438 95.167969 C 40.425781 95.171875 40.449219 95.175781 40.476562 95.183594 C 40.605469 95.210938 40.738281 95.234375 40.871094 95.257812 C 40.894531 95.261719 40.914062 95.265625 40.9375 95.269531 C 41.078125 95.296875 41.214844 95.320312 41.355469 95.34375 C 41.359375 95.34375 41.363281 95.34375 41.367188 95.34375 C 41.507812 95.367188 41.644531 95.386719 41.789062 95.410156 C 41.808594 95.414062 41.828125 95.414062 41.851562 95.417969 C 41.988281 95.441406 42.121094 95.460938 42.257812 95.476562 C 42.285156 95.480469 42.3125 95.484375 42.339844 95.488281 C 42.472656 95.507812 42.609375 95.523438 42.746094 95.542969 C 42.765625 95.542969 42.789062 95.546875 42.8125 95.550781 C 42.953125 95.566406 43.09375 95.582031 43.238281 95.597656 C 43.242188 95.597656 43.246094 95.597656 43.25 95.601562 C 43.386719 95.617188 43.527344 95.628906 43.667969 95.644531 C 43.6875 95.644531 43.710938 95.648438 43.730469 95.648438 C 43.867188 95.664062 44 95.675781 44.132812 95.6875 C 44.160156 95.691406 44.1875 95.691406 44.214844 95.695312 C 44.347656 95.707031 44.476562 95.71875 44.609375 95.726562 C 44.632812 95.730469 44.65625 95.730469 44.679688 95.734375 C 44.8125 95.742188 44.953125 95.753906 45.085938 95.761719 C 45.089844 95.761719 45.097656 95.761719 45.105469 95.765625 C 45.238281 95.777344 45.367188 95.785156 45.496094 95.792969 C 45.519531 95.792969 45.542969 95.792969 45.5625 95.796875 C 45.6875 95.804688 45.8125 95.808594 45.9375 95.816406 C 45.964844 95.820312 45.988281 95.820312 46.015625 95.820312 C 46.140625 95.828125 46.261719 95.832031 46.382812 95.839844 C 46.40625 95.839844 46.425781 95.839844 46.453125 95.84375 C 46.574219 95.847656 46.699219 95.851562 46.820312 95.859375 C 46.828125 95.859375 46.835938 95.859375 46.84375 95.859375 C 46.960938 95.863281 47.078125 95.867188 47.191406 95.871094 C 47.210938 95.871094 47.230469 95.871094 47.25 95.871094 C 47.363281 95.875 47.476562 95.878906 47.585938 95.882812 C 47.609375 95.882812 47.628906 95.882812 47.652344 95.882812 C 47.761719 95.886719 47.867188 95.890625 47.972656 95.890625 C 47.992188 95.890625 48.011719 95.890625 48.03125 95.894531 C 48.136719 95.894531 48.242188 95.898438 48.34375 95.898438 C 48.351562 95.898438 48.355469 95.898438 48.363281 95.898438 C 48.460938 95.898438 48.558594 95.898438 48.65625 95.898438 C 48.671875 95.898438 48.6875 95.898438 48.703125 95.898438 C 48.796875 95.898438 48.886719 95.898438 48.972656 95.902344 C 48.996094 95.902344 49.015625 95.902344 49.03125 95.902344 C 49.117188 95.902344 49.199219 95.902344 49.277344 95.902344 C 49.296875 95.902344 49.3125 95.902344 49.332031 95.902344 C 49.414062 95.902344 49.488281 95.902344 49.566406 95.898438 C 49.570312 95.898438 49.578125 95.898438 49.582031 95.898438 C 49.65625 95.898438 49.730469 95.898438 49.796875 95.898438 C 49.808594 95.898438 49.820312 95.898438 49.828125 95.898438 C 49.894531 95.898438 49.960938 95.894531 50.023438 95.894531 C 50.035156 95.894531 50.046875 95.894531 50.058594 95.894531 C 50.117188 95.894531 50.171875 95.894531 50.226562 95.890625 C 50.234375 95.890625 50.246094 95.890625 50.253906 95.890625 C 50.304688 95.890625 50.355469 95.890625 50.402344 95.886719 C 52.015625 95.925781 58.769531 95.992188 62.933594 94.496094 C 65.539062 93.558594 66.375 91.996094 66.636719 90.972656 C 66.78125 90.421875 66.601562 89.84375 66.1875 89.457031 C 64.722656 88.101562 60.746094 84.308594 58.34375 80.980469 C 56.96875 79.078125 56.164062 77.476562 55.695312 76.308594 C 55.46875 75.746094 55.527344 75.144531 55.804688 74.648438 C 57.539062 74.039062 58.785156 72.394531 58.785156 70.453125 L 58.785156 69.144531 C 58.785156 68.660156 58.703125 68.191406 58.5625 67.753906 C 58.375 66.925781 58.046875 66.292969 57.621094 65.816406 C 64.863281 62.949219 69.980469 55.898438 69.980469 47.652344 L 69.980469 35.074219 L 57.386719 35.074219 C 60.445312 33.007812 62.464844 29.515625 62.464844 25.5625 Z M 45.28125 35.066406 C 42.046875 33.128906 39.878906 29.597656 39.878906 25.566406 C 39.878906 19.457031 44.859375 14.488281 50.980469 14.488281 C 57.105469 14.488281 62.085938 19.457031 62.085938 25.566406 C 62.085938 29.597656 59.914062 33.132812 56.679688 35.066406 Z M 45.28125 35.066406 " fill-opacity="1" fill-rule="nonzero"/><path fill="#d69625" d="M 73.558594 66.625 C 72.679688 66.335938 71.6875 66.359375 70.769531 66.304688 C 70.679688 66.296875 70.65625 66.445312 70.746094 66.460938 C 71.648438 66.605469 72.625 66.84375 73.539062 66.757812 C 73.617188 66.75 73.632812 66.648438 73.558594 66.625 Z M 73.558594 66.625 " fill-opacity="1" fill-rule="nonzero"/><path fill="#d69625" d="M 79.757812 57.171875 C 78.519531 57.683594 77.570312 58.707031 76.855469 59.816406 C 76.792969 59.910156 76.9375 59.988281 77.003906 59.902344 C 77.789062 58.851562 78.796875 58.082031 79.824219 57.28125 C 79.875 57.242188 79.820312 57.148438 79.757812 57.171875 Z M 79.757812 57.171875 " fill-opacity="1" fill-rule="nonzero"/><path fill="#d69625" d="M 77.140625 63.402344 C 76.320312 63.175781 75.398438 63.207031 74.554688 63.148438 C 74.433594 63.140625 74.4375 63.320312 74.554688 63.332031 C 75.390625 63.425781 76.28125 63.625 77.121094 63.546875 C 77.199219 63.539062 77.222656 63.425781 77.140625 63.402344 Z M 77.140625 63.402344 " fill-opacity="1" fill-rule="nonzero"/><path fill="#d69625" d="M 59.164062 75.589844 C 59.269531 76.753906 59.640625 77.917969 59.914062 79.050781 C 59.9375 79.148438 60.089844 79.109375 60.070312 79.007812 C 59.820312 77.871094 59.648438 76.667969 59.238281 75.578125 C 59.226562 75.539062 59.15625 75.539062 59.164062 75.589844 Z M 59.164062 75.589844 " fill-opacity="1" fill-rule="nonzero"/><path fill="#d69625" d="M 34.277344 78.027344 C 35.320312 78.28125 36.390625 78.632812 37.46875 78.699219 C 37.539062 78.703125 37.542969 78.605469 37.484375 78.582031 C 36.480469 78.203125 35.367188 78.082031 34.3125 77.882812 C 34.222656 77.867188 34.183594 78.003906 34.277344 78.027344 Z M 34.277344 78.027344 " fill-opacity="1" fill-rule="nonzero"/><path fill="#d69625" d="M 37.085938 72.691406 C 37.269531 71.996094 37.304688 71.269531 37.46875 70.570312 C 37.640625 69.867188 37.929688 69.199219 38.085938 68.492188 C 38.105469 68.417969 38.007812 68.382812 37.964844 68.441406 C 37.195312 69.523438 36.757812 71.378906 36.996094 72.6875 C 37.003906 72.738281 37.074219 72.734375 37.085938 72.691406 Z M 37.085938 72.691406 " fill-opacity="1" fill-rule="nonzero"/><path fill="#d69625" d="M 32.753906 66.8125 C 32.785156 66.015625 32.75 65.234375 32.855469 64.441406 C 32.960938 63.652344 33.195312 62.890625 33.3125 62.105469 C 33.320312 62.042969 33.238281 61.996094 33.203125 62.058594 C 32.464844 63.386719 32.292969 65.363281 32.597656 66.835938 C 32.613281 66.925781 32.75 66.898438 32.753906 66.8125 Z M 32.753906 66.8125 " fill-opacity="1" fill-rule="nonzero"/><path fill="#d69625" d="M 62.390625 74.679688 C 62.203125 73.40625 61.929688 72.035156 61.4375 70.839844 C 61.417969 70.789062 61.328125 70.789062 61.332031 70.855469 C 61.453125 72.144531 61.851562 73.492188 62.273438 74.710938 C 62.300781 74.789062 62.402344 74.753906 62.390625 74.679688 Z M 62.390625 74.679688 " fill-opacity="1" fill-rule="nonzero"/><path fill="#d69625" d="M 66.816406 74.890625 C 65.796875 74.90625 64.707031 75.152344 63.738281 75.464844 C 63.6875 75.480469 63.707031 75.554688 63.757812 75.554688 C 64.773438 75.503906 65.886719 75.351562 66.84375 75.007812 C 66.910156 74.980469 66.882812 74.890625 66.816406 74.890625 Z M 66.816406 74.890625 " fill-opacity="1" fill-rule="nonzero"/><path fill="#d69625" d="M 65.933594 69.433594 C 65.835938 68.28125 65.835938 67.03125 65.539062 65.917969 C 65.519531 65.84375 65.414062 65.859375 65.410156 65.933594 C 65.363281 67.085938 65.632812 68.3125 65.789062 69.453125 C 65.800781 69.53125 65.9375 69.515625 65.933594 69.433594 Z M 65.933594 69.433594 " fill-opacity="1" fill-rule="nonzero"/><path fill="#d69625" d="M 61.261719 80.074219 C 62.648438 79.765625 64.144531 79.566406 65.464844 79.023438 C 65.519531 79.003906 65.5 78.917969 65.4375 78.921875 C 64.015625 79.03125 62.589844 79.523438 61.214844 79.871094 C 61.097656 79.898438 61.144531 80.101562 61.261719 80.074219 Z M 61.261719 80.074219 " fill-opacity="1" fill-rule="nonzero"/><path fill="#ba7f20" d="M 68.066406 35.066406 C 68.042969 41.394531 66.25 47.710938 62.910156 53.09375 C 62.152344 54.316406 61.3125 55.492188 60.402344 56.609375 C 58.808594 58.566406 56.996094 60.34375 55.011719 61.902344 C 54.019531 62.679688 52.984375 63.402344 51.910156 64.0625 C 50.882812 64.695312 49.628906 65.152344 48.679688 65.855469 C 49.527344 66.292969 51.03125 66.183594 51.992188 66.289062 C 53.15625 66.417969 54.535156 66.046875 55.695312 66.175781 C 56.054688 66.214844 56.429688 66.210938 56.808594 66.179688 C 56.824219 66.511719 56.828125 66.839844 56.820312 67.167969 C 56.769531 68.960938 56.347656 70.746094 55.59375 72.371094 C 55.210938 73.199219 54.734375 73.972656 54.195312 74.703125 C 53.796875 75.238281 54.039062 75.394531 54.449219 75.386719 C 55.5 78.125 56.316406 80.957031 56.871094 83.839844 C 57.34375 86.289062 57.617188 88.894531 56.730469 91.226562 C 55.878906 93.457031 53.945312 95.160156 51.695312 95.898438 C 51.773438 95.898438 51.851562 95.898438 51.929688 95.898438 C 51.945312 95.898438 51.957031 95.898438 51.972656 95.898438 C 52.046875 95.898438 52.125 95.898438 52.207031 95.898438 C 52.21875 95.898438 52.234375 95.898438 52.25 95.898438 C 52.484375 95.894531 52.730469 95.890625 52.992188 95.882812 C 53.035156 95.882812 53.078125 95.882812 53.121094 95.882812 C 53.1875 95.878906 53.253906 95.878906 53.320312 95.878906 C 53.375 95.875 53.425781 95.875 53.480469 95.875 C 53.542969 95.871094 53.605469 95.871094 53.671875 95.867188 C 53.730469 95.867188 53.796875 95.863281 53.855469 95.863281 C 53.917969 95.859375 53.976562 95.859375 54.035156 95.855469 C 54.117188 95.851562 54.199219 95.851562 54.277344 95.847656 C 54.324219 95.84375 54.367188 95.84375 54.417969 95.839844 C 54.542969 95.835938 54.667969 95.828125 54.800781 95.824219 C 54.839844 95.820312 54.886719 95.820312 54.929688 95.816406 C 55.019531 95.8125 55.113281 95.804688 55.207031 95.800781 C 55.253906 95.796875 55.308594 95.792969 55.359375 95.789062 C 55.449219 95.785156 55.539062 95.777344 55.628906 95.773438 C 55.675781 95.765625 55.726562 95.765625 55.777344 95.761719 C 55.875 95.753906 55.976562 95.746094 56.074219 95.738281 C 56.117188 95.734375 56.15625 95.734375 56.199219 95.730469 C 56.484375 95.707031 56.773438 95.683594 57.0625 95.65625 C 57.101562 95.648438 57.140625 95.644531 57.179688 95.640625 C 57.285156 95.632812 57.390625 95.621094 57.5 95.609375 C 57.546875 95.601562 57.59375 95.597656 57.640625 95.59375 C 57.742188 95.582031 57.84375 95.570312 57.949219 95.558594 C 57.992188 95.550781 58.039062 95.546875 58.085938 95.542969 C 58.203125 95.527344 58.316406 95.511719 58.433594 95.496094 C 58.464844 95.492188 58.496094 95.488281 58.523438 95.484375 C 58.671875 95.464844 58.820312 95.445312 58.96875 95.421875 C 58.988281 95.417969 59.007812 95.414062 59.027344 95.410156 C 59.152344 95.394531 59.277344 95.375 59.398438 95.355469 C 59.441406 95.347656 59.488281 95.339844 59.53125 95.332031 C 59.632812 95.316406 59.730469 95.296875 59.832031 95.28125 C 59.882812 95.273438 59.929688 95.261719 59.980469 95.253906 C 60.078125 95.238281 60.175781 95.21875 60.273438 95.199219 C 60.320312 95.191406 60.363281 95.179688 60.410156 95.171875 C 60.527344 95.148438 60.644531 95.125 60.761719 95.101562 C 60.785156 95.097656 60.808594 95.089844 60.828125 95.085938 C 60.96875 95.054688 61.105469 95.023438 61.242188 94.992188 C 61.277344 94.984375 61.3125 94.972656 61.347656 94.964844 C 61.445312 94.941406 61.546875 94.914062 61.644531 94.890625 C 61.691406 94.878906 61.734375 94.867188 61.78125 94.851562 C 61.867188 94.828125 61.953125 94.804688 62.042969 94.777344 C 62.089844 94.765625 62.136719 94.75 62.179688 94.738281 C 62.269531 94.710938 62.355469 94.683594 62.441406 94.65625 C 62.480469 94.644531 62.523438 94.628906 62.5625 94.617188 C 62.6875 94.578125 62.8125 94.535156 62.929688 94.492188 C 65.539062 93.554688 66.375 91.992188 66.636719 90.96875 C 66.777344 90.417969 66.601562 89.839844 66.183594 89.453125 C 64.71875 88.097656 60.742188 84.304688 58.34375 80.976562 C 56.96875 79.074219 56.160156 77.472656 55.691406 76.304688 C 55.667969 76.242188 55.648438 76.183594 55.628906 76.121094 C 55.625 76.097656 55.617188 76.074219 55.613281 76.050781 C 55.605469 76.011719 55.597656 75.976562 55.589844 75.941406 C 55.578125 75.878906 55.570312 75.820312 55.5625 75.757812 C 55.5625 75.742188 55.558594 75.726562 55.558594 75.710938 C 55.535156 75.335938 55.625 74.964844 55.804688 74.640625 C 57.539062 74.035156 58.78125 72.386719 58.78125 70.449219 L 58.78125 69.136719 C 58.78125 68.652344 58.703125 68.183594 58.558594 67.75 C 58.402344 67.046875 58.140625 66.484375 57.804688 66.039062 C 57.746094 65.957031 57.683594 65.878906 57.617188 65.808594 C 57.871094 65.707031 58.121094 65.601562 58.371094 65.492188 C 59.855469 64.832031 61.242188 63.992188 62.503906 63 C 62.515625 62.988281 62.527344 62.980469 62.539062 62.972656 C 62.691406 62.851562 62.839844 62.726562 62.988281 62.601562 C 63.023438 62.578125 63.054688 62.550781 63.082031 62.523438 C 63.21875 62.410156 63.355469 62.289062 63.484375 62.171875 C 63.527344 62.132812 63.570312 62.097656 63.609375 62.058594 C 63.734375 61.945312 63.855469 61.832031 63.976562 61.714844 C 64.027344 61.667969 64.074219 61.621094 64.125 61.574219 C 64.238281 61.460938 64.351562 61.347656 64.460938 61.234375 C 64.511719 61.179688 64.566406 61.125 64.617188 61.070312 C 64.722656 60.960938 64.828125 60.847656 64.929688 60.734375 C 64.984375 60.671875 65.042969 60.613281 65.09375 60.550781 C 65.191406 60.4375 65.289062 60.328125 65.382812 60.214844 C 65.4375 60.148438 65.496094 60.082031 65.554688 60.015625 C 65.644531 59.902344 65.730469 59.792969 65.820312 59.679688 C 65.878906 59.605469 65.933594 59.53125 65.992188 59.460938 C 66.078125 59.347656 66.15625 59.234375 66.242188 59.125 C 66.296875 59.046875 66.355469 58.96875 66.410156 58.890625 C 66.492188 58.777344 66.566406 58.664062 66.644531 58.550781 C 66.699219 58.46875 66.753906 58.386719 66.808594 58.304688 C 66.882812 58.191406 66.953125 58.078125 67.027344 57.964844 C 67.082031 57.875 67.132812 57.789062 67.1875 57.703125 C 67.253906 57.589844 67.324219 57.476562 67.390625 57.363281 C 67.441406 57.269531 67.496094 57.179688 67.542969 57.085938 C 67.605469 56.972656 67.667969 56.859375 67.730469 56.746094 C 67.777344 56.648438 67.828125 56.554688 67.878906 56.457031 C 67.9375 56.34375 67.992188 56.230469 68.046875 56.113281 C 68.097656 56.011719 68.144531 55.914062 68.191406 55.8125 C 68.242188 55.699219 68.296875 55.585938 68.347656 55.46875 C 68.390625 55.363281 68.4375 55.257812 68.480469 55.15625 C 68.527344 55.042969 68.574219 54.925781 68.621094 54.8125 C 68.660156 54.703125 68.703125 54.597656 68.746094 54.488281 C 68.785156 54.375 68.832031 54.257812 68.871094 54.144531 C 68.910156 54.03125 68.949219 53.917969 68.984375 53.804688 C 69.023438 53.691406 69.0625 53.578125 69.097656 53.460938 C 69.132812 53.347656 69.167969 53.230469 69.199219 53.113281 C 69.234375 53 69.269531 52.882812 69.296875 52.769531 C 69.332031 52.648438 69.359375 52.527344 69.390625 52.40625 C 69.421875 52.292969 69.449219 52.179688 69.476562 52.066406 C 69.503906 51.941406 69.53125 51.816406 69.558594 51.6875 C 69.582031 51.578125 69.605469 51.464844 69.628906 51.355469 C 69.652344 51.222656 69.671875 51.089844 69.695312 50.960938 C 69.714844 50.851562 69.738281 50.738281 69.753906 50.628906 C 69.773438 50.492188 69.789062 50.355469 69.808594 50.21875 C 69.824219 50.113281 69.839844 50.007812 69.851562 49.898438 C 69.867188 49.753906 69.878906 49.605469 69.890625 49.457031 C 69.902344 49.355469 69.910156 49.257812 69.921875 49.160156 C 69.933594 48.992188 69.941406 48.828125 69.949219 48.660156 C 69.953125 48.574219 69.960938 48.492188 69.964844 48.410156 C 69.972656 48.160156 69.976562 47.90625 69.976562 47.652344 L 69.976562 35.070312 L 68.066406 35.070312 Z M 68.066406 35.066406 " fill-opacity="1" fill-rule="nonzero"/><path fill="#f7d2a1" d="M 38.6875 60 C 34.433594 53.773438 32.523438 45.992188 33.414062 38.507812 C 35.832031 39.667969 38.695312 39.859375 41.246094 39.035156 C 38.503906 45.523438 37.667969 53.03125 38.6875 60 Z M 45.582031 67.710938 C 44.628906 68.320312 44.0625 69.484375 44.175781 70.605469 C 44.246094 71.273438 44.550781 71.910156 45.007812 72.398438 C 45.132812 72.535156 45.664062 73.097656 45.871094 73.03125 C 46.214844 72.925781 45.761719 72.441406 45.648438 72.214844 C 44.953125 70.828125 44.902344 69.113281 45.582031 67.710938 Z M 37.921875 92.457031 C 42.320312 89.96875 45.511719 85.382812 46.195312 80.382812 C 45.738281 80.25 45.203125 80.265625 44.746094 80.128906 C 43.488281 84.742188 40.542969 88.875 36.59375 91.570312 C 37 91.804688 37.511719 92.226562 37.921875 92.457031 Z M 37.921875 92.457031 " fill-opacity="0.5" fill-rule="nonzero"/><path fill="#684e25" d="M 55.003906 24.808594 L 51.90625 24.808594 L 51.90625 31.816406 L 49.945312 31.816406 L 49.945312 24.808594 L 46.847656 24.808594 L 46.847656 22.785156 L 49.945312 22.785156 L 49.945312 20.359375 L 51.90625 20.359375 L 51.90625 22.785156 L 55.003906 22.785156 Z M 46.4375 66.171875 C 46.4375 66.535156 46.160156 66.832031 45.808594 66.832031 C 45.464844 66.832031 45.179688 66.535156 45.179688 66.171875 C 45.179688 65.808594 45.460938 65.511719 45.808594 65.511719 C 46.160156 65.511719 46.4375 65.808594 46.4375 66.171875 Z M 47.722656 66.171875 C 47.722656 66.535156 47.441406 66.832031 47.09375 66.832031 C 46.746094 66.832031 46.464844 66.535156 46.464844 66.171875 C 46.464844 65.808594 46.746094 65.511719 47.09375 65.511719 C 47.441406 65.511719 47.722656 65.808594 47.722656 66.171875 Z M 45.15625 66.171875 C 45.15625 66.535156 44.875 66.832031 44.527344 66.832031 C 44.175781 66.832031 43.894531 66.535156 43.894531 66.171875 C 43.894531 65.808594 44.175781 65.511719 44.527344 65.511719 C 44.875 65.511719 45.15625 65.808594 45.15625 66.171875 Z M 43.871094 66.171875 C 43.871094 66.535156 43.589844 66.832031 43.242188 66.832031 C 42.894531 66.832031 42.613281 66.535156 42.613281 66.171875 C 42.613281 65.808594 42.894531 65.511719 43.242188 65.511719 C 43.589844 65.511719 43.871094 65.808594 43.871094 66.171875 Z M 50.292969 66.171875 C 50.292969 66.535156 50.011719 66.832031 49.664062 66.832031 C 49.316406 66.832031 49.035156 66.535156 49.035156 66.171875 C 49.035156 65.808594 49.316406 65.511719 49.664062 65.511719 C 50.011719 65.511719 50.292969 65.808594 50.292969 66.171875 Z M 49.007812 66.171875 C 49.007812 66.535156 48.726562 66.832031 48.378906 66.832031 C 48.03125 66.832031 47.75 66.535156 47.75 66.171875 C 47.75 65.808594 48.03125 65.511719 48.378906 65.511719 C 48.726562 65.511719 49.007812 65.808594 49.007812 66.171875 Z M 51.578125 66.171875 C 51.578125 66.535156 51.296875 66.832031 50.949219 66.832031 C 50.597656 66.832031 50.320312 66.535156 50.320312 66.171875 C 50.320312 65.808594 50.597656 65.511719 50.949219 65.511719 C 51.296875 65.511719 51.578125 65.808594 51.578125 66.171875 Z M 56.714844 66.171875 C 56.714844 66.535156 56.433594 66.832031 56.082031 66.832031 C 55.734375 66.832031 55.453125 66.535156 55.453125 66.171875 C 55.453125 65.808594 55.734375 65.511719 56.082031 65.511719 C 56.433594 65.511719 56.714844 65.808594 56.714844 66.171875 Z M 57.996094 66.171875 C 57.996094 66.535156 57.714844 66.832031 57.367188 66.832031 C 57.019531 66.832031 56.738281 66.535156 56.738281 66.171875 C 56.738281 65.808594 57.019531 65.511719 57.367188 65.511719 C 57.714844 65.511719 57.996094 65.808594 57.996094 66.171875 Z M 55.429688 66.171875 C 55.429688 66.535156 55.148438 66.832031 54.800781 66.832031 C 54.449219 66.832031 54.171875 66.535156 54.171875 66.171875 C 54.171875 65.808594 54.449219 65.511719 54.800781 65.511719 C 55.148438 65.511719 55.429688 65.808594 55.429688 66.171875 Z M 54.144531 66.171875 C 54.144531 66.535156 53.863281 66.832031 53.515625 66.832031 C 53.167969 66.832031 52.886719 66.535156 52.886719 66.171875 C 52.886719 65.808594 53.167969 65.511719 53.515625 65.511719 C 53.863281 65.511719 54.144531 65.808594 54.144531 66.171875 Z M 52.863281 66.171875 C 52.863281 66.535156 52.582031 66.832031 52.230469 66.832031 C 51.882812 66.832031 51.601562 66.535156 51.601562 66.171875 C 51.601562 65.808594 51.882812 65.511719 52.230469 65.511719 C 52.582031 65.511719 52.863281 65.808594 52.863281 66.171875 Z M 45.675781 74.558594 C 45.3125 74.558594 45.015625 74.855469 45.015625 75.21875 C 45.015625 75.582031 45.3125 75.878906 45.675781 75.878906 C 46.042969 75.878906 46.335938 75.582031 46.335938 75.21875 C 46.335938 74.855469 46.042969 74.558594 45.675781 74.558594 Z M 47.027344 74.558594 C 46.664062 74.558594 46.367188 74.855469 46.367188 75.21875 C 46.367188 75.582031 46.664062 75.878906 47.027344 75.878906 C 47.390625 75.878906 47.6875 75.582031 47.6875 75.21875 C 47.6875 74.855469 47.394531 74.558594 47.027344 74.558594 Z M 48.378906 74.558594 C 48.015625 74.558594 47.71875 74.855469 47.71875 75.21875 C 47.71875 75.582031 48.015625 75.878906 48.378906 75.878906 C 48.742188 75.878906 49.039062 75.582031 49.039062 75.21875 C 49.039062 74.855469 48.742188 74.558594 48.378906 74.558594 Z M 49.730469 74.558594 C 49.363281 74.558594 49.066406 74.855469 49.066406 75.21875 C 49.066406 75.582031 49.363281 75.878906 49.730469 75.878906 C 50.09375 75.878906 50.390625 75.582031 50.390625 75.21875 C 50.390625 74.855469 50.09375 74.558594 49.730469 74.558594 Z M 51.082031 74.558594 C 50.71875 74.558594 50.421875 74.855469 50.421875 75.21875 C 50.421875 75.582031 50.71875 75.878906 51.082031 75.878906 C 51.445312 75.878906 51.742188 75.582031 51.742188 75.21875 C 51.742188 74.855469 51.445312 74.558594 51.082031 74.558594 Z M 52.429688 74.558594 C 52.066406 74.558594 51.769531 74.855469 51.769531 75.21875 C 51.769531 75.582031 52.066406 75.878906 52.429688 75.878906 C 52.796875 75.878906 53.09375 75.582031 53.09375 75.21875 C 53.09375 74.855469 52.796875 74.558594 52.429688 74.558594 Z M 53.785156 74.558594 C 53.417969 74.558594 53.121094 74.855469 53.121094 75.21875 C 53.121094 75.582031 53.417969 75.878906 53.785156 75.878906 C 54.148438 75.878906 54.445312 75.582031 54.445312 75.21875 C 54.445312 74.855469 54.148438 74.558594 53.785156 74.558594 Z M 55.132812 74.558594 C 54.769531 74.558594 54.472656 74.855469 54.472656 75.21875 C 54.472656 75.582031 54.769531 75.878906 55.132812 75.878906 C 55.5 75.878906 55.796875 75.582031 55.796875 75.21875 C 55.796875 74.855469 55.5 74.558594 55.132812 74.558594 Z M 55.132812 74.558594 " fill-opacity="1" fill-rule="nonzero"/></svg>