<svg xmlns="http://www.w3.org/2000/svg" xmlns:xlink="http://www.w3.org/1999/xlink" width="128" zoomAndPan="magnify" viewBox="0 0 96 95.999999" height="128" preserveAspectRatio="xMidYMid meet" version="1.0"><path fill="#6396f7" d="M 81.445312 51.058594 C 81.445312 52.089844 81.394531 53.117188 81.292969 54.140625 C 81.191406 55.164062 81.042969 56.183594 80.839844 57.191406 C 80.640625 58.203125 80.390625 59.199219 80.09375 60.183594 C 79.792969 61.167969 79.449219 62.136719 79.054688 63.089844 C 78.660156 64.039062 78.222656 64.96875 77.738281 65.878906 C 77.253906 66.785156 76.726562 67.667969 76.15625 68.523438 C 75.585938 69.378906 74.972656 70.203125 74.320312 71 C 73.667969 71.796875 72.980469 72.558594 72.253906 73.285156 C 71.527344 74.015625 70.765625 74.703125 69.96875 75.359375 C 69.175781 76.011719 68.351562 76.625 67.496094 77.195312 C 66.640625 77.765625 65.761719 78.296875 64.855469 78.78125 C 63.949219 79.265625 63.019531 79.707031 62.070312 80.101562 C 61.121094 80.492188 60.15625 80.839844 59.171875 81.140625 C 58.1875 81.4375 57.191406 81.6875 56.183594 81.890625 C 55.175781 82.089844 54.160156 82.242188 53.136719 82.339844 C 52.113281 82.441406 51.089844 82.492188 50.0625 82.492188 C 49.035156 82.492188 48.007812 82.441406 46.984375 82.339844 C 45.960938 82.242188 44.945312 82.089844 43.9375 81.890625 C 42.929688 81.6875 41.933594 81.4375 40.949219 81.140625 C 39.96875 80.839844 39 80.492188 38.050781 80.101562 C 37.101562 79.707031 36.171875 79.265625 35.265625 78.78125 C 34.359375 78.296875 33.480469 77.765625 32.625 77.195312 C 31.769531 76.625 30.945312 76.011719 30.152344 75.359375 C 29.355469 74.703125 28.597656 74.015625 27.871094 73.285156 C 27.144531 72.558594 26.453125 71.796875 25.800781 71 C 25.148438 70.203125 24.539062 69.378906 23.96875 68.523438 C 23.394531 67.667969 22.867188 66.785156 22.382812 65.878906 C 21.898438 64.96875 21.460938 64.039062 21.066406 63.089844 C 20.671875 62.136719 20.328125 61.167969 20.03125 60.183594 C 19.730469 59.199219 19.480469 58.203125 19.28125 57.191406 C 19.082031 56.183594 18.929688 55.164062 18.828125 54.140625 C 18.726562 53.117188 18.679688 52.089844 18.679688 51.058594 C 18.679688 50.03125 18.726562 49.003906 18.828125 47.980469 C 18.929688 46.953125 19.082031 45.9375 19.28125 44.925781 C 19.480469 43.917969 19.730469 42.921875 20.03125 41.933594 C 20.328125 40.949219 20.671875 39.980469 21.066406 39.03125 C 21.460938 38.078125 21.898438 37.148438 22.382812 36.242188 C 22.867188 35.335938 23.394531 34.453125 23.96875 33.597656 C 24.539062 32.742188 25.148438 31.914062 25.800781 31.117188 C 26.453125 30.324219 27.144531 29.5625 27.871094 28.832031 C 28.597656 28.105469 29.355469 27.414062 30.152344 26.761719 C 30.945312 26.109375 31.769531 25.496094 32.625 24.925781 C 33.480469 24.351562 34.359375 23.824219 35.265625 23.339844 C 36.171875 22.851562 37.101562 22.414062 38.050781 22.019531 C 39 21.625 39.96875 21.277344 40.949219 20.980469 C 41.933594 20.679688 42.929688 20.429688 43.9375 20.230469 C 44.945312 20.03125 45.960938 19.878906 46.984375 19.777344 C 48.007812 19.675781 49.035156 19.625 50.0625 19.625 C 51.089844 19.625 52.113281 19.675781 53.136719 19.777344 C 54.160156 19.878906 55.175781 20.03125 56.183594 20.230469 C 57.191406 20.429688 58.1875 20.679688 59.171875 20.980469 C 60.15625 21.277344 61.121094 21.625 62.070312 22.019531 C 63.019531 22.414062 63.949219 22.851562 64.855469 23.339844 C 65.761719 23.824219 66.640625 24.351562 67.496094 24.925781 C 68.351562 25.496094 69.175781 26.109375 69.96875 26.761719 C 70.765625 27.414062 71.527344 28.105469 72.253906 28.832031 C 72.980469 29.5625 73.667969 30.324219 74.320312 31.117188 C 74.972656 31.914062 75.585938 32.742188 76.15625 33.597656 C 76.726562 34.453125 77.253906 35.335938 77.738281 36.242188 C 78.222656 37.148438 78.660156 38.078125 79.054688 39.03125 C 79.449219 39.980469 79.792969 40.949219 80.09375 41.933594 C 80.390625 42.921875 80.640625 43.917969 80.839844 44.925781 C 81.042969 45.9375 81.191406 46.953125 81.292969 47.980469 C 81.394531 49.003906 81.445312 50.03125 81.445312 51.058594 Z M 81.445312 51.058594 " fill-opacity="1" fill-rule="nonzero"/><path fill="#699bfa" d="M 34.273438 51.074219 C 34.273438 51.074219 34.371094 51.203125 34.949219 50.621094 C 35.53125 50.042969 35.175781 49.136719 36.269531 49.074219 C 37.367188 49.007812 37.558594 50.171875 39.75 50.105469 C 41.941406 50.042969 41.617188 48.878906 43.90625 48.460938 C 46.195312 48.042969 49.738281 48.558594 51.347656 46.492188 C 52.960938 44.425781 55.246094 42.652344 53.347656 40.972656 C 51.445312 39.296875 49.898438 39.683594 49.707031 37.683594 C 49.511719 35.683594 49.898438 34.164062 47.417969 33.8125 C 44.9375 33.457031 44.132812 34.84375 42.777344 33.8125 C 41.425781 32.777344 38.65625 32.808594 36.785156 33.421875 C 34.917969 34.035156 30.085938 38.878906 30.601562 42.425781 C 31.117188 45.976562 33.53125 47.039062 33.824219 48.203125 C 34.113281 49.363281 34.273438 51.074219 34.273438 51.074219 Z M 34.273438 51.074219 " fill-opacity="1" fill-rule="nonzero"/><path fill="#72a1fc" d="M 33.855469 49.074219 C 33.855469 49.074219 33.832031 50.742188 34.375 50.457031 C 34.917969 50.171875 35.109375 48.75 35.851562 48.460938 C 36.59375 48.171875 38.363281 48.492188 39.460938 48.878906 C 40.554688 49.269531 42.003906 48.105469 43.292969 47.234375 C 44.582031 46.363281 46.546875 46.394531 48.546875 45.878906 C 50.542969 45.363281 51.671875 44.234375 51.929688 43.039062 C 52.1875 41.847656 51.605469 41.683594 49.707031 40.75 C 47.804688 39.8125 47.773438 39.554688 47.707031 37.683594 C 47.644531 35.8125 47.160156 34.519531 45.582031 34.8125 C 44.003906 35.101562 40.75 35.199219 39.75 34.8125 C 38.75 34.425781 37.011719 35.457031 35.722656 35.714844 C 34.433594 35.972656 32.277344 34.648438 32.242188 38.003906 C 32.210938 41.363281 33.855469 49.074219 33.855469 49.074219 Z M 33.855469 49.074219 " fill-opacity="1" fill-rule="nonzero"/><path fill="#699bfa" d="M 50.058594 21.097656 C 50.058594 21.097656 69.582031 22.066406 74.738281 35.910156 C 75.480469 38.425781 74.867188 40.492188 67.683594 34.164062 C 62.945312 29.996094 56.761719 27.746094 51.960938 27.390625 C 47.160156 27.035156 38.429688 20.675781 50.058594 21.097656 Z M 50.058594 21.097656 " fill-opacity="1" fill-rule="nonzero"/><path fill="#5a8ef2" d="M 81.445312 51.058594 C 81.445312 49.632812 81.347656 48.226562 81.164062 46.847656 C 76.757812 45.953125 69.179688 53.492188 67.683594 53.367188 C 66.167969 53.238281 64.75 54.753906 62.785156 54.398438 C 60.820312 54.042969 58.886719 56.464844 57.726562 57.238281 C 56.566406 58.011719 54.539062 59.949219 54.539062 59.949219 C 54.539062 59.949219 39.089844 62.546875 35.964844 61.804688 C 32.839844 61.0625 32.679688 57.867188 31.519531 57.191406 C 30.359375 56.511719 30.292969 57.15625 28.585938 55.707031 C 26.878906 54.253906 25.914062 52.21875 25.558594 50.25 C 25.203125 48.285156 27.976562 44.636719 27.492188 41.667969 C 27.007812 38.699219 22.335938 36.730469 22.335938 36.730469 C 22.335938 36.730469 22.21875 36.804688 22.011719 36.949219 C 19.878906 41.191406 18.679688 45.984375 18.679688 51.058594 C 18.679688 68.417969 32.730469 82.492188 50.0625 82.492188 C 67.394531 82.492188 81.445312 68.417969 81.445312 51.058594 Z M 81.445312 51.058594 " fill-opacity="1" fill-rule="nonzero"/><path fill="#5186ed" d="M 50.609375 79.265625 C 33.277344 79.265625 19.226562 65.191406 19.226562 47.832031 C 19.226562 46.585938 19.296875 45.355469 19.441406 44.148438 C 18.941406 46.371094 18.679688 48.683594 18.679688 51.058594 C 18.679688 68.417969 32.730469 82.492188 50.0625 82.492188 C 66.148438 82.492188 79.410156 70.367188 81.230469 54.742188 C 78.085938 68.777344 65.570312 79.265625 50.609375 79.265625 Z M 50.609375 79.265625 " fill-opacity="1" fill-rule="nonzero"/><path fill="#5186ed" d="M 26.105469 47.023438 C 26.125 47.140625 26.148438 47.253906 26.175781 47.367188 C 26.816406 45.679688 27.679688 43.734375 27.53125 41.988281 C 26.867188 43.9375 25.886719 45.804688 26.105469 47.023438 Z M 26.105469 47.023438 " fill-opacity="1" fill-rule="nonzero"/><path fill="#81d3a2" d="M 28.546875 31.886719 C 28.546875 31.886719 27.796875 32.425781 27.863281 32.769531 C 27.925781 33.113281 28.441406 33.003906 28.546875 33.15625 C 28.65625 33.304688 29.0625 32.703125 29.300781 32.511719 C 29.535156 32.316406 29.6875 32.253906 30.179688 32.253906 C 30.671875 32.253906 30.5 31.910156 30.609375 31.714844 C 30.714844 31.523438 31.679688 31.222656 31.9375 31.027344 C 32.195312 30.835938 33.613281 30.855469 34.191406 30.554688 C 34.769531 30.253906 35.179688 29.890625 35.671875 30.019531 C 36.167969 30.148438 36.273438 30.511719 36.851562 30.554688 C 37.433594 30.597656 38.011719 30.597656 38.160156 30.253906 C 38.3125 29.910156 39.277344 29.609375 38.570312 29.417969 C 37.863281 29.222656 37.5625 29.050781 37.882812 28.640625 C 38.203125 28.234375 39.234375 27.417969 39.835938 27.460938 C 40.4375 27.503906 40.542969 27.117188 40.628906 26.964844 C 40.714844 26.816406 41.679688 26.214844 42.476562 26.171875 C 43.269531 26.128906 44.148438 26.214844 44.34375 26.664062 C 44.535156 27.117188 43.847656 27.394531 44.148438 27.933594 C 44.449219 28.46875 44.664062 28.945312 44.214844 29.375 C 43.761719 29.804688 43.699219 30.554688 43.847656 31.136719 C 44 31.714844 44.042969 31.910156 44.472656 31.886719 C 44.898438 31.867188 45.050781 31.414062 45.585938 31.371094 C 46.125 31.328125 46.832031 31.414062 47.132812 30.984375 C 47.433594 30.554688 48.074219 30.234375 48.570312 30.210938 C 49.0625 30.191406 49.8125 30.296875 50.070312 30.105469 C 50.328125 29.910156 51.101562 29.804688 51.078125 29.417969 C 51.058594 29.03125 50.84375 28.640625 51.078125 28.296875 C 51.316406 27.953125 52.347656 27.804688 52.730469 27.695312 C 53.117188 27.589844 53.675781 27.289062 53.871094 26.902344 C 54.0625 26.515625 54.449219 26.492188 54.941406 26.578125 C 55.4375 26.664062 55.953125 26.40625 56.058594 26.171875 C 56.164062 25.933594 56.207031 25.761719 55.867188 25.484375 C 55.523438 25.203125 55.542969 25.011719 55.585938 24.753906 C 55.628906 24.496094 54.835938 24.042969 54.449219 24 C 54.0625 23.957031 53.914062 23.613281 53.570312 23.460938 C 53.226562 23.3125 52.21875 23.183594 51.746094 23.226562 C 51.273438 23.269531 50.867188 23.742188 50.457031 23.871094 C 50.050781 24 49.191406 23.785156 48.3125 24.066406 C 47.433594 24.34375 46.703125 24.386719 46.359375 24.109375 C 46.015625 23.828125 45.671875 23.957031 45.328125 24.109375 C 44.984375 24.257812 44.277344 24.367188 43.847656 24.214844 C 43.417969 24.066406 42.945312 24.152344 42.476562 24.453125 C 42.003906 24.753906 41.058594 25.03125 40.566406 25.183594 C 40.070312 25.332031 40.050781 25.65625 39.601562 25.890625 C 39.148438 26.128906 38.503906 26.214844 38.269531 26.515625 C 38.03125 26.816406 37.925781 27.308594 37.625 27.308594 C 37.324219 27.308594 36.765625 27.265625 36.488281 27.4375 C 36.210938 27.609375 36.167969 27.695312 36.058594 28.191406 C 35.953125 28.683594 35.394531 29.203125 34.984375 29.160156 C 34.578125 29.117188 33.976562 28.792969 33.546875 29.03125 C 33.117188 29.265625 32.863281 29.589844 32.625 29.503906 C 32.390625 29.417969 31.894531 29.394531 31.59375 29.503906 C 31.296875 29.609375 30.996094 29.847656 30.800781 30.191406 C 30.609375 30.535156 30.628906 30.964844 30.371094 31.09375 C 30.113281 31.222656 29.214844 31.179688 28.546875 31.886719 Z M 28.546875 31.886719 " fill-opacity="1" fill-rule="nonzero"/><path fill="#8bd9aa" d="M 55.867188 25.484375 C 55.523438 25.203125 55.542969 25.011719 55.585938 24.753906 C 55.628906 24.496094 54.835938 24.042969 54.449219 24 C 54.0625 23.957031 53.914062 23.613281 53.570312 23.460938 C 53.226562 23.3125 52.21875 23.183594 51.746094 23.226562 C 51.273438 23.269531 50.867188 23.742188 50.457031 23.871094 C 50.050781 24 49.191406 23.785156 48.3125 24.066406 C 47.433594 24.34375 46.703125 24.386719 46.359375 24.109375 C 46.015625 23.828125 45.671875 23.957031 45.328125 24.109375 C 45.257812 24.140625 45.167969 24.167969 45.066406 24.195312 C 46.519531 25.699219 49.683594 27.222656 51.960938 27.390625 C 52.359375 27.417969 52.765625 27.460938 53.179688 27.515625 C 53.464844 27.367188 53.746094 27.152344 53.871094 26.902344 C 54.0625 26.515625 54.449219 26.492188 54.941406 26.578125 C 55.4375 26.664062 55.953125 26.40625 56.058594 26.171875 C 56.164062 25.933594 56.207031 25.761719 55.867188 25.484375 Z M 55.867188 25.484375 " fill-opacity="1" fill-rule="nonzero"/><path fill="#81d3a2" d="M 80.542969 47.640625 C 80.007812 47.640625 79.191406 47.511719 78.871094 47.105469 C 78.839844 47.070312 78.816406 47.039062 78.796875 47.011719 C 79.046875 47.0625 79.859375 47.203125 80.308594 47.039062 C 80.84375 46.847656 80.746094 46.808594 81.160156 46.804688 C 80.394531 41.144531 78.125 35.960938 74.765625 31.675781 C 74.5 32.089844 74.066406 32.507812 73.441406 32.402344 C 72.261719 32.210938 72.003906 31.4375 71.464844 31.242188 C 70.929688 31.050781 70.351562 30.707031 70.007812 30.941406 C 69.664062 31.179688 69.191406 31.5 68.71875 31.394531 C 68.246094 31.285156 68.03125 31.007812 67.644531 30.855469 C 67.261719 30.707031 66.894531 30.964844 66.359375 31.050781 C 65.824219 31.136719 64.578125 31.394531 64.640625 31.609375 C 64.707031 31.824219 65.886719 31.4375 66.378906 31.609375 C 66.875 31.78125 67.21875 32.058594 67.730469 32.167969 C 68.246094 32.273438 68.71875 32.898438 68.375 33.175781 C 68.03125 33.457031 67.730469 33.414062 67.390625 33.175781 C 67.046875 32.941406 66.722656 32.640625 66.273438 32.703125 C 65.824219 32.769531 65.070312 32.769531 64.640625 32.511719 C 64.210938 32.253906 63.117188 32.46875 62.925781 32.703125 C 62.730469 32.941406 61.9375 33.929688 61.703125 34.46875 C 61.464844 35.003906 60.15625 34.445312 60.050781 34.832031 C 59.941406 35.21875 60.007812 35.242188 59.492188 35.371094 C 58.976562 35.5 58.054688 36.035156 58.289062 36.550781 C 58.527344 37.066406 59.191406 36.53125 59.597656 36.292969 C 60.007812 36.058594 60.652344 36.230469 61.078125 35.992188 C 61.507812 35.757812 62.066406 36.378906 62.582031 36.292969 C 63.097656 36.207031 63.847656 35.777344 64.320312 35.863281 C 64.792969 35.949219 65.136719 36.078125 65.4375 35.863281 C 65.738281 35.648438 66.335938 35.585938 66.230469 35.863281 C 66.121094 36.144531 65.113281 36.550781 65.394531 36.765625 C 65.671875 36.980469 66.660156 36.980469 66.960938 36.765625 C 67.261719 36.550781 67.515625 36.808594 67.730469 36.9375 C 67.945312 37.066406 68.375 36.789062 68.570312 37.175781 C 68.761719 37.5625 68.785156 38.269531 68.332031 38.3125 C 67.882812 38.355469 67.796875 38.960938 67.453125 39.046875 C 67.109375 39.132812 66.765625 39.195312 66.230469 39.046875 C 65.695312 38.894531 65.800781 38.679688 65.542969 38.445312 C 65.285156 38.207031 64.984375 38.183594 64.640625 38.121094 C 64.296875 38.054688 64.128906 37.882812 63.957031 37.582031 C 63.785156 37.28125 63.246094 36.875 62.796875 37.023438 C 62.347656 37.175781 61.402344 36.960938 61.015625 36.894531 C 60.628906 36.832031 59.554688 36.59375 59.363281 37.089844 C 59.171875 37.582031 59 38.226562 58.460938 38.269531 C 57.925781 38.3125 57.710938 38.917969 57.453125 39.132812 C 57.195312 39.347656 57.367188 39.710938 57.089844 40.164062 C 56.808594 40.613281 57.433594 40.980469 57.089844 41.214844 C 56.746094 41.453125 56.722656 41.625 56.402344 42.03125 C 56.078125 42.441406 55.886719 42.71875 55.929688 43.0625 C 55.972656 43.410156 55.992188 43.644531 55.738281 43.902344 C 55.480469 44.160156 55.394531 44.675781 55.738281 44.976562 C 56.078125 45.277344 55.867188 45.492188 55.671875 45.835938 C 55.480469 46.179688 55.566406 46.523438 55.5 47.105469 C 55.4375 47.683594 55.78125 47.964844 56.144531 48.417969 C 56.507812 48.867188 57.433594 49.941406 57.539062 50.394531 C 57.644531 50.84375 57.882812 51.511719 58.527344 51.488281 C 59.171875 51.46875 59.683594 50.929688 60.351562 50.886719 C 61.015625 50.84375 62.175781 51.273438 62.410156 51.769531 C 62.644531 52.261719 63.03125 52.15625 63.332031 52.15625 C 63.632812 52.15625 63.71875 52.800781 64.210938 52.777344 C 64.707031 52.757812 65.027344 51.917969 65.308594 52.113281 C 65.585938 52.304688 65.414062 52.648438 66.035156 52.777344 C 66.660156 52.90625 67.003906 52.734375 67.109375 53.402344 C 67.21875 54.070312 67.324219 54.757812 66.722656 55.207031 C 66.121094 55.660156 65.78125 56.003906 65.929688 56.691406 C 66.078125 57.378906 66.746094 58.433594 66.464844 59.078125 C 66.1875 59.722656 65.738281 59.851562 65.738281 60.453125 C 65.738281 61.054688 65.480469 61.375 65.308594 61.847656 C 65.136719 62.320312 64.535156 62.472656 64.296875 63.011719 C 64.0625 63.546875 64.019531 64.558594 63.828125 65.265625 C 63.632812 65.976562 63.871094 66.425781 63.484375 66.984375 C 63.097656 67.542969 63.03125 68.253906 63.226562 68.726562 C 63.417969 69.199219 63.054688 69.566406 63.140625 70.101562 C 63.226562 70.640625 63.441406 70.683594 63.527344 71.328125 C 63.613281 71.972656 63.355469 73.84375 63.785156 74.273438 C 64.210938 74.703125 64.792969 74.121094 65.308594 74.273438 C 65.820312 74.421875 66.875 74.335938 67.304688 73.929688 C 67.730469 73.519531 67.710938 73.820312 68.589844 72.746094 C 69.46875 71.671875 69.019531 71.285156 69.898438 70.984375 C 70.777344 70.683594 71.507812 70.339844 71.617188 69.84375 C 71.722656 69.351562 71.464844 69.027344 71.960938 68.726562 C 72.453125 68.425781 72.667969 68.148438 72.6875 67.394531 C 72.710938 66.640625 73.226562 66.339844 74.019531 65.417969 C 74.8125 64.492188 75.351562 63.742188 75.394531 63.375 C 75.4375 63.011719 75.84375 62.945312 75.886719 62.171875 C 75.929688 61.398438 76.015625 60.816406 76.273438 60.324219 C 76.53125 59.828125 77.023438 59.292969 77.261719 59.183594 C 77.496094 59.078125 77.6875 58.925781 77.796875 58.5625 C 77.902344 58.195312 78.183594 57.980469 78.332031 57.699219 C 78.484375 57.421875 77.796875 56.796875 78.332031 56.390625 C 78.871094 55.980469 79.640625 55.464844 79.707031 54.671875 C 79.769531 53.875 80.265625 52.992188 80.265625 52.777344 C 80.265625 52.5625 80.136719 52.304688 79.75 52.261719 C 79.363281 52.21875 79.277344 52.5625 78.933594 52.628906 C 78.589844 52.691406 77.515625 52.261719 76.832031 52.304688 C 76.144531 52.347656 75.179688 52.347656 74.597656 51.660156 C 74.019531 50.972656 73.613281 49.921875 73.71875 49.8125 C 73.828125 49.707031 74.425781 50.695312 74.941406 51.058594 C 75.457031 51.425781 75.800781 51.511719 76.1875 51.488281 C 76.574219 51.46875 77.300781 51.832031 78.332031 51.683594 C 79.363281 51.53125 80.265625 51.382812 80.265625 51.058594 C 80.265625 50.738281 79.878906 50.285156 80.265625 49.75 C 80.648438 49.210938 81.339844 48.515625 81.316406 48.207031 C 81.300781 48.011719 81.28125 47.8125 81.257812 47.617188 C 81.109375 47.601562 80.914062 47.640625 80.542969 47.640625 Z M 80.542969 47.640625 " fill-opacity="1" fill-rule="nonzero"/><path fill="#8bd9aa" d="M 63.625 38.359375 C 63.625 38.359375 63.140625 38.523438 62.6875 38.136719 C 62.238281 37.746094 61.53125 37.554688 61.109375 37.78125 C 60.691406 38.003906 60.046875 37.296875 59.855469 38.039062 C 59.660156 38.78125 59.726562 38.941406 59.144531 39.296875 C 58.566406 39.652344 57.984375 39.84375 58.113281 40.457031 C 58.242188 41.070312 58.371094 42.136719 57.953125 42.554688 C 57.535156 42.976562 56.953125 43.75 56.953125 44.136719 C 56.953125 44.523438 56.792969 45.523438 57.082031 46.203125 C 57.375 46.878906 57.855469 47.621094 58.664062 47.074219 C 59.46875 46.523438 59.855469 45.203125 60.242188 44.460938 C 60.628906 43.71875 61.367188 43.234375 62.207031 43.136719 C 63.042969 43.039062 63.816406 42.523438 63.816406 41.683594 C 63.816406 40.84375 64.398438 40.78125 66.039062 40.328125 C 67.683594 39.878906 65.976562 39.007812 65.136719 38.972656 C 64.300781 38.941406 64.492188 38.394531 63.753906 38.359375 Z M 63.625 38.359375 " fill-opacity="1" fill-rule="nonzero"/><path fill="#73c996" d="M 81.257812 47.617188 C 81.109375 47.601562 80.914062 47.640625 80.542969 47.640625 C 80.007812 47.640625 79.191406 47.511719 78.871094 47.105469 C 78.839844 47.070312 78.816406 47.039062 78.796875 47.011719 C 79.046875 47.0625 79.859375 47.203125 80.308594 47.039062 C 80.84375 46.847656 80.746094 46.808594 81.160156 46.804688 C 80.394531 41.144531 78.125 35.960938 74.765625 31.675781 C 74.757812 31.691406 74.746094 31.707031 74.734375 31.722656 C 76.914062 34.453125 77.71875 44.695312 76.15625 45.652344 C 74.578125 46.621094 71.550781 49.492188 70.777344 51.074219 C 70.097656 52.464844 67.671875 53.183594 67.097656 53.335938 C 67.101562 53.355469 67.105469 53.378906 67.109375 53.402344 C 67.21875 54.070312 67.324219 54.757812 66.722656 55.207031 C 66.121094 55.660156 65.78125 56.003906 65.929688 56.691406 C 66.078125 57.378906 66.746094 58.433594 66.464844 59.078125 C 66.1875 59.722656 65.738281 59.851562 65.738281 60.453125 C 65.738281 61.054688 65.480469 61.375 65.308594 61.847656 C 65.136719 62.320312 64.535156 62.472656 64.296875 63.011719 C 64.0625 63.546875 64.019531 64.558594 63.828125 65.265625 C 63.632812 65.976562 63.871094 66.425781 63.484375 66.984375 C 63.097656 67.542969 63.03125 68.253906 63.226562 68.726562 C 63.417969 69.199219 63.054688 69.566406 63.140625 70.101562 C 63.226562 70.640625 63.441406 70.683594 63.527344 71.328125 C 63.613281 71.972656 63.355469 73.84375 63.785156 74.273438 C 64.210938 74.703125 64.792969 74.121094 65.308594 74.273438 C 65.824219 74.421875 66.875 74.335938 67.304688 73.929688 C 67.730469 73.519531 67.710938 73.820312 68.589844 72.746094 C 69.46875 71.671875 69.019531 71.285156 69.898438 70.984375 C 70.777344 70.683594 71.507812 70.339844 71.617188 69.84375 C 71.722656 69.351562 71.464844 69.027344 71.960938 68.726562 C 72.453125 68.425781 72.667969 68.148438 72.6875 67.394531 C 72.710938 66.640625 73.226562 66.339844 74.019531 65.417969 C 74.8125 64.492188 75.351562 63.742188 75.394531 63.375 C 75.4375 63.011719 75.84375 62.945312 75.886719 62.171875 C 75.929688 61.398438 76.015625 60.816406 76.273438 60.324219 C 76.53125 59.828125 77.023438 59.292969 77.261719 59.183594 C 77.496094 59.078125 77.6875 58.925781 77.796875 58.5625 C 77.902344 58.195312 78.183594 57.980469 78.332031 57.699219 C 78.484375 57.421875 77.796875 56.796875 78.332031 56.390625 C 78.871094 55.980469 79.640625 55.464844 79.707031 54.671875 C 79.769531 53.875 80.265625 52.992188 80.265625 52.777344 C 80.265625 52.5625 80.136719 52.304688 79.75 52.261719 C 79.363281 52.21875 79.277344 52.5625 78.933594 52.628906 C 78.589844 52.691406 77.515625 52.261719 76.832031 52.304688 C 76.144531 52.347656 75.179688 52.347656 74.597656 51.660156 C 74.019531 50.972656 73.613281 49.921875 73.71875 49.8125 C 73.828125 49.707031 74.425781 50.695312 74.941406 51.058594 C 75.457031 51.425781 75.800781 51.511719 76.1875 51.488281 C 76.574219 51.46875 77.304688 51.832031 78.332031 51.683594 C 79.363281 51.53125 80.265625 51.382812 80.265625 51.058594 C 80.265625 50.738281 79.878906 50.285156 80.265625 49.75 C 80.648438 49.210938 81.339844 48.515625 81.316406 48.207031 C 81.300781 48.011719 81.28125 47.8125 81.257812 47.617188 Z M 81.257812 47.617188 " fill-opacity="1" fill-rule="nonzero"/><path fill="#6bbf8d" d="M 68.648438 56.078125 C 68.648438 56.078125 67.457031 57.078125 67.617188 57.753906 C 67.78125 58.433594 68.390625 59.851562 67.617188 60.820312 C 66.84375 61.789062 65.8125 63.273438 65.847656 64.304688 C 65.878906 65.335938 65.78125 67.273438 65.234375 68.144531 C 64.6875 69.015625 64.011719 70.242188 64.65625 71.402344 C 65.300781 72.566406 66.265625 72.308594 66.714844 71.402344 C 67.167969 70.5 67.8125 69.402344 68.648438 69.46875 C 69.488281 69.53125 71.9375 68.371094 71.355469 67.242188 C 70.777344 66.113281 71.097656 64.628906 72.066406 63.980469 C 73.03125 63.335938 74.804688 63.015625 74.253906 61.722656 C 73.707031 60.433594 72.257812 61.207031 71.355469 61.722656 C 70.453125 62.238281 70.613281 64.371094 69.328125 63.980469 C 68.039062 63.59375 67.78125 62.789062 68.683594 61.820312 C 69.582031 60.851562 70.519531 61.238281 70.390625 59.625 C 70.261719 58.011719 70.648438 57.65625 71.355469 56.367188 C 72.066406 55.074219 71.710938 54.109375 70.777344 53.785156 C 69.839844 53.460938 69.421875 55.207031 68.648438 56.078125 Z M 68.648438 56.078125 " fill-opacity="1" fill-rule="nonzero"/><path fill="#8bd9aa" d="M 74.738281 35.910156 C 74.242188 34.570312 73.605469 33.351562 72.871094 32.242188 C 72.15625 31.941406 71.902344 31.402344 71.464844 31.242188 C 70.929688 31.050781 70.351562 30.707031 70.007812 30.941406 C 69.664062 31.179688 69.191406 31.5 68.71875 31.394531 C 68.246094 31.285156 68.03125 31.007812 67.644531 30.855469 C 67.261719 30.707031 66.894531 30.964844 66.359375 31.050781 C 65.824219 31.136719 64.578125 31.394531 64.640625 31.609375 C 64.707031 31.824219 65.886719 31.4375 66.378906 31.609375 C 66.875 31.78125 67.21875 32.058594 67.730469 32.167969 C 68.246094 32.273438 68.71875 32.898438 68.375 33.175781 C 68.03125 33.457031 67.730469 33.414062 67.390625 33.175781 C 67.046875 32.941406 66.722656 32.640625 66.273438 32.703125 C 66.164062 32.71875 66.039062 32.730469 65.90625 32.738281 C 66.515625 33.183594 67.109375 33.660156 67.683594 34.164062 C 74.867188 40.492188 75.480469 38.425781 74.738281 35.910156 Z M 74.738281 35.910156 " fill-opacity="1" fill-rule="nonzero"/><path fill="#81d3a2" d="M 57.605469 60.515625 C 57.304688 59.980469 57.519531 59.613281 57.261719 59.226562 C 57.003906 58.839844 57.152344 58.304688 56.464844 58.347656 C 55.78125 58.390625 54.148438 59.078125 53.804688 58.90625 C 53.460938 58.734375 52.753906 58.582031 52.152344 58.539062 C 51.550781 58.496094 51.59375 58.175781 51.082031 58.066406 C 50.566406 57.957031 50.308594 57.269531 49.878906 57.078125 C 49.449219 56.882812 48.246094 55.832031 47.96875 55.746094 C 47.691406 55.660156 47.453125 55.980469 46.960938 55.980469 C 46.464844 55.980469 46.25 55.53125 45.671875 55.660156 C 45.09375 55.789062 44.898438 56.132812 44.40625 55.894531 C 43.914062 55.660156 43.785156 54.949219 43.527344 54.949219 C 43.269531 54.949219 42.882812 54.949219 42.433594 54.519531 C 41.980469 54.089844 41.421875 53.445312 40.757812 53.488281 C 40.09375 53.53125 39.386719 53.898438 39 54.820312 C 38.613281 55.746094 38.054688 55.875 37.820312 56.667969 C 37.582031 57.464844 37.195312 58.5625 36.851562 58.648438 C 36.507812 58.734375 36.316406 59.078125 36.058594 59.59375 C 35.800781 60.109375 35.84375 60.386719 35.457031 60.324219 C 35.070312 60.257812 35.050781 59.894531 34.578125 59.9375 C 34.105469 59.980469 33.699219 59.3125 33.160156 58.90625 C 32.625 58.496094 32.605469 58.390625 32.667969 57.871094 C 32.734375 57.355469 32.925781 56.96875 32.582031 56.734375 C 32.238281 56.496094 31.894531 56.777344 31.789062 56.28125 C 31.679688 55.789062 31.636719 55.722656 31.445312 55.292969 C 31.253906 54.863281 31.636719 54.003906 31.488281 53.726562 C 31.339844 53.445312 31.015625 53.035156 30.867188 53.488281 C 30.714844 53.941406 30.78125 55.121094 30.308594 55.207031 C 29.835938 55.292969 29.835938 54.800781 29.34375 54.714844 C 28.847656 54.628906 28.289062 54.199219 27.90625 53.789062 C 27.519531 53.382812 27.410156 53.1875 27.175781 52.992188 C 26.9375 52.800781 26.980469 52.519531 26.832031 52.070312 C 26.679688 51.617188 26.402344 51.574219 26.402344 51.058594 C 26.402344 50.542969 26.382812 50.179688 26.832031 50.09375 C 27.28125 50.007812 28.183594 49.492188 28.613281 49.210938 C 29.042969 48.933594 29.707031 49.277344 30.480469 49.621094 C 31.253906 49.964844 31.488281 49.46875 31.59375 49.167969 C 31.703125 48.867188 32.519531 48.328125 32.96875 48.632812 C 33.417969 48.933594 33.503906 49.554688 33.699219 50.4375 C 33.890625 51.316406 34.191406 51.1875 34.34375 50.886719 C 34.492188 50.585938 34.191406 49.898438 34.386719 49.511719 C 34.578125 49.125 34.984375 48.996094 35.027344 48.589844 C 35.070312 48.179688 35.351562 47.449219 36.167969 47.148438 C 36.980469 46.847656 37.605469 46.847656 37.820312 46.652344 C 38.03125 46.460938 38.761719 46.417969 38.460938 45.878906 C 38.160156 45.34375 38.828125 45.515625 38.699219 45.128906 C 38.570312 44.742188 39.085938 44.828125 39.0625 44.246094 C 39.042969 43.667969 38.785156 43.386719 39.597656 43.277344 C 40.414062 43.171875 41.980469 42.933594 42.28125 42.589844 C 42.582031 42.246094 42.582031 41.945312 42.777344 41.796875 C 42.96875 41.644531 43.011719 42.246094 43.460938 42.246094 C 43.914062 42.246094 43.957031 42.441406 44.300781 42.675781 C 44.640625 42.914062 45.371094 42.761719 45.222656 42.398438 C 45.070312 42.03125 44.683594 41.601562 44.300781 41.300781 C 43.914062 41 43.355469 40.871094 43.269531 40.421875 C 43.183594 39.96875 42.710938 39.28125 42.496094 39.089844 C 42.28125 38.894531 42.21875 38.164062 42.003906 37.820312 C 41.789062 37.476562 41.894531 36.765625 41.59375 36.875 C 41.292969 36.980469 40.867188 37.453125 40.824219 37.175781 C 40.78125 36.894531 40.414062 35.800781 39.878906 35.648438 C 39.34375 35.5 39.148438 35.648438 39 36.1875 C 38.847656 36.722656 38.484375 37.453125 38.03125 37.90625 C 37.582031 38.355469 37.539062 38.875 37.195312 39.003906 C 36.851562 39.132812 36.617188 38.808594 36.210938 38.355469 C 35.800781 37.90625 35.800781 37.839844 35.222656 37.96875 C 34.644531 38.097656 33.871094 37.925781 34.148438 37.582031 C 34.429688 37.238281 34.558594 37.152344 35.179688 36.894531 C 35.800781 36.636719 36.335938 36.660156 36.488281 36.035156 C 36.636719 35.414062 36.59375 35.261719 37.132812 34.726562 C 37.667969 34.1875 37.839844 33.738281 37.863281 33.347656 C 37.882812 32.960938 38.269531 32.53125 37.96875 32.402344 C 37.667969 32.273438 37.453125 32.425781 37.046875 32.125 C 36.636719 31.824219 35.953125 31.824219 35.609375 32.125 C 35.265625 32.425781 34.75 32.46875 34.085938 32.511719 C 33.417969 32.554688 32.582031 33.089844 32.132812 33.046875 C 31.679688 33.003906 31.058594 32.683594 30.414062 32.960938 C 29.773438 33.242188 28.269531 34.144531 27.238281 33.800781 C 26.210938 33.457031 25.695312 33.605469 25.5 33.285156 C 25.363281 33.054688 25 32.761719 24.660156 32.59375 C 23.796875 33.785156 23.015625 35.035156 22.324219 36.339844 C 22.394531 36.507812 22.449219 36.699219 22.476562 36.894531 C 22.5625 37.5625 22.5625 38.078125 22.90625 38.164062 C 23.246094 38.25 23.332031 37.925781 23.613281 38.164062 C 23.890625 38.398438 24.128906 38.832031 24.085938 39.132812 C 24.042969 39.433594 24.042969 39.175781 23.65625 38.894531 C 23.269531 38.617188 23.097656 38.617188 23.011719 38.960938 C 22.925781 39.304688 22.648438 40.722656 22.21875 41.453125 C 21.789062 42.183594 21.296875 42.804688 21.144531 43.625 C 20.996094 44.441406 20.394531 46.351562 20.5 46.953125 C 20.609375 47.554688 21.445312 48.136719 21.488281 48.867188 C 21.53125 49.597656 21.554688 50.585938 21.980469 51.058594 C 22.410156 51.53125 22.839844 51.46875 23.25 51.488281 C 23.65625 51.511719 24.386719 51.46875 24.773438 51.769531 C 25.15625 52.070312 25.585938 53.703125 26.058594 54.949219 C 26.53125 56.195312 27.21875 57.441406 28.417969 57.355469 C 29.621094 57.269531 29.964844 57.207031 30.308594 57.164062 C 30.652344 57.121094 31.550781 57.785156 32.238281 58.90625 C 32.925781 60.023438 33.3125 61.269531 34.191406 61.484375 C 35.070312 61.699219 35.414062 61.785156 35.523438 62.234375 C 35.628906 62.6875 35.308594 63.570312 35.070312 63.957031 C 34.835938 64.34375 34.8125 64.429688 34.730469 65.074219 C 34.644531 65.71875 34.277344 65.546875 34.234375 66.640625 C 34.191406 67.738281 34.019531 69.371094 34.578125 70.425781 C 35.136719 71.476562 35.910156 71.457031 36.210938 71.949219 C 36.507812 72.445312 37.238281 72.832031 38.074219 72.984375 C 38.914062 73.132812 40.457031 73.800781 40.953125 74.574219 C 41.445312 75.347656 41.273438 75.648438 41.851562 77.023438 C 42.433594 78.398438 42.496094 78.765625 42.691406 79.667969 C 42.828125 80.316406 42.988281 81.066406 43.195312 81.738281 C 44.074219 81.933594 44.960938 82.09375 45.863281 82.214844 C 45.863281 82.214844 45.714844 81.730469 45.867188 80.847656 C 46.015625 79.96875 45.84375 79.515625 46.464844 79.128906 C 47.089844 78.742188 47.820312 78.527344 48.117188 78.164062 C 48.417969 77.796875 50.007812 77.410156 50.457031 76.722656 C 50.910156 76.035156 50.84375 75.390625 51.082031 75.003906 C 51.316406 74.617188 51.980469 73.84375 52.046875 73.199219 C 52.109375 72.550781 53.742188 71.5625 54.34375 70.832031 C 54.941406 70.101562 56.1875 68.941406 56.402344 67.824219 C 56.617188 66.707031 57.519531 65.265625 57.605469 64.535156 C 57.6875 63.804688 58.054688 62.34375 57.945312 61.828125 C 57.839844 61.3125 57.902344 61.054688 57.605469 60.515625 Z M 57.605469 60.515625 " fill-opacity="1" fill-rule="nonzero"/><path fill="#73c996" d="M 57.605469 60.515625 C 57.304688 59.980469 57.519531 59.613281 57.261719 59.226562 C 57.003906 58.839844 57.152344 58.304688 56.464844 58.347656 C 56.324219 58.355469 56.140625 58.390625 55.9375 58.441406 C 53.410156 60.257812 51.515625 64.925781 48.804688 65.5 C 45.902344 66.113281 44.488281 64.207031 43.390625 62.238281 C 42.464844 60.578125 38.507812 59.8125 37.027344 58.527344 C 36.96875 58.589844 36.910156 58.632812 36.851562 58.648438 C 36.507812 58.734375 36.316406 59.078125 36.058594 59.59375 C 35.800781 60.109375 35.84375 60.386719 35.457031 60.324219 C 35.070312 60.257812 35.050781 59.894531 34.578125 59.9375 C 34.105469 59.980469 33.699219 59.3125 33.160156 58.90625 C 32.625 58.496094 32.605469 58.390625 32.667969 57.871094 C 32.734375 57.355469 32.925781 56.96875 32.582031 56.734375 C 32.238281 56.496094 31.894531 56.777344 31.789062 56.28125 C 31.679688 55.789062 31.636719 55.722656 31.445312 55.292969 C 31.253906 54.863281 31.636719 54.003906 31.488281 53.726562 C 31.339844 53.445312 31.015625 53.035156 30.867188 53.488281 C 30.714844 53.941406 30.78125 55.121094 30.308594 55.207031 C 29.835938 55.292969 29.835938 54.800781 29.34375 54.714844 C 28.847656 54.628906 28.289062 54.199219 27.90625 53.789062 C 27.519531 53.382812 27.410156 53.1875 27.175781 52.992188 C 26.9375 52.800781 26.980469 52.519531 26.832031 52.070312 C 26.679688 51.617188 26.402344 51.574219 26.402344 51.058594 C 26.402344 50.542969 26.382812 50.179688 26.832031 50.09375 C 27.28125 50.007812 28.183594 49.492188 28.613281 49.210938 C 29.042969 48.933594 29.707031 49.277344 30.480469 49.621094 C 31.09375 49.894531 31.371094 49.636719 31.511719 49.367188 C 30.113281 48.121094 28.171875 46.773438 27.476562 45.945312 C 26.445312 44.71875 26.800781 43.136719 27.058594 40.964844 C 27.316406 38.796875 25.605469 37.617188 25.15625 35.910156 C 24.863281 34.800781 24.101562 34.34375 23.597656 34.15625 C 23.144531 34.867188 22.71875 35.59375 22.324219 36.339844 C 22.394531 36.507812 22.449219 36.699219 22.476562 36.894531 C 22.5625 37.5625 22.5625 38.078125 22.90625 38.164062 C 23.25 38.25 23.332031 37.925781 23.613281 38.164062 C 23.890625 38.398438 24.128906 38.832031 24.085938 39.132812 C 24.042969 39.433594 24.042969 39.175781 23.65625 38.894531 C 23.269531 38.617188 23.097656 38.617188 23.011719 38.960938 C 22.925781 39.304688 22.648438 40.722656 22.21875 41.453125 C 21.789062 42.183594 21.296875 42.804688 21.144531 43.625 C 20.996094 44.441406 20.394531 46.351562 20.5 46.953125 C 20.609375 47.554688 21.445312 48.136719 21.488281 48.867188 C 21.53125 49.597656 21.554688 50.585938 21.980469 51.058594 C 22.410156 51.53125 22.839844 51.46875 23.25 51.488281 C 23.65625 51.511719 24.386719 51.46875 24.773438 51.769531 C 25.15625 52.070312 25.585938 53.703125 26.058594 54.949219 C 26.53125 56.195312 27.21875 57.441406 28.417969 57.355469 C 29.621094 57.269531 29.964844 57.207031 30.308594 57.164062 C 30.652344 57.121094 31.550781 57.785156 32.238281 58.90625 C 32.925781 60.023438 33.3125 61.269531 34.191406 61.484375 C 35.070312 61.699219 35.414062 61.785156 35.523438 62.234375 C 35.628906 62.6875 35.308594 63.570312 35.070312 63.957031 C 34.835938 64.34375 34.8125 64.429688 34.730469 65.074219 C 34.644531 65.71875 34.277344 65.546875 34.234375 66.640625 C 34.191406 67.738281 34.019531 69.371094 34.578125 70.425781 C 35.136719 71.476562 35.910156 71.457031 36.210938 71.949219 C 36.507812 72.445312 37.238281 72.832031 38.074219 72.984375 C 38.914062 73.132812 40.457031 73.800781 40.953125 74.574219 C 41.445312 75.347656 41.273438 75.648438 41.851562 77.023438 C 42.433594 78.398438 42.496094 78.765625 42.691406 79.667969 C 42.828125 80.316406 42.988281 81.066406 43.195312 81.738281 C 44.074219 81.933594 44.960938 82.09375 45.863281 82.214844 C 45.863281 82.214844 45.714844 81.730469 45.867188 80.847656 C 46.015625 79.96875 45.84375 79.515625 46.464844 79.128906 C 47.089844 78.742188 47.820312 78.527344 48.117188 78.164062 C 48.417969 77.796875 50.007812 77.410156 50.457031 76.722656 C 50.910156 76.035156 50.84375 75.390625 51.082031 75.003906 C 51.316406 74.617188 51.980469 73.84375 52.046875 73.199219 C 52.109375 72.550781 53.742188 71.5625 54.34375 70.832031 C 54.941406 70.101562 56.1875 68.941406 56.402344 67.824219 C 56.617188 66.707031 57.519531 65.265625 57.605469 64.535156 C 57.6875 63.804688 58.054688 62.34375 57.945312 61.828125 C 57.839844 61.3125 57.902344 61.054688 57.605469 60.515625 Z M 57.605469 60.515625 " fill-opacity="1" fill-rule="nonzero"/><path fill="#6bbf8d" d="M 42.296875 78.152344 C 42.492188 78.714844 42.5625 79.074219 42.691406 79.667969 C 42.828125 80.316406 42.988281 81.066406 43.195312 81.738281 C 44.074219 81.933594 44.960938 82.09375 45.863281 82.214844 C 45.863281 82.214844 45.714844 81.730469 45.867188 80.847656 C 46.015625 79.96875 45.84375 79.515625 46.464844 79.128906 C 46.527344 79.089844 46.589844 79.054688 46.65625 79.019531 C 45.167969 78.832031 43.710938 78.539062 42.296875 78.152344 Z M 42.296875 78.152344 " fill-opacity="1" fill-rule="nonzero"/><path fill="#6bbf8d" d="M 24.414062 40.683594 C 24.414062 40.683594 24.1875 40.296875 23.738281 40.265625 C 23.289062 40.230469 23.191406 40.78125 23.125 41.199219 C 23.0625 41.621094 23.125 42.328125 22.644531 42.878906 C 22.160156 43.425781 21.835938 43.652344 21.742188 44.425781 C 21.644531 45.203125 21.578125 45.816406 21.515625 46.363281 C 21.449219 46.910156 21.160156 47.332031 21.742188 47.816406 C 22.320312 48.300781 22.128906 48.527344 22.351562 49.203125 C 22.578125 49.878906 22.835938 50.914062 23.511719 50.558594 C 24.1875 50.203125 24.511719 49.816406 24.414062 49.363281 C 24.316406 48.914062 24.316406 48.363281 25.125 48.265625 C 25.929688 48.171875 25.316406 48.265625 25.316406 48.265625 C 25.316406 48.265625 26.992188 47.195312 26.542969 46.683594 C 26.089844 46.167969 24.800781 45.910156 24.800781 45.460938 C 24.800781 45.007812 24.832031 44.074219 25.089844 43.425781 C 25.347656 42.78125 25.734375 42.554688 25.21875 41.976562 C 24.703125 41.394531 24.898438 40.8125 24.414062 40.683594 Z M 24.414062 40.683594 " fill-opacity="1" fill-rule="nonzero"/><path fill="#6bbf8d" d="M 35.59375 64.886719 C 35.59375 64.886719 35.917969 65.789062 35.59375 66.371094 C 35.273438 66.949219 34.757812 67.339844 35.046875 67.820312 C 35.335938 68.304688 35.53125 68.886719 35.59375 69.242188 C 35.660156 69.597656 35.789062 70.273438 36.175781 70.660156 C 36.5625 71.050781 36.882812 71.144531 37.625 71.402344 C 38.363281 71.664062 38.878906 71.664062 39.234375 72.210938 C 39.589844 72.757812 40.425781 72.886719 40.976562 73.015625 C 41.523438 73.148438 42.296875 75.277344 42.777344 75.664062 C 43.261719 76.050781 43.777344 75.726562 43.679688 75.082031 C 43.585938 74.4375 43.101562 73.40625 43.585938 73.015625 C 44.066406 72.628906 44.746094 72.242188 44.453125 71.402344 C 44.164062 70.566406 43.972656 70.308594 43.070312 70.273438 C 42.167969 70.242188 41.199219 70.789062 41.199219 69.757812 C 41.199219 68.726562 41.941406 68.433594 41.84375 67.339844 C 41.746094 66.242188 41.136719 65.175781 40.332031 65.335938 C 39.523438 65.5 38.234375 66.046875 37.59375 64.886719 C 36.949219 63.722656 35.238281 63.660156 35.59375 64.886719 Z M 35.59375 64.886719 " fill-opacity="1" fill-rule="nonzero"/><path fill="#8bd9aa" d="M 36.304688 39.84375 C 36.304688 39.84375 37.207031 40.101562 37.722656 39.84375 C 38.234375 39.585938 38.171875 38.878906 38.527344 38.359375 C 38.878906 37.84375 39.007812 37.714844 39.234375 37.230469 C 39.460938 36.746094 39.460938 36.101562 39.847656 36.359375 C 40.234375 36.617188 40.234375 37.554688 40.492188 37.652344 C 40.75 37.746094 40.878906 37.359375 41.136719 37.488281 C 41.394531 37.617188 41.394531 37.910156 41.652344 38.359375 C 41.910156 38.8125 42.328125 39.585938 42.554688 39.972656 C 42.777344 40.363281 43.390625 40.910156 43.261719 41.199219 C 43.132812 41.492188 42.84375 41.007812 42.554688 41.199219 C 42.261719 41.394531 41.78125 41.75 41.199219 42.199219 C 40.621094 42.652344 40.492188 42.167969 39.460938 42.199219 C 38.429688 42.234375 37.65625 42.363281 37.527344 42.878906 C 37.398438 43.394531 37.269531 44.523438 36.304688 44.683594 C 35.335938 44.847656 34.175781 44.652344 34.273438 44.039062 C 34.371094 43.425781 34.5 44.167969 35.175781 43.425781 C 35.851562 42.683594 36.140625 42.265625 35.722656 41.683594 C 35.304688 41.105469 34.757812 39.328125 36.304688 39.84375 Z M 36.304688 39.84375 " fill-opacity="1" fill-rule="nonzero"/><path fill="#8bd9aa" d="M 38.171875 57.882812 C 38.269531 57.398438 38.492188 57.207031 38.847656 56.753906 C 39.203125 56.300781 39.460938 56.011719 39.558594 55.464844 C 39.652344 54.914062 39.816406 54.300781 40.332031 54.269531 C 40.847656 54.238281 41.652344 54.496094 41.746094 54.914062 C 41.84375 55.335938 42.390625 56.207031 42.777344 56.078125 C 43.164062 55.945312 43.648438 55.816406 43.746094 56.078125 C 43.84375 56.335938 44.9375 56.914062 45.355469 56.882812 C 45.773438 56.851562 46.742188 56.300781 47.097656 57.042969 C 47.449219 57.785156 47.644531 58.238281 46.871094 58.398438 C 46.097656 58.5625 45.035156 57.691406 44.746094 58.171875 C 44.453125 58.65625 44.359375 59.046875 44.230469 59.625 C 44.101562 60.207031 43.164062 60.917969 42.777344 60.433594 C 42.390625 59.949219 42.261719 58.882812 41.746094 58.65625 C 41.234375 58.433594 39.882812 58.890625 39.558594 58.917969 C 38.785156 58.980469 38.074219 58.367188 38.171875 57.882812 Z M 38.171875 57.882812 " fill-opacity="1" fill-rule="nonzero"/><path fill="#ffffff" d="M 47.140625 29.394531 L 42.425781 21.871094 C 42.234375 21.570312 42.433594 21.175781 42.785156 21.144531 C 44.472656 21.007812 46.804688 20.871094 47.128906 20.804688 C 48.273438 20.519531 48.792969 19.277344 48.722656 17.863281 C 48.722656 17.878906 48.917969 13.09375 47.871094 11.410156 C 45.472656 8.613281 30.894531 7.570312 27.117188 10.351562 C 25.265625 12.015625 25.265625 15.578125 25.726562 18.136719 C 25.914062 19.074219 26.199219 19.90625 26.5625 20.503906 C 27.207031 21.5625 32.054688 21.679688 36.757812 21.507812 C 37.25 21.488281 37.726562 21.65625 38.097656 21.980469 L 46.824219 29.660156 C 47.003906 29.820312 47.265625 29.597656 47.140625 29.394531 Z M 47.140625 29.394531 " fill-opacity="1" fill-rule="nonzero"/><path fill="#e2645a" d="M 47.871094 11.410156 C 46.984375 10.375 44.429688 9.582031 41.371094 9.132812 L 42.457031 21.316406 C 42.535156 21.222656 42.648438 21.15625 42.785156 21.144531 C 44.472656 21.007812 46.804688 20.871094 47.128906 20.804688 C 48.273438 20.519531 48.792969 19.277344 48.722656 17.863281 C 48.722656 17.878906 48.917969 13.09375 47.871094 11.410156 Z M 47.871094 11.410156 " fill-opacity="1" fill-rule="nonzero"/><path fill="#73c996" d="M 33.464844 8.78125 C 30.730469 8.945312 28.351562 9.445312 27.117188 10.351562 C 25.265625 12.015625 25.265625 15.578125 25.726562 18.136719 C 25.914062 19.074219 26.199219 19.90625 26.5625 20.503906 C 27.101562 21.390625 30.570312 21.617188 34.4375 21.566406 Z M 33.464844 8.78125 " fill-opacity="1" fill-rule="nonzero"/><path fill="#73c996" d="M 38.214844 21.796875 C 38.214844 21.796875 38.082031 21.679688 38.078125 21.679688 C 37.695312 21.40625 37.230469 21.261719 36.75 21.28125 C 35.941406 21.308594 35.160156 21.328125 34.433594 21.339844 C 34.308594 21.339844 34.210938 21.441406 34.210938 21.566406 C 34.210938 21.691406 34.3125 21.792969 34.4375 21.792969 C 35.171875 21.78125 35.953125 21.761719 36.765625 21.730469 C 37.144531 21.71875 37.507812 21.828125 37.8125 22.042969 C 37.8125 22.042969 37.917969 22.136719 37.917969 22.136719 C 37.960938 22.175781 38.011719 22.191406 38.066406 22.191406 C 38.128906 22.191406 38.191406 22.167969 38.234375 22.117188 C 38.316406 22.023438 38.308594 21.878906 38.214844 21.796875 Z M 38.214844 21.796875 " fill-opacity="1" fill-rule="nonzero"/><path fill="#73c996" d="M 41.371094 9.359375 C 41.359375 9.359375 41.351562 9.355469 41.339844 9.355469 C 38.8125 8.984375 35.945312 8.855469 33.476562 9.003906 C 33.351562 9.011719 33.246094 8.917969 33.238281 8.792969 C 33.230469 8.667969 33.324219 8.5625 33.449219 8.554688 C 35.949219 8.402344 38.847656 8.53125 41.40625 8.90625 C 41.527344 8.925781 41.613281 9.039062 41.59375 9.164062 C 41.578125 9.277344 41.480469 9.359375 41.371094 9.359375 Z M 41.371094 9.359375 " fill-opacity="1" fill-rule="nonzero"/><path fill="#fdde84" d="M 26.871094 54.308594 L 22.796875 50.355469 C 22.621094 50.1875 22.59375 49.917969 22.726562 49.710938 C 23.886719 47.945312 23.585938 43.246094 22.605469 41.671875 C 20.207031 38.878906 5.628906 37.835938 1.851562 40.613281 C 0 42.28125 0 45.839844 0.460938 48.398438 C 0.648438 49.335938 0.933594 50.171875 1.296875 50.769531 C 1.941406 51.828125 5.742188 52.324219 10.640625 52.175781 C 15.535156 52.03125 17.722656 51.5625 18.496094 51.34375 C 18.75 51.269531 19.023438 51.289062 19.261719 51.394531 L 26.648438 54.65625 C 26.867188 54.753906 27.050781 54.464844 26.871094 54.308594 Z M 26.871094 54.308594 " fill-opacity="1" fill-rule="nonzero"/><path fill="#405068" d="M 23.261719 43.65625 C 23.109375 42.832031 22.886719 42.125 22.605469 41.671875 C 20.207031 38.878906 5.628906 37.835938 1.851562 40.613281 C 1.050781 41.335938 0.59375 42.414062 0.375 43.613281 C 7.75 43.90625 15.394531 43.90625 23.261719 43.65625 Z M 23.261719 43.65625 " fill-opacity="1" fill-rule="nonzero"/><path fill="#ea6c6d" d="M 0.429688 43.335938 C 0.0898438 44.902344 0.175781 46.714844 0.429688 48.21875 C 6.835938 48.4375 14.726562 48.421875 23.265625 48.296875 C 23.574219 46.863281 23.527344 44.964844 23.226562 43.484375 C 15.515625 43.628906 7.917969 43.578125 0.429688 43.335938 Z M 0.429688 43.335938 " fill-opacity="1" fill-rule="nonzero"/><path fill="#ffffff" d="M 74.125 45.015625 L 78.839844 37.492188 C 79.027344 37.191406 78.832031 36.796875 78.476562 36.765625 C 76.792969 36.628906 74.460938 36.492188 74.136719 36.429688 C 72.988281 36.140625 72.472656 34.898438 72.539062 33.484375 C 72.539062 33.503906 72.34375 28.714844 73.394531 27.03125 C 75.792969 24.234375 90.367188 23.195312 94.144531 25.972656 C 96 27.640625 95.996094 31.199219 95.539062 33.757812 C 95.351562 34.695312 95.066406 35.527344 94.699219 36.125 C 94.054688 37.1875 89.207031 37.300781 84.503906 37.128906 C 84.015625 37.109375 83.535156 37.28125 83.167969 37.605469 L 74.4375 45.285156 C 74.257812 45.441406 73.996094 45.21875 74.125 45.015625 Z M 74.125 45.015625 " fill-opacity="1" fill-rule="nonzero"/><path fill="#e16858" d="M 86.828125 36.960938 C 86.101562 36.953125 85.320312 36.933594 84.511719 36.902344 C 83.960938 36.882812 83.429688 37.070312 83.019531 37.433594 L 79.992188 40.09375 L 79.703125 40.34375 C 79.609375 40.425781 79.601562 40.570312 79.683594 40.664062 C 79.726562 40.714844 79.789062 40.742188 79.851562 40.742188 C 79.90625 40.742188 79.960938 40.722656 80.003906 40.683594 L 80.289062 40.4375 L 83.316406 37.773438 C 83.640625 37.488281 84.0625 37.339844 84.496094 37.355469 C 85.308594 37.382812 86.089844 37.402344 86.824219 37.414062 C 86.824219 37.414062 86.824219 37.414062 86.828125 37.414062 C 86.949219 37.414062 87.050781 37.3125 87.050781 37.191406 C 87.054688 37.066406 86.953125 36.960938 86.828125 36.960938 Z M 86.828125 36.960938 " fill-opacity="1" fill-rule="nonzero"/><path fill="#5181c3" d="M 78.980469 36.796875 C 78.902344 36.699219 78.757812 36.683594 78.660156 36.761719 C 78.566406 36.84375 78.550781 36.984375 78.628906 37.082031 C 78.683594 37.144531 78.71875 37.261719 78.648438 37.371094 L 78.5625 37.507812 L 78.5 37.605469 C 78.433594 37.710938 78.464844 37.851562 78.574219 37.917969 C 78.609375 37.941406 78.652344 37.949219 78.691406 37.949219 C 78.765625 37.949219 78.839844 37.914062 78.882812 37.84375 L 78.9375 37.761719 L 79.03125 37.613281 C 79.191406 37.359375 79.171875 37.03125 78.980469 36.796875 Z M 78.980469 36.796875 " fill-opacity="1" fill-rule="nonzero"/><path fill="#5181c3" d="M 79.195312 24.863281 L 78.882812 36.898438 L 78.804688 36.9375 C 78.726562 36.84375 78.613281 36.777344 78.476562 36.765625 C 76.792969 36.628906 74.460938 36.492188 74.136719 36.429688 C 72.988281 36.140625 72.472656 34.898438 72.539062 33.484375 C 72.539062 33.503906 72.34375 28.714844 73.394531 27.03125 C 74.210938 26.078125 76.453125 25.328125 79.195312 24.863281 Z M 79.195312 24.863281 " fill-opacity="1" fill-rule="nonzero"/><path fill="#e16858" d="M 95.761719 30.066406 C 95.644531 28.589844 95.273438 27.003906 94.144531 25.972656 C 92.382812 24.792969 89.804688 24.472656 86.566406 24.351562 L 86.828125 37.1875 C 88.265625 37.203125 89.710938 37.191406 91.144531 37.085938 C 92.148438 37 93.171875 36.921875 94.113281 36.554688 C 94.335938 36.457031 94.566406 36.335938 94.699219 36.125 C 95.652344 34.472656 95.871094 32.113281 95.761719 30.066406 Z M 95.761719 30.066406 " fill-opacity="1" fill-rule="nonzero"/><path fill="#e16858" d="M 79.179688 25.09375 C 79.070312 25.09375 78.976562 25.015625 78.957031 24.902344 C 78.9375 24.78125 79.019531 24.664062 79.144531 24.644531 C 81.464844 24.25 84.097656 24.066406 86.558594 24.125 C 86.683594 24.125 86.78125 24.230469 86.777344 24.355469 C 86.773438 24.480469 86.671875 24.578125 86.546875 24.574219 C 84.113281 24.519531 81.511719 24.699219 79.21875 25.089844 C 79.207031 25.089844 79.191406 25.09375 79.179688 25.09375 Z M 79.179688 25.09375 " fill-opacity="1" fill-rule="nonzero"/><path fill="#5569bd" d="M 36.640625 75.316406 C 36.316406 75.25 33.984375 75.113281 32.300781 74.976562 C 32.253906 74.972656 32.148438 74.890625 32.25 74.726562 C 32.960938 73.601562 36.84375 69.21875 36.84375 69.21875 C 36.972656 69.015625 36.710938 68.792969 36.53125 68.953125 L 27.691406 74.316406 C 27.324219 74.640625 26.761719 74.632812 26.273438 74.613281 C 21.566406 74.441406 16.722656 74.558594 16.078125 75.617188 C 15.710938 76.214844 15.425781 77.046875 15.238281 77.984375 C 14.78125 80.542969 14.777344 84.105469 16.632812 85.769531 C 20.410156 88.550781 34.984375 87.507812 37.382812 84.710938 C 38.433594 83.027344 38.238281 78.242188 38.238281 78.261719 C 38.304688 76.84375 37.789062 75.601562 36.640625 75.316406 Z M 36.640625 75.316406 " fill-opacity="1" fill-rule="nonzero"/><path fill="#ffffff" d="M 16.878906 75.109375 C 16.480469 75.246094 16.199219 75.414062 16.078125 75.617188 C 15.910156 75.890625 15.761719 76.210938 15.628906 76.570312 L 35.601562 85.824219 C 36.410156 85.496094 37.03125 85.125 37.382812 84.710938 C 37.398438 84.683594 37.414062 84.660156 37.429688 84.632812 Z M 16.878906 75.109375 " fill-opacity="1" fill-rule="nonzero"/><path fill="#e36868" d="M 36.15625 85.578125 C 36.535156 85.390625 36.855469 85.195312 37.105469 84.984375 L 16.339844 75.359375 C 16.222656 75.441406 16.132812 75.523438 16.078125 75.617188 C 15.980469 75.777344 15.886719 75.953125 15.800781 76.144531 Z M 36.15625 85.578125 " fill-opacity="1" fill-rule="nonzero"/><path fill="#ffffff" d="M 36.640625 75.316406 C 36.59375 75.304688 36.5 75.292969 36.371094 75.28125 L 15.855469 84.789062 C 16.066406 85.160156 16.324219 85.492188 16.632812 85.769531 C 16.824219 85.910156 17.046875 86.042969 17.292969 86.164062 L 37.988281 76.574219 C 37.734375 75.945312 37.289062 75.476562 36.640625 75.316406 Z M 36.640625 75.316406 " fill-opacity="1" fill-rule="nonzero"/><path fill="#e36868" d="M 37.050781 75.472656 L 16.105469 85.179688 C 16.261719 85.394531 16.433594 85.59375 16.632812 85.769531 C 16.6875 85.808594 16.742188 85.851562 16.804688 85.886719 L 37.78125 76.164062 C 37.597656 75.867188 37.351562 75.628906 37.050781 75.472656 Z M 37.050781 75.472656 " fill-opacity="1" fill-rule="nonzero"/><path fill="#ffffff" d="M 38.25 79.3125 L 15.058594 79.3125 C 14.960938 80.300781 14.953125 81.351562 15.085938 82.34375 L 38.0625 82.34375 C 38.210938 81.265625 38.246094 80.117188 38.25 79.3125 Z M 38.25 79.3125 " fill-opacity="1" fill-rule="nonzero"/><path fill="#ffffff" d="M 25.203125 87.402344 C 26.273438 87.402344 27.359375 87.355469 28.425781 87.269531 L 28.425781 73.871094 L 27.691406 74.316406 C 27.324219 74.640625 26.761719 74.632812 26.273438 74.613281 C 25.917969 74.601562 25.558594 74.589844 25.203125 74.582031 Z M 25.203125 87.402344 " fill-opacity="1" fill-rule="nonzero"/><path fill="#e36868" d="M 25.804688 87.398438 C 26.476562 87.386719 27.152344 87.355469 27.824219 87.3125 L 27.824219 74.234375 L 27.691406 74.316406 C 27.324219 74.640625 26.761719 74.632812 26.273438 74.613281 C 26.117188 74.609375 25.960938 74.605469 25.804688 74.597656 Z M 25.804688 87.398438 " fill-opacity="1" fill-rule="nonzero"/><path fill="#e36868" d="M 38.246094 79.816406 L 15.015625 79.816406 C 14.972656 80.484375 14.972656 81.171875 15.03125 81.839844 L 38.125 81.839844 C 38.199219 81.132812 38.230469 80.417969 38.246094 79.816406 Z M 38.246094 79.816406 " fill-opacity="1" fill-rule="nonzero"/><path fill="#ffd46b" d="M 74.921875 70.730469 C 73.203125 70.871094 70.828125 71.007812 70.496094 71.074219 C 69.328125 71.367188 68.800781 72.632812 68.871094 74.078125 C 68.871094 74.058594 68.671875 78.9375 69.742188 80.652344 C 72.1875 83.503906 87.042969 84.566406 90.894531 81.730469 C 92.78125 80.035156 92.78125 76.40625 92.3125 73.796875 C 92.121094 72.839844 91.832031 71.992188 91.460938 71.382812 C 90.800781 70.300781 85.863281 70.183594 81.066406 70.359375 C 80.566406 70.378906 75.285156 70.699219 74.921875 70.730469 Z M 74.921875 70.730469 " fill-opacity="1" fill-rule="nonzero"/><path fill="#e2645a" d="M 69.742188 80.652344 C 72.1875 83.503906 87.042969 84.566406 90.894531 81.730469 C 91.757812 80.957031 92.222656 79.78125 92.433594 78.480469 L 69.082031 78.480469 C 69.214844 79.34375 69.421875 80.140625 69.742188 80.652344 Z M 69.742188 80.652344 " fill-opacity="1" fill-rule="nonzero"/><path fill="#e2645a" d="M 92.3125 73.796875 C 92.121094 72.839844 91.832031 71.992188 91.460938 71.382812 C 90.882812 70.433594 86.996094 70.226562 82.8125 70.3125 C 82.179688 70.292969 78.199219 70.292969 77.140625 70.292969 C 76.082031 70.292969 75.960938 70.09375 75.535156 69.832031 L 65.472656 63.578125 C 65.265625 63.449219 65.039062 63.714844 65.203125 63.898438 L 71.203125 70.667969 C 71.289062 70.765625 71.324219 70.878906 71.324219 70.992188 C 70.902344 71.027344 70.601562 71.054688 70.496094 71.074219 C 69.332031 71.367188 68.804688 72.625 68.871094 74.066406 L 92.359375 74.066406 C 92.34375 73.976562 92.328125 73.886719 92.3125 73.796875 Z M 92.3125 73.796875 " fill-opacity="1" fill-rule="nonzero"/></svg>