<svg xmlns="http://www.w3.org/2000/svg" xmlns:xlink="http://www.w3.org/1999/xlink" width="128" zoomAndPan="magnify" viewBox="0 0 96 95.999999" height="128" preserveAspectRatio="xMidYMid meet" version="1.0"><defs><clipPath id="f472b07b39"><path d="M 0 12.023438 L 96 12.023438 L 96 60 L 0 60 Z M 0 12.023438 " clip-rule="nonzero"/></clipPath></defs><g clip-path="url(#f472b07b39)"><path fill="#2b3244" d="M 0.988281 41.1875 L 0 41.1875 L 0.269531 38.457031 C 0.269531 38.457031 95.359375 37.492188 95.679688 37.4375 C 96.003906 37.382812 95.949219 40.554688 95.679688 40.609375 C 95.410156 40.664062 94.929688 40.648438 94.929688 40.648438 C 94.929688 40.648438 79.574219 59.324219 65.023438 59.507812 C 50.472656 59.695312 0.988281 41.1875 0.988281 41.1875 Z M 70.207031 32.589844 C 69.96875 32.207031 49.664062 12.019531 48.851562 12.59375 C 46.121094 14.414062 28.355469 32.492188 28.257812 32.78125 C 28.160156 33.070312 29.726562 34.652344 29.726562 34.652344 L 30.613281 33.664062 L 66.648438 33.128906 C 66.648438 33.128906 68.386719 34.605469 68.628906 34.652344 C 68.867188 34.699219 70.449219 32.972656 70.207031 32.589844 Z M 70.207031 32.589844 " fill-opacity="1" fill-rule="nonzero"/></g><path fill="#7b9a9b" d="M 29.730469 83.550781 C 29.730469 83.550781 1.34375 83.90625 0.988281 83.550781 C 0.636719 83.199219 0.09375 42.210938 0.988281 41.183594 C 1.886719 40.15625 94.292969 40.132812 94.933594 40.644531 C 94.976562 45.078125 95.148438 77.109375 94.742188 83.582031 C 93.976562 84.019531 66.6875 83.777344 66.6875 83.777344 C 66.6875 83.777344 33.480469 77.585938 29.730469 83.550781 Z M 29.730469 83.550781 " fill-opacity="1" fill-rule="nonzero"/><path fill="#90aeb0" d="M 29.730469 83.550781 C 29.71875 83.117188 30.4375 34.195312 30.617188 33.660156 C 30.796875 33.128906 48.367188 16.066406 49.429688 15.710938 C 50.496094 15.355469 66.292969 32.417969 66.648438 33.128906 C 67 33.839844 67.824219 83.089844 66.757812 83.761719 C 66.457031 83.878906 65.242188 83.398438 63.917969 83.378906 C 57.65625 83.292969 46.144531 80.964844 33.898438 83.582031 C 32.160156 83.558594 30.835938 83.59375 29.730469 83.550781 Z M 29.730469 83.550781 " fill-opacity="1" fill-rule="nonzero"/><path fill="#2b3244" d="M 48.054688 63.597656 C 47.976562 63.597656 47.898438 63.597656 47.820312 63.597656 C 47.894531 63.597656 47.976562 63.597656 48.054688 63.597656 Z M 54.316406 63.808594 C 54.058594 63.65625 51.050781 63.589844 48.066406 63.597656 C 48.109375 66.722656 48.261719 78.152344 48.054688 78.085938 C 47.839844 78.015625 47.804688 65.921875 47.796875 63.597656 C 44.875 63.605469 42.054688 63.683594 41.957031 63.808594 C 41.765625 64.042969 41.882812 76.136719 41.941406 78.363281 C 46.265625 78.421875 50.921875 78.4375 54.976562 78.40625 C 54.933594 75.335938 54.761719 64.078125 54.316406 63.808594 Z M 36.039062 54.933594 C 36.265625 55.046875 46.160156 54.933594 46.160156 54.933594 C 46.160156 54.933594 46.273438 44.683594 46.214844 44.515625 C 46.160156 44.34375 36.320312 44.546875 36.148438 44.601562 C 35.976562 44.660156 36.039062 54.933594 36.039062 54.933594 Z M 62.742188 44.601562 C 62.570312 44.546875 52.730469 44.34375 52.675781 44.515625 C 52.617188 44.683594 52.730469 54.933594 52.730469 54.933594 C 52.730469 54.933594 62.625 55.046875 62.851562 54.933594 C 62.851562 54.933594 62.914062 44.660156 62.742188 44.601562 Z M 70.742188 77.851562 C 71.261719 78.28125 79.277344 78.152344 79.5 77.851562 C 79.722656 77.550781 79.578125 62.660156 79.5 62.449219 C 79.425781 62.242188 71.484375 62.308594 70.890625 62.644531 C 70.296875 62.984375 70.742188 77.851562 70.742188 77.851562 Z M 82.992188 77.851562 C 83.511719 78.28125 91.671875 78.386719 91.894531 78.085938 C 92.117188 77.785156 91.894531 62.867188 91.820312 62.660156 C 91.746094 62.449219 83.730469 62.308594 83.136719 62.648438 C 82.546875 62.984375 82.992188 77.851562 82.992188 77.851562 Z M 91.773438 44.121094 C 91.179688 43.785156 82.949219 44.128906 82.875 44.335938 C 82.796875 44.546875 82.726562 59.230469 82.949219 59.53125 C 83.171875 59.832031 91.1875 59.960938 91.707031 59.53125 C 91.707031 59.527344 92.367188 44.457031 91.773438 44.121094 Z M 79.3125 44.324219 C 78.71875 43.984375 70.777344 43.917969 70.703125 44.128906 C 70.625 44.335938 70.480469 59.226562 70.703125 59.53125 C 70.925781 59.835938 78.9375 59.960938 79.460938 59.53125 C 79.460938 59.527344 79.902344 44.660156 79.3125 44.324219 Z M 26.144531 62.648438 C 25.550781 62.308594 17.609375 62.242188 17.535156 62.453125 C 17.460938 62.660156 17.3125 77.550781 17.535156 77.855469 C 17.757812 78.15625 25.773438 78.285156 26.292969 77.855469 C 26.292969 77.851562 26.738281 62.984375 26.144531 62.648438 Z M 13.898438 62.648438 C 13.304688 62.308594 5.289062 62.453125 5.21875 62.660156 C 5.144531 62.867188 4.917969 77.785156 5.140625 78.085938 C 5.363281 78.386719 13.527344 78.28125 14.046875 77.851562 C 14.046875 77.851562 14.492188 62.984375 13.898438 62.648438 Z M 5.332031 59.527344 C 5.851562 59.957031 13.867188 59.832031 14.089844 59.527344 C 14.3125 59.226562 14.238281 44.542969 14.164062 44.335938 C 14.089844 44.125 5.859375 43.78125 5.265625 44.121094 C 4.671875 44.457031 5.332031 59.527344 5.332031 59.527344 Z M 17.578125 59.527344 C 18.097656 59.957031 26.113281 59.832031 26.335938 59.527344 C 26.558594 59.226562 26.410156 44.335938 26.335938 44.125 C 26.261719 43.917969 18.320312 43.984375 17.726562 44.320312 C 17.132812 44.660156 17.578125 59.527344 17.578125 59.527344 Z M 17.578125 59.527344 " fill-opacity="1" fill-rule="nonzero"/><path fill="#fff6e1" d="M 74.535156 54.976562 L 74.535156 58.957031 C 72.984375 58.921875 71.597656 58.855469 71.613281 58.738281 C 71.625 58.644531 71.617188 56.96875 71.605469 54.820312 C 72.265625 54.882812 73.351562 54.929688 74.535156 54.976562 Z M 74.535156 49.5625 C 73.246094 49.589844 72.082031 49.609375 71.578125 49.617188 C 71.582031 50.996094 71.59375 52.511719 71.601562 53.90625 C 72.265625 53.941406 73.355469 53.992188 74.539062 54.050781 L 74.539062 49.5625 Z M 74.535156 48.738281 L 74.535156 44.972656 C 73.085938 44.941406 71.761719 44.941406 71.613281 45 C 71.578125 45.011719 71.574219 46.679688 71.578125 48.847656 Z M 49.851562 34.324219 C 56.445312 33.988281 55.707031 23.375 48.375 24.628906 C 43.261719 25.5 43.183594 34.664062 49.851562 34.324219 Z M 38.617188 40.601562 C 38.382812 40.136719 38.4375 37.207031 38.617188 37.082031 C 39.234375 36.65625 58.691406 36.371094 59.132812 36.441406 C 59.574219 36.511719 59.542969 40.285156 59.132812 40.601562 C 58.722656 40.914062 38.855469 41.070312 38.617188 40.601562 Z M 65.480469 76.257812 C 65.414062 76.03125 65.324219 75.714844 65.265625 75.503906 C 65.808594 75.214844 66.21875 74.683594 66.21875 74.074219 C 66.21875 73.15625 65.476562 72.410156 64.558594 72.410156 C 63.59375 72.410156 62.898438 73.15625 62.898438 74.074219 C 62.898438 74.773438 63.21875 75.371094 63.777344 75.617188 L 63.621094 76.234375 C 63.179688 76.25 62.851562 76.277344 62.808594 76.332031 C 62.707031 76.453125 62.742188 79.765625 62.773438 81.925781 L 61.625 81.925781 L 61.625 80.671875 L 60.253906 80.671875 L 60.253906 79.523438 L 58.796875 79.367188 L 58.796875 78.300781 L 58.765625 78.300781 L 58.765625 77.695312 L 58.265625 77.695312 L 58.265625 62 L 58.765625 61.972656 L 58.765625 61.203125 C 59.289062 61.167969 59.613281 61.136719 59.671875 61.109375 C 60.210938 60.867188 60.03125 59 60.03125 59 C 60.03125 59 36.90625 59.324219 36.632812 59.566406 C 36.363281 59.8125 36.632812 61.597656 36.632812 61.597656 C 36.660156 61.65625 37.152344 61.691406 37.972656 61.710938 L 37.972656 62.332031 L 38.597656 62.332031 C 38.597656 65.640625 38.597656 74.007812 38.597656 77.695312 L 37.972656 77.695312 L 37.972656 79.367188 L 36.515625 79.523438 L 36.515625 80.671875 L 35.144531 80.671875 L 35.144531 81.925781 L 34.203125 81.925781 C 34.238281 79.777344 34.277344 76.277344 34.171875 76.152344 C 34.128906 76.097656 33.789062 76.066406 33.34375 76.054688 L 33.1875 75.441406 C 33.757812 75.199219 34.085938 74.597656 34.085938 73.890625 C 34.085938 72.972656 33.386719 72.230469 32.421875 72.230469 C 31.507812 72.230469 30.761719 72.972656 30.761719 73.890625 C 30.761719 74.496094 31.164062 75.023438 31.699219 75.3125 C 31.640625 75.523438 31.550781 75.84375 31.480469 76.074219 C 31.035156 76.09375 30.710938 76.121094 30.691406 76.148438 C 30.632812 76.238281 30.570312 83.578125 30.570312 83.578125 L 33.386719 83.578125 L 33.386719 83.640625 C 41.820312 83.75 56.242188 83.667969 62.8125 83.742188 C 62.8125 83.75 62.8125 83.757812 62.8125 83.757812 L 66.414062 83.757812 C 66.414062 83.757812 66.351562 76.417969 66.292969 76.328125 C 66.269531 76.304688 65.933594 76.277344 65.480469 76.257812 Z M 55.957031 77.695312 L 55.199219 77.695312 C 55.199219 77.695312 55.183594 78.011719 55.179688 78.300781 L 41.183594 78.300781 L 41.183594 77.695312 L 40.582031 77.695312 L 40.582031 62.332031 L 41.40625 62.332031 L 41.40625 61.71875 C 45.460938 61.679688 51.234375 61.527344 55.203125 61.371094 L 55.203125 62.148438 L 55.960938 62.113281 L 55.960938 77.695312 Z M 36.886719 49.605469 C 36.882812 47.488281 36.902344 45.402344 36.96875 45.296875 L 37.109375 45.296875 C 37.289062 45.183594 39.0625 45.175781 40.914062 45.199219 C 40.890625 45.917969 40.839844 47.59375 40.78125 49.347656 Z M 45.289062 45.296875 C 45.289062 45.296875 45.304688 47.078125 45.316406 49.042969 L 41.710938 49.285156 L 41.875 45.214844 C 43.671875 45.246094 45.289062 45.296875 45.289062 45.296875 Z M 36.96875 54.167969 C 36.933594 54.089844 36.902344 52.3125 36.890625 50.371094 C 37.472656 50.359375 39.035156 50.296875 40.753906 50.214844 C 40.703125 51.875 40.648438 53.46875 40.621094 54.25 C 38.742188 54.261719 37.007812 54.246094 36.96875 54.167969 Z M 41.679688 50.175781 C 43 50.113281 44.332031 50.050781 45.320312 50.003906 C 45.328125 52.117188 45.328125 54.144531 45.285156 54.167969 C 45.246094 54.1875 43.4375 54.226562 41.515625 54.246094 Z M 57.976562 45.199219 C 59.828125 45.175781 61.601562 45.183594 61.78125 45.296875 L 61.921875 45.296875 C 61.988281 45.40625 62.007812 47.488281 62.003906 49.605469 L 58.105469 49.347656 C 58.050781 47.59375 58 45.917969 57.976562 45.199219 Z M 57.015625 45.214844 L 57.175781 49.28125 L 53.574219 49.039062 C 53.585938 47.078125 53.601562 45.296875 53.601562 45.296875 C 53.601562 45.296875 55.21875 45.246094 57.015625 45.214844 Z M 58.273438 54.25 C 58.242188 53.46875 58.191406 51.875 58.136719 50.214844 C 59.855469 50.292969 61.417969 50.359375 62 50.371094 C 61.988281 52.3125 61.960938 54.089844 61.921875 54.167969 C 61.882812 54.246094 60.148438 54.261719 58.273438 54.25 Z M 53.570312 50.003906 C 54.558594 50.050781 55.890625 50.113281 57.210938 50.175781 L 57.375 54.246094 C 55.453125 54.226562 53.644531 54.1875 53.605469 54.167969 C 53.5625 54.144531 53.5625 52.117188 53.570312 50.003906 Z M 87.785156 49.019531 L 87.65625 44.910156 C 89.289062 44.898438 90.855469 44.933594 90.960938 44.949219 C 91.039062 44.964844 91.058594 46.832031 91.054688 49.191406 Z M 91.011719 54.609375 L 87.960938 54.628906 L 87.808594 49.785156 L 91.050781 49.886719 C 91.042969 51.433594 91.027344 53.121094 91.011719 54.609375 Z M 87.988281 55.429688 C 89.101562 55.441406 90.175781 55.449219 91 55.4375 C 90.980469 57.382812 90.957031 58.816406 90.957031 58.816406 L 88.097656 58.890625 Z M 86.980469 48.976562 L 83.703125 48.800781 C 83.707031 46.824219 83.746094 45.3125 83.863281 45.1875 C 84.019531 45.023438 85.355469 44.949219 86.828125 44.921875 Z M 87.226562 55.417969 L 87.355469 58.910156 L 83.863281 58.996094 C 83.863281 58.996094 83.820312 57.429688 83.78125 55.347656 C 84.734375 55.371094 85.976562 55.398438 87.226562 55.417969 Z M 87.195312 54.636719 L 83.765625 54.65625 C 83.738281 53.0625 83.710938 51.257812 83.707031 49.652344 L 87.011719 49.757812 Z M 78.660156 55.105469 C 78.671875 57.304688 78.675781 58.996094 78.675781 58.996094 C 78.675781 58.996094 76.851562 59 75.058594 58.964844 C 75.023438 58.210938 75.011719 56.730469 75.015625 54.992188 C 76.292969 55.035156 77.636719 55.074219 78.660156 55.105469 Z M 78.65625 54.230469 C 77.695312 54.199219 76.332031 54.136719 75.019531 54.074219 C 75.023438 52.601562 75.039062 51.015625 75.054688 49.550781 C 76.363281 49.519531 77.726562 49.480469 78.617188 49.433594 C 78.632812 50.949219 78.644531 52.671875 78.65625 54.230469 Z M 78.609375 48.59375 L 75.066406 48.71875 C 75.085938 47.148438 75.101562 45.789062 75.113281 44.988281 C 76.789062 45.035156 78.441406 45.121094 78.507812 45.214844 C 78.550781 45.269531 78.582031 46.6875 78.609375 48.59375 Z M 90.921875 67.304688 L 87.613281 67.257812 L 87.671875 63.351562 L 90.859375 63.351562 C 90.859375 63.351562 90.886719 65.070312 90.921875 67.304688 Z M 91.003906 72.992188 L 87.53125 72.917969 L 87.601562 67.976562 L 90.929688 67.976562 C 90.957031 69.59375 90.984375 71.402344 91.003906 72.992188 Z M 91.054688 77.3125 C 91.039062 77.359375 89.238281 77.367188 87.46875 77.339844 L 87.519531 73.675781 C 88.90625 73.695312 90.121094 73.707031 91.015625 73.707031 C 91.042969 75.746094 91.0625 77.285156 91.054688 77.3125 Z M 84 67.976562 L 86.796875 67.976562 L 86.796875 72.902344 L 83.992188 72.839844 C 83.988281 71.296875 83.992188 69.546875 84 67.976562 Z M 84.042969 63.351562 L 86.796875 63.351562 L 86.796875 67.246094 L 84.003906 67.207031 C 84.011719 65.066406 84.027344 63.414062 84.042969 63.351562 Z M 83.992188 73.617188 C 84.960938 73.636719 85.90625 73.652344 86.796875 73.664062 L 86.796875 77.324219 C 85.347656 77.292969 84.078125 77.230469 84.042969 77.132812 C 84.011719 77.0625 84 75.582031 83.992188 73.617188 Z M 75.460938 63.394531 C 77.121094 63.359375 78.675781 63.351562 78.675781 63.351562 L 78.675781 67.132812 L 75.375 67.085938 Z M 75.355469 67.976562 L 78.675781 67.976562 L 78.675781 72.726562 L 75.246094 72.648438 Z M 75.226562 73.417969 C 76.261719 73.445312 77.4375 73.472656 78.675781 73.503906 L 78.675781 77.042969 L 75.140625 77.042969 Z M 71.578125 63.597656 C 71.636719 63.507812 73.011719 63.449219 74.535156 63.410156 C 74.535156 64.246094 74.535156 65.566406 74.535156 67.074219 L 71.570312 67.03125 C 71.539062 65.109375 71.53125 63.660156 71.578125 63.597656 Z M 71.585938 67.976562 L 74.535156 67.976562 C 74.535156 69.496094 74.535156 71.136719 74.535156 72.632812 L 71.6875 72.574219 C 71.652344 71.09375 71.617188 69.449219 71.585938 67.976562 Z M 71.707031 73.328125 C 72.246094 73.34375 73.25 73.371094 74.535156 73.402344 C 74.535156 74.964844 74.535156 76.292969 74.535156 77.042969 L 71.800781 77.042969 C 71.800781 77.042969 71.757812 75.433594 71.707031 73.328125 Z M 5.984375 49.195312 C 5.976562 46.835938 6 44.964844 6.078125 44.953125 C 6.179688 44.933594 7.746094 44.898438 9.382812 44.914062 L 9.253906 49.023438 Z M 9.074219 54.628906 L 6.023438 54.609375 C 6.007812 53.121094 5.992188 51.433594 5.984375 49.886719 L 9.226562 49.785156 Z M 6.035156 55.4375 C 6.859375 55.449219 7.933594 55.445312 9.050781 55.429688 L 8.941406 58.890625 L 6.078125 58.816406 C 6.078125 58.816406 6.058594 57.382812 6.035156 55.4375 Z M 13.175781 45.1875 C 13.292969 45.3125 13.332031 46.824219 13.332031 48.800781 L 10.054688 48.976562 L 10.210938 44.921875 C 11.679688 44.949219 13.015625 45.019531 13.175781 45.1875 Z M 9.8125 55.417969 C 11.0625 55.398438 12.304688 55.371094 13.257812 55.347656 C 13.21875 57.429688 13.175781 59 13.175781 59 L 9.683594 58.910156 Z M 10.023438 49.757812 L 13.332031 49.65625 C 13.328125 51.257812 13.300781 53.0625 13.269531 54.660156 L 9.84375 54.636719 Z M 22.019531 54.992188 C 22.023438 56.730469 22.011719 58.210938 21.976562 58.96875 C 20.183594 59 18.359375 59 18.359375 59 C 18.359375 59 18.363281 57.308594 18.375 55.109375 C 19.402344 55.074219 20.742188 55.035156 22.019531 54.992188 Z M 22.019531 54.074219 C 20.703125 54.136719 19.34375 54.199219 18.382812 54.230469 C 18.390625 52.671875 18.402344 50.953125 18.421875 49.433594 C 19.3125 49.480469 20.675781 49.519531 21.980469 49.550781 C 21.996094 51.011719 22.011719 52.601562 22.019531 54.074219 Z M 21.972656 48.71875 L 18.429688 48.59375 C 18.453125 46.6875 18.488281 45.269531 18.53125 45.214844 C 18.597656 45.121094 20.25 45.035156 21.921875 44.988281 C 21.9375 45.792969 21.957031 47.148438 21.972656 48.71875 Z M 22.5 58.957031 L 22.5 54.976562 C 23.683594 54.929688 24.769531 54.882812 25.429688 54.820312 C 25.417969 56.96875 25.410156 58.644531 25.421875 58.738281 C 25.4375 58.859375 24.050781 58.921875 22.5 58.957031 Z M 25.4375 53.90625 C 24.773438 53.941406 23.679688 53.992188 22.5 54.050781 L 22.5 49.5625 C 23.789062 49.589844 24.957031 49.609375 25.457031 49.617188 C 25.453125 50.996094 25.445312 52.511719 25.4375 53.90625 Z M 25.460938 48.84375 L 22.5 48.738281 L 22.5 44.972656 C 23.949219 44.941406 25.277344 44.941406 25.421875 45 C 25.457031 45.011719 25.464844 46.679688 25.460938 48.84375 Z M 9.367188 63.351562 L 9.425781 67.257812 L 6.117188 67.304688 C 6.152344 65.070312 6.179688 63.351562 6.179688 63.351562 Z M 6.105469 67.976562 L 9.433594 67.976562 L 9.503906 72.917969 L 6.03125 72.992188 C 6.054688 71.402344 6.082031 69.59375 6.105469 67.976562 Z M 9.515625 73.675781 L 9.570312 77.339844 C 7.796875 77.371094 6 77.359375 5.984375 77.3125 C 5.972656 77.285156 5.992188 75.746094 6.019531 73.703125 C 6.917969 73.707031 8.128906 73.695312 9.515625 73.675781 Z M 13.039062 67.976562 C 13.042969 69.546875 13.046875 71.296875 13.046875 72.839844 L 10.242188 72.902344 L 10.242188 67.976562 Z M 12.996094 63.351562 C 13.007812 63.410156 13.023438 65.066406 13.035156 67.207031 L 10.238281 67.246094 L 10.238281 63.351562 Z M 10.242188 73.664062 C 11.128906 73.652344 12.074219 73.636719 13.042969 73.617188 C 13.039062 75.582031 13.023438 77.058594 12.996094 77.132812 C 12.957031 77.230469 11.6875 77.292969 10.238281 77.324219 L 10.238281 73.664062 Z M 21.660156 67.085938 L 18.359375 67.132812 L 18.359375 63.351562 C 18.359375 63.351562 19.917969 63.359375 21.574219 63.394531 Z M 21.792969 72.652344 L 18.359375 72.726562 L 18.359375 67.976562 L 21.683594 67.976562 Z M 21.8125 73.417969 L 21.894531 77.042969 L 18.359375 77.042969 L 18.359375 73.503906 C 19.601562 73.472656 20.777344 73.445312 21.8125 73.417969 Z M 25.460938 63.597656 C 25.503906 63.660156 25.496094 65.109375 25.464844 67.03125 L 22.5 67.074219 C 22.5 65.566406 22.5 64.246094 22.5 63.414062 C 24.023438 63.449219 25.402344 63.507812 25.460938 63.597656 Z M 22.5 67.976562 L 25.449219 67.976562 C 25.421875 69.449219 25.382812 71.09375 25.347656 72.574219 L 22.5 72.632812 C 22.5 71.140625 22.5 69.5 22.5 67.976562 Z M 22.5 73.402344 C 23.785156 73.371094 24.789062 73.34375 25.328125 73.328125 C 25.277344 75.433594 25.234375 77.042969 25.234375 77.042969 L 22.5 77.042969 C 22.5 76.292969 22.5 74.960938 22.5 73.402344 Z M 22.5 73.402344 " fill-opacity="1" fill-rule="nonzero"/><path fill="#2b3244" d="M 48.957031 29.628906 C 48.324219 28.679688 46.898438 26.488281 47.046875 26.285156 C 47.195312 26.089844 48.683594 28.527344 49.195312 29.382812 C 49.265625 29.351562 49.347656 29.332031 49.445312 29.332031 C 49.605469 29.332031 49.730469 29.390625 49.820312 29.480469 C 50.847656 29.042969 53.292969 28.019531 53.339844 28.175781 C 53.382812 28.316406 51.15625 29.265625 49.96875 29.761719 C 50.011719 29.972656 49.949219 30.210938 49.761719 30.339844 C 49.625 30.433594 49.421875 30.464844 49.261719 30.398438 C 49.210938 30.378906 49.164062 30.351562 49.121094 30.316406 C 48.917969 30.148438 48.855469 29.851562 48.957031 29.628906 Z M 41.042969 61.710938 C 40.992188 61.675781 37.972656 61.710938 37.972656 61.710938 L 37.972656 61.878906 C 37.96875 61.878906 41.355469 61.9375 41.042969 61.710938 Z M 38.59375 62.332031 L 38.59375 62.441406 C 38.59375 62.441406 40.328125 62.515625 40.289062 62.441406 C 40.246094 62.371094 38.59375 62.332031 38.59375 62.332031 Z M 58.484375 61.261719 C 58.445312 61.132812 55.507812 61.285156 55.457031 61.390625 C 55.414062 61.472656 58.523438 61.390625 58.484375 61.261719 Z M 57.917969 62.109375 C 57.878906 61.984375 55.957031 62.109375 55.957031 62.109375 L 55.957031 62.226562 C 55.957031 62.226562 57.957031 62.238281 57.917969 62.109375 Z M 58 77.644531 C 58.011719 77.59375 56.152344 77.527344 56.046875 77.644531 C 56 77.691406 57.988281 77.6875 58 77.644531 Z M 38.59375 77.695312 C 38.59375 77.695312 40.394531 77.660156 40.40625 77.605469 C 40.417969 77.554688 38.59375 77.554688 38.59375 77.554688 Z M 58.378906 79.367188 C 58.515625 79.167969 37.972656 79.207031 37.972656 79.207031 L 37.972656 79.367188 C 37.96875 79.367188 58.242188 79.5625 58.378906 79.367188 Z M 59.910156 80.710938 C 59.996094 80.59375 36.734375 80.261719 36.617188 80.613281 C 36.585938 80.710938 59.828125 80.828125 59.910156 80.710938 Z M 48.679688 81.886719 C 42.058594 81.851562 35.347656 81.703125 35.347656 81.914062 C 35.347656 82.15625 61.347656 82.132812 61.433594 81.929688 C 61.472656 81.832031 55.117188 81.921875 48.679688 81.886719 Z M 65.152344 75.597656 C 65.183594 75.578125 65.199219 75.511719 65.152344 75.539062 C 65.101562 75.566406 64.78125 75.710938 64.433594 75.71875 C 64.085938 75.730469 63.773438 75.617188 63.8125 75.675781 C 64.003906 75.8125 64.6875 75.863281 65.152344 75.597656 Z M 63.660156 76.226562 C 63.667969 76.234375 63.679688 76.242188 63.695312 76.246094 C 63.941406 76.332031 65.324219 76.363281 65.324219 76.265625 Z M 32.992188 75.488281 C 33.066406 75.382812 32.722656 75.484375 32.445312 75.472656 C 32.175781 75.460938 31.714844 75.253906 31.761719 75.363281 C 31.804688 75.410156 32.460938 75.738281 32.992188 75.488281 Z M 31.484375 76.050781 C 31.464844 76.128906 33.257812 76.144531 33.285156 76.050781 C 33.3125 75.957031 31.503906 75.996094 31.484375 76.050781 Z M 43.300781 39.296875 C 43.210938 39.96875 42.566406 39.695312 42.453125 39.660156 C 42.339844 39.625 42.023438 39.996094 42.550781 40.195312 C 43.074219 40.398438 43.703125 40.125 43.949219 39.566406 C 44.195312 39.007812 43.601562 38.390625 43.148438 38.199219 C 42.699219 37.972656 42.785156 37.59375 43.375 37.589844 C 43.746094 37.609375 43.863281 37.230469 43.632812 37.09375 C 42.984375 36.84375 42.019531 37.292969 42.238281 38.183594 C 42.425781 38.738281 43.390625 38.625 43.300781 39.296875 Z M 46.617188 39.851562 C 46.652344 39.742188 46.65625 39.328125 46.644531 38.867188 L 47.714844 38.84375 C 47.722656 39.355469 47.753906 39.804688 47.820312 39.882812 C 47.972656 40.074219 48.148438 40.09375 48.230469 39.789062 C 48.3125 39.480469 48.375 37.644531 48.285156 37.351562 C 48.191406 37.0625 47.980469 36.875 47.820312 37.199219 C 47.769531 37.304688 47.730469 37.761719 47.71875 38.265625 C 47.40625 38.285156 46.871094 38.332031 46.625 38.332031 C 46.605469 37.867188 46.578125 37.457031 46.5625 37.390625 C 46.507812 37.101562 46.078125 36.78125 45.972656 37.308594 C 45.941406 37.453125 45.980469 39.804688 46.128906 40.09375 C 46.28125 40.378906 46.527344 40.113281 46.617188 39.851562 Z M 49.757812 37.023438 C 50.765625 37.035156 51.253906 38.75 50.71875 39.671875 C 50.179688 40.59375 49.027344 40.496094 48.621094 39.507812 C 48.289062 38.707031 48.542969 37.015625 49.757812 37.023438 Z M 49.230469 39.121094 C 49.519531 39.992188 50.089844 39.785156 50.296875 39.085938 C 50.503906 38.386719 50.207031 37.738281 49.871094 37.660156 C 49.539062 37.578125 48.847656 37.972656 49.230469 39.121094 Z M 53.414062 39.507812 C 53.007812 40.5 51.851562 40.597656 51.3125 39.671875 C 50.777344 38.75 51.265625 37.03125 52.273438 37.023438 C 53.488281 37.015625 53.746094 38.707031 53.414062 39.507812 Z M 52.160156 37.65625 C 51.828125 37.738281 51.527344 38.382812 51.734375 39.082031 C 51.945312 39.78125 52.511719 39.988281 52.800781 39.121094 C 53.1875 37.972656 52.492188 37.578125 52.160156 37.65625 Z M 55.613281 39.945312 C 55.75 39.847656 55.714844 39.53125 55.632812 39.460938 C 55.550781 39.386719 54.695312 39.625 54.636719 39.59375 C 54.386719 39.140625 54.59375 37.535156 54.460938 37.175781 C 54.398438 36.996094 53.9375 36.953125 53.867188 37.1875 C 53.800781 37.398438 53.847656 39.875 54.132812 40.109375 C 54.414062 40.347656 55.476562 40.042969 55.613281 39.945312 Z M 45.566406 40.011719 C 45.71875 39.855469 45.65625 39.535156 45.3125 39.535156 C 44.347656 39.417969 44.355469 37.59375 45.378906 37.574219 C 45.457031 37.570312 45.578125 37.503906 45.617188 37.433594 C 45.691406 37.289062 45.6875 37.128906 45.523438 37.066406 C 43.347656 36.566406 43.648438 40.863281 45.566406 40.011719 Z M 45.566406 40.011719 " fill-opacity="1" fill-rule="nonzero"/></svg>