<svg xmlns="http://www.w3.org/2000/svg" xmlns:xlink="http://www.w3.org/1999/xlink" width="128" zoomAndPan="magnify" viewBox="0 0 96 95.999999" height="128" preserveAspectRatio="xMidYMid meet" version="1.0"><defs><clipPath id="bf4f67455d"><path d="M 20 5 L 83.160156 5 L 83.160156 69 L 20 69 Z M 20 5 " clip-rule="nonzero"/></clipPath><clipPath id="6e8728daef"><path d="M 33 8 L 83.160156 8 L 83.160156 69 L 33 69 Z M 33 8 " clip-rule="nonzero"/></clipPath><clipPath id="9da3d919b1"><path d="M 24 7 L 83.160156 7 L 83.160156 69 L 24 69 Z M 24 7 " clip-rule="nonzero"/></clipPath><clipPath id="8879dcebef"><path d="M 12.660156 0 L 76 0 L 76 96 L 12.660156 96 Z M 12.660156 0 " clip-rule="nonzero"/></clipPath></defs><g clip-path="url(#bf4f67455d)"><path fill="#57b9f8" d="M 83.136719 37.058594 C 83.136719 38.089844 83.085938 39.121094 82.984375 40.148438 C 82.882812 41.175781 82.730469 42.195312 82.53125 43.207031 C 82.328125 44.21875 82.078125 45.21875 81.78125 46.207031 C 81.480469 47.195312 81.136719 48.164062 80.742188 49.121094 C 80.347656 50.074219 79.90625 51.003906 79.421875 51.914062 C 78.9375 52.828125 78.410156 53.710938 77.835938 54.570312 C 77.265625 55.425781 76.652344 56.253906 76 57.054688 C 75.34375 57.851562 74.652344 58.617188 73.925781 59.34375 C 73.199219 60.074219 72.4375 60.765625 71.640625 61.421875 C 70.84375 62.078125 70.019531 62.691406 69.160156 63.265625 C 68.304688 63.839844 67.421875 64.367188 66.515625 64.855469 C 65.605469 65.34375 64.675781 65.78125 63.726562 66.175781 C 62.773438 66.574219 61.804688 66.921875 60.820312 67.21875 C 59.835938 67.519531 58.835938 67.769531 57.828125 67.972656 C 56.816406 68.171875 55.800781 68.324219 54.777344 68.425781 C 53.75 68.527344 52.722656 68.578125 51.695312 68.578125 C 50.664062 68.578125 49.636719 68.527344 48.613281 68.425781 C 47.585938 68.324219 46.570312 68.171875 45.558594 67.972656 C 44.550781 67.769531 43.550781 67.519531 42.566406 67.21875 C 41.582031 66.921875 40.613281 66.574219 39.660156 66.175781 C 38.710938 65.78125 37.78125 65.34375 36.871094 64.855469 C 35.964844 64.367188 35.082031 63.839844 34.226562 63.265625 C 33.371094 62.691406 32.542969 62.078125 31.75 61.421875 C 30.953125 60.765625 30.191406 60.074219 29.460938 59.34375 C 28.734375 58.617188 28.042969 57.851562 27.390625 57.054688 C 26.738281 56.253906 26.125 55.425781 25.550781 54.570312 C 24.980469 53.710938 24.449219 52.828125 23.964844 51.914062 C 23.480469 51.003906 23.039062 50.074219 22.644531 49.121094 C 22.253906 48.164062 21.90625 47.195312 21.605469 46.207031 C 21.308594 45.21875 21.058594 44.21875 20.855469 43.207031 C 20.65625 42.195312 20.503906 41.175781 20.40625 40.148438 C 20.304688 39.121094 20.253906 38.089844 20.253906 37.058594 C 20.253906 36.027344 20.304688 34.996094 20.40625 33.96875 C 20.503906 32.941406 20.65625 31.921875 20.855469 30.910156 C 21.058594 29.894531 21.308594 28.894531 21.605469 27.90625 C 21.90625 26.921875 22.253906 25.949219 22.644531 24.996094 C 23.039062 24.042969 23.480469 23.109375 23.964844 22.199219 C 24.449219 21.289062 24.980469 20.40625 25.550781 19.546875 C 26.125 18.6875 26.738281 17.859375 27.390625 17.0625 C 28.042969 16.265625 28.734375 15.5 29.460938 14.769531 C 30.191406 14.039062 30.953125 13.347656 31.75 12.691406 C 32.542969 12.039062 33.371094 11.425781 34.226562 10.851562 C 35.082031 10.277344 35.964844 9.746094 36.871094 9.261719 C 37.78125 8.773438 38.710938 8.332031 39.660156 7.9375 C 40.613281 7.542969 41.582031 7.195312 42.566406 6.894531 C 43.550781 6.597656 44.550781 6.34375 45.558594 6.144531 C 46.570312 5.941406 47.585938 5.792969 48.613281 5.691406 C 49.636719 5.589844 50.664062 5.539062 51.695312 5.539062 C 52.722656 5.539062 53.75 5.589844 54.777344 5.691406 C 55.800781 5.792969 56.816406 5.941406 57.828125 6.144531 C 58.835938 6.34375 59.835938 6.597656 60.820312 6.894531 C 61.804688 7.195312 62.773438 7.542969 63.726562 7.9375 C 64.675781 8.332031 65.605469 8.773438 66.515625 9.261719 C 67.421875 9.746094 68.304688 10.277344 69.160156 10.851562 C 70.019531 11.425781 70.84375 12.039062 71.640625 12.691406 C 72.4375 13.347656 73.199219 14.039062 73.925781 14.769531 C 74.652344 15.5 75.34375 16.265625 76 17.0625 C 76.652344 17.859375 77.265625 18.6875 77.835938 19.546875 C 78.410156 20.40625 78.9375 21.289062 79.421875 22.199219 C 79.90625 23.109375 80.347656 24.042969 80.742188 24.996094 C 81.136719 25.949219 81.480469 26.921875 81.78125 27.90625 C 82.078125 28.894531 82.328125 29.894531 82.53125 30.910156 C 82.730469 31.921875 82.882812 32.941406 82.984375 33.96875 C 83.085938 34.996094 83.136719 36.027344 83.136719 37.058594 Z M 83.136719 37.058594 " fill-opacity="1" fill-rule="nonzero"/></g><g clip-path="url(#6e8728daef)"><path fill="#44b2e2" d="M 64.394531 8.21875 C 72.378906 13.933594 77.585938 23.300781 77.585938 33.886719 C 77.585938 51.296875 63.511719 65.40625 46.148438 65.40625 C 41.625 65.40625 37.332031 64.449219 33.445312 62.726562 C 38.589844 66.410156 44.890625 68.578125 51.695312 68.578125 C 69.058594 68.578125 83.136719 54.464844 83.136719 37.058594 C 83.136719 24.179688 75.433594 13.109375 64.394531 8.21875 Z M 64.394531 8.21875 " fill-opacity="1" fill-rule="nonzero"/></g><g clip-path="url(#9da3d919b1)"><path fill="#74f29d" d="M 46.800781 39.054688 C 46.867188 39.304688 46.699219 39.550781 46.445312 39.59375 C 45.671875 39.71875 44.894531 39.164062 44.332031 38.664062 C 44.015625 38.355469 43.449219 38.304688 42.996094 38.164062 C 42.40625 37.980469 42.53125 37.105469 43.148438 37.085938 C 43.320312 37.082031 43.507812 37.101562 43.703125 37.136719 C 44.558594 37.207031 46.5625 38.128906 46.800781 39.054688 Z M 53.640625 65.90625 C 53.539062 65.582031 53.757812 65.238281 54.097656 65.195312 C 55.640625 65 57.070312 63.910156 57.605469 62.433594 C 57.839844 61.792969 57.914062 61.109375 58.085938 60.449219 C 58.863281 57.425781 61.484375 55.265625 62.9375 52.507812 C 63.378906 51.84375 63.167969 51.042969 62.4375 50.6875 C 62.03125 50.472656 61.570312 50.402344 61.125 50.300781 C 59.339844 49.890625 57.691406 48.890625 56.5 47.496094 C 55.957031 46.863281 55.507812 46.152344 54.957031 45.523438 C 53.132812 43.476562 50.027344 42.167969 47.339844 43.054688 C 45.550781 44.199219 43.988281 43.8125 42.144531 42.820312 C 42.953125 40.105469 40.472656 41.8125 40.671875 38.648438 C 40.683594 38.480469 40.800781 38.1875 40.722656 38.109375 C 40.105469 37.5 38.050781 40.003906 37.628906 38.742188 C 37.261719 37.496094 37.074219 35.558594 37.648438 34.863281 C 37.882812 34.609375 38.242188 34.515625 38.582031 34.457031 C 40.09375 34.195312 43.671875 33.96875 44.871094 33.007812 C 46.132812 31.996094 46.3125 30.128906 47.304688 28.847656 C 47.632812 28.421875 48.046875 28.070312 48.492188 27.773438 C 49.960938 26.761719 51.910156 26.355469 53.023438 24.886719 C 53.390625 24.335938 53.769531 23.867188 53.601562 23.15625 C 53.398438 22.363281 52.71875 21.832031 52.191406 21.25 C 51.695312 20.710938 51.308594 20.082031 50.875 19.503906 C 50.671875 19.179688 50.285156 19.011719 50.089844 19.4375 C 49.863281 19.859375 48.617188 20.585938 48.136719 20.398438 C 47.992188 20.324219 47.179688 18.75 46.707031 18.207031 C 46.453125 17.855469 46.046875 17.753906 45.632812 17.859375 C 44.796875 18.070312 45.070312 19.441406 45.207031 19.984375 C 45.316406 20.433594 45.515625 21.773438 44.953125 22.476562 C 44.886719 22.558594 44.058594 23.394531 44.007812 23.289062 C 42.84375 21.042969 41.320312 21.425781 39.453125 20.570312 C 38.25 19.828125 38.117188 18.324219 39.554688 17.882812 C 40.726562 17.332031 41.78125 16.53125 42.625 15.550781 C 44.28125 13.378906 39.304688 14.511719 38.574219 15.128906 C 37.703125 15.832031 36.65625 15.296875 35.695312 15.125 C 36.105469 14.050781 34.785156 12.472656 33.761719 12.238281 C 33.296875 12.234375 32.824219 12.234375 32.359375 12.203125 C 31.558594 12.832031 30.785156 13.496094 30.050781 14.195312 C 30.175781 14.261719 30.300781 14.332031 30.417969 14.410156 C 30.230469 14.398438 30.042969 14.390625 29.855469 14.382812 C 27.621094 16.546875 25.707031 19.039062 24.1875 21.78125 C 25.445312 22.882812 26.667969 24.175781 26.921875 25.820312 C 27.109375 27.023438 26.753906 28.316406 27.246094 29.429688 C 27.71875 30.496094 29.445312 30.679688 29.761719 31.804688 C 31.632812 38.664062 32.613281 40.109375 38.285156 41.921875 C 40.035156 42.738281 44.632812 46.546875 44.878906 48.613281 C 44.984375 49.53125 44.433594 50.410156 44.339844 51.332031 C 44.164062 53.105469 45.105469 54.945312 46.644531 55.839844 C 47.070312 56.085938 47.539062 56.273438 47.863281 56.636719 C 48.835938 57.859375 47.964844 59.65625 47.226562 60.796875 C 46.023438 62.609375 45.804688 65.367188 45.980469 68.054688 C 47.496094 68.335938 49.054688 68.503906 50.640625 68.558594 C 51.273438 67.816406 52.332031 67.496094 53.214844 67.125 C 53.792969 66.929688 53.839844 66.472656 53.640625 65.90625 Z M 38.03125 10.804688 C 38.714844 11.007812 40.097656 10.863281 40.113281 11.851562 C 40.082031 12.070312 39.914062 12.316406 40.058594 12.484375 C 40.113281 12.546875 40.195312 12.574219 40.273438 12.597656 C 42.804688 13.304688 44.160156 11.722656 46.050781 10.460938 C 47.410156 9.695312 49.140625 9.570312 50.339844 8.621094 C 50.613281 8.402344 50.484375 7.960938 50.140625 7.914062 C 50.070312 7.902344 49.996094 7.898438 49.914062 7.894531 C 49.914062 7.894531 43.394531 7.515625 39.765625 7.890625 C 39.0625 8.175781 38.378906 8.488281 37.703125 8.824219 C 36.957031 9.460938 36.636719 10.265625 38.03125 10.804688 Z M 44.339844 13.03125 C 43.917969 14.003906 44.046875 14.609375 44.78125 15.007812 C 45.472656 15.386719 46.085938 15.898438 46.535156 16.550781 C 47.074219 17.335938 47.570312 18.078125 48.996094 18.257812 C 51.363281 18.898438 51.574219 16.578125 50.039062 15.335938 C 48.144531 13.804688 47.152344 13.183594 45.363281 12.835938 L 45.402344 12.847656 C 45.03125 12.769531 44.570312 12.726562 44.339844 13.03125 Z M 48.917969 11.191406 C 51.953125 13.664062 55.511719 9.164062 56.183594 16.398438 C 56.1875 19.542969 59.335938 18.867188 60.140625 16.777344 C 60.472656 16.128906 60.574219 14.640625 61.078125 14.113281 C 61.773438 13.390625 65.800781 13.078125 65.597656 10.90625 C 65.457031 10.078125 66.21875 9.785156 66.695312 9.351562 C 65.523438 8.710938 64.304688 8.144531 63.046875 7.65625 C 62.914062 7.648438 62.789062 7.640625 62.667969 7.632812 C 59.835938 7.449219 54.917969 7.011719 52.375 8.671875 C 51.453125 9.410156 50.613281 10.296875 49.445312 10.65625 C 49.1875 10.75 48.863281 10.921875 48.917969 11.191406 Z M 69.652344 16.355469 L 69.535156 16.253906 C 68.835938 16.320312 68.125 16.292969 67.433594 16.171875 C 67.261719 16.140625 67.082031 16.105469 66.921875 16.164062 C 66.617188 16.269531 66.5 16.671875 66.613281 16.972656 C 66.726562 17.277344 67.003906 17.484375 67.292969 17.628906 C 68.136719 18.050781 69.179688 18.042969 70.015625 17.605469 C 70.242188 17.488281 70.472656 17.308594 70.488281 17.054688 C 70.503906 16.855469 70.375 16.671875 70.210938 16.558594 C 70.042969 16.449219 69.847656 16.402344 69.652344 16.355469 Z M 73.628906 20.335938 C 73.511719 20.71875 73.730469 21.167969 74.089844 21.347656 C 74.238281 21.421875 74.414062 21.460938 74.542969 21.566406 C 74.867188 21.820312 74.910156 22.699219 74.746094 23.058594 C 74.65625 23.234375 74.484375 23.417969 74.5625 23.597656 C 74.792969 24.054688 76.839844 23.597656 77.160156 23.292969 C 77.382812 22.992188 77.050781 22.667969 76.8125 22.5 C 76.175781 21.980469 75.742188 21.21875 75.621094 20.40625 C 75.605469 19.90625 75.207031 19.78125 74.753906 19.800781 C 74.753906 19.800781 73.8125 19.742188 73.628906 20.335938 Z M 73.5625 22.789062 C 73.769531 22.519531 73.761719 22.136719 73.535156 21.878906 C 73.476562 21.808594 73.425781 21.773438 73.363281 21.730469 C 73.332031 21.710938 73.304688 21.683594 73.289062 21.648438 L 73.269531 21.609375 C 73.257812 21.582031 73.230469 21.570312 73.203125 21.570312 C 73.015625 21.589844 73.011719 21.789062 72.96875 21.941406 C 72.75 22.191406 72.464844 21.925781 72.175781 22.40625 C 72.011719 22.621094 71.558594 23.285156 71.878906 23.46875 C 72.460938 23.660156 73.179688 23.292969 73.5625 22.789062 Z M 77.265625 24.550781 C 76.59375 24.847656 75.015625 24.453125 74.875 25.378906 C 74.863281 25.890625 75.621094 26.085938 75.738281 26.582031 C 75.855469 27.007812 75.367188 27.394531 74.980469 27.183594 L 75.027344 27.230469 C 74.339844 27.378906 73.535156 27.007812 72.960938 27.417969 C 71.9375 28.429688 72.039062 29.464844 73.121094 30.390625 C 73.464844 30.792969 73.925781 30.894531 74.382812 30.605469 C 75.023438 30.210938 76.101562 30.042969 76.371094 29.285156 C 76.570312 28.816406 76.753906 28.273438 77.210938 28.054688 C 77.457031 27.933594 77.757812 27.929688 77.972656 27.761719 C 78.21875 27.570312 78.308594 27.207031 78.589844 27.070312 C 79.175781 26.859375 79.753906 27.460938 80.390625 26.953125 L 80.476562 26.957031 C 80.285156 27.632812 81.210938 27.792969 81.578125 28.148438 C 81.722656 28.332031 81.863281 28.515625 82.011719 28.691406 C 81.398438 26.453125 80.546875 24.3125 79.484375 22.304688 C 78.410156 22.652344 79.082031 24.019531 77.265625 24.550781 Z M 80.886719 32.195312 C 80.410156 31.890625 80.132812 31.421875 79.851562 30.953125 C 79.046875 30.019531 77.695312 30.605469 76.753906 31.015625 C 74.242188 31.796875 72.554688 32.453125 71.386719 35.023438 C 70.691406 36.675781 70.070312 39.027344 70.296875 40.8125 C 70.910156 42.980469 73.558594 45.0625 75.746094 45.355469 C 77.191406 45.53125 78.796875 45.078125 80.023438 45.859375 C 80.710938 46.261719 81.082031 46.972656 81.28125 47.742188 C 82.480469 44.40625 83.136719 40.808594 83.136719 37.058594 C 83.136719 35.945312 83.078125 34.84375 82.964844 33.761719 C 82.847656 33.707031 82.738281 33.632812 82.644531 33.5625 C 82.058594 33.105469 81.472656 32.648438 80.886719 32.195312 Z M 81.871094 30.25 C 82.023438 30.488281 82.242188 30.582031 82.464844 30.566406 C 82.394531 30.21875 82.3125 29.871094 82.230469 29.523438 C 82.171875 29.644531 82.089844 29.761719 82 29.855469 C 81.90625 29.957031 81.800781 30.0625 81.871094 30.25 Z M 81.871094 30.25 " fill-opacity="1" fill-rule="nonzero"/></g><g clip-path="url(#8879dcebef)"><path fill="#f2bc6d" d="M 74.960938 66.230469 C 74.375 65.417969 73.246094 65.238281 72.441406 65.824219 C 71.753906 66.320312 71.054688 66.792969 70.34375 67.234375 L 68.464844 63.722656 C 67.605469 64.265625 66.71875 64.769531 65.808594 65.226562 L 67.6875 68.738281 C 62.761719 71.246094 57.324219 72.550781 51.695312 72.550781 C 42.238281 72.550781 33.34375 68.859375 26.65625 62.15625 C 19.96875 55.453125 16.289062 46.539062 16.289062 37.058594 C 16.289062 29.652344 18.539062 22.554688 22.800781 16.535156 C 25.898438 12.160156 29.875 8.59375 34.472656 6.03125 L 36.351562 9.542969 C 37.234375 9.046875 38.148438 8.589844 39.082031 8.179688 L 37.199219 4.664062 C 37.941406 4.328125 38.695312 4.019531 39.460938 3.738281 C 40.398438 3.390625 40.875 2.351562 40.53125 1.414062 C 40.1875 0.476562 39.148438 -0.00390625 38.214844 0.339844 C 30.796875 3.078125 24.449219 7.953125 19.859375 14.441406 C 15.160156 21.074219 12.679688 28.894531 12.679688 37.058594 C 12.679688 42.335938 13.710938 47.460938 15.746094 52.28125 C 17.710938 56.941406 20.523438 61.125 24.105469 64.714844 C 27.6875 68.304688 31.859375 71.125 36.507812 73.097656 C 40.851562 74.9375 45.441406 75.960938 50.167969 76.140625 L 50.167969 83.742188 L 42.476562 83.742188 C 41.851562 83.742188 41.28125 84.101562 41.011719 84.664062 L 36.691406 93.667969 C 36.175781 94.746094 36.960938 96 38.15625 96 L 65.234375 96 C 66.429688 96 67.214844 94.746094 66.695312 93.667969 L 62.375 84.664062 C 62.105469 84.101562 61.535156 83.742188 60.914062 83.742188 L 53.21875 83.742188 L 53.21875 76.140625 C 60.9375 75.847656 68.285156 73.308594 74.558594 68.753906 C 75.363281 68.167969 75.542969 67.039062 74.960938 66.230469 Z M 74.960938 66.230469 " fill-opacity="1" fill-rule="nonzero"/></g></svg>