<svg xmlns="http://www.w3.org/2000/svg" xmlns:xlink="http://www.w3.org/1999/xlink" width="128" zoomAndPan="magnify" viewBox="0 0 96 95.999999" height="128" preserveAspectRatio="xMidYMid meet" version="1.0"><defs><clipPath id="8c6955a993"><path d="M 0.277344 0.277344 L 95.527344 0.277344 L 95.527344 95.527344 L 0.277344 95.527344 Z M 0.277344 0.277344 " clip-rule="nonzero"/></clipPath></defs><g clip-path="url(#8c6955a993)"><path fill="#7b7979" d="M 47.902344 74.03125 C 33.46875 74.03125 21.773438 62.332031 21.773438 47.902344 C 21.773438 33.46875 33.46875 21.773438 47.902344 21.773438 C 62.332031 21.773438 74.03125 33.46875 74.03125 47.902344 C 74.03125 62.332031 62.332031 74.03125 47.902344 74.03125 Z M 95.359375 51.820312 C 95.464844 50.527344 95.53125 49.222656 95.53125 47.902344 C 95.53125 46.578125 95.464844 45.273438 95.359375 43.980469 C 78.859375 38.800781 75.992188 32.085938 84.089844 16.949219 C 82.480469 15.070312 80.730469 13.320312 78.851562 11.714844 C 63.71875 19.8125 57.003906 16.945312 51.824219 0.445312 C 50.527344 0.339844 49.222656 0.269531 47.902344 0.269531 C 46.582031 0.269531 45.273438 0.339844 43.980469 0.445312 C 38.800781 16.945312 32.082031 19.8125 16.949219 11.714844 C 15.074219 13.320312 13.320312 15.070312 11.714844 16.949219 C 19.8125 32.085938 16.941406 38.800781 0.445312 43.980469 C 0.339844 45.273438 0.269531 46.578125 0.269531 47.902344 C 0.269531 49.222656 0.339844 50.527344 0.445312 51.820312 C 16.941406 57 19.8125 63.71875 11.714844 78.851562 C 13.320312 80.730469 15.074219 82.480469 16.949219 84.089844 C 32.082031 75.992188 38.800781 78.859375 43.980469 95.359375 C 45.273438 95.464844 46.582031 95.53125 47.902344 95.53125 C 49.222656 95.53125 50.527344 95.464844 51.824219 95.359375 C 57.003906 78.859375 63.71875 75.992188 78.851562 84.089844 C 80.730469 82.480469 82.480469 80.730469 84.089844 78.851562 C 75.992188 63.71875 78.859375 57.003906 95.359375 51.820312 " fill-opacity="1" fill-rule="nonzero"/><path fill="#696767" d="M 81.398438 76.550781 C 79.910156 78.289062 78.292969 79.910156 76.550781 81.398438 C 62.542969 73.902344 56.324219 76.554688 51.53125 91.828125 C 50.332031 91.925781 49.125 91.988281 47.902344 91.988281 C 46.679688 91.988281 45.46875 91.925781 44.273438 91.828125 C 39.476562 76.554688 33.261719 73.902344 19.253906 81.398438 C 17.515625 79.910156 15.894531 78.289062 14.40625 76.550781 C 21.902344 62.542969 19.246094 56.324219 3.972656 51.53125 C 3.875 50.332031 3.8125 49.125 3.8125 47.902344 C 3.8125 46.679688 3.875 45.46875 3.972656 44.273438 C 19.246094 39.476562 21.902344 33.261719 14.40625 19.253906 C 15.894531 17.515625 17.515625 15.894531 19.253906 14.40625 C 33.261719 21.902344 39.476562 19.246094 44.273438 3.972656 C 45.46875 3.878906 46.679688 3.8125 47.902344 3.8125 C 49.125 3.8125 50.332031 3.878906 51.53125 3.972656 C 56.324219 19.246094 62.542969 21.902344 76.550781 14.40625 C 78.292969 15.894531 79.910156 17.515625 81.398438 19.253906 C 73.902344 33.261719 76.558594 39.476562 91.828125 44.273438 C 91.925781 45.46875 91.988281 46.679688 91.988281 47.902344 C 91.988281 49.125 91.925781 50.332031 91.828125 51.53125 C 76.558594 56.324219 73.902344 62.542969 81.398438 76.550781 Z M 95.359375 51.820312 C 95.464844 50.527344 95.53125 49.222656 95.53125 47.902344 C 95.53125 46.578125 95.464844 45.273438 95.359375 43.980469 C 78.859375 38.800781 75.992188 32.085938 84.089844 16.949219 C 82.480469 15.070312 80.730469 13.320312 78.851562 11.714844 C 63.71875 19.8125 57.003906 16.945312 51.824219 0.445312 C 50.527344 0.339844 49.222656 0.269531 47.902344 0.269531 C 46.582031 0.269531 45.273438 0.339844 43.980469 0.445312 C 38.800781 16.945312 32.082031 19.8125 16.949219 11.714844 C 15.074219 13.320312 13.320312 15.070312 11.714844 16.949219 C 19.8125 32.085938 16.941406 38.800781 0.445312 43.980469 C 0.339844 45.273438 0.269531 46.578125 0.269531 47.902344 C 0.269531 49.222656 0.339844 50.527344 0.445312 51.820312 C 16.941406 57 19.8125 63.71875 11.714844 78.851562 C 13.320312 80.730469 15.074219 82.480469 16.949219 84.089844 C 32.082031 75.992188 38.800781 78.859375 43.980469 95.359375 C 45.273438 95.464844 46.582031 95.53125 47.902344 95.53125 C 49.222656 95.53125 50.527344 95.464844 51.824219 95.359375 C 57.003906 78.859375 63.71875 75.992188 78.851562 84.089844 C 80.730469 82.480469 82.480469 80.730469 84.089844 78.851562 C 75.992188 63.71875 78.859375 57.003906 95.359375 51.820312 " fill-opacity="1" fill-rule="nonzero"/></g><path fill="#696767" d="M 47.902344 66.972656 C 37.367188 66.972656 28.828125 58.433594 28.828125 47.902344 C 28.828125 37.367188 37.367188 28.828125 47.902344 28.828125 C 58.433594 28.828125 66.972656 37.367188 66.972656 47.902344 C 66.972656 58.433594 58.433594 66.972656 47.902344 66.972656 Z M 47.902344 24.773438 C 35.125 24.773438 24.773438 35.128906 24.773438 47.902344 C 24.773438 60.675781 35.125 71.027344 47.902344 71.027344 C 60.675781 71.027344 71.027344 60.675781 71.027344 47.902344 C 71.027344 35.128906 60.675781 24.773438 47.902344 24.773438 " fill-opacity="1" fill-rule="nonzero"/></svg>