<svg xmlns="http://www.w3.org/2000/svg" xmlns:xlink="http://www.w3.org/1999/xlink" width="128" zoomAndPan="magnify" viewBox="0 0 96 95.999999" height="128" preserveAspectRatio="xMidYMid meet" version="1.0"><defs><clipPath id="ce5c4a44f4"><path d="M 6 5.410156 L 19 5.410156 L 19 78 L 6 78 Z M 6 5.410156 " clip-rule="nonzero"/></clipPath><clipPath id="59abf2e0c7"><path d="M 76 5.410156 L 89 5.410156 L 89 78 L 76 78 Z M 76 5.410156 " clip-rule="nonzero"/></clipPath></defs><path fill="#a3544a" d="M 1.828125 79.488281 L 1.792969 84.367188 C 1.792969 84.367188 52.878906 90.917969 94.117188 83.230469 C 94.117188 83.230469 95.019531 75.875 92.675781 72.625 C 90.335938 69.371094 1.828125 79.488281 1.828125 79.488281 Z M 1.828125 79.488281 " fill-opacity="1" fill-rule="nonzero"/><path fill="#d26a5f" d="M 1.992188 79.988281 C 1.992188 79.988281 67.503906 83.910156 93.941406 79.074219 C 96.023438 69.921875 78.964844 60.3125 78.964844 60.3125 C 78.964844 60.3125 18.664062 59.722656 15.929688 60.898438 C 13.195312 62.078125 0.0234375 79.878906 1.992188 79.988281 Z M 1.992188 79.988281 " fill-opacity="1" fill-rule="nonzero"/><g clip-path="url(#ce5c4a44f4)"><path fill="#f18c73" d="M 6.421875 77.503906 C 6.421875 77.503906 6.421875 11.65625 10.601562 7.320312 L 13.34375 5.40625 C 13.34375 5.40625 19.21875 49.71875 18.695312 63.21875 C 18.695312 63.21875 6.417969 79.589844 6.421875 77.503906 Z M 6.421875 77.503906 " fill-opacity="1" fill-rule="nonzero"/></g><g clip-path="url(#59abf2e0c7)"><path fill="#f18c73" d="M 88.960938 77.503906 C 88.960938 77.503906 88.960938 11.65625 84.78125 7.320312 L 82.039062 5.40625 C 82.039062 5.40625 76.160156 49.71875 76.683594 63.21875 C 76.683594 63.21875 88.964844 79.589844 88.960938 77.503906 Z M 88.960938 77.503906 " fill-opacity="1" fill-rule="nonzero"/></g><path fill="#b3cdec" d="M 81.046875 26.972656 L 12.804688 26.972656 C 11.832031 26.972656 11.046875 26.183594 11.046875 25.207031 C 11.046875 24.234375 11.832031 23.445312 12.804688 23.445312 L 81.046875 23.445312 C 82.019531 23.445312 82.804688 24.234375 82.804688 25.207031 C 82.804688 26.183594 82.019531 26.972656 81.046875 26.972656 Z M 81.046875 26.972656 " fill-opacity="1" fill-rule="nonzero"/><path fill="#b3cdec" d="M 81.046875 38.085938 L 12.804688 38.085938 C 11.832031 38.085938 11.046875 37.296875 11.046875 36.320312 C 11.046875 35.347656 11.832031 34.554688 12.804688 34.554688 L 81.046875 34.554688 C 82.019531 34.554688 82.804688 35.347656 82.804688 36.320312 C 82.804688 37.296875 82.019531 38.085938 81.046875 38.085938 Z M 81.046875 38.085938 " fill-opacity="1" fill-rule="nonzero"/><path fill="#b3cdec" d="M 81.046875 49.199219 L 12.804688 49.199219 C 11.832031 49.199219 11.046875 48.410156 11.046875 47.433594 C 11.046875 46.460938 11.832031 45.667969 12.804688 45.667969 L 81.046875 45.667969 C 82.019531 45.667969 82.804688 46.460938 82.804688 47.433594 C 82.804688 48.410156 82.019531 49.199219 81.046875 49.199219 Z M 81.046875 49.199219 " fill-opacity="1" fill-rule="nonzero"/><path fill="#b3cdec" d="M 81.046875 60.3125 L 12.804688 60.3125 C 11.832031 60.3125 11.046875 59.523438 11.046875 58.546875 C 11.046875 57.570312 11.832031 56.78125 12.804688 56.78125 L 81.046875 56.78125 C 82.019531 56.78125 82.804688 57.570312 82.804688 58.546875 C 82.804688 59.523438 82.019531 60.3125 81.046875 60.3125 Z M 81.046875 60.3125 " fill-opacity="1" fill-rule="nonzero"/><path fill="#e73456" d="M 26.332031 25.207031 C 26.332031 25.476562 26.304688 25.738281 26.253906 26 C 26.203125 26.261719 26.125 26.515625 26.023438 26.757812 C 25.921875 27.003906 25.800781 27.238281 25.652344 27.460938 C 25.503906 27.679688 25.335938 27.886719 25.148438 28.074219 C 24.960938 28.261719 24.757812 28.429688 24.539062 28.578125 C 24.316406 28.726562 24.085938 28.851562 23.839844 28.953125 C 23.59375 29.054688 23.34375 29.132812 23.082031 29.183594 C 22.824219 29.234375 22.558594 29.261719 22.292969 29.261719 C 22.03125 29.261719 21.765625 29.234375 21.507812 29.183594 C 21.246094 29.132812 20.996094 29.054688 20.75 28.953125 C 20.503906 28.851562 20.273438 28.726562 20.050781 28.578125 C 19.832031 28.429688 19.628906 28.261719 19.441406 28.074219 C 19.253906 27.886719 19.085938 27.679688 18.9375 27.460938 C 18.789062 27.238281 18.667969 27.003906 18.566406 26.757812 C 18.464844 26.515625 18.386719 26.261719 18.335938 26 C 18.285156 25.738281 18.257812 25.476562 18.257812 25.207031 C 18.257812 24.941406 18.285156 24.679688 18.335938 24.417969 C 18.386719 24.15625 18.464844 23.902344 18.566406 23.65625 C 18.667969 23.410156 18.789062 23.179688 18.9375 22.957031 C 19.085938 22.734375 19.253906 22.53125 19.441406 22.34375 C 19.628906 22.15625 19.832031 21.988281 20.050781 21.839844 C 20.273438 21.691406 20.503906 21.566406 20.75 21.464844 C 20.996094 21.363281 21.246094 21.285156 21.507812 21.234375 C 21.765625 21.183594 22.03125 21.15625 22.292969 21.15625 C 22.558594 21.15625 22.824219 21.183594 23.082031 21.234375 C 23.34375 21.285156 23.59375 21.363281 23.839844 21.464844 C 24.085938 21.566406 24.316406 21.691406 24.539062 21.839844 C 24.757812 21.988281 24.960938 22.15625 25.148438 22.34375 C 25.335938 22.53125 25.503906 22.734375 25.652344 22.957031 C 25.800781 23.179688 25.921875 23.410156 26.023438 23.65625 C 26.125 23.902344 26.203125 24.15625 26.253906 24.417969 C 26.304688 24.679688 26.332031 24.941406 26.332031 25.207031 Z M 26.332031 25.207031 " fill-opacity="1" fill-rule="nonzero"/><path stroke-linecap="round" transform="matrix(0.40948, 0, 0, 0.411058, -39.014536, -41.203033)" fill="none" stroke-linejoin="round" d="M 148.566057 155.714694 C 148.566057 155.714694 156.579266 154.479314 155.48222 161.568496 " stroke="#eb5d72" stroke-width="5" stroke-opacity="1" stroke-miterlimit="10"/><path fill="#fdc543" d="M 25.859375 36.320312 C 25.859375 36.585938 25.832031 36.851562 25.78125 37.113281 C 25.730469 37.375 25.652344 37.625 25.550781 37.871094 C 25.449219 38.117188 25.324219 38.351562 25.179688 38.574219 C 25.03125 38.792969 24.863281 39 24.675781 39.1875 C 24.488281 39.375 24.285156 39.542969 24.0625 39.691406 C 23.84375 39.839844 23.609375 39.964844 23.367188 40.066406 C 23.121094 40.167969 22.867188 40.242188 22.609375 40.296875 C 22.347656 40.347656 22.085938 40.375 21.820312 40.375 C 21.554688 40.375 21.292969 40.347656 21.035156 40.296875 C 20.773438 40.242188 20.523438 40.167969 20.277344 40.066406 C 20.03125 39.964844 19.800781 39.839844 19.578125 39.691406 C 19.359375 39.542969 19.15625 39.375 18.96875 39.1875 C 18.78125 39 18.613281 38.792969 18.464844 38.574219 C 18.316406 38.351562 18.195312 38.117188 18.09375 37.871094 C 17.992188 37.625 17.914062 37.375 17.863281 37.113281 C 17.8125 36.851562 17.785156 36.585938 17.785156 36.320312 C 17.785156 36.054688 17.8125 35.792969 17.863281 35.53125 C 17.914062 35.269531 17.992188 35.015625 18.09375 34.769531 C 18.195312 34.523438 18.316406 34.292969 18.464844 34.070312 C 18.613281 33.847656 18.78125 33.644531 18.96875 33.457031 C 19.15625 33.269531 19.359375 33.101562 19.578125 32.953125 C 19.800781 32.804688 20.03125 32.679688 20.277344 32.578125 C 20.523438 32.476562 20.773438 32.398438 21.035156 32.347656 C 21.292969 32.296875 21.554688 32.269531 21.820312 32.269531 C 22.085938 32.269531 22.347656 32.296875 22.609375 32.347656 C 22.867188 32.398438 23.121094 32.476562 23.367188 32.578125 C 23.609375 32.679688 23.84375 32.804688 24.0625 32.953125 C 24.285156 33.101562 24.488281 33.269531 24.675781 33.457031 C 24.863281 33.644531 25.03125 33.847656 25.179688 34.070312 C 25.324219 34.292969 25.449219 34.523438 25.550781 34.769531 C 25.652344 35.015625 25.730469 35.269531 25.78125 35.53125 C 25.832031 35.792969 25.859375 36.054688 25.859375 36.320312 Z M 25.859375 36.320312 " fill-opacity="1" fill-rule="nonzero"/><path stroke-linecap="round" transform="matrix(0.40948, 0, 0, 0.411058, -39.014536, -41.203033)" fill="none" stroke-linejoin="round" d="M 142.126871 188.908409 C 142.126871 188.908409 142.956811 183.187649 147.497629 182.351391 " stroke="#ffe28a" stroke-width="5" stroke-opacity="1" stroke-miterlimit="10"/><path fill="#228b58" d="M 25.417969 47.433594 C 25.417969 47.699219 25.390625 47.964844 25.339844 48.226562 C 25.289062 48.484375 25.210938 48.738281 25.109375 48.984375 C 25.007812 49.230469 24.886719 49.464844 24.738281 49.6875 C 24.589844 49.90625 24.421875 50.113281 24.234375 50.300781 C 24.046875 50.488281 23.84375 50.65625 23.625 50.804688 C 23.402344 50.953125 23.171875 51.078125 22.925781 51.179688 C 22.679688 51.28125 22.429688 51.355469 22.167969 51.410156 C 21.910156 51.460938 21.644531 51.488281 21.382812 51.488281 C 21.117188 51.488281 20.851562 51.460938 20.59375 51.410156 C 20.332031 51.355469 20.082031 51.28125 19.835938 51.179688 C 19.589844 51.078125 19.359375 50.953125 19.136719 50.804688 C 18.917969 50.65625 18.714844 50.488281 18.527344 50.300781 C 18.339844 50.113281 18.171875 49.90625 18.023438 49.6875 C 17.875 49.464844 17.753906 49.230469 17.652344 48.984375 C 17.550781 48.738281 17.472656 48.484375 17.421875 48.226562 C 17.371094 47.964844 17.34375 47.699219 17.34375 47.433594 C 17.34375 47.167969 17.371094 46.90625 17.421875 46.644531 C 17.472656 46.382812 17.550781 46.128906 17.652344 45.882812 C 17.753906 45.636719 17.875 45.402344 18.023438 45.183594 C 18.171875 44.960938 18.339844 44.757812 18.527344 44.566406 C 18.714844 44.378906 18.917969 44.210938 19.136719 44.0625 C 19.359375 43.917969 19.589844 43.792969 19.835938 43.691406 C 20.082031 43.585938 20.332031 43.511719 20.59375 43.460938 C 20.851562 43.40625 21.117188 43.382812 21.382812 43.382812 C 21.644531 43.382812 21.910156 43.40625 22.167969 43.460938 C 22.429688 43.511719 22.679688 43.585938 22.925781 43.691406 C 23.171875 43.792969 23.402344 43.917969 23.625 44.0625 C 23.84375 44.210938 24.046875 44.378906 24.234375 44.566406 C 24.421875 44.757812 24.589844 44.960938 24.738281 45.183594 C 24.886719 45.402344 25.007812 45.636719 25.109375 45.882812 C 25.210938 46.128906 25.289062 46.382812 25.339844 46.644531 C 25.390625 46.90625 25.417969 47.167969 25.417969 47.433594 Z M 25.417969 47.433594 " fill-opacity="1" fill-rule="nonzero"/><path stroke-linecap="round" transform="matrix(0.40948, 0, 0, 0.411058, -39.014536, -41.203033)" fill="none" stroke-linejoin="round" d="M 148.880862 208.836042 C 148.880862 208.836042 154.137145 209.909872 154.013131 214.917913 " stroke="#61a675" stroke-width="5" stroke-opacity="1" stroke-miterlimit="10"/><path fill="#009cb3" d="M 25.988281 58.546875 C 25.988281 58.8125 25.964844 59.078125 25.910156 59.335938 C 25.859375 59.597656 25.78125 59.851562 25.679688 60.097656 C 25.578125 60.34375 25.457031 60.578125 25.308594 60.796875 C 25.160156 61.019531 24.992188 61.226562 24.804688 61.414062 C 24.617188 61.601562 24.414062 61.769531 24.195312 61.917969 C 23.972656 62.066406 23.742188 62.191406 23.496094 62.292969 C 23.25 62.394531 23 62.46875 22.738281 62.523438 C 22.480469 62.574219 22.214844 62.601562 21.953125 62.601562 C 21.6875 62.601562 21.421875 62.574219 21.164062 62.523438 C 20.902344 62.46875 20.652344 62.394531 20.40625 62.292969 C 20.160156 62.191406 19.929688 62.066406 19.707031 61.917969 C 19.488281 61.769531 19.285156 61.601562 19.097656 61.414062 C 18.910156 61.226562 18.742188 61.019531 18.59375 60.796875 C 18.445312 60.578125 18.324219 60.34375 18.222656 60.097656 C 18.121094 59.851562 18.042969 59.597656 17.992188 59.335938 C 17.941406 59.078125 17.914062 58.8125 17.914062 58.546875 C 17.914062 58.28125 17.941406 58.015625 17.992188 57.757812 C 18.042969 57.496094 18.121094 57.242188 18.222656 56.996094 C 18.324219 56.75 18.445312 56.515625 18.59375 56.296875 C 18.742188 56.074219 18.910156 55.871094 19.097656 55.679688 C 19.285156 55.492188 19.488281 55.324219 19.707031 55.175781 C 19.929688 55.027344 20.160156 54.90625 20.40625 54.800781 C 20.652344 54.699219 20.902344 54.625 21.164062 54.570312 C 21.421875 54.519531 21.6875 54.492188 21.953125 54.492188 C 22.214844 54.492188 22.480469 54.519531 22.738281 54.570312 C 23 54.625 23.25 54.699219 23.496094 54.800781 C 23.742188 54.90625 23.972656 55.027344 24.195312 55.175781 C 24.414062 55.324219 24.617188 55.492188 24.804688 55.679688 C 24.992188 55.871094 25.160156 56.074219 25.308594 56.296875 C 25.457031 56.515625 25.578125 56.75 25.679688 56.996094 C 25.78125 57.242188 25.859375 57.496094 25.910156 57.757812 C 25.964844 58.015625 25.988281 58.28125 25.988281 58.546875 Z M 25.988281 58.546875 " fill-opacity="1" fill-rule="nonzero"/><path stroke-linecap="round" transform="matrix(0.40948, 0, 0, 0.411058, -39.014536, -41.203033)" fill="none" stroke-linejoin="round" d="M 150.273634 235.871862 C 150.273634 235.871862 155.520378 236.945692 155.405904 241.953733 " stroke="#5aaacb" stroke-width="5" stroke-opacity="1" stroke-miterlimit="10"/><path fill="#e73456" d="M 35.320312 25.207031 C 35.320312 25.476562 35.292969 25.738281 35.242188 26 C 35.191406 26.261719 35.113281 26.511719 35.011719 26.757812 C 34.910156 27.003906 34.785156 27.238281 34.636719 27.460938 C 34.492188 27.679688 34.324219 27.886719 34.136719 28.074219 C 33.949219 28.261719 33.746094 28.429688 33.523438 28.578125 C 33.304688 28.726562 33.070312 28.851562 32.828125 28.953125 C 32.582031 29.054688 32.328125 29.132812 32.070312 29.183594 C 31.808594 29.234375 31.546875 29.261719 31.28125 29.261719 C 31.015625 29.261719 30.753906 29.234375 30.496094 29.183594 C 30.234375 29.132812 29.980469 29.054688 29.738281 28.953125 C 29.492188 28.851562 29.261719 28.726562 29.039062 28.578125 C 28.820312 28.429688 28.613281 28.261719 28.429688 28.074219 C 28.242188 27.886719 28.074219 27.679688 27.925781 27.460938 C 27.777344 27.238281 27.652344 27.003906 27.554688 26.757812 C 27.453125 26.511719 27.375 26.261719 27.324219 26 C 27.269531 25.738281 27.246094 25.476562 27.246094 25.207031 C 27.246094 24.941406 27.269531 24.679688 27.324219 24.417969 C 27.375 24.15625 27.453125 23.902344 27.554688 23.65625 C 27.652344 23.414062 27.777344 23.179688 27.925781 22.957031 C 28.074219 22.734375 28.242188 22.53125 28.429688 22.34375 C 28.613281 22.15625 28.820312 21.988281 29.039062 21.839844 C 29.261719 21.691406 29.492188 21.566406 29.738281 21.464844 C 29.980469 21.363281 30.234375 21.285156 30.496094 21.234375 C 30.753906 21.183594 31.015625 21.15625 31.28125 21.15625 C 31.546875 21.15625 31.808594 21.183594 32.070312 21.234375 C 32.328125 21.285156 32.582031 21.363281 32.828125 21.464844 C 33.070312 21.566406 33.304688 21.691406 33.523438 21.839844 C 33.746094 21.988281 33.949219 22.15625 34.136719 22.34375 C 34.324219 22.53125 34.492188 22.734375 34.636719 22.957031 C 34.785156 23.179688 34.910156 23.414062 35.011719 23.65625 C 35.113281 23.902344 35.191406 24.15625 35.242188 24.417969 C 35.292969 24.679688 35.320312 24.941406 35.320312 25.207031 Z M 35.320312 25.207031 " fill-opacity="1" fill-rule="nonzero"/><path stroke-linecap="round" transform="matrix(0.40948, 0, 0, 0.411058, -39.014536, -41.203033)" fill="none" stroke-linejoin="round" d="M 170.516527 155.714694 C 170.516527 155.714694 178.529736 154.479314 177.43269 161.568496 " stroke="#eb5d72" stroke-width="5" stroke-opacity="1" stroke-miterlimit="10"/><path fill="#fdc543" d="M 34.847656 36.320312 C 34.847656 36.585938 34.820312 36.851562 34.769531 37.113281 C 34.71875 37.375 34.640625 37.625 34.539062 37.871094 C 34.4375 38.117188 34.3125 38.351562 34.164062 38.574219 C 34.019531 38.792969 33.851562 39 33.664062 39.1875 C 33.476562 39.375 33.273438 39.542969 33.050781 39.691406 C 32.832031 39.839844 32.597656 39.964844 32.355469 40.066406 C 32.109375 40.167969 31.855469 40.242188 31.597656 40.296875 C 31.335938 40.347656 31.074219 40.375 30.808594 40.375 C 30.542969 40.375 30.28125 40.347656 30.023438 40.296875 C 29.761719 40.242188 29.507812 40.167969 29.265625 40.066406 C 29.019531 39.964844 28.789062 39.839844 28.566406 39.691406 C 28.347656 39.542969 28.144531 39.375 27.957031 39.1875 C 27.769531 39 27.601562 38.792969 27.453125 38.574219 C 27.304688 38.351562 27.183594 38.117188 27.082031 37.871094 C 26.980469 37.625 26.902344 37.375 26.851562 37.113281 C 26.796875 36.851562 26.773438 36.585938 26.773438 36.320312 C 26.773438 36.054688 26.796875 35.792969 26.851562 35.53125 C 26.902344 35.269531 26.980469 35.015625 27.082031 34.769531 C 27.183594 34.523438 27.304688 34.292969 27.453125 34.070312 C 27.601562 33.847656 27.769531 33.644531 27.957031 33.457031 C 28.144531 33.269531 28.347656 33.101562 28.566406 32.953125 C 28.789062 32.804688 29.019531 32.679688 29.265625 32.578125 C 29.507812 32.476562 29.761719 32.398438 30.023438 32.347656 C 30.28125 32.296875 30.542969 32.269531 30.808594 32.269531 C 31.074219 32.269531 31.335938 32.296875 31.597656 32.347656 C 31.855469 32.398438 32.109375 32.476562 32.355469 32.578125 C 32.597656 32.679688 32.832031 32.804688 33.050781 32.953125 C 33.273438 33.101562 33.476562 33.269531 33.664062 33.457031 C 33.851562 33.644531 34.019531 33.847656 34.164062 34.070312 C 34.3125 34.292969 34.4375 34.523438 34.539062 34.769531 C 34.640625 35.015625 34.71875 35.269531 34.769531 35.53125 C 34.820312 35.792969 34.847656 36.054688 34.847656 36.320312 Z M 34.847656 36.320312 " fill-opacity="1" fill-rule="nonzero"/><path stroke-linecap="round" transform="matrix(0.40948, 0, 0, 0.411058, -39.014536, -41.203033)" fill="none" stroke-linejoin="round" d="M 164.077341 188.908409 C 164.077341 188.908409 164.90728 183.187649 169.438559 182.351391 " stroke="#ffe28a" stroke-width="5" stroke-opacity="1" stroke-miterlimit="10"/><path fill="#228b58" d="M 34.40625 47.433594 C 34.40625 47.699219 34.378906 47.964844 34.328125 48.226562 C 34.277344 48.484375 34.199219 48.738281 34.097656 48.984375 C 33.996094 49.230469 33.871094 49.464844 33.726562 49.6875 C 33.578125 49.90625 33.410156 50.113281 33.222656 50.300781 C 33.035156 50.488281 32.832031 50.65625 32.613281 50.804688 C 32.390625 50.953125 32.160156 51.078125 31.914062 51.179688 C 31.667969 51.28125 31.417969 51.355469 31.15625 51.410156 C 30.898438 51.460938 30.632812 51.488281 30.367188 51.488281 C 30.105469 51.488281 29.839844 51.460938 29.582031 51.410156 C 29.320312 51.355469 29.070312 51.28125 28.824219 51.179688 C 28.578125 51.078125 28.347656 50.953125 28.125 50.804688 C 27.90625 50.65625 27.703125 50.488281 27.515625 50.300781 C 27.328125 50.113281 27.160156 49.90625 27.011719 49.6875 C 26.863281 49.464844 26.742188 49.230469 26.640625 48.984375 C 26.539062 48.738281 26.460938 48.484375 26.410156 48.226562 C 26.359375 47.964844 26.332031 47.699219 26.332031 47.433594 C 26.332031 47.167969 26.359375 46.90625 26.410156 46.644531 C 26.460938 46.382812 26.539062 46.128906 26.640625 45.882812 C 26.742188 45.636719 26.863281 45.402344 27.011719 45.183594 C 27.160156 44.960938 27.328125 44.757812 27.515625 44.570312 C 27.703125 44.378906 27.90625 44.210938 28.125 44.066406 C 28.347656 43.917969 28.578125 43.792969 28.824219 43.691406 C 29.070312 43.589844 29.320312 43.511719 29.582031 43.460938 C 29.839844 43.40625 30.105469 43.382812 30.367188 43.382812 C 30.632812 43.382812 30.898438 43.40625 31.15625 43.460938 C 31.417969 43.511719 31.667969 43.589844 31.914062 43.691406 C 32.160156 43.792969 32.390625 43.917969 32.613281 44.066406 C 32.832031 44.210938 33.035156 44.378906 33.222656 44.570312 C 33.410156 44.757812 33.578125 44.960938 33.726562 45.183594 C 33.871094 45.402344 33.996094 45.636719 34.097656 45.882812 C 34.199219 46.128906 34.277344 46.382812 34.328125 46.644531 C 34.378906 46.90625 34.40625 47.167969 34.40625 47.433594 Z M 34.40625 47.433594 " fill-opacity="1" fill-rule="nonzero"/><path stroke-linecap="round" transform="matrix(0.40948, 0, 0, 0.411058, -39.014536, -41.203033)" fill="none" stroke-linejoin="round" d="M 170.831332 208.836042 C 170.831332 208.836042 176.078076 209.909872 175.963601 214.917913 " stroke="#61a675" stroke-width="5" stroke-opacity="1" stroke-miterlimit="10"/><path fill="#009cb3" d="M 34.976562 58.546875 C 34.976562 58.8125 34.949219 59.078125 34.898438 59.335938 C 34.847656 59.597656 34.769531 59.851562 34.667969 60.097656 C 34.566406 60.34375 34.441406 60.578125 34.296875 60.796875 C 34.148438 61.019531 33.980469 61.222656 33.792969 61.414062 C 33.605469 61.601562 33.402344 61.769531 33.179688 61.917969 C 32.960938 62.066406 32.726562 62.1875 32.484375 62.292969 C 32.238281 62.394531 31.984375 62.46875 31.726562 62.523438 C 31.464844 62.574219 31.203125 62.601562 30.9375 62.601562 C 30.671875 62.601562 30.410156 62.574219 30.152344 62.523438 C 29.890625 62.46875 29.636719 62.394531 29.394531 62.292969 C 29.148438 62.1875 28.917969 62.066406 28.695312 61.917969 C 28.476562 61.769531 28.269531 61.601562 28.082031 61.414062 C 27.898438 61.222656 27.730469 61.019531 27.582031 60.796875 C 27.433594 60.578125 27.308594 60.34375 27.207031 60.097656 C 27.105469 59.851562 27.03125 59.597656 26.980469 59.335938 C 26.925781 59.078125 26.902344 58.8125 26.902344 58.546875 C 26.902344 58.28125 26.925781 58.015625 26.980469 57.757812 C 27.03125 57.496094 27.105469 57.242188 27.207031 56.996094 C 27.308594 56.75 27.433594 56.515625 27.582031 56.296875 C 27.730469 56.074219 27.898438 55.871094 28.082031 55.679688 C 28.269531 55.492188 28.476562 55.324219 28.695312 55.175781 C 28.917969 55.03125 29.148438 54.90625 29.394531 54.804688 C 29.636719 54.699219 29.890625 54.625 30.152344 54.574219 C 30.410156 54.519531 30.671875 54.496094 30.9375 54.496094 C 31.203125 54.496094 31.464844 54.519531 31.726562 54.574219 C 31.984375 54.625 32.238281 54.699219 32.484375 54.804688 C 32.726562 54.90625 32.960938 55.03125 33.179688 55.175781 C 33.402344 55.324219 33.605469 55.492188 33.792969 55.679688 C 33.980469 55.871094 34.148438 56.074219 34.296875 56.296875 C 34.441406 56.515625 34.566406 56.75 34.667969 56.996094 C 34.769531 57.242188 34.847656 57.496094 34.898438 57.757812 C 34.949219 58.015625 34.976562 58.28125 34.976562 58.546875 Z M 34.976562 58.546875 " fill-opacity="1" fill-rule="nonzero"/><path stroke-linecap="round" transform="matrix(0.40948, 0, 0, 0.411058, -39.014536, -41.203033)" fill="none" stroke-linejoin="round" d="M 172.224104 235.871862 C 172.224104 235.871862 177.470848 236.945692 177.356373 241.953733 " stroke="#5aaacb" stroke-width="5" stroke-opacity="1" stroke-miterlimit="10"/><path fill="#e73456" d="M 44.304688 25.207031 C 44.304688 25.476562 44.28125 25.738281 44.230469 26 C 44.175781 26.261719 44.101562 26.515625 44 26.757812 C 43.898438 27.003906 43.773438 27.238281 43.625 27.460938 C 43.480469 27.679688 43.3125 27.886719 43.125 28.074219 C 42.9375 28.261719 42.734375 28.429688 42.511719 28.578125 C 42.292969 28.726562 42.058594 28.851562 41.8125 28.953125 C 41.570312 29.054688 41.316406 29.132812 41.058594 29.183594 C 40.796875 29.234375 40.535156 29.261719 40.269531 29.261719 C 40.003906 29.261719 39.742188 29.234375 39.480469 29.183594 C 39.222656 29.132812 38.96875 29.054688 38.722656 28.953125 C 38.480469 28.851562 38.246094 28.726562 38.027344 28.578125 C 37.804688 28.429688 37.601562 28.261719 37.414062 28.074219 C 37.226562 27.886719 37.058594 27.679688 36.914062 27.460938 C 36.765625 27.238281 36.640625 27.003906 36.539062 26.757812 C 36.4375 26.515625 36.363281 26.261719 36.308594 26 C 36.257812 25.738281 36.230469 25.476562 36.230469 25.207031 C 36.230469 24.941406 36.257812 24.679688 36.308594 24.417969 C 36.363281 24.15625 36.4375 23.902344 36.539062 23.65625 C 36.640625 23.410156 36.765625 23.179688 36.914062 22.957031 C 37.058594 22.734375 37.226562 22.53125 37.414062 22.34375 C 37.601562 22.15625 37.804688 21.988281 38.027344 21.839844 C 38.246094 21.691406 38.480469 21.566406 38.722656 21.464844 C 38.96875 21.363281 39.222656 21.285156 39.480469 21.234375 C 39.742188 21.183594 40.003906 21.15625 40.269531 21.15625 C 40.535156 21.15625 40.796875 21.183594 41.058594 21.234375 C 41.316406 21.285156 41.570312 21.363281 41.8125 21.464844 C 42.058594 21.566406 42.292969 21.691406 42.511719 21.839844 C 42.734375 21.988281 42.9375 22.15625 43.125 22.34375 C 43.3125 22.53125 43.480469 22.734375 43.625 22.957031 C 43.773438 23.179688 43.898438 23.410156 44 23.65625 C 44.101562 23.902344 44.175781 24.15625 44.230469 24.417969 C 44.28125 24.679688 44.304688 24.941406 44.304688 25.207031 Z M 44.304688 25.207031 " fill-opacity="1" fill-rule="nonzero"/><path stroke-linecap="round" transform="matrix(0.40948, 0, 0, 0.411058, -39.014536, -41.203033)" fill="none" stroke-linejoin="round" d="M 192.466997 155.714694 C 192.466997 155.714694 200.480206 154.479314 199.383159 161.568496 " stroke="#eb5d72" stroke-width="5" stroke-opacity="1" stroke-miterlimit="10"/><path fill="#fdc543" d="M 43.832031 36.320312 C 43.832031 36.585938 43.808594 36.851562 43.757812 37.113281 C 43.703125 37.375 43.628906 37.625 43.527344 37.871094 C 43.425781 38.117188 43.300781 38.351562 43.152344 38.574219 C 43.007812 38.792969 42.839844 39 42.652344 39.1875 C 42.464844 39.375 42.261719 39.542969 42.039062 39.691406 C 41.820312 39.839844 41.585938 39.964844 41.339844 40.066406 C 41.097656 40.167969 40.84375 40.246094 40.585938 40.296875 C 40.324219 40.347656 40.0625 40.375 39.796875 40.375 C 39.53125 40.375 39.269531 40.347656 39.007812 40.296875 C 38.75 40.246094 38.496094 40.167969 38.25 40.066406 C 38.007812 39.964844 37.773438 39.839844 37.554688 39.691406 C 37.332031 39.542969 37.128906 39.375 36.941406 39.1875 C 36.753906 39 36.585938 38.792969 36.441406 38.574219 C 36.292969 38.351562 36.167969 38.117188 36.066406 37.871094 C 35.964844 37.625 35.890625 37.375 35.835938 37.113281 C 35.785156 36.851562 35.761719 36.585938 35.761719 36.320312 C 35.761719 36.054688 35.785156 35.792969 35.835938 35.53125 C 35.890625 35.269531 35.964844 35.015625 36.066406 34.769531 C 36.167969 34.523438 36.292969 34.292969 36.441406 34.070312 C 36.585938 33.847656 36.753906 33.644531 36.941406 33.457031 C 37.128906 33.269531 37.332031 33.101562 37.554688 32.953125 C 37.773438 32.804688 38.007812 32.679688 38.253906 32.578125 C 38.496094 32.476562 38.75 32.398438 39.007812 32.347656 C 39.269531 32.296875 39.53125 32.269531 39.796875 32.269531 C 40.0625 32.269531 40.324219 32.296875 40.585938 32.347656 C 40.84375 32.398438 41.097656 32.476562 41.339844 32.578125 C 41.585938 32.679688 41.820312 32.804688 42.039062 32.953125 C 42.261719 33.101562 42.464844 33.269531 42.652344 33.457031 C 42.839844 33.644531 43.007812 33.847656 43.152344 34.070312 C 43.300781 34.292969 43.425781 34.523438 43.527344 34.769531 C 43.628906 35.015625 43.703125 35.269531 43.757812 35.53125 C 43.808594 35.792969 43.832031 36.054688 43.832031 36.320312 Z M 43.832031 36.320312 " fill-opacity="1" fill-rule="nonzero"/><path stroke-linecap="round" transform="matrix(0.40948, 0, 0, 0.411058, -39.014536, -41.203033)" fill="none" stroke-linejoin="round" d="M 186.018271 188.908409 C 186.018271 188.908409 186.85775 183.187649 191.389029 182.351391 " stroke="#ffe28a" stroke-width="5" stroke-opacity="1" stroke-miterlimit="10"/><path fill="#228b58" d="M 43.394531 47.433594 C 43.394531 47.699219 43.367188 47.964844 43.316406 48.226562 C 43.265625 48.484375 43.1875 48.738281 43.085938 48.984375 C 42.984375 49.230469 42.859375 49.464844 42.714844 49.6875 C 42.566406 49.90625 42.398438 50.113281 42.210938 50.300781 C 42.023438 50.488281 41.820312 50.65625 41.601562 50.804688 C 41.378906 50.953125 41.148438 51.078125 40.902344 51.179688 C 40.65625 51.28125 40.40625 51.355469 40.144531 51.410156 C 39.882812 51.460938 39.621094 51.488281 39.355469 51.488281 C 39.089844 51.488281 38.828125 51.460938 38.570312 51.410156 C 38.308594 51.355469 38.054688 51.28125 37.8125 51.179688 C 37.566406 51.078125 37.335938 50.953125 37.113281 50.804688 C 36.894531 50.65625 36.6875 50.488281 36.5 50.300781 C 36.3125 50.113281 36.148438 49.90625 36 49.6875 C 35.851562 49.464844 35.726562 49.230469 35.625 48.984375 C 35.523438 48.738281 35.449219 48.484375 35.398438 48.226562 C 35.34375 47.964844 35.320312 47.699219 35.320312 47.433594 C 35.320312 47.167969 35.34375 46.90625 35.398438 46.644531 C 35.449219 46.382812 35.523438 46.128906 35.625 45.882812 C 35.726562 45.636719 35.851562 45.402344 36 45.183594 C 36.148438 44.960938 36.3125 44.757812 36.5 44.566406 C 36.6875 44.378906 36.894531 44.210938 37.113281 44.0625 C 37.335938 43.917969 37.566406 43.792969 37.8125 43.691406 C 38.054688 43.585938 38.308594 43.511719 38.570312 43.460938 C 38.828125 43.40625 39.089844 43.382812 39.355469 43.382812 C 39.621094 43.382812 39.882812 43.40625 40.144531 43.460938 C 40.40625 43.511719 40.65625 43.585938 40.902344 43.691406 C 41.148438 43.792969 41.378906 43.917969 41.601562 44.0625 C 41.820312 44.210938 42.023438 44.378906 42.210938 44.566406 C 42.398438 44.757812 42.566406 44.960938 42.714844 45.183594 C 42.859375 45.402344 42.984375 45.636719 43.085938 45.882812 C 43.1875 46.128906 43.265625 46.382812 43.316406 46.644531 C 43.367188 46.90625 43.394531 47.167969 43.394531 47.433594 Z M 43.394531 47.433594 " fill-opacity="1" fill-rule="nonzero"/><path stroke-linecap="round" transform="matrix(0.40948, 0, 0, 0.411058, -39.014536, -41.203033)" fill="none" stroke-linejoin="round" d="M 192.781801 208.836042 C 192.781801 208.836042 198.028546 209.909872 197.914071 214.917913 " stroke="#61a675" stroke-width="5" stroke-opacity="1" stroke-miterlimit="10"/><path fill="#009cb3" d="M 43.964844 58.546875 C 43.964844 58.8125 43.9375 59.078125 43.886719 59.335938 C 43.835938 59.597656 43.757812 59.851562 43.65625 60.097656 C 43.554688 60.34375 43.429688 60.578125 43.28125 60.796875 C 43.136719 61.019531 42.96875 61.222656 42.78125 61.414062 C 42.59375 61.601562 42.390625 61.769531 42.167969 61.917969 C 41.949219 62.066406 41.714844 62.1875 41.472656 62.292969 C 41.226562 62.394531 40.972656 62.46875 40.714844 62.523438 C 40.453125 62.574219 40.191406 62.601562 39.925781 62.601562 C 39.660156 62.601562 39.398438 62.574219 39.140625 62.523438 C 38.878906 62.46875 38.625 62.394531 38.382812 62.292969 C 38.136719 62.1875 37.902344 62.066406 37.683594 61.917969 C 37.464844 61.769531 37.257812 61.601562 37.070312 61.414062 C 36.882812 61.222656 36.71875 61.019531 36.570312 60.796875 C 36.421875 60.578125 36.296875 60.34375 36.195312 60.097656 C 36.09375 59.851562 36.019531 59.597656 35.964844 59.335938 C 35.914062 59.078125 35.890625 58.8125 35.890625 58.546875 C 35.890625 58.28125 35.914062 58.015625 35.964844 57.757812 C 36.019531 57.496094 36.09375 57.242188 36.195312 56.996094 C 36.296875 56.75 36.421875 56.515625 36.570312 56.296875 C 36.71875 56.074219 36.882812 55.871094 37.070312 55.679688 C 37.257812 55.492188 37.464844 55.324219 37.683594 55.175781 C 37.902344 55.03125 38.136719 54.90625 38.382812 54.804688 C 38.625 54.699219 38.878906 54.625 39.140625 54.574219 C 39.398438 54.519531 39.660156 54.496094 39.925781 54.496094 C 40.191406 54.496094 40.453125 54.519531 40.714844 54.574219 C 40.972656 54.625 41.226562 54.699219 41.472656 54.804688 C 41.714844 54.90625 41.949219 55.03125 42.167969 55.175781 C 42.390625 55.324219 42.59375 55.492188 42.78125 55.679688 C 42.96875 55.871094 43.136719 56.074219 43.28125 56.296875 C 43.429688 56.515625 43.554688 56.75 43.65625 56.996094 C 43.757812 57.242188 43.835938 57.496094 43.886719 57.757812 C 43.9375 58.015625 43.964844 58.28125 43.964844 58.546875 Z M 43.964844 58.546875 " fill-opacity="1" fill-rule="nonzero"/><path stroke-linecap="round" transform="matrix(0.40948, 0, 0, 0.411058, -39.014536, -41.203033)" fill="none" stroke-linejoin="round" d="M 194.174573 235.871862 C 194.174573 235.871862 199.421318 236.945692 199.297304 241.953733 " stroke="#5aaacb" stroke-width="5" stroke-opacity="1" stroke-miterlimit="10"/><path fill="#e73456" d="M 53.292969 25.207031 C 53.292969 25.476562 53.265625 25.738281 53.214844 26 C 53.164062 26.261719 53.085938 26.511719 52.984375 26.757812 C 52.882812 27.003906 52.761719 27.238281 52.613281 27.460938 C 52.464844 27.679688 52.296875 27.886719 52.109375 28.074219 C 51.921875 28.261719 51.71875 28.429688 51.5 28.578125 C 51.277344 28.726562 51.046875 28.851562 50.800781 28.953125 C 50.554688 29.054688 50.304688 29.132812 50.042969 29.183594 C 49.785156 29.234375 49.523438 29.261719 49.257812 29.261719 C 48.992188 29.261719 48.730469 29.234375 48.46875 29.183594 C 48.210938 29.132812 47.957031 29.054688 47.710938 28.953125 C 47.46875 28.851562 47.234375 28.726562 47.015625 28.578125 C 46.792969 28.429688 46.589844 28.261719 46.402344 28.074219 C 46.214844 27.886719 46.046875 27.679688 45.898438 27.460938 C 45.753906 27.238281 45.628906 27.003906 45.527344 26.757812 C 45.425781 26.511719 45.347656 26.261719 45.296875 26 C 45.246094 25.738281 45.21875 25.476562 45.21875 25.207031 C 45.21875 24.941406 45.246094 24.679688 45.296875 24.417969 C 45.347656 24.15625 45.425781 23.902344 45.527344 23.65625 C 45.628906 23.414062 45.753906 23.179688 45.898438 22.957031 C 46.046875 22.734375 46.214844 22.53125 46.402344 22.34375 C 46.589844 22.15625 46.792969 21.988281 47.015625 21.839844 C 47.234375 21.691406 47.46875 21.566406 47.710938 21.464844 C 47.957031 21.363281 48.210938 21.285156 48.46875 21.234375 C 48.730469 21.183594 48.992188 21.15625 49.257812 21.15625 C 49.523438 21.15625 49.785156 21.183594 50.042969 21.234375 C 50.304688 21.285156 50.554688 21.363281 50.800781 21.464844 C 51.046875 21.566406 51.277344 21.691406 51.5 21.839844 C 51.71875 21.988281 51.921875 22.15625 52.109375 22.34375 C 52.296875 22.53125 52.464844 22.734375 52.613281 22.957031 C 52.761719 23.179688 52.882812 23.414062 52.984375 23.65625 C 53.085938 23.902344 53.164062 24.15625 53.214844 24.417969 C 53.265625 24.679688 53.292969 24.941406 53.292969 25.207031 Z M 53.292969 25.207031 " fill-opacity="1" fill-rule="nonzero"/><path stroke-linecap="round" transform="matrix(0.40948, 0, 0, 0.411058, -39.014536, -41.203033)" fill="none" stroke-linejoin="round" d="M 214.417466 155.714694 C 214.417466 155.714694 222.421136 154.479314 221.333629 161.568496 " stroke="#eb5d72" stroke-width="5" stroke-opacity="1" stroke-miterlimit="10"/><path fill="#fdc543" d="M 52.820312 36.320312 C 52.820312 36.585938 52.796875 36.851562 52.742188 37.113281 C 52.691406 37.375 52.617188 37.625 52.515625 37.871094 C 52.414062 38.117188 52.289062 38.351562 52.140625 38.574219 C 51.992188 38.792969 51.828125 39 51.640625 39.1875 C 51.453125 39.375 51.246094 39.542969 51.027344 39.691406 C 50.808594 39.839844 50.574219 39.964844 50.328125 40.066406 C 50.085938 40.167969 49.832031 40.246094 49.570312 40.296875 C 49.3125 40.347656 49.050781 40.375 48.785156 40.375 C 48.519531 40.375 48.257812 40.347656 47.996094 40.296875 C 47.738281 40.246094 47.484375 40.167969 47.238281 40.066406 C 46.996094 39.964844 46.761719 39.839844 46.542969 39.691406 C 46.320312 39.542969 46.117188 39.375 45.929688 39.1875 C 45.742188 39 45.574219 38.792969 45.429688 38.574219 C 45.28125 38.351562 45.15625 38.117188 45.054688 37.871094 C 44.953125 37.625 44.875 37.375 44.824219 37.113281 C 44.773438 36.851562 44.746094 36.585938 44.746094 36.320312 C 44.746094 36.054688 44.773438 35.792969 44.824219 35.53125 C 44.875 35.269531 44.953125 35.015625 45.054688 34.769531 C 45.15625 34.523438 45.28125 34.292969 45.429688 34.070312 C 45.574219 33.847656 45.742188 33.644531 45.929688 33.457031 C 46.117188 33.269531 46.320312 33.101562 46.542969 32.953125 C 46.761719 32.804688 46.996094 32.679688 47.238281 32.578125 C 47.484375 32.476562 47.738281 32.398438 47.996094 32.347656 C 48.257812 32.296875 48.519531 32.269531 48.785156 32.269531 C 49.050781 32.269531 49.3125 32.296875 49.570312 32.347656 C 49.832031 32.398438 50.085938 32.476562 50.328125 32.578125 C 50.574219 32.679688 50.808594 32.804688 51.027344 32.953125 C 51.246094 33.101562 51.453125 33.269531 51.640625 33.457031 C 51.828125 33.644531 51.992188 33.847656 52.140625 34.070312 C 52.289062 34.292969 52.414062 34.523438 52.515625 34.769531 C 52.617188 35.015625 52.691406 35.269531 52.742188 35.53125 C 52.796875 35.792969 52.820312 36.054688 52.820312 36.320312 Z M 52.820312 36.320312 " fill-opacity="1" fill-rule="nonzero"/><path stroke-linecap="round" transform="matrix(0.40948, 0, 0, 0.411058, -39.014536, -41.203033)" fill="none" stroke-linejoin="round" d="M 207.968741 188.908409 C 207.968741 188.908409 208.80822 183.187649 213.339499 182.351391 " stroke="#ffe28a" stroke-width="5" stroke-opacity="1" stroke-miterlimit="10"/><path fill="#228b58" d="M 52.382812 47.433594 C 52.382812 47.699219 52.355469 47.964844 52.304688 48.226562 C 52.25 48.484375 52.175781 48.738281 52.074219 48.984375 C 51.972656 49.230469 51.847656 49.464844 51.699219 49.6875 C 51.554688 49.90625 51.386719 50.113281 51.199219 50.300781 C 51.011719 50.488281 50.808594 50.65625 50.585938 50.804688 C 50.367188 50.953125 50.132812 51.078125 49.890625 51.179688 C 49.644531 51.28125 49.390625 51.355469 49.132812 51.410156 C 48.871094 51.460938 48.609375 51.488281 48.34375 51.488281 C 48.078125 51.488281 47.816406 51.460938 47.554688 51.410156 C 47.296875 51.355469 47.042969 51.28125 46.800781 51.179688 C 46.554688 51.078125 46.320312 50.953125 46.101562 50.804688 C 45.878906 50.65625 45.675781 50.488281 45.488281 50.300781 C 45.300781 50.113281 45.132812 49.90625 44.988281 49.6875 C 44.839844 49.464844 44.714844 49.230469 44.613281 48.984375 C 44.511719 48.738281 44.4375 48.484375 44.382812 48.226562 C 44.332031 47.964844 44.308594 47.699219 44.308594 47.433594 C 44.308594 47.167969 44.332031 46.90625 44.382812 46.644531 C 44.4375 46.382812 44.511719 46.128906 44.613281 45.882812 C 44.714844 45.636719 44.839844 45.402344 44.988281 45.183594 C 45.132812 44.960938 45.300781 44.757812 45.488281 44.570312 C 45.675781 44.378906 45.878906 44.210938 46.101562 44.066406 C 46.320312 43.917969 46.554688 43.792969 46.800781 43.691406 C 47.042969 43.589844 47.296875 43.511719 47.554688 43.460938 C 47.816406 43.40625 48.078125 43.382812 48.34375 43.382812 C 48.609375 43.382812 48.871094 43.40625 49.132812 43.460938 C 49.390625 43.511719 49.644531 43.589844 49.890625 43.691406 C 50.132812 43.792969 50.367188 43.917969 50.585938 44.066406 C 50.808594 44.210938 51.011719 44.378906 51.199219 44.570312 C 51.386719 44.757812 51.554688 44.960938 51.699219 45.183594 C 51.847656 45.402344 51.972656 45.636719 52.074219 45.882812 C 52.175781 46.128906 52.25 46.382812 52.304688 46.644531 C 52.355469 46.90625 52.382812 47.167969 52.382812 47.433594 Z M 52.382812 47.433594 " fill-opacity="1" fill-rule="nonzero"/><path stroke-linecap="round" transform="matrix(0.40948, 0, 0, 0.411058, -39.014536, -41.203033)" fill="none" stroke-linejoin="round" d="M 214.732271 208.836042 C 214.732271 208.836042 219.979015 209.909872 219.864541 214.917913 " stroke="#61a675" stroke-width="5" stroke-opacity="1" stroke-miterlimit="10"/><path fill="#009cb3" d="M 52.949219 58.546875 C 52.949219 58.8125 52.925781 59.078125 52.871094 59.335938 C 52.820312 59.597656 52.746094 59.851562 52.644531 60.097656 C 52.542969 60.34375 52.417969 60.578125 52.269531 60.796875 C 52.121094 61.019531 51.957031 61.222656 51.769531 61.414062 C 51.582031 61.601562 51.375 61.769531 51.15625 61.917969 C 50.9375 62.0625 50.703125 62.1875 50.457031 62.289062 C 50.214844 62.394531 49.960938 62.46875 49.699219 62.519531 C 49.441406 62.574219 49.179688 62.597656 48.914062 62.597656 C 48.648438 62.597656 48.386719 62.574219 48.125 62.519531 C 47.867188 62.46875 47.613281 62.394531 47.367188 62.289062 C 47.125 62.1875 46.890625 62.0625 46.671875 61.917969 C 46.449219 61.769531 46.246094 61.601562 46.058594 61.414062 C 45.871094 61.222656 45.703125 61.019531 45.558594 60.796875 C 45.410156 60.578125 45.285156 60.34375 45.183594 60.097656 C 45.082031 59.851562 45.007812 59.597656 44.953125 59.335938 C 44.902344 59.078125 44.875 58.8125 44.875 58.546875 C 44.875 58.28125 44.902344 58.015625 44.953125 57.757812 C 45.007812 57.496094 45.082031 57.242188 45.183594 56.996094 C 45.285156 56.75 45.410156 56.515625 45.558594 56.296875 C 45.703125 56.074219 45.871094 55.871094 46.058594 55.683594 C 46.246094 55.492188 46.449219 55.324219 46.671875 55.179688 C 46.890625 55.03125 47.125 54.90625 47.367188 54.804688 C 47.613281 54.703125 47.867188 54.625 48.125 54.574219 C 48.386719 54.519531 48.648438 54.496094 48.914062 54.496094 C 49.179688 54.496094 49.441406 54.519531 49.699219 54.574219 C 49.960938 54.625 50.214844 54.703125 50.457031 54.804688 C 50.703125 54.90625 50.9375 55.03125 51.15625 55.179688 C 51.375 55.324219 51.582031 55.492188 51.769531 55.683594 C 51.957031 55.871094 52.121094 56.074219 52.269531 56.296875 C 52.417969 56.515625 52.542969 56.75 52.644531 56.996094 C 52.746094 57.242188 52.820312 57.496094 52.871094 57.757812 C 52.925781 58.015625 52.949219 58.28125 52.949219 58.546875 Z M 52.949219 58.546875 " fill-opacity="1" fill-rule="nonzero"/><path stroke-linecap="round" transform="matrix(0.40948, 0, 0, 0.411058, -39.014536, -41.203033)" fill="none" stroke-linejoin="round" d="M 216.125043 235.871862 C 216.125043 235.871862 221.371787 236.945692 221.247773 241.953733 " stroke="#5aaacb" stroke-width="5" stroke-opacity="1" stroke-miterlimit="10"/><path fill="#e73456" d="M 62.28125 25.207031 C 62.28125 25.476562 62.253906 25.738281 62.203125 26 C 62.152344 26.261719 62.074219 26.511719 61.972656 26.757812 C 61.871094 27.003906 61.75 27.238281 61.601562 27.460938 C 61.453125 27.679688 61.285156 27.886719 61.097656 28.074219 C 60.910156 28.261719 60.707031 28.429688 60.488281 28.578125 C 60.265625 28.726562 60.035156 28.851562 59.789062 28.953125 C 59.542969 29.054688 59.292969 29.132812 59.03125 29.183594 C 58.773438 29.234375 58.511719 29.261719 58.246094 29.261719 C 57.980469 29.261719 57.71875 29.234375 57.457031 29.183594 C 57.199219 29.132812 56.945312 29.054688 56.699219 28.953125 C 56.457031 28.851562 56.222656 28.726562 56.003906 28.578125 C 55.78125 28.429688 55.578125 28.261719 55.390625 28.074219 C 55.203125 27.886719 55.035156 27.679688 54.886719 27.460938 C 54.742188 27.238281 54.617188 27.003906 54.515625 26.757812 C 54.414062 26.511719 54.335938 26.261719 54.285156 26 C 54.234375 25.738281 54.207031 25.476562 54.207031 25.207031 C 54.207031 24.941406 54.234375 24.679688 54.285156 24.417969 C 54.335938 24.15625 54.414062 23.902344 54.515625 23.65625 C 54.617188 23.414062 54.742188 23.179688 54.886719 22.957031 C 55.035156 22.734375 55.203125 22.53125 55.390625 22.34375 C 55.578125 22.15625 55.78125 21.988281 56.003906 21.839844 C 56.222656 21.691406 56.457031 21.566406 56.699219 21.464844 C 56.945312 21.363281 57.199219 21.285156 57.457031 21.234375 C 57.71875 21.183594 57.980469 21.15625 58.246094 21.15625 C 58.511719 21.15625 58.773438 21.183594 59.03125 21.234375 C 59.292969 21.285156 59.542969 21.363281 59.789062 21.464844 C 60.035156 21.566406 60.265625 21.691406 60.488281 21.839844 C 60.707031 21.988281 60.910156 22.15625 61.097656 22.34375 C 61.285156 22.53125 61.453125 22.734375 61.601562 22.957031 C 61.75 23.179688 61.871094 23.414062 61.972656 23.65625 C 62.074219 23.902344 62.152344 24.15625 62.203125 24.417969 C 62.253906 24.679688 62.28125 24.941406 62.28125 25.207031 Z M 62.28125 25.207031 " fill-opacity="1" fill-rule="nonzero"/><path stroke-linecap="round" transform="matrix(0.40948, 0, 0, 0.411058, -39.014536, -41.203033)" fill="none" stroke-linejoin="round" d="M 236.358397 155.714694 C 236.358397 155.714694 244.371606 154.479314 243.284099 161.568496 " stroke="#eb5d72" stroke-width="5" stroke-opacity="1" stroke-miterlimit="10"/><path fill="#fdc543" d="M 61.808594 36.320312 C 61.808594 36.585938 61.78125 36.851562 61.730469 37.113281 C 61.679688 37.375 61.601562 37.625 61.5 37.871094 C 61.398438 38.117188 61.273438 38.351562 61.128906 38.574219 C 60.980469 38.792969 60.8125 39 60.625 39.1875 C 60.4375 39.375 60.234375 39.542969 60.015625 39.691406 C 59.792969 39.839844 59.5625 39.964844 59.316406 40.066406 C 59.070312 40.167969 58.820312 40.246094 58.558594 40.296875 C 58.296875 40.347656 58.035156 40.375 57.769531 40.375 C 57.507812 40.375 57.242188 40.347656 56.984375 40.296875 C 56.722656 40.246094 56.472656 40.167969 56.226562 40.066406 C 55.980469 39.964844 55.75 39.839844 55.527344 39.691406 C 55.308594 39.542969 55.105469 39.375 54.917969 39.1875 C 54.730469 39 54.5625 38.792969 54.414062 38.574219 C 54.265625 38.351562 54.140625 38.117188 54.039062 37.871094 C 53.9375 37.625 53.863281 37.375 53.8125 37.113281 C 53.757812 36.851562 53.734375 36.585938 53.734375 36.320312 C 53.734375 36.054688 53.757812 35.792969 53.8125 35.53125 C 53.863281 35.269531 53.9375 35.015625 54.039062 34.769531 C 54.140625 34.523438 54.265625 34.292969 54.414062 34.070312 C 54.5625 33.847656 54.730469 33.644531 54.917969 33.457031 C 55.105469 33.265625 55.308594 33.097656 55.527344 32.953125 C 55.75 32.804688 55.980469 32.679688 56.226562 32.578125 C 56.472656 32.476562 56.722656 32.398438 56.984375 32.347656 C 57.242188 32.292969 57.507812 32.269531 57.769531 32.269531 C 58.035156 32.269531 58.296875 32.292969 58.558594 32.347656 C 58.820312 32.398438 59.070312 32.476562 59.316406 32.578125 C 59.5625 32.679688 59.792969 32.804688 60.015625 32.953125 C 60.234375 33.097656 60.4375 33.265625 60.625 33.457031 C 60.8125 33.644531 60.980469 33.847656 61.128906 34.070312 C 61.273438 34.292969 61.398438 34.523438 61.5 34.769531 C 61.601562 35.015625 61.679688 35.269531 61.730469 35.53125 C 61.78125 35.792969 61.808594 36.054688 61.808594 36.320312 Z M 61.808594 36.320312 " fill-opacity="1" fill-rule="nonzero"/><path stroke-linecap="round" transform="matrix(0.40948, 0, 0, 0.411058, -39.014536, -41.203033)" fill="none" stroke-linejoin="round" d="M 229.919211 188.908409 C 229.919211 188.908409 230.75869 183.187649 235.289969 182.351391 " stroke="#ffe28a" stroke-width="5" stroke-opacity="1" stroke-miterlimit="10"/><path fill="#228b58" d="M 61.367188 47.433594 C 61.367188 47.699219 61.34375 47.964844 61.292969 48.226562 C 61.238281 48.484375 61.164062 48.738281 61.0625 48.984375 C 60.960938 49.230469 60.835938 49.464844 60.6875 49.6875 C 60.539062 49.90625 60.375 50.113281 60.1875 50.300781 C 60 50.488281 59.792969 50.65625 59.574219 50.804688 C 59.355469 50.953125 59.121094 51.078125 58.875 51.179688 C 58.632812 51.28125 58.378906 51.355469 58.117188 51.410156 C 57.859375 51.460938 57.597656 51.488281 57.332031 51.488281 C 57.066406 51.488281 56.804688 51.460938 56.542969 51.410156 C 56.285156 51.355469 56.03125 51.28125 55.785156 51.179688 C 55.542969 51.078125 55.308594 50.953125 55.089844 50.804688 C 54.867188 50.65625 54.664062 50.488281 54.476562 50.300781 C 54.289062 50.113281 54.121094 49.90625 53.972656 49.6875 C 53.828125 49.464844 53.703125 49.230469 53.601562 48.984375 C 53.5 48.738281 53.421875 48.484375 53.371094 48.226562 C 53.320312 47.964844 53.292969 47.699219 53.292969 47.433594 C 53.292969 47.167969 53.320312 46.90625 53.371094 46.644531 C 53.421875 46.382812 53.5 46.128906 53.601562 45.882812 C 53.703125 45.636719 53.828125 45.402344 53.972656 45.183594 C 54.121094 44.960938 54.289062 44.757812 54.476562 44.566406 C 54.664062 44.378906 54.867188 44.210938 55.089844 44.0625 C 55.308594 43.917969 55.542969 43.792969 55.785156 43.691406 C 56.03125 43.585938 56.285156 43.511719 56.542969 43.460938 C 56.804688 43.40625 57.066406 43.382812 57.332031 43.382812 C 57.597656 43.382812 57.859375 43.40625 58.117188 43.460938 C 58.378906 43.511719 58.632812 43.585938 58.875 43.691406 C 59.121094 43.792969 59.355469 43.917969 59.574219 44.0625 C 59.792969 44.210938 60 44.378906 60.1875 44.566406 C 60.375 44.757812 60.539062 44.960938 60.6875 45.183594 C 60.835938 45.402344 60.960938 45.636719 61.0625 45.882812 C 61.164062 46.128906 61.238281 46.382812 61.292969 46.644531 C 61.34375 46.90625 61.367188 47.167969 61.367188 47.433594 Z M 61.367188 47.433594 " fill-opacity="1" fill-rule="nonzero"/><path stroke-linecap="round" transform="matrix(0.40948, 0, 0, 0.411058, -39.014536, -41.203033)" fill="none" stroke-linejoin="round" d="M 236.682741 208.836042 C 236.682741 208.836042 241.929485 209.909872 241.805471 214.917913 " stroke="#61a675" stroke-width="5" stroke-opacity="1" stroke-miterlimit="10"/><path fill="#009cb3" d="M 61.9375 58.546875 C 61.9375 58.8125 61.914062 59.078125 61.859375 59.335938 C 61.808594 59.597656 61.730469 59.851562 61.632812 60.097656 C 61.53125 60.34375 61.40625 60.578125 61.257812 60.796875 C 61.109375 61.019531 60.941406 61.222656 60.753906 61.414062 C 60.570312 61.601562 60.363281 61.769531 60.144531 61.917969 C 59.921875 62.066406 59.691406 62.1875 59.445312 62.292969 C 59.203125 62.394531 58.949219 62.46875 58.6875 62.523438 C 58.429688 62.574219 58.167969 62.601562 57.902344 62.601562 C 57.636719 62.601562 57.375 62.574219 57.113281 62.523438 C 56.855469 62.46875 56.601562 62.394531 56.355469 62.292969 C 56.113281 62.1875 55.878906 62.066406 55.660156 61.917969 C 55.4375 61.769531 55.234375 61.601562 55.046875 61.414062 C 54.859375 61.222656 54.691406 61.019531 54.542969 60.796875 C 54.398438 60.578125 54.273438 60.34375 54.171875 60.097656 C 54.070312 59.851562 53.992188 59.597656 53.941406 59.335938 C 53.890625 59.078125 53.863281 58.8125 53.863281 58.546875 C 53.863281 58.28125 53.890625 58.015625 53.941406 57.757812 C 53.992188 57.496094 54.070312 57.242188 54.171875 56.996094 C 54.273438 56.75 54.398438 56.515625 54.542969 56.296875 C 54.691406 56.074219 54.859375 55.871094 55.046875 55.679688 C 55.234375 55.492188 55.4375 55.324219 55.660156 55.175781 C 55.878906 55.03125 56.113281 54.90625 56.355469 54.804688 C 56.601562 54.699219 56.855469 54.625 57.113281 54.574219 C 57.375 54.519531 57.636719 54.496094 57.902344 54.496094 C 58.167969 54.496094 58.429688 54.519531 58.6875 54.574219 C 58.949219 54.625 59.203125 54.699219 59.445312 54.804688 C 59.691406 54.90625 59.921875 55.03125 60.144531 55.175781 C 60.363281 55.324219 60.570312 55.492188 60.753906 55.679688 C 60.941406 55.871094 61.109375 56.074219 61.257812 56.296875 C 61.40625 56.515625 61.53125 56.75 61.632812 56.996094 C 61.730469 57.242188 61.808594 57.496094 61.859375 57.757812 C 61.914062 58.015625 61.9375 58.28125 61.9375 58.546875 Z M 61.9375 58.546875 " fill-opacity="1" fill-rule="nonzero"/><path stroke-linecap="round" transform="matrix(0.40948, 0, 0, 0.411058, -39.014536, -41.203033)" fill="none" stroke-linejoin="round" d="M 238.065974 235.871862 C 238.065974 235.871862 243.312718 236.945692 243.198243 241.953733 " stroke="#5aaacb" stroke-width="5" stroke-opacity="1" stroke-miterlimit="10"/><path stroke-linecap="round" transform="matrix(0.40948, 0, 0, 0.411058, -39.014536, -41.203033)" fill="none" stroke-linejoin="round" d="M 117.505331 149.214694 C 117.505331 149.214694 113.174383 252.539991 116.169796 264.209582 " stroke="#c77660" stroke-width="5" stroke-opacity="1" stroke-miterlimit="10"/><path stroke-linecap="round" transform="matrix(0.40948, 0, 0, 0.411058, -39.014536, -41.203033)" fill="none" stroke-linejoin="round" d="M 305.176602 226.882095 C 305.176602 226.882095 305.82529 147.542179 297.497276 134.874781 " stroke="#c77660" stroke-width="5" stroke-opacity="1" stroke-miterlimit="10"/><path stroke-linecap="round" transform="matrix(0.40948, 0, 0, 0.411058, -39.014536, -41.203033)" fill="none" stroke-linejoin="round" d="M 191.389029 307.87552 C 191.389029 307.87552 282.510667 306.54511 292.508099 303.874788 " stroke="#8d3e33" stroke-width="5" stroke-opacity="1" stroke-miterlimit="10"/></svg>