<svg xmlns="http://www.w3.org/2000/svg" xmlns:xlink="http://www.w3.org/1999/xlink" width="128" zoomAndPan="magnify" viewBox="0 0 96 95.999999" height="128" preserveAspectRatio="xMidYMid meet" version="1.0"><defs><clipPath id="017248f559"><path d="M 16.957031 1.914062 L 79.15625 1.914062 L 79.15625 87.34375 L 16.957031 87.34375 Z M 16.957031 1.914062 " clip-rule="nonzero"/></clipPath></defs><g clip-path="url(#017248f559)"><path fill="#b3cad6" d="M 78.25 52.714844 C 78.171875 52.5 78.089844 52.285156 78.007812 52.070312 C 73.21875 38.902344 61.53125 30.042969 59.789062 28.777344 C 60.707031 27.234375 61.632812 25.699219 62.558594 24.160156 C 64.324219 21.222656 66.09375 18.285156 67.859375 15.347656 C 67.371094 15.027344 67.371094 14.195312 67.027344 13.71875 C 67.753906 12.179688 68.386719 10.761719 69.113281 9.21875 C 69.648438 8.085938 70.183594 6.953125 70.714844 5.820312 C 70.9375 5.351562 71.160156 4.875 71.253906 4.363281 C 70.628906 4.199219 70.417969 3.988281 69.773438 4.019531 C 68.46875 3.214844 67.089844 2.535156 65.65625 1.992188 C 64.023438 4.898438 62.148438 7.558594 60.347656 10.363281 C 59.191406 9.933594 58.261719 9.523438 57.046875 9.710938 C 50.621094 20.328125 44.628906 31.199219 38.644531 42.066406 C 37.910156 43.394531 37.179688 44.722656 36.449219 46.050781 C 35.863281 47.113281 35.148438 48.644531 35.921875 49.578125 C 34.933594 51.628906 33.800781 53.609375 32.527344 55.5 C 32.363281 55.746094 32.230469 56.015625 32.171875 56.308594 C 31.921875 57.582031 32.996094 57.667969 33.859375 58.167969 C 33.175781 59.070312 32.628906 60.449219 32.199219 61.5 C 33.683594 62.488281 35.167969 63.476562 36.652344 64.464844 C 36.804688 64.566406 36.976562 64.671875 37.152344 64.628906 C 37.320312 64.589844 37.425781 64.429688 37.511719 64.285156 C 38.070312 63.351562 38.566406 62.386719 39 61.394531 C 39.390625 61.597656 39.742188 61.769531 40.046875 61.960938 C 40.207031 62.0625 40.425781 62.019531 40.53125 61.863281 C 42.179688 59.445312 43.476562 56.792969 44.363281 54.007812 C 44.703125 54.03125 45.335938 54.199219 45.671875 54.222656 C 47.070312 51.464844 48.503906 48.730469 49.964844 46.007812 C 58.15625 46.957031 62.40625 52.804688 63.402344 54.980469 C 64.671875 58.082031 65.097656 61.535156 64.507812 64.835938 C 63.53125 70.34375 59.757812 75.25 54.730469 77.722656 C 53.523438 78.320312 53.066406 78.722656 52.953125 79.066406 C 52.4375 78.414062 51.785156 77.882812 51.0625 77.625 C 50.730469 77.503906 50.378906 77.441406 50.023438 77.410156 C 48.460938 77.261719 46.832031 77.746094 45.664062 78.792969 C 45.300781 79.113281 45.003906 79.484375 44.765625 79.886719 C 43.453125 80.402344 41.15625 79.328125 41.585938 77.777344 C 41.679688 77.824219 41.769531 77.871094 41.863281 77.917969 C 42.21875 78.09375 42.625 78.273438 43.003906 78.144531 C 43.375 78.019531 43.585938 77.636719 43.761719 77.28125 C 44.0625 76.683594 44.363281 76.082031 44.664062 75.480469 C 36.925781 71.929688 29.199219 67.246094 22.089844 62.566406 C 21.351562 62.085938 20.601562 61.585938 19.746094 61.386719 C 18.886719 61.1875 17.886719 61.347656 17.3125 62.015625 C 16.78125 62.636719 16.839844 63.90625 17.535156 64.339844 C 24.125 68.445312 30.882812 72.28125 37.785156 75.84375 C 37.070312 77.117188 36.289062 78.335938 35.59375 79.621094 C 35.527344 79.742188 35.449219 79.875 35.3125 79.910156 C 35.203125 79.933594 35.089844 79.882812 34.988281 79.828125 C 32.59375 78.59375 22.496094 72.351562 20.292969 71.347656 C 20.144531 71.277344 19.976562 71.210938 19.816406 71.246094 C 19.667969 71.277344 19.554688 71.390625 19.453125 71.5 C 18.742188 72.25 18.210938 73.15625 17.898438 74.140625 C 20.582031 75.972656 23.171875 77.519531 26.007812 79.109375 C 28.242188 80.363281 30.476562 81.617188 32.714844 82.867188 C 33.570312 83.347656 34.425781 83.832031 35.3125 84.257812 C 38.351562 85.730469 41.699219 86.558594 45.078125 86.679688 C 45.3125 86.6875 45.683594 86.574219 46.023438 86.410156 C 46.230469 86.558594 46.445312 86.6875 46.671875 86.800781 C 48.144531 87.523438 49.925781 87.492188 51.449219 86.890625 C 51.828125 86.738281 52.199219 86.554688 52.519531 86.296875 C 52.875 86.011719 53.160156 85.644531 53.394531 85.25 C 53.746094 84.65625 53.976562 83.996094 54.085938 83.316406 C 54.222656 83.527344 54.378906 83.730469 54.550781 83.914062 C 55.171875 84.582031 56.089844 85.070312 56.984375 84.878906 C 62.296875 83.746094 67.460938 80.75 71.257812 76.867188 C 75.050781 72.988281 77.679688 67.980469 78.710938 62.65625 C 79.351562 59.359375 79.378906 55.878906 78.25 52.714844 " fill-opacity="1" fill-rule="nonzero"/></g><path fill="#8985b6" d="M 39.132812 76.679688 C 39.902344 77.160156 40.667969 77.644531 41.453125 78.101562 C 41.417969 78.015625 41.554688 77.933594 41.527344 77.84375 C 41.515625 77.808594 41.484375 77.789062 41.453125 77.769531 C 40.390625 77.078125 39.214844 76.203125 38.023438 75.761719 C 38.042969 76.1875 38.820312 76.480469 39.132812 76.679688 Z M 33.863281 58.226562 C 35.476562 59.292969 37.261719 60.324219 38.878906 61.386719 C 38.46875 60.71875 34.4375 58.226562 33.863281 58.226562 Z M 53.792969 81.621094 C 53.542969 80.113281 52.398438 78.433594 50.953125 77.921875 C 50.636719 77.808594 50.308594 77.75 49.976562 77.71875 C 48.507812 77.582031 46.976562 78.035156 45.878906 79.015625 C 44.78125 80 44.3125 81.429688 44.363281 82.902344 C 44.417969 84.4375 45.445312 85.859375 46.828125 86.535156 C 48.210938 87.214844 49.882812 87.1875 51.3125 86.621094 C 51.671875 86.480469 52.019531 86.304688 52.316406 86.066406 C 52.652344 85.796875 52.921875 85.453125 53.140625 85.082031 C 53.75 84.050781 53.984375 82.804688 53.792969 81.621094 Z M 74.855469 95.566406 C 70.039062 95.75 65.132812 95.074219 60.316406 95.257812 C 49.871094 95.660156 39.277344 95.996094 28.832031 95.578125 C 28.65625 94.328125 29.359375 93.074219 30.355469 92.292969 C 31.347656 91.515625 32.539062 91.0625 33.800781 91.03125 C 35.429688 90.988281 37.058594 90.949219 38.6875 90.917969 C 39.011719 90.101562 39.691406 89.15625 40 88.5 C 41.15625 86.066406 42.410156 83.679688 43.753906 81.34375 C 44.308594 80.382812 44.886719 79.421875 45.648438 78.617188 C 46.410156 77.808594 47.378906 77.160156 48.472656 76.964844 C 49.59375 76.761719 50.757812 77.054688 51.769531 77.578125 C 52.777344 78.101562 53.65625 78.839844 54.507812 79.59375 C 57.855469 82.546875 60.957031 85.773438 63.773438 89.230469 C 64.167969 89.714844 64.5625 90.210938 64.859375 90.761719 C 65.734375 90.769531 66.609375 90.777344 67.488281 90.785156 C 69.035156 90.804688 70.640625 90.839844 72.023438 91.53125 C 73.558594 92.292969 74.660156 93.863281 74.855469 95.566406 Z M 62.570312 32.625 C 60.523438 29.476562 56.128906 28.097656 52.640625 29.511719 C 51.5625 29.949219 50.585938 30.613281 49.691406 31.363281 C 48.511719 32.347656 47.515625 33.851562 47.210938 35.359375 C 46.765625 37.542969 46.78125 39.933594 47.890625 41.871094 C 49.109375 44 51.542969 45.28125 53.996094 45.410156 C 56.445312 45.535156 58.875 44.605469 60.839844 43.136719 C 63.847656 40.886719 64.617188 35.773438 62.570312 32.625 Z M 65.125 0 C 64.367188 0.738281 64.039062 1.53125 63.429688 2.398438 C 64.269531 2.679688 65.042969 3.121094 65.808594 3.5625 C 67.671875 4.636719 69.539062 5.710938 71.40625 6.785156 C 71.773438 6.148438 72.140625 5.507812 72.507812 4.867188 C 70.066406 3.28125 67.734375 1.296875 65.125 0 Z M 54.019531 10.613281 C 58.933594 13.75 64.035156 16.597656 69.28125 19.136719 C 69.90625 17.816406 70.527344 16.496094 71.148438 15.171875 C 66.269531 12.734375 61.300781 9.832031 56.621094 7.023438 C 55.707031 8.035156 54.734375 9.449219 54.019531 10.613281 Z M 49.261719 53.996094 C 48.429688 55.355469 47.960938 55.816406 47.183594 57.207031 C 42.15625 54.625 37.1875 51.917969 32.292969 49.085938 C 32.175781 48.609375 32.695312 47.835938 32.929688 47.40625 C 33.222656 46.871094 33.515625 46.339844 33.804688 45.804688 C 33.964844 45.519531 34.191406 45.1875 34.519531 45.207031 C 39.097656 48.609375 44.777344 50.472656 49.261719 53.996094 " fill-opacity="1" fill-rule="nonzero"/><path fill="#ece8e6" d="M 51.167969 81.160156 C 50.683594 80.269531 49.585938 79.765625 48.59375 79.972656 C 47.894531 80.121094 47.273438 80.601562 46.964844 81.246094 C 46.652344 81.886719 46.722656 82.703125 46.96875 83.371094 C 47.117188 83.773438 47.324219 84.167969 47.660156 84.433594 C 48.03125 84.726562 48.523438 84.828125 48.996094 84.8125 C 49.613281 84.785156 50.222656 84.5625 50.683594 84.152344 C 51.144531 83.746094 51.445312 83.148438 51.460938 82.535156 C 51.472656 82.191406 51.332031 81.464844 51.167969 81.160156 Z M 52.488281 33.792969 C 53.15625 33.035156 54.128906 32.546875 55.136719 32.472656 C 56.144531 32.398438 57.179688 32.738281 57.945312 33.402344 C 59.132812 34.433594 59.566406 36.117188 59.5 37.6875 C 59.476562 38.214844 59.40625 38.742188 59.203125 39.226562 C 58.757812 40.292969 57.734375 41.027344 56.644531 41.414062 C 55.582031 41.785156 54.375 41.871094 53.347656 41.414062 C 50.691406 40.230469 50.8125 35.695312 52.488281 33.792969 " fill-opacity="1" fill-rule="nonzero"/><path fill="#e6c3c1" d="M 63.476562 90.976562 C 55.476562 90.921875 47.476562 90.96875 39.480469 91.121094 C 40.042969 90.71875 40.863281 90.644531 41.554688 90.632812 C 45.164062 90.570312 48.773438 90.511719 52.382812 90.453125 C 53.359375 90.433594 54.339844 90.417969 55.316406 90.46875 C 56.570312 90.53125 57.824219 90.699219 59.078125 90.644531 C 60.617188 90.574219 62.046875 90.394531 63.476562 90.976562 Z M 43.78125 71.4375 C 43.574219 71.777344 43.371094 72.117188 43.164062 72.457031 C 43.101562 72.558594 43.027344 72.667969 42.914062 72.699219 C 42.800781 72.730469 42.683594 72.671875 42.578125 72.617188 C 37.742188 70.050781 32.902344 67.484375 28.066406 64.917969 C 25.601562 63.613281 23.140625 62.304688 20.734375 60.894531 C 21.054688 60.492188 21.25 60.175781 21.585938 59.789062 C 21.667969 59.695312 21.761719 59.59375 21.882812 59.5625 C 22.039062 59.523438 22.199219 59.609375 22.34375 59.691406 C 23.683594 60.472656 25.066406 61.191406 26.476562 61.84375 C 27.253906 62.207031 28.039062 62.546875 28.789062 62.964844 C 29.625 63.429688 30.40625 63.984375 31.214844 64.5 C 35.175781 67.023438 39.789062 68.957031 43.78125 71.4375 " fill-opacity="1" fill-rule="nonzero"/></svg>