<svg xmlns="http://www.w3.org/2000/svg" xmlns:xlink="http://www.w3.org/1999/xlink" width="128" zoomAndPan="magnify" viewBox="0 0 96 95.999999" height="128" preserveAspectRatio="xMidYMid meet" version="1.0"><defs><clipPath id="5548a9c86a"><path d="M 8 6.285156 L 95 6.285156 L 95 84 L 8 84 Z M 8 6.285156 " clip-rule="nonzero"/></clipPath></defs><path fill="#55c2ff" d="M 92.269531 44.8125 C 92.269531 44.8125 95.980469 45.398438 95.980469 46.476562 C 95.980469 47.558594 89.714844 56.332031 85.097656 62.019531 C 80.476562 67.707031 69.570312 85.605469 67.703125 87.566406 C 65.835938 89.527344 56.597656 75.601562 37.730469 71.285156 C 37.730469 71.285156 32.8125 73.546875 29.378906 68.246094 C 29.378906 68.246094 14.148438 61.675781 7.074219 61.085938 C -0.00390625 60.5 18.175781 49.121094 27.316406 39.511719 C 36.457031 29.902344 92.269531 44.8125 92.269531 44.8125 Z M 92.269531 44.8125 " fill-opacity="1" fill-rule="nonzero"/><g clip-path="url(#5548a9c86a)"><path fill="#e6eff4" d="M 91.578125 33.433594 C 90.894531 34.613281 89.21875 37.359375 89.21875 37.359375 C 91.777344 37.457031 94.527344 39.710938 94.527344 39.710938 L 93.445312 44.125 C 93.445312 44.125 91.382812 47.851562 86.074219 54.226562 C 80.769531 60.601562 65.730469 83.15625 65.730469 83.15625 C 52.464844 68.9375 36.347656 68.152344 36.347656 68.152344 C 36.347656 68.152344 35.957031 65.996094 34.285156 65.601562 C 32.617188 65.210938 31.140625 66.679688 31.140625 66.679688 C 25.046875 57.660156 10.109375 57.070312 10.109375 57.070312 L 8.734375 53.542969 C 9.523438 52.460938 12.566406 49.421875 12.566406 49.421875 C 11.679688 48.636719 8.734375 47.558594 8.734375 47.558594 C 10.898438 43.730469 15.324219 38.925781 15.324219 38.925781 C 14.535156 38.4375 12.375 37.359375 12.375 37.359375 C 12.375 37.359375 19.941406 27.945312 24.953125 22.355469 C 29.964844 16.761719 39.890625 6.285156 39.890625 6.285156 C 59.839844 11.492188 58.5625 30.101562 58.5625 30.101562 C 74.773438 23.433594 91.578125 33.433594 91.578125 33.433594 Z M 91.578125 33.433594 " fill-opacity="1" fill-rule="nonzero"/></g><path fill="#01070a" d="M 34.078125 64 C 34.128906 64.121094 33.644531 64.277344 33.578125 64.132812 C 32.65625 62.035156 31.644531 59.976562 30.53125 57.972656 C 28.554688 54.421875 26.273438 51.042969 23.722656 47.878906 C 22.441406 46.292969 21.097656 44.761719 19.683594 43.292969 C 18.285156 41.828125 16.8125 40.433594 15.34375 39.039062 C 15.265625 38.964844 15.601562 38.847656 15.675781 38.910156 C 17.464844 40.363281 19.113281 41.980469 20.691406 43.667969 C 23.472656 46.636719 26 49.84375 28.238281 53.242188 C 30.492188 56.648438 32.457031 60.253906 34.078125 64 Z M 67.644531 71.25 C 68.402344 70.0625 69.167969 68.886719 69.941406 67.710938 C 71.488281 65.363281 73.058594 63.03125 74.632812 60.699219 C 77.796875 56.015625 80.953125 51.324219 83.855469 46.472656 C 85.492188 43.742188 87.058594 40.96875 88.464844 38.113281 C 88.492188 38.0625 88.117188 38.085938 88.066406 38.1875 C 85.488281 43.21875 82.585938 48.0625 79.507812 52.804688 C 76.425781 57.554688 73.207031 62.207031 70.070312 66.917969 C 69.195312 68.234375 68.328125 69.558594 67.46875 70.890625 C 66.632812 72.195312 65.757812 73.5 65.003906 74.851562 C 64.367188 74.148438 63.582031 73.582031 62.789062 73.0625 C 61.972656 72.53125 61.117188 72.0625 60.246094 71.625 C 58.457031 70.726562 56.609375 69.941406 54.746094 69.203125 C 50.921875 67.6875 46.960938 66.453125 42.890625 65.792969 C 41.753906 65.609375 40.609375 65.46875 39.460938 65.378906 C 38.304688 65.292969 37.132812 65.230469 35.976562 65.285156 C 35.695312 65.300781 35.597656 65.644531 35.933594 65.648438 C 36.949219 65.667969 37.957031 65.671875 38.96875 65.738281 C 39.988281 65.808594 41 65.917969 42.007812 66.0625 C 44.011719 66.355469 45.996094 66.789062 47.945312 67.328125 C 51.816406 68.40625 55.601562 69.882812 59.234375 71.601562 C 60.199219 72.0625 61.152344 72.554688 62.058594 73.121094 C 62.988281 73.695312 63.832031 74.367188 64.683594 75.046875 C 64.75 75.097656 64.894531 75.066406 64.972656 75.003906 C 65.070312 75.011719 65.292969 74.976562 65.335938 74.90625 C 66.136719 73.707031 66.871094 72.464844 67.644531 71.25 Z M 93.628906 40.109375 C 92.613281 41.285156 91.683594 42.542969 90.730469 43.765625 C 89.78125 44.988281 88.835938 46.21875 87.886719 47.445312 C 86.015625 49.871094 84.136719 52.296875 82.261719 54.722656 C 78.566406 59.507812 74.785156 64.230469 71.285156 69.160156 C 69.371094 71.855469 67.496094 74.589844 65.746094 77.398438 C 65.683594 77.496094 65.800781 77.578125 65.886719 77.589844 C 66.007812 77.609375 66.121094 77.546875 66.183594 77.449219 C 67.808594 74.964844 69.441406 72.484375 71.148438 70.054688 C 72.859375 67.628906 74.621094 65.238281 76.421875 62.875 C 80.117188 58.027344 83.859375 53.222656 87.585938 48.398438 C 88.640625 47.03125 89.695312 45.667969 90.746094 44.300781 C 91.792969 42.945312 92.882812 41.601562 93.855469 40.1875 C 93.953125 40.042969 93.707031 40.019531 93.628906 40.109375 Z M 87.210938 50.425781 C 85.875 52.273438 84.589844 54.15625 83.230469 55.988281 C 81.882812 57.800781 80.492188 59.582031 79.089844 61.351562 C 76.304688 64.863281 73.460938 68.339844 70.824219 71.96875 C 70.078125 72.996094 69.347656 74.035156 68.640625 75.089844 C 67.957031 76.109375 67.265625 77.140625 66.722656 78.238281 C 66.6875 78.316406 66.988281 78.261719 67.027344 78.207031 C 67.699219 77.261719 68.3125 76.277344 68.957031 75.3125 C 69.574219 74.390625 70.207031 73.472656 70.855469 72.570312 C 72.171875 70.738281 73.542969 68.945312 74.929688 67.171875 C 77.699219 63.640625 80.554688 60.175781 83.246094 56.582031 C 84.738281 54.589844 86.234375 52.574219 87.445312 50.398438 C 87.472656 50.347656 87.238281 50.378906 87.210938 50.425781 Z M 63.511719 77.820312 C 63.003906 77.335938 62.488281 76.867188 61.953125 76.414062 C 60.90625 75.523438 59.808594 74.691406 58.671875 73.914062 C 56.355469 72.335938 53.867188 71 51.265625 69.949219 C 49.8125 69.359375 48.308594 68.804688 46.765625 68.5 C 46.691406 68.484375 46.394531 68.617188 46.539062 68.667969 C 47.832031 69.132812 49.148438 69.519531 50.425781 70.019531 C 51.707031 70.519531 52.964844 71.089844 54.1875 71.722656 C 56.65625 73 58.988281 74.539062 61.132812 76.304688 C 61.726562 76.792969 62.308594 77.296875 62.875 77.816406 C 63.46875 78.363281 64.042969 78.949219 64.679688 79.445312 C 64.734375 79.484375 64.945312 79.441406 64.890625 79.355469 C 64.511719 78.792969 64 78.289062 63.511719 77.820312 Z M 54.050781 72.527344 C 52.855469 71.898438 51.636719 71.308594 50.398438 70.769531 C 47.894531 69.679688 45.300781 68.769531 42.652344 68.09375 C 41.144531 67.707031 39.617188 67.371094 38.074219 67.171875 C 37.972656 67.15625 37.867188 67.289062 38.003906 67.320312 C 40.664062 67.882812 43.296875 68.496094 45.878906 69.363281 C 48.457031 70.230469 50.972656 71.292969 53.386719 72.542969 C 54.761719 73.253906 56.085938 74.046875 57.429688 74.808594 C 57.519531 74.859375 57.742188 74.753906 57.621094 74.664062 C 56.488281 73.859375 55.277344 73.179688 54.050781 72.527344 Z M 60.039062 73.886719 C 60.660156 74.28125 61.269531 74.695312 61.859375 75.132812 C 62.15625 75.351562 62.449219 75.574219 62.738281 75.800781 C 63.027344 76.03125 63.328125 76.328125 63.671875 76.476562 C 63.757812 76.515625 63.9375 76.433594 63.875 76.320312 C 63.703125 76.015625 63.328125 75.773438 63.058594 75.558594 C 62.769531 75.332031 62.476562 75.109375 62.179688 74.886719 C 61.5625 74.433594 60.929688 74.007812 60.28125 73.605469 C 58.988281 72.800781 57.632812 72.121094 56.230469 71.523438 C 56.101562 71.464844 55.878906 71.652344 56.058594 71.730469 C 57.433594 72.347656 58.765625 73.082031 60.039062 73.886719 Z M 30.886719 61.941406 C 30.367188 61.351562 29.832031 60.773438 29.277344 60.214844 C 28.167969 59.09375 26.992188 58.042969 25.765625 57.054688 C 23.277344 55.050781 20.578125 53.320312 17.757812 51.828125 C 16.972656 51.414062 16.179688 51.019531 15.375 50.644531 C 14.558594 50.257812 13.71875 49.832031 12.839844 49.617188 C 12.785156 49.605469 12.589844 49.671875 12.6875 49.738281 C 13.320312 50.167969 14.070312 50.441406 14.761719 50.765625 C 15.476562 51.105469 16.1875 51.457031 16.886719 51.820312 C 18.292969 52.550781 19.667969 53.339844 21.003906 54.191406 C 23.664062 55.882812 26.167969 57.824219 28.417969 60.035156 C 29.042969 60.652344 29.648438 61.289062 30.234375 61.945312 C 30.828125 62.613281 31.382812 63.320312 31.972656 63.996094 C 32.078125 64.117188 32.488281 63.988281 32.375 63.816406 C 31.9375 63.152344 31.410156 62.539062 30.886719 61.941406 Z M 25.460938 59.800781 C 26.152344 60.238281 26.832031 60.695312 27.5 61.171875 C 28.171875 61.65625 28.804688 62.203125 29.503906 62.644531 C 29.558594 62.679688 29.851562 62.589844 29.804688 62.539062 C 29.3125 62.015625 28.683594 61.597656 28.105469 61.175781 C 27.519531 60.75 26.921875 60.339844 26.320312 59.945312 C 25.09375 59.148438 23.820312 58.421875 22.515625 57.757812 C 19.933594 56.441406 17.222656 55.40625 14.425781 54.640625 C 12.820312 54.203125 11.191406 53.855469 9.542969 53.632812 C 9.484375 53.625 9.265625 53.71875 9.328125 53.726562 C 12.191406 54.210938 15.003906 54.914062 17.71875 55.941406 C 20.425781 56.96875 23.015625 58.257812 25.460938 59.800781 Z M 18.632812 57.078125 C 18.226562 56.921875 17.816406 56.773438 17.402344 56.628906 C 16.605469 56.351562 15.800781 56.097656 14.988281 55.871094 C 13.339844 55.402344 11.648438 54.996094 9.9375 54.820312 C 9.902344 54.816406 9.726562 54.890625 9.792969 54.90625 C 11.417969 55.277344 13.046875 55.585938 14.652344 56.035156 C 15.46875 56.265625 16.273438 56.519531 17.070312 56.792969 C 17.472656 56.929688 17.867188 57.074219 18.265625 57.222656 C 18.671875 57.375 19.074219 57.554688 19.496094 57.664062 C 19.539062 57.675781 19.785156 57.601562 19.726562 57.5625 C 19.398438 57.34375 19.003906 57.222656 18.632812 57.078125 Z M 27.167969 61.53125 C 25.800781 60.601562 24.359375 59.78125 22.890625 59.023438 C 22.8125 58.980469 22.589844 59.082031 22.703125 59.152344 C 24.085938 59.984375 25.496094 60.765625 26.835938 61.667969 C 28.195312 62.585938 29.421875 63.632812 30.566406 64.804688 C 30.640625 64.878906 30.894531 64.792969 30.8125 64.691406 C 29.808594 63.441406 28.492188 62.425781 27.167969 61.53125 Z M 35.800781 64.765625 C 36.332031 63.984375 36.816406 63.160156 37.324219 62.359375 C 37.835938 61.546875 38.351562 60.734375 38.871094 59.925781 C 39.90625 58.304688 40.957031 56.695312 42.015625 55.089844 C 44.125 51.898438 46.273438 48.734375 48.460938 45.59375 C 49.683594 43.84375 50.894531 42.082031 52.078125 40.304688 C 52.140625 40.210938 51.933594 40.203125 51.890625 40.261719 C 49.507812 43.300781 47.304688 46.472656 45.125 49.65625 C 42.976562 52.792969 40.878906 55.964844 38.820312 59.164062 C 38.234375 60.074219 37.652344 60.992188 37.070312 61.90625 C 36.492188 62.820312 35.886719 63.726562 35.355469 64.667969 C 35.226562 64.898438 35.695312 64.914062 35.800781 64.765625 Z M 39.203125 27.453125 C 40.894531 29.21875 42.335938 31.21875 43.460938 33.390625 C 43.769531 33.984375 44.054688 34.589844 44.316406 35.203125 C 44.585938 35.847656 44.820312 36.5 45.105469 37.136719 C 45.140625 37.214844 45.398438 37.148438 45.378906 37.0625 C 45.128906 35.863281 44.585938 34.703125 44.039062 33.613281 C 43.503906 32.542969 42.886719 31.511719 42.210938 30.523438 C 40.816406 28.507812 39.136719 26.683594 37.234375 25.136719 C 36.160156 24.269531 35.015625 23.472656 33.785156 22.84375 C 33.722656 22.8125 33.472656 22.917969 33.542969 22.957031 C 35.585938 24.269531 37.515625 25.691406 39.203125 27.453125 Z M 33.425781 25.441406 C 33.929688 25.824219 34.425781 26.222656 34.90625 26.632812 C 35.875 27.460938 36.800781 28.339844 37.667969 29.273438 C 39.402344 31.132812 40.925781 33.183594 42.195312 35.386719 C 42.90625 36.621094 43.503906 37.910156 44.132812 39.183594 C 44.167969 39.25 44.421875 39.179688 44.398438 39.113281 C 43.984375 37.898438 43.398438 36.746094 42.769531 35.628906 C 42.152344 34.519531 41.46875 33.453125 40.726562 32.425781 C 39.222656 30.335938 37.480469 28.417969 35.53125 26.730469 C 34.992188 26.261719 34.441406 25.8125 33.871094 25.386719 C 33.246094 24.914062 32.605469 24.496094 31.84375 24.28125 C 31.789062 24.265625 31.5625 24.347656 31.648438 24.378906 C 32.292969 24.628906 32.878906 25.027344 33.425781 25.441406 Z M 33.15625 28.253906 C 34.15625 29.046875 35.097656 29.914062 35.972656 30.84375 C 37.734375 32.707031 39.230469 34.828125 40.390625 37.121094 C 41.035156 38.402344 41.574219 39.738281 42.023438 41.101562 C 42.058594 41.203125 42.332031 41.132812 42.300781 41.027344 C 41.589844 38.558594 40.425781 36.222656 38.988281 34.097656 C 37.539062 31.953125 35.78125 30.019531 33.777344 28.375 C 32.664062 27.46875 31.46875 26.570312 30.171875 25.9375 C 30.101562 25.90625 29.871094 25.992188 29.980469 26.0625 C 31.054688 26.785156 32.140625 27.453125 33.15625 28.253906 Z M 28.664062 28.921875 C 29.324219 29.105469 29.882812 29.503906 30.402344 29.9375 C 30.886719 30.34375 31.355469 30.765625 31.820312 31.191406 C 32.738281 32.039062 33.625 32.921875 34.464844 33.84375 C 36.125 35.660156 37.625 37.632812 38.84375 39.773438 C 39.550781 41.011719 40.128906 42.300781 40.691406 43.601562 C 40.734375 43.695312 40.96875 43.636719 40.9375 43.539062 C 40.1875 41.15625 38.84375 38.921875 37.386719 36.910156 C 35.886719 34.839844 34.144531 32.957031 32.253906 31.238281 C 31.734375 30.765625 31.207031 30.304688 30.660156 29.855469 C 30.101562 29.398438 29.503906 28.976562 28.792969 28.785156 C 28.714844 28.765625 28.535156 28.886719 28.664062 28.921875 Z M 36.53125 41.707031 C 36.878906 42.292969 37.203125 42.894531 37.503906 43.503906 C 37.804688 44.117188 38.042969 44.769531 38.394531 45.359375 C 38.429688 45.414062 38.699219 45.34375 38.683594 45.28125 C 38.542969 44.6875 38.246094 44.121094 37.980469 43.574219 C 37.714844 43.027344 37.433594 42.488281 37.132812 41.964844 C 36.527344 40.898438 35.855469 39.867188 35.117188 38.890625 C 33.667969 36.964844 31.980469 35.222656 30.097656 33.714844 C 29.019531 32.847656 27.875 32.09375 26.675781 31.402344 C 26.621094 31.367188 26.421875 31.460938 26.453125 31.480469 C 30.582031 33.992188 34.085938 37.542969 36.53125 41.707031 Z M 36.074219 49.132812 C 35.730469 47.851562 35.238281 46.613281 34.703125 45.398438 C 34.179688 44.207031 33.582031 43.046875 32.914062 41.929688 C 31.648438 39.832031 30.09375 37.898438 28.21875 36.3125 C 27.1875 35.4375 26.066406 34.683594 24.859375 34.066406 C 24.78125 34.027344 24.511719 34.140625 24.625 34.203125 C 29.011719 36.566406 32.117188 40.644531 34.160156 45.101562 C 34.777344 46.441406 35.269531 47.832031 35.816406 49.199219 C 35.851562 49.285156 36.09375 49.214844 36.074219 49.132812 Z M 52.34375 42.625 C 55.222656 43.300781 58.125 43.863281 60.984375 44.636719 C 63.84375 45.410156 66.667969 46.355469 69.363281 47.601562 C 70.097656 47.941406 70.824219 48.304688 71.539062 48.691406 C 72.28125 49.09375 72.992188 49.546875 73.722656 49.96875 C 73.84375 50.039062 74.199219 49.882812 74.023438 49.761719 C 72.820312 48.914062 71.460938 48.230469 70.132812 47.597656 C 68.804688 46.96875 67.441406 46.40625 66.054688 45.90625 C 63.234375 44.890625 60.332031 44.125 57.40625 43.476562 C 55.757812 43.113281 54.101562 42.769531 52.4375 42.503906 C 52.375 42.492188 52.238281 42.601562 52.34375 42.625 Z M 72.332031 51.941406 C 71 51.160156 69.589844 50.496094 68.183594 49.859375 C 66.769531 49.21875 65.332031 48.628906 63.875 48.09375 C 60.988281 47.035156 58.027344 46.183594 55.019531 45.5625 C 53.3125 45.210938 51.578125 44.902344 49.84375 44.75 C 49.792969 44.746094 49.652344 44.835938 49.753906 44.851562 C 51.257812 45.101562 52.761719 45.328125 54.257812 45.636719 C 55.746094 45.941406 57.226562 46.296875 58.691406 46.703125 C 61.667969 47.527344 64.585938 48.574219 67.410156 49.828125 C 68.988281 50.527344 70.519531 51.328125 72.058594 52.109375 C 72.15625 52.15625 72.476562 52.027344 72.332031 51.941406 Z M 69.359375 54.25 C 68.15625 53.480469 66.832031 52.875 65.535156 52.277344 C 64.238281 51.679688 62.921875 51.125 61.585938 50.617188 C 58.910156 49.609375 56.167969 48.773438 53.378906 48.152344 C 51.820312 47.808594 50.253906 47.523438 48.671875 47.308594 C 48.554688 47.289062 48.402344 47.457031 48.578125 47.484375 C 54.152344 48.394531 59.613281 49.992188 64.761719 52.3125 C 66.230469 52.976562 67.644531 53.75 69.101562 54.433594 C 69.207031 54.480469 69.519531 54.351562 69.359375 54.25 Z M 69.347656 57.933594 C 66.859375 56.441406 64.203125 55.183594 61.511719 54.089844 C 58.828125 53 56.066406 52.089844 53.257812 51.375 C 51.632812 50.964844 49.992188 50.636719 48.335938 50.371094 C 48.292969 50.363281 48.117188 50.4375 48.175781 50.449219 C 53.875 51.515625 59.441406 53.289062 64.667969 55.796875 C 66.136719 56.5 67.5625 57.273438 68.988281 58.066406 C 69.078125 58.117188 69.402344 57.96875 69.347656 57.933594 Z M 65.625 60.3125 C 65.675781 60.328125 65.957031 60.25 65.894531 60.199219 C 65.660156 59.992188 65.371094 59.859375 65.097656 59.71875 C 64.785156 59.550781 64.472656 59.390625 64.15625 59.230469 C 63.554688 58.921875 62.945312 58.621094 62.332031 58.332031 C 61.152344 57.773438 59.960938 57.242188 58.753906 56.742188 C 56.273438 55.71875 53.742188 54.816406 51.164062 54.066406 C 49.710938 53.644531 48.238281 53.238281 46.75 52.949219 C 46.695312 52.9375 46.46875 53.023438 46.550781 53.046875 C 47.828125 53.394531 49.113281 53.710938 50.382812 54.085938 C 51.667969 54.464844 52.941406 54.867188 54.199219 55.308594 C 56.722656 56.1875 59.199219 57.191406 61.613281 58.328125 C 62.28125 58.640625 62.941406 58.964844 63.597656 59.296875 C 64.261719 59.636719 64.921875 60.0625 65.625 60.3125 Z M 58.988281 61.722656 C 57.882812 61.203125 56.773438 60.703125 55.648438 60.222656 C 53.492188 59.300781 51.296875 58.410156 49.015625 57.84375 C 47.75 57.53125 46.445312 57.300781 45.136719 57.320312 C 45.066406 57.324219 44.921875 57.425781 45.0625 57.4375 C 46.210938 57.554688 47.351562 57.714844 48.476562 57.984375 C 49.613281 58.253906 50.730469 58.613281 51.824219 59.015625 C 54.019531 59.824219 56.167969 60.761719 58.285156 61.75 C 59.503906 62.316406 60.691406 62.964844 61.921875 63.507812 C 62.019531 63.546875 62.359375 63.425781 62.203125 63.332031 C 61.179688 62.71875 60.066406 62.230469 58.988281 61.722656 Z M 54.5625 39.054688 C 57.210938 39.300781 59.839844 39.621094 62.445312 40.15625 C 65.042969 40.6875 67.597656 41.390625 70.097656 42.265625 C 71.507812 42.761719 72.878906 43.351562 74.28125 43.863281 C 74.371094 43.898438 74.632812 43.757812 74.492188 43.6875 C 73.328125 43.082031 72.082031 42.625 70.847656 42.183594 C 69.589844 41.730469 68.3125 41.320312 67.023438 40.953125 C 64.457031 40.230469 61.839844 39.679688 59.199219 39.320312 C 57.6875 39.113281 56.164062 38.960938 54.640625 38.910156 C 54.550781 38.90625 54.414062 39.039062 54.5625 39.054688 Z M 56.085938 36.921875 C 58.941406 36.636719 61.796875 37.167969 64.585938 37.726562 C 67.292969 38.269531 69.980469 38.933594 72.632812 39.710938 C 73.371094 39.929688 74.105469 40.152344 74.835938 40.390625 C 75.601562 40.636719 76.351562 40.925781 77.125 41.144531 C 77.199219 41.167969 77.488281 41.058594 77.453125 41.011719 C 77.457031 41.011719 77.460938 41.011719 77.464844 41.007812 C 76.824219 40.738281 76.144531 40.546875 75.488281 40.332031 C 74.8125 40.117188 74.136719 39.90625 73.457031 39.703125 C 72.085938 39.292969 70.707031 38.914062 69.316406 38.570312 C 66.5625 37.886719 63.761719 37.269531 60.945312 36.914062 C 59.371094 36.710938 57.777344 36.625 56.195312 36.824219 C 56.132812 36.832031 55.925781 36.933594 56.085938 36.921875 Z M 66.34375 35.894531 C 69.148438 36.449219 71.914062 37.191406 74.617188 38.136719 C 75.371094 38.402344 76.117188 38.679688 76.859375 38.972656 C 77.640625 39.28125 78.410156 39.664062 79.207031 39.914062 C 79.265625 39.933594 79.554688 39.839844 79.507812 39.8125 C 78.902344 39.433594 78.171875 39.199219 77.507812 38.933594 C 76.847656 38.667969 76.179688 38.417969 75.507812 38.179688 C 74.15625 37.699219 72.789062 37.269531 71.40625 36.882812 C 68.59375 36.105469 65.726562 35.539062 62.832031 35.171875 C 61.226562 34.972656 59.605469 34.8125 57.988281 34.773438 C 57.953125 34.773438 57.792969 34.84375 57.839844 34.847656 C 60.699219 35.058594 63.527344 35.335938 66.34375 35.894531 Z M 58.300781 32.800781 C 64.117188 32.851562 69.921875 33.585938 75.550781 35.070312 C 76.34375 35.28125 77.132812 35.503906 77.917969 35.742188 C 78.710938 35.984375 79.488281 36.261719 80.28125 36.492188 C 80.347656 36.511719 80.640625 36.40625 80.535156 36.363281 C 79.835938 36.082031 79.101562 35.871094 78.382812 35.652344 C 77.683594 35.4375 76.984375 35.238281 76.277344 35.046875 C 74.867188 34.664062 73.445312 34.328125 72.015625 34.039062 C 69.171875 33.464844 66.289062 33.066406 63.394531 32.863281 C 61.734375 32.75 60.070312 32.699219 58.40625 32.714844 C 58.363281 32.714844 58.199219 32.800781 58.300781 32.800781 Z M 58.300781 32.800781 " fill-opacity="1" fill-rule="nonzero"/><path fill="#ff55b2" d="M 61.800781 29.101562 C 60.507812 31.207031 55.527344 39.363281 53.589844 42.847656 C 51.675781 46.292969 47.601562 57.035156 46.46875 60.050781 C 46.378906 60.292969 46.027344 60.269531 45.964844 60.019531 L 45.53125 58.292969 L 44.175781 59.714844 C 44.015625 59.882812 43.738281 59.734375 43.792969 59.511719 C 44.246094 57.613281 45.640625 52.53125 48.773438 46.476562 C 52.347656 39.5625 57.859375 31.191406 58.949219 29.550781 C 59.078125 29.355469 59.265625 29.207031 59.480469 29.125 C 60.242188 28.835938 61 28.703125 61.503906 28.644531 C 61.757812 28.613281 61.929688 28.886719 61.800781 29.101562 Z M 61.800781 29.101562 " fill-opacity="1" fill-rule="nonzero"/><path fill="#ffb600" d="M 44.066406 12.789062 C 46.464844 14.339844 52.933594 19.234375 54.078125 27.5625 C 54.121094 27.871094 54.039062 28.179688 53.863281 28.433594 C 53.1875 29.398438 51.402344 31.945312 50.109375 33.777344 L 49.613281 34.488281 C 49.03125 35.316406 47.75 35.148438 47.40625 34.195312 C 46.492188 31.644531 44.644531 27.625 41.414062 24.902344 C 39.042969 22.90625 37.671875 21.796875 36.886719 21.1875 C 36.335938 20.757812 36.246094 19.960938 36.6875 19.417969 C 37.773438 18.074219 39.652344 15.792969 40.527344 14.949219 C 41.234375 14.273438 41.964844 13.519531 42.480469 12.980469 C 42.890625 12.542969 43.558594 12.464844 44.066406 12.789062 Z M 44.066406 12.789062 " fill-opacity="1" fill-rule="nonzero"/></svg>