<svg xmlns="http://www.w3.org/2000/svg" xmlns:xlink="http://www.w3.org/1999/xlink" width="128" zoomAndPan="magnify" viewBox="0 0 96 95.999999" height="128" preserveAspectRatio="xMidYMid meet" version="1.0"><defs><clipPath id="726994290c"><path d="M 4.613281 0 L 91.464844 0 L 91.464844 93.675781 L 4.613281 93.675781 Z M 4.613281 0 " clip-rule="nonzero"/></clipPath></defs><path fill="#f6b737" d="M 73.597656 43.226562 C 72.214844 49.289062 69.09375 54.390625 65.007812 59.003906 C 62.925781 61.355469 60.761719 63.683594 59.265625 66.46875 C 58.488281 67.925781 57.917969 69.484375 57.5625 71.09375 C 57.207031 72.703125 57.292969 74.3125 57.050781 75.925781 C 56.644531 78.679688 54.027344 79.128906 51.671875 79.113281 C 48.332031 79.09375 44.984375 78.753906 41.707031 78.117188 C 41.421875 78.226562 41.035156 78.140625 40.984375 77.792969 C 40.75 76.234375 40.523438 74.671875 40.210938 73.121094 C 39.566406 69.929688 38.507812 66.847656 36.480469 64.257812 C 34.664062 61.9375 32.398438 60.027344 30.421875 57.851562 C 26.609375 53.667969 24.414062 48.242188 23.949219 42.625 C 23.527344 37.523438 24.554688 32.1875 27.253906 27.796875 C 30.125 23.117188 34.765625 20.097656 39.964844 18.53125 C 45.695312 16.800781 52.261719 16.296875 58.1875 17.113281 C 63.878906 17.894531 69.578125 20.625 72.300781 25.929688 C 74.96875 31.136719 74.871094 37.644531 73.597656 43.226562 " fill-opacity="1" fill-rule="nonzero"/><path fill="#f59a3d" d="M 57.023438 61.835938 C 54.917969 61.09375 54.558594 58.105469 52.582031 60.300781 C 52.371094 60.535156 50.570312 69.925781 50.683594 70.351562 C 52.308594 76.542969 60.199219 62.964844 57.023438 61.835938 Z M 54.484375 23.246094 C 55.703125 22.550781 59.734375 23.089844 60.710938 21.675781 C 62.265625 19.417969 58.789062 18.546875 57.0625 18.34375 C 51.96875 17.75 52.648438 24.296875 54.484375 23.246094 Z M 70.941406 32.90625 C 70.953125 40.609375 68.410156 50.027344 63.179688 55.90625 C 61.671875 57.601562 58.605469 60.511719 56.664062 57.839844 C 55.550781 56.304688 57.046875 48.925781 56.984375 47.15625 C 56.828125 42.492188 55.785156 38.054688 55.25 33.449219 C 54.804688 29.613281 55.363281 28.367188 58.9375 26.828125 C 65.640625 23.941406 70.925781 24.5 70.941406 32.90625 " fill-opacity="1" fill-rule="nonzero"/><path fill="#c49261" d="M 59.582031 84.363281 C 59.515625 85.796875 58.679688 87.210938 57.289062 87.480469 C 57.78125 88.875 57 90.367188 55.792969 91.21875 C 55.828125 92.535156 55.488281 93.738281 54.335938 94.636719 C 53.011719 95.667969 51.21875 95.96875 49.582031 95.980469 C 47.257812 96 42.257812 94.894531 42.472656 91.84375 C 41.679688 91.648438 40.894531 91.355469 40.304688 90.796875 C 39.699219 90.222656 39.40625 89.40625 39.75 88.609375 C 39.976562 88.082031 40.382812 87.726562 40.851562 87.460938 C 39.472656 86.832031 38.347656 85.734375 38.136719 84.132812 C 37.957031 82.757812 38.683594 81.421875 39.910156 80.882812 C 38.859375 79.636719 37.910156 78.21875 38.101562 76.519531 C 38.230469 75.40625 38.953125 74.453125 39.949219 74.085938 C 40.007812 73.988281 40.105469 73.921875 40.238281 73.9375 C 40.308594 73.945312 40.378906 73.953125 40.445312 73.960938 C 40.640625 73.933594 40.839844 73.921875 41.042969 73.9375 C 41.167969 73.945312 41.265625 73.996094 41.339844 74.066406 C 43.460938 74.300781 45.589844 74.457031 47.730469 74.4375 C 50.167969 74.414062 52.53125 74.070312 54.949219 73.808594 C 56.550781 73.632812 58.359375 74.046875 58.832031 75.800781 C 59.246094 77.34375 58.808594 78.941406 57.9375 80.226562 C 59.082031 81.265625 59.652344 82.804688 59.582031 84.363281 " fill-opacity="1" fill-rule="nonzero"/><g clip-path="url(#726994290c)"><path fill="#2e2e30" d="M 55.039062 91.566406 C 53.382812 92.703125 51.546875 92.800781 49.589844 92.796875 C 47.417969 92.792969 45.429688 92.496094 43.335938 91.945312 C 43.027344 91.863281 42.816406 92.316406 43.113281 92.46875 C 45.164062 93.527344 47.707031 93.535156 49.957031 93.554688 C 51.832031 93.570312 54.058594 93.539062 55.457031 92.101562 C 55.71875 91.832031 55.371094 91.335938 55.039062 91.566406 Z M 56.316406 87.144531 C 55.179688 87.300781 54.066406 87.730469 52.929688 87.941406 C 51.699219 88.167969 50.449219 88.296875 49.199219 88.335938 C 46.769531 88.40625 44.375 88.074219 42.019531 87.507812 C 41.605469 87.410156 41.433594 88.023438 41.84375 88.148438 C 44.285156 88.882812 46.84375 89.1875 49.390625 89.136719 C 51.671875 89.089844 54.566406 88.925781 56.621094 87.863281 C 57.050781 87.636719 56.722656 87.089844 56.316406 87.144531 Z M 49.222656 81.996094 C 51.574219 81.882812 54.453125 81.773438 56.617188 80.78125 C 56.914062 80.648438 56.769531 80.144531 56.453125 80.167969 C 55.308594 80.253906 54.183594 80.621094 53.050781 80.808594 C 51.71875 81.03125 50.375 81.183594 49.023438 81.242188 C 46.488281 81.355469 44.046875 81.011719 41.527344 80.847656 C 41.171875 80.824219 41.109375 81.371094 41.445312 81.460938 C 43.910156 82.125 46.6875 82.121094 49.222656 81.996094 Z M 61.285156 42.285156 C 61.246094 42.078125 60.964844 41.929688 60.539062 41.894531 C 60.480469 41.890625 60.421875 41.886719 60.359375 41.886719 C 59.398438 41.886719 58.429688 42.519531 57.769531 43.171875 C 58.234375 43.332031 58.714844 43.417969 59.175781 43.417969 C 59.710938 43.417969 60.195312 43.304688 60.617188 43.085938 C 61.136719 42.808594 61.328125 42.484375 61.285156 42.285156 Z M 55.546875 43.386719 L 55.515625 43.375 L 55.488281 43.351562 C 55.207031 43.113281 54.945312 42.847656 54.710938 42.566406 C 54.300781 42.074219 53.949219 41.507812 53.664062 40.878906 C 52.945312 41.371094 52.128906 41.628906 51.289062 41.628906 C 49.964844 41.628906 48.703125 40.980469 47.867188 39.886719 C 46.886719 41.121094 45.699219 41.796875 44.496094 41.796875 C 44.054688 41.796875 43.617188 41.707031 43.183594 41.527344 C 43.027344 42.371094 42.832031 43.058594 42.574219 43.664062 C 42.523438 43.789062 42.433594 43.9375 42.34375 44.09375 C 42.21875 44.308594 42.011719 44.664062 42.027344 44.785156 C 42.046875 44.960938 42.386719 45.355469 42.636719 45.644531 C 42.851562 45.894531 43.058594 46.132812 43.160156 46.324219 C 43.457031 46.875 43.71875 47.507812 43.957031 48.257812 C 44.84375 51.066406 44.992188 54.113281 45.0625 56.75 C 45.140625 59.625 45.066406 62.554688 44.992188 65.382812 C 44.976562 66.046875 44.960938 66.707031 44.945312 67.363281 C 44.910156 69.011719 44.859375 70.726562 44.800781 72.460938 C 44.796875 72.558594 44.800781 72.738281 44.804688 72.964844 C 44.8125 73.21875 44.816406 73.476562 44.816406 73.726562 C 46.171875 73.792969 47.527344 73.851562 48.890625 73.820312 C 50.566406 73.78125 52.21875 73.625 53.871094 73.445312 C 53.734375 72.695312 53.707031 71.699219 53.703125 70.691406 C 53.703125 70.40625 53.703125 70.160156 53.695312 70.011719 C 53.5 66.78125 53.5 63.285156 53.691406 59.015625 C 53.726562 58.222656 53.757812 57.421875 53.785156 56.621094 C 53.886719 54.015625 53.988281 51.320312 54.285156 48.710938 C 54.394531 47.75 54.527344 46.976562 54.703125 46.28125 C 54.761719 46.058594 54.882812 45.734375 55.027344 45.363281 C 55.230469 44.824219 55.710938 43.5625 55.546875 43.386719 Z M 42.234375 39.164062 C 42.246094 39.078125 42.257812 38.984375 42.273438 38.894531 C 42.445312 37.714844 42.703125 35.933594 42.21875 35.09375 C 42.0625 34.824219 41.839844 34.664062 41.625 34.664062 C 41.464844 34.664062 41.308594 34.75 41.15625 34.917969 C 40.828125 35.277344 41.03125 36.089844 41.152344 36.570312 L 41.179688 36.675781 C 41.4375 37.714844 41.785156 38.53125 42.234375 39.164062 Z M 48.042969 37.253906 C 48.445312 36.578125 48.890625 35.78125 48.964844 35.050781 C 48.996094 34.730469 48.882812 34.207031 48.679688 33.984375 C 48.632812 33.929688 48.585938 33.902344 48.542969 33.902344 C 48.5 33.902344 48.378906 33.929688 48.199219 34.179688 C 47.617188 34.96875 47.761719 36.21875 48.042969 37.253906 Z M 54.285156 38.449219 C 55.265625 37.199219 55.699219 36.195312 55.578125 35.46875 C 55.503906 35.035156 55.117188 34.652344 54.742188 34.652344 C 54.441406 34.652344 54.285156 34.914062 54.207031 35.132812 C 53.945312 35.863281 53.96875 36.980469 54.285156 38.449219 Z M 39.871094 44.921875 C 39.621094 44.839844 39.363281 44.792969 39.101562 44.792969 C 38.613281 44.792969 38.179688 44.949219 37.863281 45.230469 C 38.082031 45.335938 38.316406 45.390625 38.558594 45.390625 C 39.066406 45.390625 39.523438 45.167969 39.871094 44.921875 Z M 62.523438 42.085938 C 62.640625 43.03125 61.917969 44.242188 60.359375 44.621094 C 60.019531 44.703125 59.648438 44.746094 59.261719 44.746094 C 59.011719 44.746094 58.757812 44.730469 58.496094 44.695312 C 58.335938 44.675781 58.070312 44.574219 57.765625 44.460938 C 57.464844 44.347656 57.054688 44.195312 56.90625 44.195312 C 56.570312 44.289062 56.101562 45.066406 55.757812 48.226562 L 55.738281 48.421875 C 54.886719 55.789062 54.660156 63.25 55.070312 70.59375 C 55.074219 70.671875 55.09375 70.839844 55.121094 71.054688 C 55.214844 71.824219 55.296875 72.628906 55.300781 73.289062 C 55.589844 73.257812 55.878906 73.222656 56.167969 73.191406 C 56.625 73.140625 56.71875 73.90625 56.277344 73.988281 C 53.859375 74.4375 51.347656 74.578125 48.890625 74.625 C 46.453125 74.671875 43.914062 74.65625 41.507812 74.230469 C 41.128906 74.160156 41.226562 73.558594 41.59375 73.574219 C 42.1875 73.589844 42.78125 73.621094 43.371094 73.648438 C 43.375 72.4375 43.453125 70.757812 43.601562 68.484375 C 43.644531 67.875 43.675781 67.390625 43.679688 67.183594 C 43.726562 64.386719 43.773438 61.089844 43.726562 57.828125 C 43.6875 55.058594 43.539062 52.105469 42.726562 49.28125 C 42.699219 49.1875 42.667969 49.074219 42.632812 48.941406 C 42.410156 48.117188 41.890625 46.191406 41.21875 45.90625 C 41.21875 45.90625 41.203125 45.902344 41.171875 45.902344 C 40.972656 45.902344 40.5625 46.070312 40.164062 46.238281 C 39.589844 46.476562 38.9375 46.746094 38.425781 46.746094 C 38.390625 46.746094 38.355469 46.742188 38.320312 46.742188 C 37.578125 46.679688 36.617188 46.375 36.335938 45.714844 C 36.21875 45.441406 36.179688 44.996094 36.648438 44.421875 C 37.191406 43.761719 38.023438 43.398438 38.992188 43.398438 C 39.09375 43.398438 39.195312 43.402344 39.296875 43.414062 C 39.523438 43.429688 39.792969 43.539062 40.050781 43.640625 C 40.292969 43.738281 40.546875 43.839844 40.703125 43.839844 C 40.714844 43.839844 40.722656 43.839844 40.730469 43.839844 C 41.046875 43.804688 41.230469 43.347656 41.40625 42.902344 L 41.507812 42.644531 C 41.675781 42.230469 41.90625 41.664062 41.90625 41.261719 C 41.90625 40.730469 41.796875 40.601562 41.535156 40.289062 C 41.4375 40.175781 41.324219 40.039062 41.195312 39.859375 C 40.449219 38.824219 39.304688 36.203125 39.882812 34.5625 C 40.109375 33.925781 40.566406 33.503906 41.246094 33.316406 C 41.449219 33.261719 41.648438 33.230469 41.832031 33.230469 C 42.265625 33.230469 42.636719 33.390625 42.929688 33.703125 C 43.777344 34.613281 43.738281 36.597656 43.683594 37.410156 C 43.671875 37.597656 43.609375 37.925781 43.539062 38.308594 C 43.433594 38.863281 43.214844 40.023438 43.332031 40.210938 C 43.539062 40.503906 43.9375 40.5625 44.238281 40.5625 C 44.824219 40.5625 45.527344 40.328125 45.867188 40.097656 C 46.28125 39.816406 46.773438 39.371094 46.9375 39 C 47.125 38.582031 47.039062 38.304688 46.914062 37.882812 C 46.859375 37.710938 46.800781 37.511719 46.753906 37.285156 C 46.460938 35.78125 46.5625 34.59375 47.046875 33.753906 C 47.398438 33.148438 48.085938 32.539062 48.832031 32.539062 C 49.121094 32.539062 49.394531 32.628906 49.644531 32.808594 C 50.734375 33.582031 50.339844 35.246094 50.121094 35.925781 C 50.019531 36.234375 49.726562 36.691406 49.417969 37.171875 C 49.0625 37.71875 48.582031 38.464844 48.605469 38.746094 C 48.65625 39.324219 49.898438 40.085938 50.523438 40.261719 C 50.722656 40.316406 50.980469 40.347656 51.253906 40.347656 C 52.101562 40.347656 53.066406 40.0625 53.175781 39.4375 C 53.25 39.027344 53.097656 38.453125 52.953125 37.902344 C 52.824219 37.421875 52.695312 36.929688 52.695312 36.5 C 52.695312 35.808594 52.921875 35.011719 53.304688 34.371094 C 53.746094 33.628906 54.3125 33.222656 54.902344 33.222656 C 55.4375 33.222656 55.945312 33.550781 56.417969 34.195312 C 57.082031 35.101562 57.042969 36.355469 56.296875 37.820312 L 55.363281 39.238281 C 55.261719 39.363281 55.175781 39.464844 55.097656 39.550781 C 54.777344 39.917969 54.757812 39.941406 54.992188 40.574219 C 55.207031 41.152344 55.6875 41.710938 55.953125 41.992188 C 56.109375 42.152344 56.363281 42.421875 56.449219 42.421875 C 56.488281 42.421875 56.582031 42.359375 56.691406 42.285156 C 56.777344 42.226562 56.875 42.15625 57.003906 42.082031 C 57.257812 41.929688 57.492188 41.769531 57.71875 41.617188 C 58.371094 41.167969 58.992188 40.746094 59.933594 40.625 C 60.117188 40.601562 60.292969 40.589844 60.464844 40.589844 C 61.851562 40.589844 62.4375 41.363281 62.523438 42.085938 Z M 80.429688 66.785156 C 79.054688 65.648438 77.566406 64.660156 76.199219 63.515625 C 74.886719 62.417969 73.699219 61.148438 72.320312 60.136719 C 71.882812 59.8125 71.269531 60.445312 71.574219 60.882812 C 72.582031 62.324219 74.011719 63.496094 75.367188 64.605469 C 76.738281 65.722656 78.167969 66.863281 79.746094 67.667969 C 80.28125 67.9375 80.945312 67.214844 80.429688 66.785156 Z M 91.167969 53.820312 C 89.425781 52.550781 87.453125 51.574219 85.546875 50.574219 C 83.796875 49.660156 81.804688 48.3125 79.835938 48 C 79.300781 47.917969 78.746094 48.570312 79.246094 49.011719 C 80.753906 50.335938 82.949219 51.054688 84.734375 51.960938 C 86.660156 52.941406 88.542969 54.0625 90.53125 54.910156 C 91.277344 55.226562 91.835938 54.308594 91.167969 53.820312 Z M 80.976562 28.164062 C 82.65625 27.890625 84.304688 27.308594 85.9375 26.832031 C 87.566406 26.359375 89.269531 25.960938 90.847656 25.324219 C 91.546875 25.042969 91.292969 24.050781 90.53125 24.1875 C 88.792969 24.496094 87.074219 25.089844 85.375 25.574219 C 83.753906 26.039062 82.082031 26.429688 80.523438 27.089844 C 79.863281 27.371094 80.378906 28.257812 80.976562 28.164062 Z M 75.296875 6.515625 C 75.71875 5.925781 74.757812 5.390625 74.332031 5.953125 C 73.136719 7.535156 71.914062 9.09375 70.660156 10.632812 C 69.523438 12.023438 68.238281 13.355469 67.234375 14.847656 C 66.871094 15.386719 67.65625 15.925781 68.105469 15.519531 C 69.53125 14.210938 70.71875 12.542969 71.910156 11.023438 C 73.070312 9.542969 74.195312 8.039062 75.296875 6.515625 Z M 48.890625 12.023438 C 49.132812 10.164062 48.820312 8.148438 48.777344 6.277344 C 48.738281 4.359375 48.753906 2.445312 48.738281 0.527344 C 48.734375 -0.183594 47.695312 -0.167969 47.644531 0.527344 C 47.5 2.507812 47.46875 4.496094 47.480469 6.484375 C 47.488281 8.320312 47.34375 10.378906 47.789062 12.171875 C 47.953125 12.835938 48.816406 12.605469 48.890625 12.023438 Z M 23.035156 14.496094 C 21.878906 12.976562 20.78125 11.316406 19.464844 9.925781 C 19.011719 9.449219 18.222656 10.0625 18.558594 10.625 C 19.578125 12.335938 20.933594 13.910156 22.132812 15.503906 C 23.273438 17.019531 24.351562 18.746094 25.714844 20.066406 C 26.179688 20.511719 26.90625 19.945312 26.601562 19.382812 C 25.667969 17.640625 24.230469 16.066406 23.035156 14.496094 Z M 16.105469 35.148438 C 17.386719 35.3125 18.730469 35.574219 20.019531 35.460938 C 20.714844 35.398438 20.898438 34.441406 20.191406 34.21875 C 19.082031 33.871094 17.871094 33.8125 16.722656 33.671875 C 15.351562 33.5 13.980469 33.320312 12.613281 33.128906 C 10.15625 32.785156 7.707031 32.324219 5.242188 32.050781 C 4.507812 31.96875 4.375 33.148438 5.070312 33.324219 C 7.539062 33.949219 10.097656 34.300781 12.613281 34.671875 C 13.773438 34.84375 14.941406 35.003906 16.105469 35.148438 Z M 21.960938 56.03125 C 20.367188 57.121094 18.589844 57.953125 16.925781 58.933594 C 15.382812 59.84375 13.824219 61.175781 12.144531 61.785156 C 11.582031 61.988281 11.265625 61.238281 11.605469 60.855469 C 12.230469 60.148438 13.128906 59.671875 13.917969 59.164062 C 14.734375 58.640625 15.558594 58.132812 16.394531 57.640625 C 18.039062 56.667969 19.71875 55.644531 21.53125 55.015625 C 22.164062 54.792969 22.445312 55.695312 21.960938 56.03125 " fill-opacity="1" fill-rule="nonzero"/></g><path fill="#ffffff" d="M 31.386719 49.421875 C 31.097656 48.597656 30.988281 47.75 30.519531 47 C 30.402344 46.816406 30.125 46.851562 30.0625 47.0625 C 29.539062 48.777344 30.296875 50.851562 31.15625 52.347656 C 31.863281 53.578125 32.984375 55.582031 34.523438 55.757812 C 34.710938 55.777344 34.882812 55.578125 34.878906 55.402344 C 34.84375 54.019531 33.296875 52.859375 32.585938 51.765625 C 32.109375 51.03125 31.679688 50.25 31.386719 49.421875 Z M 36.390625 27.683594 C 34.316406 28.953125 32.839844 31.003906 31.9375 33.238281 C 30.859375 35.910156 30.945312 38.710938 30.292969 41.460938 C 30.140625 42.101562 29.046875 42.15625 28.933594 41.460938 C 28.453125 38.464844 29.175781 34.996094 30.378906 32.238281 C 31.464844 29.75 33.242188 27.695312 35.644531 26.410156 C 36.484375 25.960938 37.203125 27.1875 36.390625 27.683594 " fill-opacity="1" fill-rule="nonzero"/></svg>