<svg xmlns="http://www.w3.org/2000/svg" xmlns:xlink="http://www.w3.org/1999/xlink" width="128" zoomAndPan="magnify" viewBox="0 0 96 95.999999" height="128" preserveAspectRatio="xMidYMid meet" version="1.0"><path fill="#c4e0f7" d="M 61.769531 34.8125 L 64.59375 10.464844 C 66.632812 10.484375 68.398438 8.96875 68.636719 6.90625 C 68.894531 4.703125 67.304688 2.707031 65.085938 2.453125 L 46.03125 0.265625 C 43.8125 0.0117188 41.804688 1.59375 41.550781 3.796875 C 41.3125 5.859375 42.683594 7.734375 44.675781 8.179688 L 41.847656 32.527344 C 29.039062 35.242188 18.8125 45.816406 17.226562 59.46875 C 15.242188 76.585938 27.585938 92.0625 44.796875 94.039062 C 62.011719 96.011719 77.578125 83.738281 79.566406 66.625 C 81.148438 52.972656 73.617188 40.359375 61.765625 34.8125 Z M 61.769531 34.8125 " fill-opacity="1" fill-rule="nonzero"/><path fill="#50c7c3" d="M 73.539062 51.988281 C 73.34375 51.566406 72.898438 51.308594 72.4375 51.359375 C 71.472656 51.460938 70.507812 51.636719 69.550781 51.859375 C 67.96875 52.222656 66.402344 52.707031 64.859375 53.160156 C 63.644531 53.515625 62.417969 53.851562 61.1875 54.125 C 60.914062 54.183594 60.640625 54.242188 60.367188 54.292969 C 51.71875 58.480469 41.988281 60.289062 32.601562 57.1875 L 32.828125 57.210938 C 29.066406 56.136719 25.042969 53.804688 24.3125 49.847656 C 24.300781 49.855469 24.289062 49.863281 24.277344 49.871094 C 24.257812 49.886719 24.238281 49.898438 24.21875 49.910156 C 24.179688 49.980469 24.144531 50.046875 24.105469 50.113281 C 22.347656 53.257812 21.183594 56.800781 20.78125 60.605469 C 19.207031 75.425781 29.929688 88.921875 44.792969 90.824219 C 60.152344 92.792969 74.113281 81.894531 75.882812 66.648438 C 76.488281 61.449219 75.589844 56.417969 73.539062 51.984375 Z M 73.539062 51.988281 " fill-opacity="1" fill-rule="nonzero"/><path fill="#46a5a0" d="M 32.828125 57.210938 L 32.601562 57.1875 C 41.988281 60.292969 51.71875 58.484375 60.367188 54.292969 C 57.878906 54.78125 55.359375 54.972656 52.792969 54.511719 C 48.660156 53.769531 45.210938 51.359375 41.460938 49.648438 C 36.121094 47.214844 29.28125 46.300781 24.3125 49.847656 C 25.042969 53.804688 29.066406 56.136719 32.828125 57.210938 Z M 32.828125 57.210938 " fill-opacity="1" fill-rule="nonzero"/><path fill="#50c7c3" d="M 45.125 41.699219 C 45.125 42.011719 45.066406 42.308594 44.945312 42.59375 C 44.828125 42.882812 44.65625 43.132812 44.4375 43.351562 C 44.214844 43.570312 43.960938 43.742188 43.671875 43.859375 C 43.386719 43.976562 43.085938 44.039062 42.773438 44.039062 C 42.460938 44.039062 42.164062 43.976562 41.875 43.859375 C 41.585938 43.742188 41.332031 43.570312 41.113281 43.351562 C 40.890625 43.132812 40.722656 42.882812 40.601562 42.59375 C 40.480469 42.308594 40.421875 42.011719 40.421875 41.699219 C 40.421875 41.390625 40.480469 41.089844 40.601562 40.804688 C 40.722656 40.519531 40.890625 40.265625 41.113281 40.046875 C 41.332031 39.828125 41.585938 39.660156 41.875 39.539062 C 42.164062 39.421875 42.460938 39.363281 42.773438 39.363281 C 43.085938 39.363281 43.386719 39.421875 43.671875 39.539062 C 43.960938 39.660156 44.214844 39.828125 44.4375 40.046875 C 44.65625 40.265625 44.828125 40.519531 44.945312 40.804688 C 45.066406 41.089844 45.125 41.390625 45.125 41.699219 Z M 45.125 41.699219 " fill-opacity="1" fill-rule="nonzero"/><path fill="#50c7c3" d="M 59.035156 39.554688 C 59.035156 39.703125 59.003906 39.84375 58.949219 39.980469 C 58.890625 40.121094 58.808594 40.242188 58.703125 40.347656 C 58.597656 40.449219 58.476562 40.53125 58.339844 40.589844 C 58.199219 40.644531 58.054688 40.675781 57.90625 40.675781 C 57.757812 40.675781 57.613281 40.644531 57.476562 40.589844 C 57.335938 40.53125 57.214844 40.449219 57.109375 40.347656 C 57.003906 40.242188 56.921875 40.121094 56.863281 39.980469 C 56.808594 39.84375 56.777344 39.703125 56.777344 39.554688 C 56.777344 39.40625 56.808594 39.261719 56.863281 39.125 C 56.921875 38.988281 57.003906 38.867188 57.109375 38.761719 C 57.214844 38.65625 57.335938 38.574219 57.476562 38.515625 C 57.613281 38.460938 57.757812 38.433594 57.90625 38.433594 C 58.054688 38.433594 58.199219 38.460938 58.339844 38.515625 C 58.476562 38.574219 58.597656 38.65625 58.703125 38.761719 C 58.808594 38.867188 58.890625 38.988281 58.949219 39.125 C 59.003906 39.261719 59.035156 39.40625 59.035156 39.554688 Z M 59.035156 39.554688 " fill-opacity="1" fill-rule="nonzero"/><path fill="#50c7c3" d="M 49.386719 48.089844 C 49.386719 48.238281 49.359375 48.382812 49.300781 48.519531 C 49.246094 48.65625 49.164062 48.777344 49.058594 48.882812 C 48.953125 48.988281 48.828125 49.066406 48.691406 49.125 C 48.554688 49.183594 48.410156 49.210938 48.261719 49.210938 C 48.109375 49.210938 47.96875 49.183594 47.828125 49.125 C 47.691406 49.066406 47.570312 48.988281 47.460938 48.882812 C 47.355469 48.777344 47.277344 48.65625 47.21875 48.519531 C 47.160156 48.382812 47.132812 48.238281 47.132812 48.089844 C 47.132812 47.941406 47.160156 47.796875 47.21875 47.660156 C 47.277344 47.523438 47.355469 47.402344 47.460938 47.296875 C 47.570312 47.191406 47.691406 47.109375 47.828125 47.054688 C 47.96875 46.996094 48.109375 46.96875 48.261719 46.96875 C 48.410156 46.96875 48.554688 46.996094 48.691406 47.054688 C 48.828125 47.109375 48.953125 47.191406 49.058594 47.296875 C 49.164062 47.402344 49.246094 47.523438 49.300781 47.660156 C 49.359375 47.796875 49.386719 47.941406 49.386719 48.089844 Z M 49.386719 48.089844 " fill-opacity="1" fill-rule="nonzero"/><path fill="#46a5a0" d="M 36.003906 43.59375 C 36.003906 43.742188 35.972656 43.886719 35.917969 44.023438 C 35.859375 44.160156 35.777344 44.28125 35.671875 44.386719 C 35.566406 44.492188 35.445312 44.574219 35.304688 44.628906 C 35.167969 44.6875 35.023438 44.714844 34.875 44.714844 C 34.726562 44.714844 34.582031 44.6875 34.441406 44.628906 C 34.304688 44.574219 34.183594 44.492188 34.078125 44.386719 C 33.972656 44.28125 33.890625 44.160156 33.832031 44.023438 C 33.777344 43.886719 33.746094 43.742188 33.746094 43.59375 C 33.746094 43.445312 33.777344 43.300781 33.832031 43.164062 C 33.890625 43.027344 33.972656 42.90625 34.078125 42.800781 C 34.183594 42.695312 34.304688 42.613281 34.441406 42.558594 C 34.582031 42.5 34.726562 42.472656 34.875 42.472656 C 35.023438 42.472656 35.167969 42.5 35.304688 42.558594 C 35.445312 42.613281 35.566406 42.695312 35.671875 42.800781 C 35.777344 42.90625 35.859375 43.027344 35.917969 43.164062 C 35.972656 43.300781 36.003906 43.445312 36.003906 43.59375 Z M 36.003906 43.59375 " fill-opacity="1" fill-rule="nonzero"/><path fill="#46a5a0" d="M 68.007812 48.398438 C 68.007812 48.546875 67.980469 48.6875 67.921875 48.824219 C 67.863281 48.964844 67.78125 49.085938 67.675781 49.191406 C 67.570312 49.296875 67.449219 49.375 67.3125 49.433594 C 67.171875 49.488281 67.03125 49.519531 66.878906 49.519531 C 66.730469 49.519531 66.585938 49.488281 66.449219 49.433594 C 66.308594 49.375 66.1875 49.296875 66.082031 49.191406 C 65.976562 49.085938 65.894531 48.964844 65.839844 48.824219 C 65.78125 48.6875 65.753906 48.546875 65.753906 48.398438 C 65.753906 48.25 65.78125 48.105469 65.839844 47.96875 C 65.894531 47.832031 65.976562 47.710938 66.082031 47.605469 C 66.1875 47.5 66.308594 47.417969 66.449219 47.359375 C 66.585938 47.304688 66.730469 47.277344 66.878906 47.277344 C 67.03125 47.277344 67.171875 47.304688 67.3125 47.359375 C 67.449219 47.417969 67.570312 47.5 67.675781 47.605469 C 67.78125 47.710938 67.863281 47.832031 67.921875 47.96875 C 67.980469 48.105469 68.007812 48.25 68.007812 48.398438 Z M 68.007812 48.398438 " fill-opacity="1" fill-rule="nonzero"/><path fill="#46a5a0" d="M 54.171875 35.402344 C 54.171875 35.816406 54.089844 36.21875 53.929688 36.605469 C 53.769531 36.988281 53.542969 37.328125 53.246094 37.621094 C 52.949219 37.917969 52.609375 38.144531 52.222656 38.304688 C 51.835938 38.460938 51.433594 38.542969 51.011719 38.542969 C 50.59375 38.542969 50.191406 38.460938 49.804688 38.304688 C 49.417969 38.144531 49.074219 37.917969 48.78125 37.621094 C 48.484375 37.328125 48.253906 36.988281 48.09375 36.605469 C 47.933594 36.21875 47.855469 35.816406 47.855469 35.402344 C 47.855469 34.984375 47.933594 34.585938 48.09375 34.199219 C 48.253906 33.816406 48.484375 33.476562 48.78125 33.179688 C 49.074219 32.886719 49.417969 32.660156 49.804688 32.5 C 50.191406 32.339844 50.59375 32.261719 51.011719 32.261719 C 51.433594 32.261719 51.835938 32.339844 52.222656 32.5 C 52.609375 32.660156 52.949219 32.886719 53.246094 33.179688 C 53.542969 33.476562 53.769531 33.816406 53.929688 34.199219 C 54.089844 34.585938 54.171875 34.984375 54.171875 35.402344 Z M 54.171875 35.402344 " fill-opacity="1" fill-rule="nonzero"/><path fill="#50c7c3" d="M 61.863281 47.359375 C 61.863281 47.625 61.839844 47.882812 61.785156 48.140625 C 61.734375 48.398438 61.660156 48.648438 61.558594 48.890625 C 61.457031 49.132812 61.332031 49.363281 61.1875 49.582031 C 61.039062 49.800781 60.871094 50.003906 60.6875 50.1875 C 60.5 50.375 60.296875 50.539062 60.078125 50.683594 C 59.855469 50.832031 59.625 50.953125 59.382812 51.054688 C 59.136719 51.15625 58.886719 51.230469 58.628906 51.28125 C 58.367188 51.332031 58.105469 51.359375 57.84375 51.359375 C 57.578125 51.359375 57.316406 51.332031 57.058594 51.28125 C 56.800781 51.230469 56.546875 51.15625 56.304688 51.054688 C 56.058594 50.953125 55.828125 50.832031 55.609375 50.683594 C 55.390625 50.539062 55.1875 50.375 55 50.1875 C 54.8125 50.003906 54.644531 49.800781 54.5 49.582031 C 54.351562 49.363281 54.226562 49.132812 54.128906 48.890625 C 54.027344 48.648438 53.949219 48.398438 53.898438 48.140625 C 53.847656 47.882812 53.820312 47.625 53.820312 47.359375 C 53.820312 47.097656 53.847656 46.839844 53.898438 46.582031 C 53.949219 46.324219 54.027344 46.074219 54.128906 45.832031 C 54.226562 45.589844 54.351562 45.359375 54.5 45.140625 C 54.644531 44.921875 54.8125 44.71875 55 44.535156 C 55.1875 44.347656 55.390625 44.183594 55.609375 44.035156 C 55.828125 43.890625 56.058594 43.765625 56.304688 43.667969 C 56.546875 43.566406 56.800781 43.492188 57.058594 43.4375 C 57.316406 43.386719 57.578125 43.363281 57.84375 43.363281 C 58.105469 43.363281 58.367188 43.386719 58.628906 43.4375 C 58.886719 43.492188 59.136719 43.566406 59.382812 43.667969 C 59.625 43.765625 59.855469 43.890625 60.078125 44.035156 C 60.296875 44.183594 60.5 44.347656 60.6875 44.535156 C 60.871094 44.71875 61.039062 44.921875 61.1875 45.140625 C 61.332031 45.359375 61.457031 45.589844 61.558594 45.832031 C 61.660156 46.074219 61.734375 46.324219 61.785156 46.582031 C 61.839844 46.839844 61.863281 47.097656 61.863281 47.359375 Z M 61.863281 47.359375 " fill-opacity="1" fill-rule="nonzero"/><path fill="#def3fc" d="M 71.519531 57.453125 C 72.929688 61.3125 73.070312 65.574219 71.9375 69.523438 C 71.617188 70.632812 71.203125 71.703125 70.691406 72.734375 C 70.382812 73.34375 71.308594 73.882812 71.613281 73.269531 C 73.550781 69.386719 74.1875 64.945312 73.476562 60.671875 C 73.277344 59.480469 72.964844 58.304688 72.550781 57.167969 C 72.453125 56.898438 72.1875 56.714844 71.890625 56.796875 C 71.632812 56.867188 71.421875 57.175781 71.519531 57.449219 Z M 71.519531 57.453125 " fill-opacity="1" fill-rule="nonzero"/><path fill="#def3fc" d="M 68.53125 76.816406 C 67.648438 78.242188 66.476562 79.519531 65.121094 80.507812 C 64.890625 80.675781 64.773438 80.96875 64.929688 81.234375 C 65.066406 81.460938 65.429688 81.59375 65.660156 81.425781 C 67.175781 80.320312 68.464844 78.945312 69.453125 77.351562 C 69.601562 77.109375 69.503906 76.769531 69.257812 76.625 C 69.011719 76.484375 68.679688 76.570312 68.527344 76.816406 Z M 68.53125 76.816406 " fill-opacity="1" fill-rule="nonzero"/><path fill="#def3fc" d="M 61.007812 13.316406 C 60.5625 17.1875 60.109375 21.058594 59.660156 24.929688 L 59.277344 28.238281 C 59.242188 28.523438 59.546875 28.769531 59.8125 28.769531 C 60.128906 28.769531 60.3125 28.527344 60.34375 28.238281 C 60.792969 24.367188 61.246094 20.496094 61.691406 16.625 L 62.078125 13.316406 C 62.113281 13.03125 61.808594 12.785156 61.542969 12.785156 C 61.226562 12.785156 61.042969 13.03125 61.007812 13.316406 Z M 61.007812 13.316406 " fill-opacity="1" fill-rule="nonzero"/></svg>