<svg xmlns="http://www.w3.org/2000/svg" xmlns:xlink="http://www.w3.org/1999/xlink" width="128" zoomAndPan="magnify" viewBox="0 0 96 95.999999" height="128" preserveAspectRatio="xMidYMid meet" version="1.0"><defs><clipPath id="41e6d1fecf"><path d="M 27 88 L 65 88 L 65 93 L 27 93 Z M 27 88 " clip-rule="nonzero"/></clipPath></defs><path fill="#ffffff" d="M 33.25 19.074219 L 13.792969 24.5625 C 12.097656 25.039062 11.09375 26.753906 11.554688 28.378906 L 14.8125 39.929688 C 15.269531 41.558594 17.023438 42.492188 18.714844 42.015625 L 38.171875 36.527344 C 39.867188 36.050781 40.871094 34.335938 40.414062 32.707031 L 37.15625 21.160156 C 36.695312 19.53125 34.945312 18.597656 33.25 19.074219 " fill-opacity="1" fill-rule="nonzero"/><path fill="#203a56" d="M 13.90625 24.960938 C 12.433594 25.378906 11.558594 26.859375 11.953125 28.265625 L 15.210938 39.816406 C 15.609375 41.222656 17.128906 42.03125 18.601562 41.613281 L 38.0625 36.125 C 39.535156 35.710938 40.410156 34.230469 40.011719 32.820312 L 36.753906 21.273438 C 36.359375 19.867188 34.835938 19.058594 33.363281 19.472656 L 13.90625 24.960938 M 38.285156 36.929688 L 18.828125 42.414062 C 16.914062 42.957031 14.933594 41.890625 14.410156 40.042969 L 11.152344 28.492188 C 10.632812 26.644531 11.765625 24.703125 13.679688 24.160156 L 33.140625 18.671875 C 35.054688 18.132812 37.035156 19.199219 37.554688 21.046875 L 40.8125 32.597656 C 41.335938 34.445312 40.203125 36.386719 38.285156 36.929688 " fill-opacity="1" fill-rule="nonzero"/><path fill="#ffffff" d="M 13.164062 25.898438 C 12.40625 26.113281 11.960938 26.902344 12.175781 27.660156 L 13.644531 32.871094 C 13.859375 33.628906 14.652344 34.070312 15.410156 33.859375 C 16.167969 33.644531 16.609375 32.851562 16.398438 32.09375 L 14.925781 26.886719 C 14.714844 26.125 13.921875 25.683594 13.164062 25.898438 " fill-opacity="1" fill-rule="nonzero"/><path fill="#e943aa" d="M 23.203125 30.199219 L 22.132812 26.402344 L 25.957031 27.371094 L 29.78125 28.34375 L 24.273438 33.992188 L 23.203125 30.199219 " fill-opacity="1" fill-rule="nonzero"/><path fill="#203a56" d="M 22.730469 26.980469 L 24.480469 33.1875 L 28.980469 28.566406 Z M 24.386719 34.394531 C 24.316406 34.414062 24.242188 34.414062 24.171875 34.398438 C 24.027344 34.359375 23.914062 34.25 23.875 34.109375 L 21.730469 26.515625 C 21.691406 26.371094 21.730469 26.214844 21.835938 26.109375 C 21.9375 26.003906 22.089844 25.960938 22.234375 25.996094 L 29.882812 27.9375 C 30.027344 27.976562 30.140625 28.085938 30.179688 28.230469 C 30.21875 28.371094 30.179688 28.527344 30.078125 28.632812 L 24.570312 34.285156 C 24.519531 34.335938 24.457031 34.375 24.386719 34.394531 " fill-opacity="1" fill-rule="nonzero"/><path fill="#203a56" d="M 20.871094 38.460938 L 17.015625 39.546875 L 16.789062 38.746094 L 20.644531 37.660156 L 20.871094 38.460938 " fill-opacity="1" fill-rule="nonzero"/><path fill="#4ac3f2" d="M 38.042969 33.617188 L 20.871094 38.460938 L 20.644531 37.660156 L 37.816406 32.816406 L 38.042969 33.617188 " fill-opacity="1" fill-rule="nonzero"/><path fill="#203a56" d="M 20.183594 38.078125 C 20.308594 38.519531 20.050781 38.980469 19.609375 39.105469 C 19.167969 39.230469 18.707031 38.972656 18.582031 38.53125 C 18.457031 38.085938 18.714844 37.628906 19.160156 37.503906 C 19.601562 37.378906 20.058594 37.636719 20.183594 38.078125 " fill-opacity="1" fill-rule="nonzero"/><path fill="#c3c2c3" d="M 40.632812 31.949219 L 37.554688 21.046875 C 37.484375 20.796875 37.386719 20.5625 37.269531 20.339844 C 37.292969 20.367188 37.316406 20.398438 37.332031 20.433594 C 37.433594 20.632812 37.515625 20.839844 37.574219 21.042969 L 40.648438 31.941406 C 40.640625 31.945312 40.636719 31.949219 40.632812 31.949219 " fill-opacity="1" fill-rule="nonzero"/><path fill="#c3c2c3" d="M 36.703125 36.511719 L 27.789062 36.511719 L 38.042969 33.617188 L 37.816406 32.816406 L 24.722656 36.511719 L 23.304688 36.511719 C 29.535156 32.710938 34.304688 27.078125 36.484375 20.648438 C 36.601562 20.839844 36.691406 21.046875 36.753906 21.273438 L 39.992188 32.75 L 38.359375 36.023438 C 38.261719 36.0625 38.164062 36.097656 38.0625 36.125 L 36.703125 36.511719 " fill-opacity="1" fill-rule="nonzero"/><path fill="#1a2e46" d="M 38.117188 36.511719 L 36.703125 36.511719 L 38.0625 36.125 C 38.164062 36.097656 38.261719 36.0625 38.359375 36.023438 L 38.117188 36.511719 M 39.992188 32.75 L 36.753906 21.273438 C 36.691406 21.046875 36.601562 20.839844 36.484375 20.648438 C 36.5 20.601562 36.515625 20.550781 36.535156 20.503906 C 36.585938 20.339844 36.738281 20.222656 36.914062 20.207031 C 36.925781 20.207031 36.9375 20.207031 36.953125 20.207031 C 37.074219 20.207031 37.1875 20.253906 37.269531 20.339844 C 37.386719 20.5625 37.484375 20.796875 37.554688 21.046875 L 40.632812 31.949219 C 40.429688 32.054688 40.253906 32.21875 40.148438 32.4375 L 39.992188 32.75 " fill-opacity="1" fill-rule="nonzero"/><path fill="#3993ba" d="M 27.789062 36.511719 L 24.722656 36.511719 L 37.816406 32.816406 L 38.042969 33.617188 L 27.789062 36.511719 " fill-opacity="1" fill-rule="nonzero"/><path fill="#a2dff8" d="M 46 23.378906 C 45.671875 23.378906 45.335938 23.371094 45 23.347656 C 43.921875 21.894531 43.335938 20.125 43.332031 18.3125 C 43.332031 17.050781 43.617188 15.773438 44.214844 14.566406 C 45.6875 11.617188 48.667969 9.910156 51.757812 9.910156 C 53.019531 9.910156 54.296875 10.191406 55.5 10.792969 C 57.753906 11.917969 59.285156 13.921875 59.878906 16.1875 C 56.539062 20.21875 51.773438 23.378906 46 23.378906 " fill-opacity="1" fill-rule="nonzero"/><path fill="#4f97d7" d="M 47.703125 26.425781 C 43.230469 24.191406 41.410156 18.757812 43.640625 14.28125 C 45.871094 9.804688 51.308594 7.984375 55.785156 10.214844 C 60.261719 12.449219 62.082031 17.886719 59.847656 22.359375 C 57.617188 26.835938 52.179688 28.65625 47.703125 26.425781 M 57.449219 6.878906 C 51.128906 3.730469 43.453125 6.296875 40.304688 12.617188 C 37.152344 18.9375 39.722656 26.613281 46.039062 29.761719 C 52.359375 32.914062 60.035156 30.34375 63.1875 24.023438 C 66.335938 17.707031 63.769531 10.027344 57.449219 6.878906 " fill-opacity="1" fill-rule="nonzero"/><path fill="#203a56" d="M 55.5 10.792969 C 51.347656 8.722656 46.285156 10.414062 44.214844 14.566406 C 42.148438 18.71875 43.839844 23.78125 47.992188 25.851562 C 52.144531 27.921875 57.203125 26.226562 59.273438 22.074219 C 61.34375 17.921875 59.648438 12.863281 55.5 10.792969 M 47.417969 27 C 42.632812 24.613281 40.679688 18.78125 43.066406 13.996094 C 45.453125 9.207031 51.285156 7.253906 56.074219 9.640625 C 60.859375 12.027344 62.808594 17.863281 60.425781 22.648438 C 58.039062 27.433594 52.203125 29.386719 47.417969 27 M 57.164062 7.453125 C 51.171875 4.464844 43.867188 6.910156 40.878906 12.902344 C 37.890625 18.894531 40.335938 26.199219 46.328125 29.1875 C 52.320312 32.175781 59.625 29.730469 62.613281 23.738281 C 65.597656 17.746094 63.15625 10.441406 57.164062 7.453125 M 45.753906 30.335938 C 39.128906 27.035156 36.425781 18.957031 39.726562 12.332031 C 43.03125 5.703125 51.109375 3 57.734375 6.304688 C 64.363281 9.609375 67.066406 17.6875 63.761719 24.3125 C 60.457031 30.9375 52.378906 33.640625 45.753906 30.335938 " fill-opacity="1" fill-rule="nonzero"/><path fill="#4f97d7" d="M 44.996094 34.890625 L 42.574219 33.679688 L 44.851562 29.109375 L 47.277344 30.320312 L 44.996094 34.890625 " fill-opacity="1" fill-rule="nonzero"/><path fill="#203a56" d="M 43.4375 33.394531 L 44.710938 34.027344 L 46.414062 30.609375 L 45.140625 29.972656 L 43.4375 33.394531 M 44.710938 35.464844 L 42.289062 34.257812 C 41.96875 34.097656 41.839844 33.710938 42 33.394531 L 44.277344 28.824219 C 44.4375 28.507812 44.820312 28.378906 45.140625 28.535156 L 47.5625 29.742188 C 47.878906 29.902344 48.007812 30.289062 47.851562 30.605469 L 45.574219 35.175781 C 45.414062 35.492188 45.027344 35.621094 44.710938 35.464844 " fill-opacity="1" fill-rule="nonzero"/><path fill="#4f97d7" d="M 46.675781 35.191406 L 41.324219 32.523438 C 41.101562 32.414062 40.832031 32.503906 40.722656 32.726562 L 35.953125 42.292969 C 35.105469 43.988281 35.796875 46.058594 37.496094 46.902344 C 39.191406 47.75 41.261719 47.058594 42.105469 45.359375 L 46.875 35.792969 C 46.988281 35.570312 46.898438 35.300781 46.675781 35.191406 " fill-opacity="1" fill-rule="nonzero"/><path fill="#203a56" d="M 41.210938 33.183594 L 36.527344 42.578125 C 35.839844 43.957031 36.402344 45.640625 37.78125 46.328125 C 39.164062 47.015625 40.84375 46.453125 41.53125 45.074219 L 46.214844 35.679688 L 41.210938 33.183594 M 37.207031 47.480469 C 35.195312 46.472656 34.371094 44.019531 35.378906 42.003906 L 40.148438 32.4375 C 40.414062 31.898438 41.070312 31.679688 41.609375 31.949219 L 46.960938 34.617188 C 47.5 34.886719 47.722656 35.542969 47.453125 36.078125 L 42.683594 45.648438 C 41.679688 47.660156 39.222656 48.484375 37.207031 47.480469 " fill-opacity="1" fill-rule="nonzero"/><path fill="#ffffff" d="M 42.257812 33.613281 C 41.820312 33.394531 41.265625 33.613281 41.019531 34.101562 L 39.34375 37.460938 C 39.101562 37.949219 39.261719 38.527344 39.699219 38.746094 C 40.140625 38.964844 40.695312 38.746094 40.9375 38.253906 L 42.613281 34.898438 C 42.859375 34.410156 42.699219 33.832031 42.257812 33.613281 " fill-opacity="1" fill-rule="nonzero"/><path fill="#ffffff" d="M 54.453125 11.390625 C 54.125 10.667969 53.007812 9.828125 51.914062 9.84375 C 49.414062 9.867188 46.839844 11.03125 45.175781 12.890625 C 44.441406 13.703125 44.335938 15.097656 44.660156 15.820312 C 44.992188 16.546875 45.632812 16.335938 46.367188 15.523438 C 48.03125 13.660156 50.605469 12.496094 53.101562 12.476562 C 54.199219 12.460938 54.78125 12.117188 54.453125 11.390625 " fill-opacity="1" fill-rule="nonzero"/><path fill="#c3c2c3" d="M 51.722656 31.746094 C 51.5625 31.746094 51.402344 31.746094 51.238281 31.738281 C 51.402344 31.746094 51.5625 31.746094 51.722656 31.746094 C 52.203125 31.746094 52.679688 31.722656 53.15625 31.671875 C 52.679688 31.722656 52.203125 31.746094 51.722656 31.746094 M 43.824219 29.164062 C 41.746094 27.648438 40.140625 25.5625 39.207031 23.125 C 39.199219 23.097656 39.191406 23.074219 39.183594 23.046875 C 40.085938 25.445312 41.667969 27.589844 43.824219 29.164062 M 62.894531 25.804688 C 63.210938 25.332031 63.5 24.832031 63.761719 24.3125 C 63.886719 24.0625 64 23.8125 64.109375 23.5625 C 64 23.8125 63.886719 24.066406 63.761719 24.3125 C 63.503906 24.835938 63.210938 25.332031 62.894531 25.804688 " fill-opacity="1" fill-rule="nonzero"/><path fill="#7caabe" d="M 51.730469 26.734375 C 50.472656 26.734375 49.191406 26.449219 47.992188 25.851562 C 46.769531 25.242188 45.761719 24.375 45 23.347656 C 45.335938 23.371094 45.671875 23.378906 46 23.378906 C 51.773438 23.378906 56.539062 20.21875 59.878906 16.1875 C 60.0625 16.886719 60.15625 17.609375 60.15625 18.339844 C 60.15625 19.597656 59.871094 20.875 59.273438 22.074219 C 57.804688 25.023438 54.824219 26.734375 51.730469 26.734375 " fill-opacity="1" fill-rule="nonzero"/><path fill="#c3c2c3" d="M 64.878906 15.554688 C 64.628906 14.378906 64.226562 13.238281 63.675781 12.167969 C 63.691406 12.191406 63.703125 12.214844 63.71875 12.242188 C 64.253906 13.296875 64.640625 14.414062 64.878906 15.554688 " fill-opacity="1" fill-rule="nonzero"/><path fill="#3c72a4" d="M 51.726562 30.460938 C 50.269531 30.460938 48.792969 30.199219 47.371094 29.648438 L 45.335938 28.632812 C 42.933594 27.144531 41.207031 24.910156 40.3125 22.390625 C 40.902344 22.589844 41.472656 22.757812 42.042969 22.894531 C 42.480469 23 42.914062 23.089844 43.34375 23.160156 C 44.261719 24.761719 45.648438 26.117188 47.417969 27 C 48.804688 27.691406 50.277344 28.019531 51.730469 28.019531 C 55.292969 28.019531 58.730469 26.046875 60.425781 22.648438 C 61.667969 20.15625 61.734375 17.382812 60.835938 14.957031 C 61.414062 14.164062 61.941406 13.347656 62.410156 12.527344 C 64.234375 15.890625 64.445312 20.0625 62.613281 23.738281 C 62.085938 24.796875 61.421875 25.746094 60.65625 26.570312 L 55.191406 28.441406 C 54.257812 28.761719 53.582031 29.492188 53.292969 30.359375 C 52.773438 30.429688 52.25 30.460938 51.726562 30.460938 " fill-opacity="1" fill-rule="nonzero"/><path fill="#1a2e46" d="M 51.722656 31.746094 C 51.5625 31.746094 51.402344 31.746094 51.238281 31.738281 C 50.023438 31.695312 48.800781 31.484375 47.605469 31.097656 L 47.851562 30.605469 C 48.007812 30.289062 47.878906 29.902344 47.5625 29.742188 L 47.371094 29.648438 C 48.792969 30.199219 50.269531 30.460938 51.726562 30.460938 C 52.25 30.460938 52.773438 30.429688 53.292969 30.359375 C 53.152344 30.773438 53.101562 31.222656 53.15625 31.671875 C 52.679688 31.722656 52.203125 31.746094 51.722656 31.746094 M 44.035156 29.3125 C 43.964844 29.265625 43.894531 29.214844 43.824219 29.164062 C 41.667969 27.589844 40.085938 25.445312 39.183594 23.046875 C 39.132812 22.835938 39.191406 22.605469 39.347656 22.445312 C 39.472656 22.320312 39.636719 22.253906 39.808594 22.253906 C 39.878906 22.253906 39.953125 22.265625 40.023438 22.289062 C 40.121094 22.324219 40.214844 22.355469 40.3125 22.390625 C 41.207031 24.910156 42.933594 27.144531 45.335938 28.632812 L 45.140625 28.535156 C 45.046875 28.492188 44.949219 28.46875 44.851562 28.46875 C 44.617188 28.46875 44.390625 28.597656 44.277344 28.824219 L 44.035156 29.3125 M 51.730469 28.019531 C 50.277344 28.019531 48.804688 27.691406 47.417969 27 C 45.648438 26.117188 44.261719 24.761719 43.34375 23.160156 C 43.90625 23.253906 44.457031 23.3125 45 23.347656 C 45.761719 24.375 46.769531 25.242188 47.992188 25.851562 C 49.191406 26.449219 50.472656 26.734375 51.730469 26.734375 C 54.824219 26.734375 57.804688 25.023438 59.273438 22.074219 C 59.871094 20.875 60.15625 19.597656 60.15625 18.339844 C 60.15625 17.609375 60.0625 16.886719 59.878906 16.1875 C 60.210938 15.785156 60.53125 15.371094 60.835938 14.957031 C 61.734375 17.382812 61.667969 20.15625 60.425781 22.648438 C 58.730469 26.046875 55.292969 28.019531 51.730469 28.019531 M 60.65625 26.570312 C 61.421875 25.746094 62.085938 24.796875 62.613281 23.738281 C 64.445312 20.0625 64.234375 15.890625 62.410156 12.527344 C 62.46875 12.425781 62.527344 12.320312 62.582031 12.21875 C 62.695312 12.015625 62.910156 11.890625 63.144531 11.890625 C 63.148438 11.890625 63.152344 11.890625 63.15625 11.890625 C 63.367188 11.894531 63.558594 12 63.675781 12.167969 C 64.226562 13.238281 64.628906 14.378906 64.878906 15.554688 C 65.4375 18.21875 65.179688 21.027344 64.109375 23.5625 C 64 23.8125 63.886719 24.0625 63.761719 24.3125 C 63.5 24.832031 63.210938 25.332031 62.894531 25.804688 L 60.65625 26.570312 " fill-opacity="1" fill-rule="nonzero"/><path fill="#3c72a4" d="M 46.398438 30.636719 C 46.183594 30.542969 45.96875 30.445312 45.753906 30.335938 C 45.542969 30.230469 45.332031 30.121094 45.125 30.003906 L 45.140625 29.972656 L 46.414062 30.609375 L 46.398438 30.636719 " fill-opacity="1" fill-rule="nonzero"/><path fill="#1a2e46" d="M 47.605469 31.097656 C 47.199219 30.964844 46.796875 30.8125 46.398438 30.636719 L 46.414062 30.609375 L 45.140625 29.972656 L 45.125 30.003906 C 44.75 29.789062 44.386719 29.558594 44.035156 29.3125 L 44.277344 28.824219 C 44.390625 28.597656 44.617188 28.46875 44.851562 28.46875 C 44.949219 28.46875 45.046875 28.492188 45.140625 28.535156 L 45.335938 28.632812 L 47.371094 29.648438 L 47.5625 29.742188 C 47.878906 29.902344 48.007812 30.289062 47.851562 30.605469 L 47.605469 31.097656 " fill-opacity="1" fill-rule="nonzero"/><path fill="#203a56" d="M 41.558594 45.957031 L 36 43.183594 C 35.679688 43.027344 35.550781 42.640625 35.710938 42.320312 C 35.867188 42.003906 36.253906 41.875 36.570312 42.035156 L 42.132812 44.804688 C 42.449219 44.964844 42.578125 45.347656 42.421875 45.667969 C 42.261719 45.984375 41.875 46.113281 41.558594 45.957031 " fill-opacity="1" fill-rule="nonzero"/><path fill="#203a56" d="M 42.753906 43.320312 L 37.191406 40.546875 C 36.875 40.390625 36.746094 40.003906 36.90625 39.6875 C 37.0625 39.367188 37.449219 39.238281 37.765625 39.398438 L 43.324219 42.167969 C 43.644531 42.328125 43.773438 42.714844 43.613281 43.03125 C 43.457031 43.347656 43.070312 43.476562 42.753906 43.320312 " fill-opacity="1" fill-rule="nonzero"/><path fill="#8dd8f6" d="M 81.601562 68.484375 L 66.097656 63.160156 C 63.007812 62.097656 61.351562 58.703125 62.410156 55.613281 L 67.375 41.160156 C 68.4375 38.070312 71.832031 36.414062 74.921875 37.472656 L 90.425781 42.800781 C 93.511719 43.859375 95.171875 47.253906 94.109375 50.34375 L 89.144531 64.796875 C 88.085938 67.886719 84.691406 69.546875 81.601562 68.484375 " fill-opacity="1" fill-rule="nonzero"/><path fill="#203a56" d="M 73.042969 37.339844 C 71.148438 36.6875 69.074219 37.699219 68.421875 39.597656 L 62.277344 57.492188 C 61.625 59.390625 62.636719 61.460938 64.535156 62.113281 L 83.480469 68.621094 C 85.375 69.269531 87.449219 68.257812 88.097656 66.363281 L 94.246094 48.464844 C 94.898438 46.570312 93.886719 44.496094 91.988281 43.847656 L 73.042969 37.339844 M 83.167969 69.53125 L 64.222656 63.023438 C 61.820312 62.199219 60.539062 59.578125 61.363281 57.179688 L 67.511719 39.28125 C 68.335938 36.882812 70.957031 35.601562 73.355469 36.425781 L 92.304688 42.933594 C 94.699219 43.757812 95.980469 46.378906 95.160156 48.777344 L 89.011719 66.675781 C 88.1875 69.074219 85.566406 70.355469 83.167969 69.53125 " fill-opacity="1" fill-rule="nonzero"/><path fill="#e943aa" d="M 94.25 49.9375 L 94.703125 48.621094 C 95.4375 46.480469 94.289062 44.125 92.144531 43.390625 L 73.199219 36.882812 C 71.058594 36.148438 68.703125 37.296875 67.96875 39.441406 L 67.515625 40.753906 L 94.25 49.9375 " fill-opacity="1" fill-rule="nonzero"/><path fill="#203a56" d="M 68.128906 40.453125 L 93.953125 49.324219 L 94.246094 48.464844 C 94.898438 46.570312 93.886719 44.496094 91.988281 43.847656 L 73.042969 37.339844 C 71.148438 36.6875 69.074219 37.699219 68.421875 39.597656 L 68.128906 40.453125 M 94.09375 50.390625 L 67.359375 41.210938 C 67.109375 41.121094 66.972656 40.847656 67.058594 40.597656 L 67.511719 39.28125 C 68.335938 36.882812 70.957031 35.601562 73.355469 36.425781 L 92.300781 42.933594 C 94.699219 43.757812 95.980469 46.378906 95.160156 48.777344 L 94.707031 50.09375 C 94.621094 50.347656 94.347656 50.480469 94.09375 50.390625 " fill-opacity="1" fill-rule="nonzero"/><path fill="#ffffff" d="M 69.078125 42.011719 C 68.367188 41.765625 67.601562 42.097656 67.378906 42.746094 L 65.84375 47.214844 C 65.621094 47.863281 66.019531 48.59375 66.734375 48.839844 C 67.449219 49.085938 68.214844 48.753906 68.4375 48.105469 L 69.972656 43.636719 C 70.195312 42.988281 69.796875 42.257812 69.078125 42.011719 " fill-opacity="1" fill-rule="nonzero"/><path fill="#203a56" d="M 74.507812 35 C 73.925781 34.800781 73.289062 35.109375 73.089844 35.691406 L 72.550781 37.265625 C 72.347656 37.851562 72.660156 38.484375 73.242188 38.6875 C 73.824219 38.886719 74.460938 38.578125 74.660156 37.992188 L 75.203125 36.417969 C 75.402344 35.835938 75.089844 35.199219 74.507812 35 " fill-opacity="1" fill-rule="nonzero"/><path fill="#203a56" d="M 78.589844 36.402344 C 78.003906 36.199219 77.371094 36.511719 77.167969 37.09375 L 76.628906 38.667969 C 76.429688 39.25 76.738281 39.886719 77.320312 40.085938 C 77.902344 40.289062 78.539062 39.976562 78.738281 39.394531 L 79.28125 37.820312 C 79.480469 37.238281 79.171875 36.601562 78.589844 36.402344 " fill-opacity="1" fill-rule="nonzero"/><path fill="#203a56" d="M 82.667969 37.800781 C 82.085938 37.601562 81.449219 37.914062 81.246094 38.496094 L 80.707031 40.070312 C 80.507812 40.652344 80.816406 41.289062 81.398438 41.488281 C 81.984375 41.6875 82.617188 41.378906 82.820312 40.796875 L 83.359375 39.222656 C 83.558594 38.636719 83.25 38.003906 82.667969 37.800781 " fill-opacity="1" fill-rule="nonzero"/><path fill="#203a56" d="M 86.746094 39.203125 C 86.164062 39.003906 85.527344 39.3125 85.328125 39.898438 L 84.785156 41.472656 C 84.585938 42.054688 84.898438 42.691406 85.480469 42.890625 C 86.0625 43.089844 86.699219 42.777344 86.898438 42.195312 L 87.4375 40.621094 C 87.640625 40.039062 87.328125 39.402344 86.746094 39.203125 " fill-opacity="1" fill-rule="nonzero"/><path fill="#203a56" d="M 90.824219 40.605469 C 90.242188 40.402344 89.605469 40.714844 89.40625 41.296875 L 88.863281 42.871094 C 88.664062 43.453125 88.976562 44.089844 89.558594 44.292969 C 90.140625 44.492188 90.777344 44.179688 90.976562 43.597656 L 91.519531 42.023438 C 91.71875 41.441406 91.40625 40.804688 90.824219 40.605469 " fill-opacity="1" fill-rule="nonzero"/><path fill="#4f97d7" d="M 72.753906 50.195312 L 69.308594 49.011719 L 70.535156 45.441406 L 73.980469 46.625 L 72.753906 50.195312 " fill-opacity="1" fill-rule="nonzero"/><path fill="#203a56" d="M 69.921875 48.710938 L 72.457031 49.582031 L 73.367188 46.925781 L 70.832031 46.054688 L 69.921875 48.710938 M 72.597656 50.652344 L 69.152344 49.46875 C 68.898438 49.378906 68.765625 49.105469 68.851562 48.855469 L 70.078125 45.285156 C 70.164062 45.035156 70.4375 44.898438 70.691406 44.984375 L 74.136719 46.171875 C 74.390625 46.257812 74.523438 46.53125 74.4375 46.78125 L 73.210938 50.351562 C 73.125 50.605469 72.851562 50.738281 72.597656 50.652344 " fill-opacity="1" fill-rule="nonzero"/><path fill="#4f97d7" d="M 77.980469 51.992188 L 74.53125 50.804688 L 75.757812 47.238281 L 79.207031 48.421875 L 77.980469 51.992188 " fill-opacity="1" fill-rule="nonzero"/><path fill="#203a56" d="M 75.144531 50.507812 L 77.679688 51.378906 L 78.59375 48.71875 L 76.058594 47.847656 L 75.144531 50.507812 M 77.824219 52.445312 L 74.378906 51.261719 C 74.125 51.175781 73.992188 50.902344 74.078125 50.648438 L 75.304688 47.082031 C 75.390625 46.828125 75.664062 46.695312 75.914062 46.78125 L 79.363281 47.964844 C 79.613281 48.050781 79.746094 48.324219 79.660156 48.578125 L 78.433594 52.148438 C 78.347656 52.398438 78.074219 52.53125 77.824219 52.445312 " fill-opacity="1" fill-rule="nonzero"/><path fill="#4f97d7" d="M 83.203125 53.785156 L 79.757812 52.601562 L 80.984375 49.03125 L 84.429688 50.214844 L 83.203125 53.785156 " fill-opacity="1" fill-rule="nonzero"/><path fill="#203a56" d="M 80.371094 52.300781 L 82.90625 53.171875 L 83.820312 50.515625 L 81.285156 49.644531 L 80.371094 52.300781 M 83.046875 54.242188 L 79.601562 53.054688 C 79.351562 52.96875 79.214844 52.695312 79.300781 52.445312 L 80.527344 48.875 C 80.613281 48.625 80.890625 48.488281 81.140625 48.574219 L 84.585938 49.761719 C 84.839844 49.847656 84.972656 50.121094 84.886719 50.371094 L 83.660156 53.941406 C 83.574219 54.191406 83.300781 54.328125 83.046875 54.242188 " fill-opacity="1" fill-rule="nonzero"/><path fill="#4f97d7" d="M 88.429688 55.578125 L 84.984375 54.394531 L 86.210938 50.828125 L 89.65625 52.011719 L 88.429688 55.578125 " fill-opacity="1" fill-rule="nonzero"/><path fill="#203a56" d="M 85.59375 54.097656 L 88.128906 54.96875 L 89.042969 52.308594 L 86.507812 51.4375 L 85.59375 54.097656 M 88.273438 56.035156 L 84.828125 54.851562 C 84.574219 54.765625 84.441406 54.492188 84.527344 54.238281 L 85.753906 50.671875 C 85.839844 50.417969 86.113281 50.285156 86.367188 50.371094 L 89.8125 51.554688 C 90.0625 51.640625 90.199219 51.914062 90.113281 52.167969 L 88.886719 55.734375 C 88.800781 55.988281 88.523438 56.121094 88.273438 56.035156 " fill-opacity="1" fill-rule="nonzero"/><path fill="#4f97d7" d="M 71.039062 55.1875 L 67.59375 54.003906 L 68.820312 50.433594 L 72.265625 51.617188 L 71.039062 55.1875 " fill-opacity="1" fill-rule="nonzero"/><path fill="#203a56" d="M 68.207031 53.703125 L 70.742188 54.574219 L 71.652344 51.917969 L 69.121094 51.046875 L 68.207031 53.703125 M 70.882812 55.640625 L 67.4375 54.457031 C 67.183594 54.371094 67.050781 54.097656 67.136719 53.847656 L 68.363281 50.277344 C 68.449219 50.023438 68.722656 49.890625 68.976562 49.976562 L 72.421875 51.160156 C 72.675781 51.246094 72.808594 51.519531 72.722656 51.773438 L 71.496094 55.34375 C 71.410156 55.59375 71.136719 55.730469 70.882812 55.640625 " fill-opacity="1" fill-rule="nonzero"/><path fill="#4f97d7" d="M 76.265625 56.980469 L 72.820312 55.796875 L 74.042969 52.226562 L 77.492188 53.410156 L 76.265625 56.980469 " fill-opacity="1" fill-rule="nonzero"/><path fill="#203a56" d="M 73.429688 55.496094 L 75.964844 56.367188 L 76.878906 53.710938 L 74.34375 52.839844 L 73.429688 55.496094 M 76.109375 57.4375 L 72.664062 56.253906 C 72.410156 56.167969 72.277344 55.890625 72.363281 55.640625 L 73.589844 52.070312 C 73.675781 51.820312 73.949219 51.683594 74.203125 51.773438 L 77.648438 52.957031 C 77.898438 53.042969 78.035156 53.316406 77.949219 53.566406 L 76.722656 57.136719 C 76.632812 57.390625 76.359375 57.523438 76.109375 57.4375 " fill-opacity="1" fill-rule="nonzero"/><path fill="#4f97d7" d="M 81.492188 58.777344 L 78.042969 57.589844 L 79.269531 54.023438 L 82.714844 55.207031 L 81.492188 58.777344 " fill-opacity="1" fill-rule="nonzero"/><path fill="#203a56" d="M 78.65625 57.292969 L 81.191406 58.164062 L 82.105469 55.503906 L 79.570312 54.636719 L 78.65625 57.292969 M 81.332031 59.230469 L 77.886719 58.046875 C 77.636719 57.960938 77.5 57.6875 77.585938 57.433594 L 78.8125 53.867188 C 78.898438 53.613281 79.175781 53.480469 79.425781 53.566406 L 82.871094 54.75 C 83.125 54.835938 83.257812 55.109375 83.171875 55.363281 L 81.945312 58.933594 C 81.859375 59.183594 81.585938 59.316406 81.332031 59.230469 " fill-opacity="1" fill-rule="nonzero"/><path fill="#4f97d7" d="M 86.714844 60.570312 L 83.269531 59.386719 L 84.496094 55.816406 L 87.941406 57 L 86.714844 60.570312 " fill-opacity="1" fill-rule="nonzero"/><path fill="#203a56" d="M 83.882812 59.085938 L 86.414062 59.957031 L 87.328125 57.300781 L 84.792969 56.429688 L 83.882812 59.085938 M 86.558594 61.027344 L 83.113281 59.84375 C 82.859375 59.753906 82.726562 59.480469 82.8125 59.230469 L 84.039062 55.660156 C 84.125 55.410156 84.398438 55.273438 84.652344 55.359375 L 88.097656 56.546875 C 88.347656 56.632812 88.484375 56.90625 88.398438 57.15625 L 87.171875 60.726562 C 87.085938 60.980469 86.808594 61.113281 86.558594 61.027344 " fill-opacity="1" fill-rule="nonzero"/><path fill="#4f97d7" d="M 69.324219 60.175781 L 65.878906 58.992188 L 67.105469 55.421875 L 70.550781 56.609375 L 69.324219 60.175781 " fill-opacity="1" fill-rule="nonzero"/><path fill="#203a56" d="M 66.492188 58.695312 L 69.027344 59.566406 L 69.941406 56.90625 L 67.40625 56.035156 L 66.492188 58.695312 M 69.167969 60.632812 L 65.722656 59.449219 C 65.472656 59.363281 65.335938 59.089844 65.421875 58.835938 L 66.648438 55.265625 C 66.734375 55.015625 67.011719 54.882812 67.261719 54.96875 L 70.707031 56.152344 C 70.960938 56.238281 71.09375 56.511719 71.007812 56.765625 L 69.78125 60.335938 C 69.695312 60.585938 69.421875 60.71875 69.167969 60.632812 " fill-opacity="1" fill-rule="nonzero"/><path fill="#4f97d7" d="M 74.550781 61.972656 L 71.105469 60.789062 L 72.332031 57.21875 L 75.777344 58.402344 L 74.550781 61.972656 " fill-opacity="1" fill-rule="nonzero"/><path fill="#203a56" d="M 71.714844 60.488281 L 74.253906 61.359375 L 75.164062 58.703125 L 72.628906 57.832031 L 71.714844 60.488281 M 74.394531 62.429688 L 70.949219 61.242188 C 70.695312 61.15625 70.5625 60.882812 70.648438 60.632812 L 71.875 57.0625 C 71.960938 56.808594 72.234375 56.675781 72.488281 56.761719 L 75.933594 57.945312 C 76.183594 58.035156 76.320312 58.308594 76.234375 58.558594 L 75.007812 62.128906 C 74.921875 62.378906 74.644531 62.515625 74.394531 62.429688 " fill-opacity="1" fill-rule="nonzero"/><path fill="#4f97d7" d="M 79.777344 63.765625 L 76.328125 62.582031 L 77.554688 59.011719 L 81 60.195312 L 79.777344 63.765625 " fill-opacity="1" fill-rule="nonzero"/><path fill="#203a56" d="M 76.941406 62.285156 L 79.476562 63.152344 L 80.390625 60.496094 L 77.855469 59.625 L 76.941406 62.285156 M 79.621094 64.222656 L 76.171875 63.039062 C 75.921875 62.953125 75.785156 62.679688 75.875 62.425781 L 77.097656 58.855469 C 77.1875 58.605469 77.460938 58.472656 77.710938 58.558594 L 81.160156 59.742188 C 81.410156 59.828125 81.542969 60.101562 81.457031 60.355469 L 80.230469 63.921875 C 80.144531 64.175781 79.871094 64.308594 79.621094 64.222656 " fill-opacity="1" fill-rule="nonzero"/><path fill="#4f97d7" d="M 85 65.5625 L 81.554688 64.378906 L 82.78125 60.808594 L 86.226562 61.992188 L 85 65.5625 " fill-opacity="1" fill-rule="nonzero"/><path fill="#203a56" d="M 82.167969 64.078125 L 84.703125 64.949219 L 85.613281 62.292969 L 83.078125 61.421875 L 82.167969 64.078125 M 84.84375 66.015625 L 81.398438 64.835938 C 81.144531 64.746094 81.011719 64.472656 81.097656 64.222656 L 82.324219 60.652344 C 82.410156 60.398438 82.683594 60.265625 82.9375 60.351562 L 86.382812 61.535156 C 86.636719 61.621094 86.769531 61.898438 86.683594 62.148438 L 85.457031 65.71875 C 85.371094 65.96875 85.097656 66.105469 84.84375 66.015625 " fill-opacity="1" fill-rule="nonzero"/><path fill="#c3c2c3" d="M 84.65625 69.78125 C 84.164062 69.78125 83.660156 69.699219 83.167969 69.53125 L 80.207031 68.515625 L 83.167969 69.53125 C 83.660156 69.699219 84.164062 69.78125 84.65625 69.78125 M 86.535156 69.378906 C 86.535156 69.378906 86.539062 69.378906 86.539062 69.378906 C 86.539062 69.378906 86.535156 69.378906 86.535156 69.378906 M 86.539062 69.378906 C 87.636719 68.886719 88.542969 67.96875 88.984375 66.753906 C 88.542969 67.96875 87.636719 68.886719 86.539062 69.378906 M 84.65625 68.816406 C 84.476562 68.816406 84.292969 68.804688 84.109375 68.777344 C 85.523438 68.632812 86.851562 67.984375 87.835938 66.953125 C 87.1875 68.113281 85.957031 68.816406 84.65625 68.816406 M 88.988281 66.742188 C 88.988281 66.738281 88.988281 66.734375 88.992188 66.730469 C 88.988281 66.734375 88.988281 66.738281 88.988281 66.742188 M 88.992188 66.730469 C 88.992188 66.726562 88.996094 66.722656 88.996094 66.71875 C 88.996094 66.722656 88.992188 66.726562 88.992188 66.730469 M 88.996094 66.714844 C 89 66.710938 89 66.710938 89 66.707031 C 89 66.710938 89 66.710938 88.996094 66.714844 M 89.003906 66.699219 C 89.003906 66.695312 89.003906 66.691406 89.007812 66.683594 C 89.003906 66.691406 89.003906 66.695312 89.003906 66.699219 " fill-opacity="1" fill-rule="nonzero"/><path fill="#6ca4bd" d="M 84.109375 68.777344 C 83.898438 68.742188 83.6875 68.691406 83.480469 68.621094 L 80.207031 67.496094 L 80.207031 63.980469 C 80.214844 63.960938 80.222656 63.941406 80.230469 63.921875 L 81.457031 60.355469 C 81.542969 60.101562 81.410156 59.828125 81.160156 59.742188 L 80.207031 59.414062 L 80.207031 58.84375 L 81.332031 59.230469 C 81.386719 59.25 81.4375 59.257812 81.488281 59.257812 C 81.691406 59.257812 81.878906 59.132812 81.945312 58.933594 L 82.679688 56.792969 C 83.078125 56.601562 83.46875 56.398438 83.859375 56.1875 L 82.8125 59.230469 C 82.726562 59.480469 82.859375 59.753906 83.113281 59.84375 L 86.558594 61.027344 C 86.609375 61.042969 86.664062 61.050781 86.714844 61.050781 C 86.914062 61.050781 87.101562 60.925781 87.171875 60.726562 L 88.398438 57.15625 C 88.484375 56.90625 88.347656 56.632812 88.097656 56.546875 L 85.058594 55.5 C 85.253906 55.378906 85.453125 55.257812 85.648438 55.132812 L 88.273438 56.035156 C 88.324219 56.054688 88.378906 56.0625 88.429688 56.0625 C 88.628906 56.0625 88.816406 55.9375 88.886719 55.734375 L 90.113281 52.167969 C 90.164062 52.015625 90.136719 51.855469 90.050781 51.734375 C 90.75 51.089844 91.421875 50.410156 92.074219 49.699219 L 93.640625 50.234375 L 88.097656 66.363281 C 88.027344 66.570312 87.9375 66.769531 87.835938 66.953125 C 86.851562 67.984375 85.523438 68.632812 84.109375 68.777344 M 82.78125 60.328125 C 82.578125 60.328125 82.394531 60.453125 82.324219 60.652344 L 81.097656 64.222656 C 81.011719 64.472656 81.144531 64.746094 81.398438 64.835938 L 84.84375 66.015625 C 84.894531 66.035156 84.949219 66.042969 85 66.042969 C 85.199219 66.042969 85.386719 65.917969 85.457031 65.71875 L 86.683594 62.148438 C 86.769531 61.898438 86.636719 61.621094 86.382812 61.535156 L 82.9375 60.351562 C 82.886719 60.335938 82.832031 60.328125 82.78125 60.328125 " fill-opacity="1" fill-rule="nonzero"/><path fill="#1a2e46" d="M 84.65625 69.78125 C 84.164062 69.78125 83.660156 69.699219 83.167969 69.53125 L 80.207031 68.515625 L 80.207031 67.496094 L 83.480469 68.621094 C 83.6875 68.691406 83.898438 68.742188 84.109375 68.777344 C 84.292969 68.804688 84.476562 68.816406 84.65625 68.816406 C 85.957031 68.816406 87.1875 68.113281 87.835938 66.953125 C 87.9375 66.769531 88.027344 66.570312 88.097656 66.363281 L 93.640625 50.234375 L 94.09375 50.390625 C 94.148438 50.410156 94.199219 50.417969 94.25 50.417969 C 94.449219 50.417969 94.632812 50.296875 94.703125 50.101562 L 89.011719 66.675781 C 89.007812 66.679688 89.007812 66.683594 89.007812 66.683594 C 89.003906 66.691406 89.003906 66.695312 89.003906 66.699219 C 89 66.703125 89 66.707031 89 66.707031 C 89 66.710938 89 66.710938 88.996094 66.714844 C 88.996094 66.714844 88.996094 66.714844 88.996094 66.71875 C 88.996094 66.722656 88.992188 66.726562 88.992188 66.730469 C 88.988281 66.734375 88.988281 66.738281 88.988281 66.742188 C 88.984375 66.746094 88.984375 66.75 88.984375 66.753906 C 88.542969 67.96875 87.636719 68.886719 86.539062 69.378906 C 86.539062 69.378906 86.535156 69.378906 86.535156 69.378906 C 85.953125 69.640625 85.3125 69.78125 84.65625 69.78125 " fill-opacity="1" fill-rule="nonzero"/><path fill="#c3c2c3" d="M 95.160156 48.777344 C 95.179688 48.714844 95.199219 48.652344 95.21875 48.589844 C 95.234375 48.53125 95.25 48.476562 95.265625 48.421875 C 95.234375 48.539062 95.199219 48.660156 95.160156 48.777344 " fill-opacity="1" fill-rule="nonzero"/><path fill="#1a2e46" d="M 95.21875 48.589844 C 95.234375 48.53125 95.25 48.476562 95.265625 48.421875 C 95.25 48.476562 95.234375 48.53125 95.21875 48.589844 " fill-opacity="1" fill-rule="nonzero"/><path fill="#b3337e" d="M 93.953125 49.324219 L 92.765625 48.917969 C 93.335938 48.25 93.886719 47.554688 94.414062 46.832031 C 94.484375 47.367188 94.433594 47.921875 94.246094 48.464844 L 93.953125 49.324219 " fill-opacity="1" fill-rule="nonzero"/><path fill="#1a2e46" d="M 94.25 50.417969 C 94.199219 50.417969 94.148438 50.410156 94.09375 50.390625 L 93.640625 50.234375 L 92.074219 49.699219 C 92.308594 49.441406 92.539062 49.179688 92.765625 48.917969 L 93.953125 49.324219 L 94.246094 48.464844 C 94.433594 47.921875 94.484375 47.367188 94.414062 46.832031 C 94.449219 46.785156 94.484375 46.734375 94.519531 46.6875 C 94.613281 46.558594 94.757812 46.488281 94.910156 46.488281 C 94.953125 46.488281 94.996094 46.492188 95.039062 46.503906 C 95.230469 46.5625 95.375 46.730469 95.390625 46.929688 C 95.429688 47.4375 95.390625 47.933594 95.265625 48.421875 C 95.25 48.476562 95.234375 48.53125 95.21875 48.589844 C 95.199219 48.652344 95.179688 48.714844 95.160156 48.777344 L 94.703125 50.101562 C 94.632812 50.296875 94.449219 50.417969 94.25 50.417969 " fill-opacity="1" fill-rule="nonzero"/><path fill="#3c72a4" d="M 88.128906 54.96875 L 86.65625 54.460938 C 87.421875 53.929688 88.167969 53.363281 88.890625 52.753906 L 88.128906 54.96875 " fill-opacity="1" fill-rule="nonzero"/><path fill="#1a2e46" d="M 88.429688 56.0625 C 88.378906 56.0625 88.324219 56.054688 88.273438 56.035156 L 85.648438 55.132812 C 85.988281 54.917969 86.324219 54.691406 86.65625 54.460938 L 88.128906 54.96875 L 88.890625 52.753906 C 89.285156 52.425781 89.671875 52.085938 90.050781 51.734375 C 90.136719 51.855469 90.164062 52.015625 90.113281 52.167969 L 88.886719 55.734375 C 88.816406 55.9375 88.628906 56.0625 88.429688 56.0625 " fill-opacity="1" fill-rule="nonzero"/><path fill="#3c72a4" d="M 81.191406 58.164062 L 80.238281 57.835938 C 80.652344 57.683594 81.0625 57.519531 81.472656 57.34375 L 81.191406 58.164062 " fill-opacity="1" fill-rule="nonzero"/><path fill="#1a2e46" d="M 81.488281 59.257812 C 81.4375 59.257812 81.386719 59.25 81.332031 59.230469 L 80.207031 58.84375 L 80.207031 57.847656 C 80.21875 57.84375 80.226562 57.839844 80.238281 57.835938 L 81.191406 58.164062 L 81.472656 57.34375 C 81.878906 57.171875 82.28125 56.988281 82.679688 56.792969 L 81.945312 58.933594 C 81.878906 59.132812 81.691406 59.257812 81.488281 59.257812 " fill-opacity="1" fill-rule="nonzero"/><path fill="#3c72a4" d="M 86.414062 59.957031 L 83.882812 59.085938 L 84.792969 56.429688 L 87.328125 57.300781 L 86.414062 59.957031 " fill-opacity="1" fill-rule="nonzero"/><path fill="#1a2e46" d="M 86.714844 61.050781 C 86.664062 61.050781 86.609375 61.042969 86.558594 61.027344 L 83.113281 59.84375 C 82.859375 59.753906 82.726562 59.480469 82.8125 59.230469 L 83.859375 56.1875 C 84.261719 55.96875 84.660156 55.742188 85.058594 55.5 L 88.097656 56.546875 C 88.347656 56.632812 88.484375 56.90625 88.398438 57.15625 L 87.171875 60.726562 C 87.101562 60.925781 86.914062 61.050781 86.714844 61.050781 M 84.792969 56.429688 L 83.882812 59.085938 L 86.414062 59.957031 L 87.328125 57.300781 L 84.792969 56.429688 " fill-opacity="1" fill-rule="nonzero"/><path fill="#3c72a4" d="M 80.207031 61.023438 L 80.207031 60.433594 L 80.390625 60.496094 L 80.207031 61.023438 " fill-opacity="1" fill-rule="nonzero"/><path fill="#1a2e46" d="M 80.207031 63.980469 L 80.207031 61.023438 L 80.390625 60.496094 L 80.207031 60.433594 L 80.207031 59.414062 L 81.160156 59.742188 C 81.410156 59.828125 81.542969 60.101562 81.457031 60.355469 L 80.230469 63.921875 C 80.222656 63.941406 80.214844 63.960938 80.207031 63.980469 " fill-opacity="1" fill-rule="nonzero"/><path fill="#3c72a4" d="M 84.703125 64.949219 L 82.167969 64.078125 L 83.078125 61.421875 L 85.613281 62.292969 L 84.703125 64.949219 " fill-opacity="1" fill-rule="nonzero"/><path fill="#1a2e46" d="M 85 66.042969 C 84.949219 66.042969 84.894531 66.035156 84.84375 66.015625 L 81.398438 64.835938 C 81.144531 64.746094 81.011719 64.472656 81.097656 64.222656 L 82.324219 60.652344 C 82.394531 60.453125 82.578125 60.328125 82.78125 60.328125 C 82.832031 60.328125 82.886719 60.335938 82.9375 60.351562 L 86.382812 61.535156 C 86.636719 61.621094 86.769531 61.898438 86.683594 62.148438 L 85.457031 65.71875 C 85.386719 65.917969 85.199219 66.042969 85 66.042969 M 83.078125 61.421875 L 82.167969 64.078125 L 84.703125 64.949219 L 85.613281 62.292969 L 83.078125 61.421875 " fill-opacity="1" fill-rule="nonzero"/><path fill="#8dd8f6" d="M 17 48.585938 L 15.285156 46.714844 L 17.511719 44.667969 L 19.230469 46.542969 L 17 48.585938 " fill-opacity="1" fill-rule="nonzero"/><path fill="#203a56" d="M 15.761719 46.734375 L 17.019531 48.109375 L 18.75 46.519531 L 17.492188 45.148438 L 15.761719 46.734375 M 17 48.925781 L 16.984375 48.925781 C 16.894531 48.921875 16.8125 48.882812 16.75 48.816406 L 15.035156 46.945312 C 14.90625 46.804688 14.917969 46.589844 15.054688 46.464844 L 17.285156 44.421875 C 17.421875 44.292969 17.636719 44.300781 17.761719 44.441406 L 19.480469 46.3125 C 19.605469 46.449219 19.597656 46.664062 19.460938 46.792969 L 17.230469 48.835938 C 17.167969 48.894531 17.085938 48.925781 17 48.925781 " fill-opacity="1" fill-rule="nonzero"/><path fill="#8dd8f6" d="M 12.246094 41.515625 L 7.074219 41.515625 L 7.074219 44.976562 L 12.246094 44.976562 L 12.246094 41.515625 " fill-opacity="1" fill-rule="nonzero"/><path fill="#203a56" d="M 7.414062 44.636719 L 11.90625 44.636719 L 11.90625 41.855469 L 7.414062 41.855469 Z M 12.246094 45.316406 L 7.074219 45.316406 C 6.886719 45.316406 6.734375 45.164062 6.734375 44.976562 L 6.734375 41.515625 C 6.734375 41.328125 6.886719 41.179688 7.074219 41.179688 L 12.246094 41.179688 C 12.433594 41.179688 12.585938 41.328125 12.585938 41.515625 L 12.585938 44.976562 C 12.585938 45.164062 12.433594 45.316406 12.246094 45.316406 " fill-opacity="1" fill-rule="nonzero"/><path fill="#fff236" d="M 19.226562 53.691406 C 19.226562 58.90625 14.996094 63.136719 9.777344 63.136719 C 4.5625 63.136719 0.332031 58.90625 0.332031 53.691406 C 0.332031 48.472656 4.5625 44.242188 9.777344 44.242188 C 14.996094 44.242188 19.226562 48.472656 19.226562 53.691406 " fill-opacity="1" fill-rule="nonzero"/><path fill="#203a56" d="M 9.777344 44.582031 C 4.757812 44.582031 0.671875 48.667969 0.671875 53.691406 C 0.671875 58.710938 4.757812 62.796875 9.777344 62.796875 C 14.800781 62.796875 18.886719 58.710938 18.886719 53.691406 C 18.886719 48.667969 14.800781 44.582031 9.777344 44.582031 M 9.777344 63.476562 C 4.382812 63.476562 -0.0078125 59.085938 -0.0078125 53.691406 C -0.0078125 48.292969 4.382812 43.90625 9.777344 43.90625 C 15.171875 43.90625 19.5625 48.292969 19.5625 53.691406 C 19.5625 59.085938 15.171875 63.476562 9.777344 63.476562 " fill-opacity="1" fill-rule="nonzero"/><path fill="#8dd8f6" d="M 16.960938 53.691406 C 16.960938 57.65625 13.746094 60.875 9.777344 60.875 C 5.8125 60.875 2.59375 57.65625 2.59375 53.691406 C 2.59375 49.722656 5.8125 46.507812 9.777344 46.507812 C 13.746094 46.507812 16.960938 49.722656 16.960938 53.691406 " fill-opacity="1" fill-rule="nonzero"/><path fill="#203a56" d="M 9.777344 46.847656 C 6.003906 46.847656 2.933594 49.917969 2.933594 53.691406 C 2.933594 57.464844 6.003906 60.535156 9.777344 60.535156 C 13.550781 60.535156 16.621094 57.464844 16.621094 53.691406 C 16.621094 49.917969 13.550781 46.847656 9.777344 46.847656 M 9.777344 61.210938 C 5.628906 61.210938 2.257812 57.835938 2.257812 53.691406 C 2.257812 49.542969 5.628906 46.167969 9.777344 46.167969 C 13.925781 46.167969 17.300781 49.542969 17.300781 53.691406 C 17.300781 57.835938 13.925781 61.210938 9.777344 61.210938 " fill-opacity="1" fill-rule="nonzero"/><path fill="#5ec9f4" d="M 16.359375 53.847656 C 16.359375 53.796875 16.363281 53.75 16.363281 53.703125 C 16.363281 50.066406 13.414062 47.117188 9.777344 47.117188 L 9.753906 47.117188 L 9.753906 53.847656 L 16.359375 53.847656 " fill-opacity="1" fill-rule="nonzero"/><path fill="#ffffff" d="M 7.609375 48.4375 C 7.332031 48.1875 6.699219 48.027344 6.242188 48.226562 C 5.191406 48.679688 4.324219 49.632812 3.976562 50.722656 C 3.820312 51.199219 4.039062 51.816406 4.316406 52.066406 C 4.59375 52.316406 4.824219 52.113281 4.980469 51.636719 C 5.328125 50.546875 6.195312 49.589844 7.246094 49.140625 C 7.703125 48.9375 7.886719 48.6875 7.609375 48.4375 " fill-opacity="1" fill-rule="nonzero"/><path fill="#203a56" d="M 9.980469 50.003906 C 9.785156 50.003906 9.625 50.160156 9.625 50.355469 L 9.625 53.742188 C 9.625 53.9375 9.785156 54.097656 9.980469 54.097656 C 10.171875 54.097656 10.332031 53.9375 10.332031 53.742188 L 10.332031 50.355469 C 10.332031 50.160156 10.171875 50.003906 9.980469 50.003906 " fill-opacity="1" fill-rule="nonzero"/><path fill="#203a56" d="M 14.03125 53.847656 C 14.03125 53.652344 13.871094 53.496094 13.679688 53.496094 L 10.292969 53.496094 C 10.097656 53.496094 9.9375 53.652344 9.9375 53.847656 C 9.9375 54.039062 10.097656 54.199219 10.292969 54.199219 L 13.679688 54.199219 C 13.871094 54.199219 14.03125 54.039062 14.03125 53.847656 " fill-opacity="1" fill-rule="nonzero"/><path fill="#fff236" d="M 10.933594 53.945312 C 10.933594 54.492188 10.488281 54.941406 9.9375 54.941406 C 9.390625 54.941406 8.945312 54.492188 8.945312 53.945312 C 8.945312 53.394531 9.390625 52.949219 9.9375 52.949219 C 10.488281 52.949219 10.933594 53.394531 10.933594 53.945312 " fill-opacity="1" fill-rule="nonzero"/><path fill="#203a56" d="M 9.9375 53.289062 C 9.578125 53.289062 9.28125 53.582031 9.28125 53.945312 C 9.28125 54.304688 9.578125 54.601562 9.9375 54.601562 C 10.300781 54.601562 10.597656 54.304688 10.597656 53.945312 C 10.597656 53.582031 10.300781 53.289062 9.9375 53.289062 M 9.9375 55.277344 C 9.203125 55.277344 8.605469 54.679688 8.605469 53.945312 C 8.605469 53.207031 9.203125 52.609375 9.9375 52.609375 C 10.675781 52.609375 11.273438 53.207031 11.273438 53.945312 C 11.273438 54.679688 10.675781 55.277344 9.9375 55.277344 " fill-opacity="1" fill-rule="nonzero"/><path fill="#c2b829" d="M 9.777344 62.796875 C 5.953125 62.796875 2.675781 60.429688 1.324219 57.082031 C 1.890625 57.0625 2.445312 57.011719 2.992188 56.9375 C 4.207031 59.464844 6.792969 61.210938 9.777344 61.210938 C 10.671875 61.210938 11.527344 61.054688 12.324219 60.769531 L 12.324219 62.433594 C 11.515625 62.671875 10.660156 62.796875 9.777344 62.796875 " fill-opacity="1" fill-rule="nonzero"/><path fill="#1a2e46" d="M 9.777344 63.441406 C 5.863281 63.441406 2.34375 61.113281 0.808594 57.511719 C 0.769531 57.417969 0.777344 57.3125 0.832031 57.230469 C 0.886719 57.144531 0.980469 57.09375 1.078125 57.089844 C 1.160156 57.089844 1.242188 57.085938 1.324219 57.082031 C 2.675781 60.429688 5.953125 62.796875 9.777344 62.796875 C 10.660156 62.796875 11.515625 62.671875 12.324219 62.433594 L 12.324219 63.101562 C 11.511719 63.320312 10.660156 63.441406 9.777344 63.441406 " fill-opacity="1" fill-rule="nonzero"/><path fill="#6ca4bd" d="M 9.777344 60.535156 C 7.132812 60.535156 4.832031 59.023438 3.691406 56.820312 C 5.058594 56.566406 6.359375 56.128906 7.578125 55.515625 C 8.027344 55.292969 8.460938 55.039062 8.878906 54.753906 C 9.121094 55.074219 9.507812 55.277344 9.9375 55.277344 C 10.589844 55.277344 11.132812 54.8125 11.25 54.199219 L 12.324219 54.199219 L 12.324219 60.042969 C 11.539062 60.359375 10.675781 60.535156 9.777344 60.535156 " fill-opacity="1" fill-rule="nonzero"/><path fill="#1a2e46" d="M 9.777344 61.210938 C 6.792969 61.210938 4.207031 59.464844 2.992188 56.9375 C 3.226562 56.902344 3.460938 56.863281 3.691406 56.820312 C 4.832031 59.023438 7.132812 60.535156 9.777344 60.535156 C 10.675781 60.535156 11.539062 60.359375 12.324219 60.042969 L 12.324219 60.769531 C 11.527344 61.054688 10.671875 61.210938 9.777344 61.210938 " fill-opacity="1" fill-rule="nonzero"/><path fill="#4898bb" d="M 12.324219 53.496094 L 11.195312 53.496094 C 11.132812 53.316406 11.03125 53.15625 10.902344 53.019531 C 11.421875 52.46875 11.898438 51.863281 12.324219 51.210938 L 12.324219 53.496094 " fill-opacity="1" fill-rule="nonzero"/><path fill="#1a2e46" d="M 12.324219 54.199219 L 11.25 54.199219 C 11.265625 54.117188 11.273438 54.03125 11.273438 53.945312 C 11.273438 53.785156 11.246094 53.636719 11.195312 53.496094 L 12.324219 53.496094 L 12.324219 54.199219 " fill-opacity="1" fill-rule="nonzero"/><path fill="#c2b829" d="M 9.9375 54.601562 C 9.734375 54.601562 9.550781 54.503906 9.429688 54.355469 C 9.773438 54.089844 10.105469 53.804688 10.425781 53.503906 C 10.53125 53.621094 10.597656 53.773438 10.597656 53.945312 C 10.597656 54.304688 10.300781 54.601562 9.9375 54.601562 " fill-opacity="1" fill-rule="nonzero"/><path fill="#1a2e46" d="M 9.9375 55.277344 C 9.507812 55.277344 9.121094 55.074219 8.878906 54.753906 C 9.066406 54.628906 9.25 54.496094 9.429688 54.355469 C 9.550781 54.503906 9.734375 54.601562 9.9375 54.601562 C 10.300781 54.601562 10.597656 54.304688 10.597656 53.945312 C 10.597656 53.773438 10.53125 53.621094 10.425781 53.503906 C 10.585938 53.347656 10.746094 53.1875 10.902344 53.019531 C 11.03125 53.15625 11.132812 53.316406 11.195312 53.496094 C 11.246094 53.636719 11.273438 53.785156 11.273438 53.945312 C 11.273438 54.03125 11.265625 54.117188 11.25 54.199219 C 11.132812 54.8125 10.589844 55.277344 9.9375 55.277344 " fill-opacity="1" fill-rule="nonzero"/><path fill="#4f97d7" d="M 13.277344 42.324219 L 5.976562 42.324219 L 5.976562 39.570312 L 13.277344 39.570312 L 13.277344 42.324219 " fill-opacity="1" fill-rule="nonzero"/><path fill="#203a56" d="M 6.3125 41.984375 L 12.9375 41.984375 L 12.9375 39.910156 L 6.3125 39.910156 Z M 13.277344 42.664062 L 5.976562 42.664062 C 5.789062 42.664062 5.636719 42.511719 5.636719 42.324219 L 5.636719 39.570312 C 5.636719 39.382812 5.789062 39.230469 5.976562 39.230469 L 13.277344 39.230469 C 13.464844 39.230469 13.617188 39.382812 13.617188 39.570312 L 13.617188 42.324219 C 13.617188 42.511719 13.464844 42.664062 13.277344 42.664062 " fill-opacity="1" fill-rule="nonzero"/><path fill="#fff236" d="M 71.363281 23.289062 L 55.308594 28.785156 C 53.910156 29.265625 53.164062 30.789062 53.644531 32.1875 L 57.035156 42.097656 C 57.515625 43.496094 59.042969 44.242188 60.4375 43.765625 L 76.492188 38.269531 C 77.886719 37.789062 78.636719 36.265625 78.15625 34.867188 L 74.761719 24.957031 C 74.285156 23.558594 72.757812 22.8125 71.363281 23.289062 " fill-opacity="1" fill-rule="nonzero"/><path fill="#203a56" d="M 55.425781 29.128906 C 54.21875 29.542969 53.574219 30.863281 53.988281 32.070312 L 57.378906 41.980469 C 57.792969 43.1875 59.113281 43.835938 60.320312 43.421875 L 76.371094 37.925781 C 77.578125 37.511719 78.226562 36.191406 77.8125 34.984375 L 74.417969 25.074219 C 74.003906 23.867188 72.6875 23.21875 71.480469 23.632812 L 55.425781 29.128906 M 76.609375 38.609375 L 60.554688 44.109375 C 58.96875 44.652344 57.238281 43.800781 56.695312 42.214844 L 53.300781 32.304688 C 52.757812 30.71875 53.605469 28.984375 55.191406 28.441406 L 71.242188 22.945312 C 72.832031 22.402344 74.5625 23.25 75.105469 24.835938 L 78.5 34.75 C 79.042969 36.335938 78.195312 38.066406 76.609375 38.609375 " fill-opacity="1" fill-rule="nonzero"/><path fill="#c2b829" d="M 77.28125 37.347656 C 76.386719 36.816406 75.34375 36.511719 74.230469 36.511719 L 66.835938 36.511719 C 70.394531 33.222656 72.988281 29.078125 74.164062 24.554688 C 74.269531 24.710938 74.355469 24.886719 74.417969 25.074219 L 77.8125 34.984375 C 78.105469 35.835938 77.867188 36.742188 77.28125 37.347656 " fill-opacity="1" fill-rule="nonzero"/><path fill="#1a2e46" d="M 77.886719 37.761719 C 77.695312 37.613281 77.492188 37.476562 77.28125 37.347656 C 77.867188 36.742188 78.105469 35.835938 77.8125 34.984375 L 74.417969 25.074219 C 74.355469 24.886719 74.269531 24.710938 74.164062 24.554688 C 74.179688 24.503906 74.191406 24.457031 74.203125 24.410156 C 74.238281 24.265625 74.359375 24.160156 74.503906 24.136719 C 74.523438 24.136719 74.539062 24.132812 74.554688 24.132812 C 74.683594 24.132812 74.804688 24.203125 74.871094 24.316406 C 74.964844 24.484375 75.046875 24.660156 75.105469 24.832031 C 75.105469 24.835938 75.105469 24.835938 75.105469 24.835938 L 78.5 34.75 C 78.613281 35.074219 78.664062 35.40625 78.664062 35.734375 C 78.664062 36.484375 78.382812 37.210938 77.886719 37.761719 " fill-opacity="1" fill-rule="nonzero"/><path fill="#fff236" d="M 74.90625 25.371094 C 74.347656 23.746094 72.757812 22.8125 71.363281 23.289062 L 55.308594 28.785156 C 53.910156 29.265625 53.226562 30.976562 53.785156 32.605469 L 66.453125 34.378906 L 74.90625 25.371094 " fill-opacity="1" fill-rule="nonzero"/><path fill="#203a56" d="M 54.066406 32.277344 L 66.316406 33.992188 L 74.484375 25.289062 C 73.9375 23.976562 72.628906 23.238281 71.480469 23.632812 L 55.425781 29.128906 C 54.277344 29.523438 53.695312 30.90625 54.066406 32.277344 Z M 66.570312 34.71875 C 66.515625 34.738281 66.460938 34.742188 66.402344 34.734375 L 53.734375 32.964844 C 53.601562 32.945312 53.488281 32.851562 53.441406 32.722656 C 52.820312 30.90625 53.605469 28.984375 55.191406 28.441406 L 71.242188 22.945312 C 72.832031 22.402344 74.628906 23.4375 75.25 25.253906 C 75.292969 25.382812 75.261719 25.523438 75.171875 25.621094 L 66.714844 34.625 C 66.675781 34.667969 66.625 34.703125 66.570312 34.71875 " fill-opacity="1" fill-rule="nonzero"/><path fill="#ffffff" d="M 56.328125 34.027344 C 55.675781 34.25 55.328125 34.960938 55.550781 35.613281 L 57.082031 40.082031 C 57.304688 40.734375 58.015625 41.082031 58.667969 40.859375 C 59.316406 40.636719 59.667969 39.925781 59.441406 39.273438 L 57.914062 34.804688 C 57.691406 34.152344 56.980469 33.804688 56.328125 34.027344 " fill-opacity="1" fill-rule="nonzero"/><path fill="#dad9d9" d="M 58.8125 89.15625 L 33.753906 89.15625 L 36.761719 81.066406 L 56.183594 81.066406 L 58.8125 89.15625 " fill-opacity="1" fill-rule="nonzero"/><path fill="#203a56" d="M 34.199219 88.847656 L 58.386719 88.847656 L 55.957031 81.375 L 36.976562 81.375 L 34.199219 88.847656 M 58.8125 89.46875 L 33.753906 89.46875 C 33.652344 89.46875 33.558594 89.417969 33.5 89.335938 C 33.441406 89.25 33.429688 89.144531 33.464844 89.050781 L 36.472656 80.957031 C 36.515625 80.835938 36.632812 80.753906 36.761719 80.753906 L 56.183594 80.753906 C 56.316406 80.753906 56.4375 80.839844 56.476562 80.96875 L 59.109375 89.0625 C 59.140625 89.15625 59.121094 89.261719 59.0625 89.339844 C 59.007812 89.421875 58.914062 89.46875 58.8125 89.46875 " fill-opacity="1" fill-rule="nonzero"/><path fill="#a9a7a8" d="M 58.386719 88.847656 L 52.507812 88.847656 C 52.191406 88.566406 51.871094 88.289062 51.550781 88.019531 C 47.441406 84.585938 42.734375 82.800781 39.511719 81.910156 C 38.828125 81.722656 38.136719 81.628906 37.445312 81.628906 C 37.257812 81.628906 37.066406 81.636719 36.875 81.648438 L 36.976562 81.375 L 55.957031 81.375 L 58.386719 88.847656 " fill-opacity="1" fill-rule="nonzero"/><path fill="#1a2e46" d="M 58.8125 89.414062 L 53.203125 89.414062 C 53.152344 89.414062 53.105469 89.394531 53.066406 89.355469 C 52.882812 89.1875 52.695312 89.015625 52.507812 88.847656 L 58.386719 88.847656 L 55.957031 81.375 L 56.519531 81.375 L 59.019531 89.066406 C 59.042969 89.144531 59.035156 89.234375 58.992188 89.304688 C 58.953125 89.371094 58.886719 89.414062 58.8125 89.414062 M 36.628906 81.671875 C 36.5625 81.671875 36.496094 81.632812 36.453125 81.566406 C 36.417969 81.511719 36.40625 81.441406 36.414062 81.375 L 36.976562 81.375 L 36.875 81.648438 C 36.800781 81.65625 36.726562 81.664062 36.652344 81.671875 C 36.644531 81.671875 36.636719 81.671875 36.628906 81.671875 " fill-opacity="1" fill-rule="nonzero"/><path fill="#ffffff" d="M 74.230469 36.820312 L 18.304688 36.820312 C 15.179688 36.820312 12.636719 39.363281 12.636719 42.488281 L 12.636719 75.398438 C 12.636719 78.523438 15.179688 81.066406 18.304688 81.066406 L 74.230469 81.066406 C 77.355469 81.066406 79.898438 78.523438 79.898438 75.398438 L 79.898438 42.488281 C 79.898438 39.363281 77.355469 36.820312 74.230469 36.820312 " fill-opacity="1" fill-rule="nonzero"/><path fill="#203a56" d="M 18.304688 37.128906 C 15.347656 37.128906 12.945312 39.535156 12.945312 42.488281 L 12.945312 75.398438 C 12.945312 78.351562 15.347656 80.753906 18.304688 80.753906 L 74.230469 80.753906 C 77.183594 80.753906 79.585938 78.351562 79.585938 75.398438 L 79.585938 42.488281 C 79.585938 39.535156 77.183594 37.128906 74.230469 37.128906 L 18.304688 37.128906 M 74.230469 81.375 L 18.304688 81.375 C 15.007812 81.375 12.324219 78.691406 12.324219 75.398438 L 12.324219 42.488281 C 12.324219 39.191406 15.007812 36.511719 18.304688 36.511719 L 74.230469 36.511719 C 77.523438 36.511719 80.207031 39.191406 80.207031 42.488281 L 80.207031 75.398438 C 80.207031 78.691406 77.523438 81.375 74.230469 81.375 " fill-opacity="1" fill-rule="nonzero"/><path fill="#8dd8f6" d="M 72.449219 40.902344 L 20.082031 40.902344 C 18.570312 40.902344 17.34375 42.003906 17.34375 43.359375 L 17.34375 72.550781 C 17.34375 73.90625 18.570312 75.003906 20.082031 75.003906 L 72.449219 75.003906 C 73.960938 75.003906 75.1875 73.90625 75.1875 72.550781 L 75.1875 43.359375 C 75.1875 42.003906 73.960938 40.902344 72.449219 40.902344 " fill-opacity="1" fill-rule="nonzero"/><path fill="#203a56" d="M 20.082031 41.214844 C 18.742188 41.214844 17.65625 42.175781 17.65625 43.359375 L 17.65625 72.550781 C 17.65625 73.734375 18.742188 74.695312 20.082031 74.695312 L 72.449219 74.695312 C 73.789062 74.695312 74.878906 73.734375 74.878906 72.550781 L 74.878906 43.359375 C 74.878906 42.175781 73.789062 41.214844 72.449219 41.214844 L 20.082031 41.214844 M 72.449219 75.316406 L 20.082031 75.316406 C 18.402344 75.316406 17.035156 74.074219 17.035156 72.550781 L 17.035156 43.359375 C 17.035156 41.835938 18.402344 40.59375 20.082031 40.59375 L 72.449219 40.59375 C 74.128906 40.59375 75.496094 41.835938 75.496094 43.359375 L 75.496094 72.550781 C 75.496094 74.074219 74.128906 75.316406 72.449219 75.316406 " fill-opacity="1" fill-rule="nonzero"/><path fill="#6ca4bd" d="M 18.214844 73.917969 C 17.863281 73.546875 17.65625 73.070312 17.65625 72.550781 L 17.65625 43.359375 C 17.65625 42.175781 18.742188 41.214844 20.082031 41.214844 L 72.449219 41.214844 C 73.347656 41.214844 74.132812 41.648438 74.554688 42.289062 C 74.34375 42.914062 74.097656 43.527344 73.835938 44.128906 C 73.355469 43.519531 72.5625 43.121094 71.664062 43.121094 L 20.867188 43.121094 C 19.402344 43.121094 18.210938 44.1875 18.210938 45.503906 L 18.210938 73.816406 C 18.210938 73.851562 18.210938 73.886719 18.214844 73.917969 " fill-opacity="1" fill-rule="nonzero"/><path fill="#1a2e46" d="M 18.296875 74.410156 C 17.714844 73.960938 17.34375 73.292969 17.34375 72.550781 L 17.34375 43.359375 C 17.34375 42.003906 18.570312 40.902344 20.082031 40.902344 L 72.449219 40.902344 C 73.367188 40.902344 74.175781 41.308594 74.671875 41.925781 C 74.636719 42.046875 74.59375 42.167969 74.554688 42.289062 C 74.132812 41.648438 73.347656 41.214844 72.449219 41.214844 L 20.082031 41.214844 C 18.742188 41.214844 17.65625 42.175781 17.65625 43.359375 L 17.65625 72.550781 C 17.65625 73.070312 17.863281 73.546875 18.214844 73.917969 C 18.222656 74.085938 18.253906 74.25 18.296875 74.410156 " fill-opacity="1" fill-rule="nonzero"/><path fill="#ffffff" d="M 19.945312 41.597656 C 18.953125 41.597656 18.140625 42.410156 18.140625 43.402344 L 18.140625 50.238281 C 18.140625 51.230469 18.953125 52.042969 19.945312 52.042969 C 20.941406 52.042969 21.75 51.230469 21.75 50.238281 L 21.75 43.402344 C 21.75 42.410156 20.941406 41.597656 19.945312 41.597656 " fill-opacity="1" fill-rule="nonzero"/><path fill="#ffffff" d="M 32.609375 62.316406 C 32.320312 62.316406 32.046875 62.15625 31.910156 61.878906 C 31.722656 61.496094 31.882812 61.03125 32.269531 60.84375 L 58.375 48.171875 C 58.761719 47.984375 59.226562 48.148438 59.410156 48.53125 C 59.597656 48.917969 59.4375 49.382812 59.054688 49.570312 L 32.949219 62.238281 C 32.835938 62.292969 32.722656 62.316406 32.609375 62.316406 " fill-opacity="1" fill-rule="nonzero"/><path fill="#ffffff" d="M 33.816406 67.816406 C 33.53125 67.816406 33.253906 67.65625 33.121094 67.378906 C 32.933594 66.992188 33.09375 66.527344 33.480469 66.339844 L 59.585938 53.671875 C 59.972656 53.484375 60.433594 53.644531 60.621094 54.03125 C 60.808594 54.417969 60.648438 54.878906 60.261719 55.066406 L 34.15625 67.738281 C 34.046875 67.789062 33.933594 67.816406 33.816406 67.816406 " fill-opacity="1" fill-rule="nonzero"/><path fill="#e3e2e2" d="M 74.230469 80.753906 L 18.304688 80.753906 C 15.347656 80.753906 12.945312 78.351562 12.945312 75.398438 L 12.945312 74.660156 C 14.597656 74.632812 16.246094 74.574219 17.894531 74.472656 C 18.449219 74.992188 19.226562 75.316406 20.082031 75.316406 L 72.449219 75.316406 C 74.128906 75.316406 75.496094 74.074219 75.496094 72.550781 L 75.496094 43.359375 C 75.496094 42.679688 75.226562 42.058594 74.78125 41.578125 C 74.921875 41.089844 75.039062 40.59375 75.125 40.097656 C 75.285156 39.152344 75.386719 38.214844 75.472656 37.277344 C 77.832031 37.839844 79.585938 39.964844 79.585938 42.488281 L 79.585938 75.398438 C 79.585938 78.351562 77.183594 80.753906 74.230469 80.753906 " fill-opacity="1" fill-rule="nonzero"/><path fill="#1d344f" d="M 74.230469 81.320312 L 18.304688 81.320312 C 15.039062 81.320312 12.378906 78.664062 12.378906 75.398438 L 12.378906 74.667969 C 12.570312 74.664062 12.757812 74.664062 12.945312 74.660156 L 12.945312 75.398438 C 12.945312 78.351562 15.347656 80.753906 18.304688 80.753906 L 74.230469 80.753906 C 77.183594 80.753906 79.585938 78.351562 79.585938 75.398438 L 79.585938 42.488281 C 79.585938 39.964844 77.832031 37.839844 75.472656 37.277344 C 75.492188 37.085938 75.507812 36.898438 75.527344 36.710938 C 78.171875 37.304688 80.152344 39.667969 80.152344 42.488281 L 80.152344 75.398438 C 80.152344 78.664062 77.496094 81.320312 74.230469 81.320312 " fill-opacity="1" fill-rule="nonzero"/><path fill="#7dbfdb" d="M 72.449219 74.695312 L 20.082031 74.695312 C 19.644531 74.695312 19.230469 74.589844 18.875 74.410156 C 23.816406 74.066406 28.734375 73.367188 33.582031 72.234375 C 39.699219 70.804688 45.683594 68.527344 51.25 65.617188 C 56.75 62.746094 62.128906 59.03125 66.53125 54.652344 C 69.046875 52.148438 71.4375 49.230469 72.96875 46.015625 C 73.261719 45.402344 73.558594 44.773438 73.835938 44.128906 C 74.140625 44.519531 74.320312 44.992188 74.320312 45.503906 L 74.320312 73.816406 C 74.320312 73.851562 74.320312 73.886719 74.316406 73.917969 C 73.871094 74.394531 73.199219 74.695312 72.449219 74.695312 " fill-opacity="1" fill-rule="nonzero"/><path fill="#1d344f" d="M 72.449219 75.316406 L 20.082031 75.316406 C 19.226562 75.316406 18.449219 74.992188 17.894531 74.472656 C 18.21875 74.453125 18.546875 74.433594 18.875 74.410156 C 19.230469 74.589844 19.644531 74.695312 20.082031 74.695312 L 72.449219 74.695312 C 73.199219 74.695312 73.871094 74.394531 74.316406 73.917969 C 74.308594 74.089844 74.28125 74.25 74.234375 74.410156 C 74.816406 73.960938 75.1875 73.292969 75.1875 72.550781 L 75.1875 43.359375 C 75.1875 42.824219 74.996094 42.328125 74.671875 41.925781 C 74.710938 41.808594 74.746094 41.695312 74.78125 41.578125 C 75.226562 42.058594 75.496094 42.679688 75.496094 43.359375 L 75.496094 72.550781 C 75.496094 74.074219 74.128906 75.316406 72.449219 75.316406 " fill-opacity="1" fill-rule="nonzero"/><path fill="#6192a9" d="M 74.316406 73.917969 C 74.320312 73.886719 74.320312 73.851562 74.320312 73.816406 L 74.320312 45.503906 C 74.320312 44.992188 74.140625 44.519531 73.835938 44.128906 C 74.097656 43.527344 74.34375 42.914062 74.554688 42.289062 C 74.761719 42.605469 74.878906 42.96875 74.878906 43.359375 L 74.878906 72.550781 C 74.878906 73.070312 74.667969 73.546875 74.316406 73.917969 " fill-opacity="1" fill-rule="nonzero"/><path fill="#182a40" d="M 74.234375 74.410156 C 74.28125 74.25 74.308594 74.089844 74.316406 73.917969 C 74.667969 73.546875 74.878906 73.070312 74.878906 72.550781 L 74.878906 43.359375 C 74.878906 42.96875 74.761719 42.605469 74.554688 42.289062 C 74.59375 42.167969 74.636719 42.046875 74.671875 41.925781 C 74.996094 42.328125 75.1875 42.824219 75.1875 43.359375 L 75.1875 72.550781 C 75.1875 73.292969 74.816406 73.960938 74.234375 74.410156 " fill-opacity="1" fill-rule="nonzero"/><path fill="#ffffff" d="M 64.527344 92.695312 L 28.039062 92.695312 L 28.039062 89.285156 L 64.527344 89.285156 L 64.527344 92.695312 " fill-opacity="1" fill-rule="nonzero"/><g clip-path="url(#41e6d1fecf)"><path fill="#203a56" d="M 28.351562 92.386719 L 64.21875 92.386719 L 64.21875 89.59375 L 28.351562 89.59375 Z M 64.527344 93.007812 L 28.039062 93.007812 C 27.867188 93.007812 27.730469 92.867188 27.730469 92.695312 L 27.730469 89.285156 C 27.730469 89.113281 27.867188 88.976562 28.039062 88.976562 L 64.527344 88.976562 C 64.699219 88.976562 64.839844 89.113281 64.839844 89.285156 L 64.839844 92.695312 C 64.839844 92.867188 64.699219 93.007812 64.527344 93.007812 " fill-opacity="1" fill-rule="nonzero"/></g></svg>